<?xml version="1.0" encoding="utf-8" standalone="no"?>
<!DOCTYPE svg PUBLIC "-//W3C//DTD SVG 1.1//EN"
  "http://www.w3.org/Graphics/SVG/1.1/DTD/svg11.dtd">
<svg xmlns:xlink="http://www.w3.org/1999/xlink" width="576pt" height="216pt" viewBox="0 0 576 216" xmlns="http://www.w3.org/2000/svg" version="1.1">
 <metadata>
  <rdf:RDF xmlns:dc="http://purl.org/dc/elements/1.1/" xmlns:cc="http://creativecommons.org/ns#" xmlns:rdf="http://www.w3.org/1999/02/22-rdf-syntax-ns#">
   <cc:Work>
    <dc:type rdf:resource="http://purl.org/dc/dcmitype/StillImage"/>
    <dc:date>2024-02-24T21:27:19.887576</dc:date>
    <dc:format>image/svg+xml</dc:format>
    <dc:creator>
     <cc:Agent>
      <dc:title>Matplotlib v3.7.1, https://matplotlib.org/</dc:title>
     </cc:Agent>
    </dc:creator>
   </cc:Work>
  </rdf:RDF>
 </metadata>
 <defs>
  <style type="text/css">*{stroke-linejoin: round; stroke-linecap: butt}</style>
 </defs>
 <g id="figure_1">
  <g id="patch_1">
   <path d="M 0 216 
L 576 216 
L 576 0 
L 0 0 
z
" style="fill: #ffffff"/>
  </g>
  <g id="axes_1">
   <g id="patch_2">
    <path d="M 202.988285 109.243778 
C 202.988285 102.128077 201.781736 95.063614 199.420027 88.351273 
C 197.058317 81.638931 193.57546 75.375378 189.119792 69.827385 
C 184.664124 64.279392 179.299814 59.526858 173.255335 55.772199 
C 167.210855 52.017539 160.573254 49.314827 153.625235 47.779174 
C 146.677216 46.24352 139.51884 45.897041 132.454989 46.754493 
C 125.391139 47.611944 118.523545 49.660979 112.144704 52.814325 
C 105.765863 55.967672 99.967641 60.179917 94.996989 65.271658 
C 90.026338 70.363399 85.954842 76.261306 82.95591 82.714183 
C 79.956979 89.167059 78.073801 96.081973 77.386583 103.164412 
C 76.699366 110.24685 77.218005 117.394815 78.920413 124.303868 
C 80.62282 131.212921 83.484478 137.783561 87.383505 143.735938 
C 91.282533 149.688314 96.162778 154.936704 101.816387 159.257574 
C 107.469995 163.578443 113.815547 166.909565 120.582777 169.109064 
C 127.350008 171.308562 134.44146 172.344761 141.5551 172.173527 
C 148.668741 172.002293 155.702123 170.626093 162.355689 168.103541 
C 169.009254 165.580988 175.187181 161.948411 180.626345 157.360526 
L 140.040307 109.243778 
z
" style="fill: #6699cc; opacity: 0.7"/>
   </g>
   <g id="patch_3">
    <path d="M 180.626345 157.360526 
C 184.252645 154.301775 187.521567 150.842863 190.370797 147.049726 
C 193.220027 143.256589 195.631344 139.153484 197.558782 134.818627 
L 140.040307 109.243778 
z
" style="fill: #ddcc77; opacity: 0.7"/>
   </g>
   <g id="patch_4">
    <path d="M 197.558782 134.818627 
C 198.584917 132.510826 199.471228 130.143357 200.21291 127.729065 
C 200.954591 125.314773 201.550298 122.858029 201.9968 120.372162 
L 140.040307 109.243778 
z
" style="fill: #44aa99; opacity: 0.7"/>
   </g>
   <g id="patch_5">
    <path d="M 201.9968 120.372162 
C 202.326479 118.536697 202.574432 116.687487 202.739924 114.830006 
C 202.905416 112.972526 202.988285 111.108608 202.988285 109.243769 
L 140.040307 109.243778 
z
" style="fill: #882255; opacity: 0.7"/>
   </g>
   <g id="matplotlib.axis_1">
    <g id="text_1">
     <!-- % of "flipped "transactions by property type -->
     <g transform="translate(39.838745 199.72875) scale(0.1 -0.1)">
      <defs>
       <path id="FiraSans-Regular-25" d="M 3923 4550 
L 960 70 
L 1370 -198 
L 4333 4282 
L 3923 4550 
z
M 1325 4346 
C 730 4346 288 3930 288 3264 
C 288 2598 730 2182 1325 2182 
C 1926 2182 2368 2598 2368 3264 
C 2368 3930 1926 4346 1325 4346 
z
M 1325 3949 
C 1741 3949 1843 3597 1843 3264 
C 1843 2918 1741 2579 1325 2579 
C 915 2579 806 2931 806 3264 
C 806 3610 915 3949 1325 3949 
z
M 3962 2086 
C 3360 2086 2918 1670 2918 1005 
C 2918 339 3360 -77 3962 -77 
C 4563 -77 4998 339 4998 1005 
C 4998 1670 4563 2086 3962 2086 
z
M 3962 1683 
C 4378 1683 4480 1338 4480 1005 
C 4480 659 4378 320 3962 320 
C 3552 320 3443 672 3443 1005 
C 3443 1350 3552 1683 3962 1683 
z
" transform="scale(0.015625)"/>
       <path id="FiraSans-Regular-20" transform="scale(0.015625)"/>
       <path id="FiraSans-Regular-6f" d="M 1875 3450 
C 915 3450 365 2726 365 1683 
C 365 614 909 -77 1869 -77 
C 2822 -77 3373 646 3373 1690 
C 3373 2758 2835 3450 1875 3450 
z
M 1875 2976 
C 2432 2976 2739 2566 2739 1690 
C 2739 806 2432 397 1869 397 
C 1306 397 998 806 998 1683 
C 998 2566 1312 2976 1875 2976 
z
" transform="scale(0.015625)"/>
       <path id="FiraSans-Regular-66" d="M 1754 4326 
C 1926 4326 2125 4294 2342 4198 
L 2528 4627 
C 2259 4742 2042 4800 1722 4800 
C 1037 4800 666 4397 666 3834 
L 666 3373 
L 64 3373 
L 64 2918 
L 666 2918 
L 666 0 
L 1254 0 
L 1254 2918 
L 2010 2918 
L 2074 3373 
L 1254 3373 
L 1254 3840 
C 1254 4166 1382 4326 1754 4326 
z
" transform="scale(0.015625)"/>
       <path id="FiraSans-Regular-22" d="M 480 2733 
L 922 2733 
L 1018 4410 
L 384 4410 
L 480 2733 
z
M 1632 2733 
L 2074 2733 
L 2170 4410 
L 1536 4410 
L 1632 2733 
z
" transform="scale(0.015625)"/>
       <path id="FiraSans-Regular-6c" d="M 1280 -77 
C 1453 -77 1619 -32 1747 38 
L 1594 448 
C 1530 422 1459 410 1376 410 
C 1222 410 1165 499 1165 678 
L 1165 4800 
L 576 4730 
L 576 666 
C 576 186 851 -77 1280 -77 
z
" transform="scale(0.015625)"/>
       <path id="FiraSans-Regular-69" d="M 896 4992 
C 653 4992 486 4819 486 4589 
C 486 4365 653 4192 896 4192 
C 1146 4192 1312 4365 1312 4589 
C 1312 4819 1146 4992 896 4992 
z
M 1197 3373 
L 608 3373 
L 608 0 
L 1197 0 
L 1197 3373 
z
" transform="scale(0.015625)"/>
       <path id="FiraSans-Regular-70" d="M 2157 3450 
C 1773 3450 1408 3264 1158 2918 
L 1114 3373 
L 608 3373 
L 608 -1363 
L 1197 -1293 
L 1197 307 
C 1414 45 1715 -77 2080 -77 
C 2950 -77 3405 666 3405 1690 
C 3405 2752 3053 3450 2157 3450 
z
M 1939 403 
C 1632 403 1370 550 1197 813 
L 1197 2458 
C 1376 2726 1651 2982 2010 2982 
C 2515 2982 2771 2566 2771 1690 
C 2771 806 2477 403 1939 403 
z
" transform="scale(0.015625)"/>
       <path id="FiraSans-Regular-65" d="M 3155 1786 
C 3155 2816 2675 3450 1766 3450 
C 896 3450 365 2701 365 1651 
C 365 582 915 -77 1856 -77 
C 2323 -77 2701 83 3034 346 
L 2778 698 
C 2483 493 2234 403 1901 403 
C 1414 403 1050 704 992 1485 
L 3142 1485 
C 3149 1562 3155 1670 3155 1786 
z
M 2573 1920 
L 992 1920 
C 1037 2669 1331 2982 1779 2982 
C 2310 2982 2573 2618 2573 1958 
L 2573 1920 
z
" transform="scale(0.015625)"/>
       <path id="FiraSans-Regular-64" d="M 2630 4800 
L 2630 3034 
C 2406 3270 2118 3450 1722 3450 
C 896 3450 397 2701 397 1670 
C 397 621 851 -77 1670 -77 
C 2086 -77 2426 128 2643 467 
L 2701 0 
L 3219 0 
L 3219 4730 
L 2630 4800 
z
M 1798 390 
C 1312 390 1030 794 1030 1683 
C 1030 2560 1344 2982 1850 2982 
C 2182 2982 2419 2810 2630 2541 
L 2630 890 
C 2406 576 2176 390 1798 390 
z
" transform="scale(0.015625)"/>
       <path id="FiraSans-Regular-74" d="M 2086 544 
C 1920 454 1786 410 1638 410 
C 1344 410 1235 570 1235 909 
L 1235 2918 
L 1971 2918 
L 2035 3373 
L 1235 3373 
L 1235 4205 
L 646 4134 
L 646 3373 
L 58 3373 
L 58 2918 
L 646 2918 
L 646 883 
C 646 256 986 -77 1555 -77 
C 1843 -77 2086 0 2310 154 
L 2086 544 
z
" transform="scale(0.015625)"/>
       <path id="FiraSans-Regular-72" d="M 2074 3450 
C 1664 3450 1350 3194 1171 2688 
L 1114 3373 
L 608 3373 
L 608 0 
L 1197 0 
L 1197 1926 
C 1338 2573 1581 2874 2003 2874 
C 2125 2874 2195 2861 2298 2835 
L 2406 3411 
C 2304 3437 2182 3450 2074 3450 
z
" transform="scale(0.015625)"/>
       <path id="FiraSans-Regular-61" d="M 2880 787 
L 2880 2330 
C 2880 3034 2509 3450 1696 3450 
C 1318 3450 947 3373 531 3219 
L 678 2790 
C 1024 2906 1338 2970 1587 2970 
C 2054 2970 2291 2790 2291 2304 
L 2291 2054 
L 1773 2054 
C 832 2054 288 1664 288 941 
C 288 339 691 -77 1363 -77 
C 1773 -77 2131 77 2368 429 
C 2470 96 2688 -38 3027 -77 
L 3162 333 
C 2989 397 2880 493 2880 787 
z
M 1498 365 
C 1114 365 915 576 915 973 
C 915 1434 1229 1664 1850 1664 
L 2291 1664 
L 2291 890 
C 2099 538 1843 365 1498 365 
z
" transform="scale(0.015625)"/>
       <path id="FiraSans-Regular-6e" d="M 2195 3450 
C 1754 3450 1395 3219 1165 2874 
L 1114 3373 
L 608 3373 
L 608 0 
L 1197 0 
L 1197 2394 
C 1421 2752 1677 2989 2054 2989 
C 2381 2989 2586 2842 2586 2336 
L 2586 0 
L 3174 0 
L 3174 2419 
C 3174 3059 2816 3450 2195 3450 
z
" transform="scale(0.015625)"/>
       <path id="FiraSans-Regular-73" d="M 1523 3450 
C 826 3450 307 3059 307 2522 
C 307 2048 595 1734 1325 1542 
C 1978 1370 2144 1242 2144 909 
C 2144 589 1862 397 1421 397 
C 1056 397 742 518 474 723 
L 160 365 
C 454 109 864 -77 1434 -77 
C 2118 -77 2765 243 2765 947 
C 2765 1536 2355 1818 1645 1997 
C 1101 2138 922 2266 922 2541 
C 922 2810 1158 2982 1542 2982 
C 1856 2982 2118 2886 2419 2694 
L 2669 3066 
C 2349 3309 1997 3450 1523 3450 
z
" transform="scale(0.015625)"/>
       <path id="FiraSans-Regular-63" d="M 1837 3450 
C 922 3450 365 2733 365 1658 
C 365 570 928 -77 1837 -77 
C 2227 -77 2566 51 2867 294 
L 2598 678 
C 2342 512 2144 422 1862 422 
C 1331 422 998 787 998 1670 
C 998 2547 1331 2963 1862 2963 
C 2144 2963 2355 2880 2586 2714 
L 2867 3085 
C 2554 3347 2234 3450 1837 3450 
z
" transform="scale(0.015625)"/>
       <path id="FiraSans-Regular-62" d="M 2150 3450 
C 1741 3450 1427 3264 1197 2950 
L 1197 4800 
L 608 4730 
L 608 0 
L 1126 0 
L 1184 371 
C 1414 90 1709 -77 2080 -77 
C 2899 -77 3405 634 3405 1690 
C 3405 2816 2912 3450 2150 3450 
z
M 1939 390 
C 1638 390 1370 576 1197 845 
L 1197 2458 
C 1370 2726 1613 2982 1984 2982 
C 2458 2982 2771 2650 2771 1690 
C 2771 768 2432 390 1939 390 
z
" transform="scale(0.015625)"/>
       <path id="FiraSans-Regular-79" d="M 3085 3373 
L 2477 3373 
L 1594 429 
L 691 3373 
L 64 3373 
L 1197 0 
L 1395 0 
C 1203 -525 1011 -787 326 -902 
L 390 -1363 
C 1325 -1261 1722 -736 1958 -19 
L 3085 3373 
z
" transform="scale(0.015625)"/>
      </defs>
      <use xlink:href="#FiraSans-Regular-25"/>
      <use xlink:href="#FiraSans-Regular-20" x="82.599991"/>
      <use xlink:href="#FiraSans-Regular-6f" x="109.099976"/>
      <use xlink:href="#FiraSans-Regular-66" x="167.499969"/>
      <use xlink:href="#FiraSans-Regular-20" x="200.999954"/>
      <use xlink:href="#FiraSans-Regular-22" x="227.499939"/>
      <use xlink:href="#FiraSans-Regular-66" x="267.399933"/>
      <use xlink:href="#FiraSans-Regular-6c" x="300.899918"/>
      <use xlink:href="#FiraSans-Regular-69" x="330.199905"/>
      <use xlink:href="#FiraSans-Regular-70" x="358.399902"/>
      <use xlink:href="#FiraSans-Regular-70" x="417.799896"/>
      <use xlink:href="#FiraSans-Regular-65" x="477.19989"/>
      <use xlink:href="#FiraSans-Regular-64" x="531.699875"/>
      <use xlink:href="#FiraSans-Regular-20" x="591.499863"/>
      <use xlink:href="#FiraSans-Regular-22" x="617.999847"/>
      <use xlink:href="#FiraSans-Regular-74" x="657.899841"/>
      <use xlink:href="#FiraSans-Regular-72" x="693.999832"/>
      <use xlink:href="#FiraSans-Regular-61" x="732.599823"/>
      <use xlink:href="#FiraSans-Regular-6e" x="786.999817"/>
      <use xlink:href="#FiraSans-Regular-73" x="845.599808"/>
      <use xlink:href="#FiraSans-Regular-61" x="892.299805"/>
      <use xlink:href="#FiraSans-Regular-63" x="946.699799"/>
      <use xlink:href="#FiraSans-Regular-74" x="994.499786"/>
      <use xlink:href="#FiraSans-Regular-69" x="1030.599777"/>
      <use xlink:href="#FiraSans-Regular-6f" x="1058.799774"/>
      <use xlink:href="#FiraSans-Regular-6e" x="1117.199768"/>
      <use xlink:href="#FiraSans-Regular-73" x="1175.799759"/>
      <use xlink:href="#FiraSans-Regular-20" x="1222.499756"/>
      <use xlink:href="#FiraSans-Regular-62" x="1248.999741"/>
      <use xlink:href="#FiraSans-Regular-79" x="1308.399734"/>
      <use xlink:href="#FiraSans-Regular-20" x="1357.599731"/>
      <use xlink:href="#FiraSans-Regular-70" x="1384.099716"/>
      <use xlink:href="#FiraSans-Regular-72" x="1443.49971"/>
      <use xlink:href="#FiraSans-Regular-6f" x="1482.099701"/>
      <use xlink:href="#FiraSans-Regular-70" x="1540.499695"/>
      <use xlink:href="#FiraSans-Regular-65" x="1599.899689"/>
      <use xlink:href="#FiraSans-Regular-72" x="1654.399673"/>
      <use xlink:href="#FiraSans-Regular-74" x="1692.999664"/>
      <use xlink:href="#FiraSans-Regular-79" x="1729.099655"/>
      <use xlink:href="#FiraSans-Regular-20" x="1778.299652"/>
      <use xlink:href="#FiraSans-Regular-74" x="1804.799637"/>
      <use xlink:href="#FiraSans-Regular-79" x="1840.899628"/>
      <use xlink:href="#FiraSans-Regular-70" x="1890.099625"/>
      <use xlink:href="#FiraSans-Regular-65" x="1949.499619"/>
     </g>
    </g>
   </g>
   <g id="matplotlib.axis_2"/>
   <g id="text_2">
    <!-- RCD -->
    <g transform="translate(59.156845 82.746379) scale(0.1 -0.1)">
     <defs>
      <path id="FiraSans-Regular-52" d="M 2989 0 
L 3712 0 
L 2522 1978 
C 3155 2170 3475 2541 3475 3162 
C 3475 3987 2899 4410 1798 4410 
L 640 4410 
L 640 0 
L 1248 0 
L 1248 1869 
L 1933 1869 
L 2989 0 
z
M 1248 2336 
L 1248 3936 
L 1792 3936 
C 2515 3936 2829 3712 2829 3162 
C 2829 2566 2477 2336 1862 2336 
L 1248 2336 
z
" transform="scale(0.015625)"/>
      <path id="FiraSans-Regular-43" d="M 2182 4486 
C 1184 4486 352 3699 352 2208 
C 352 723 1126 -77 2195 -77 
C 2790 -77 3213 166 3456 416 
L 3155 800 
C 2906 614 2630 435 2214 435 
C 1530 435 998 934 998 2208 
C 998 3539 1555 3987 2221 3987 
C 2528 3987 2797 3885 3072 3661 
L 3405 4051 
C 3053 4333 2739 4486 2182 4486 
z
" transform="scale(0.015625)"/>
      <path id="FiraSans-Regular-44" d="M 1562 4410 
L 640 4410 
L 640 0 
L 1696 0 
C 2650 0 3770 429 3770 2227 
C 3770 4058 2688 4410 1562 4410 
z
M 1696 3923 
C 2400 3923 3123 3718 3123 2227 
C 3123 774 2432 480 1741 480 
L 1248 480 
L 1248 3923 
L 1696 3923 
z
" transform="scale(0.015625)"/>
     </defs>
     <use xlink:href="#FiraSans-Regular-52"/>
     <use xlink:href="#FiraSans-Regular-43" x="60.499985"/>
     <use xlink:href="#FiraSans-Regular-44" x="116.499969"/>
    </g>
   </g>
   <g id="text_3">
    <!-- 86.2% -->
    <g transform="translate(92.56545 96.011177) scale(0.1 -0.1)">
     <defs>
      <path id="FiraSans-Regular-38" d="M 2336 2298 
C 2822 2541 3066 2829 3066 3264 
C 3066 3994 2406 4346 1766 4346 
C 1114 4346 467 3968 467 3245 
C 467 2803 672 2477 1133 2246 
C 608 2016 288 1683 288 1133 
C 288 429 870 -77 1754 -77 
C 2624 -77 3238 429 3238 1146 
C 3238 1683 2925 2061 2336 2298 
z
M 1766 3904 
C 2234 3904 2490 3642 2490 3245 
C 2490 2880 2330 2656 1946 2438 
L 1837 2477 
C 1344 2637 1043 2797 1043 3238 
C 1043 3667 1325 3904 1766 3904 
z
M 1760 390 
C 1229 390 902 666 902 1133 
C 902 1600 1107 1894 1530 2099 
L 1690 2042 
C 2381 1805 2624 1600 2624 1139 
C 2624 691 2298 390 1760 390 
z
" transform="scale(0.015625)"/>
      <path id="FiraSans-Regular-36" d="M 1971 2816 
C 1568 2816 1222 2650 941 2253 
C 973 3232 1344 3878 1965 3878 
C 2202 3878 2426 3814 2624 3693 
L 2854 4083 
C 2605 4250 2317 4346 1971 4346 
C 960 4346 352 3411 352 2010 
C 352 781 749 -77 1792 -77 
C 2547 -77 3155 518 3155 1453 
C 3155 2368 2598 2816 1971 2816 
z
M 1792 390 
C 1222 390 973 826 947 1760 
C 1165 2112 1485 2349 1869 2349 
C 2272 2349 2560 2112 2560 1434 
C 2560 806 2298 390 1792 390 
z
" transform="scale(0.015625)"/>
      <path id="FiraSans-Regular-2e" d="M 762 813 
C 512 813 320 614 320 371 
C 320 122 512 -77 762 -77 
C 1018 -77 1210 122 1210 371 
C 1210 614 1018 813 762 813 
z
" transform="scale(0.015625)"/>
      <path id="FiraSans-Regular-32" d="M 1459 4346 
C 922 4346 506 4128 160 3699 
L 544 3392 
C 832 3718 1069 3859 1427 3859 
C 1843 3859 2131 3597 2131 3149 
C 2131 2451 1760 2042 250 467 
L 250 0 
L 2778 0 
L 2848 493 
L 922 493 
C 2234 1805 2746 2374 2746 3174 
C 2746 3840 2246 4346 1459 4346 
z
" transform="scale(0.015625)"/>
     </defs>
     <use xlink:href="#FiraSans-Regular-38"/>
     <use xlink:href="#FiraSans-Regular-36" x="55.099991"/>
     <use xlink:href="#FiraSans-Regular-2e" x="108.399979"/>
     <use xlink:href="#FiraSans-Regular-32" x="132.399963"/>
     <use xlink:href="#FiraSans-Regular-25" x="181.899948"/>
    </g>
   </g>
   <g id="text_4">
    <!-- OTHER -->
    <g transform="translate(195.403846 153.515477) scale(0.1 -0.1)">
     <defs>
      <path id="FiraSans-Regular-4f" d="M 2214 4486 
C 1114 4486 352 3648 352 2195 
C 352 717 1114 -77 2214 -77 
C 3322 -77 4077 742 4077 2202 
C 4077 3686 3322 4486 2214 4486 
z
M 2214 3987 
C 2970 3987 3430 3469 3430 2202 
C 3430 922 2957 422 2214 422 
C 1498 422 998 922 998 2195 
C 998 3469 1478 3987 2214 3987 
z
" transform="scale(0.015625)"/>
      <path id="FiraSans-Regular-54" d="M 3245 4410 
L 96 4410 
L 96 3891 
L 1350 3891 
L 1350 0 
L 1958 0 
L 1958 3891 
L 3181 3891 
L 3245 4410 
z
" transform="scale(0.015625)"/>
      <path id="FiraSans-Regular-48" d="M 3104 0 
L 3712 0 
L 3712 4410 
L 3104 4410 
L 3104 2566 
L 1248 2566 
L 1248 4410 
L 640 4410 
L 640 0 
L 1248 0 
L 1248 2067 
L 3104 2067 
L 3104 0 
z
" transform="scale(0.015625)"/>
      <path id="FiraSans-Regular-45" d="M 3027 4410 
L 640 4410 
L 640 0 
L 3078 0 
L 3078 486 
L 1248 486 
L 1248 1997 
L 2733 1997 
L 2733 2483 
L 1248 2483 
L 1248 3923 
L 2957 3923 
L 3027 4410 
z
" transform="scale(0.015625)"/>
     </defs>
     <use xlink:href="#FiraSans-Regular-4f"/>
     <use xlink:href="#FiraSans-Regular-54" x="69.199982"/>
     <use xlink:href="#FiraSans-Regular-48" x="120.899979"/>
     <use xlink:href="#FiraSans-Regular-45" x="188.899963"/>
     <use xlink:href="#FiraSans-Regular-52" x="242.399948"/>
    </g>
   </g>
   <g id="text_5">
    <!-- 7.2% -->
    <g transform="translate(160.213601 134.612503) scale(0.1 -0.1)">
     <defs>
      <path id="FiraSans-Regular-37" d="M 2650 4282 
L 160 4282 
L 160 3802 
L 2054 3802 
L 512 115 
L 1050 -64 
L 2650 3840 
L 2650 4282 
z
" transform="scale(0.015625)"/>
     </defs>
     <use xlink:href="#FiraSans-Regular-37"/>
     <use xlink:href="#FiraSans-Regular-2e" x="44.399994"/>
     <use xlink:href="#FiraSans-Regular-32" x="68.399979"/>
     <use xlink:href="#FiraSans-Regular-25" x="117.899963"/>
    </g>
   </g>
   <g id="text_6">
    <!-- R1F -->
    <g transform="translate(206.23017 132.26275) scale(0.1 -0.1)">
     <defs>
      <path id="FiraSans-Regular-31" d="M 2067 4282 
L 1549 4282 
L 224 3462 
L 480 3046 
L 1478 3654 
L 1478 0 
L 2067 0 
L 2067 4282 
z
" transform="scale(0.015625)"/>
      <path id="FiraSans-Regular-46" d="M 640 0 
L 1248 0 
L 1248 1939 
L 2688 1939 
L 2688 2419 
L 1248 2419 
L 1248 3923 
L 2912 3923 
L 2982 4410 
L 640 4410 
L 640 0 
z
" transform="scale(0.015625)"/>
     </defs>
     <use xlink:href="#FiraSans-Regular-52"/>
     <use xlink:href="#FiraSans-Regular-31" x="60.499985"/>
     <use xlink:href="#FiraSans-Regular-46" x="103.799973"/>
    </g>
   </g>
   <g id="text_7">
    <!-- 3.8% -->
    <g transform="translate(165.564181 123.020106) scale(0.1 -0.1)">
     <defs>
      <path id="FiraSans-Regular-33" d="M 1440 4346 
C 979 4346 582 4179 218 3840 
L 525 3488 
C 813 3757 1069 3872 1408 3872 
C 1837 3872 2118 3622 2118 3219 
C 2118 2720 1766 2464 1344 2464 
L 1126 2464 
L 1056 2010 
L 1376 2010 
C 1894 2010 2227 1830 2227 1242 
C 2227 736 1901 403 1363 403 
C 1018 403 730 531 448 826 
L 96 499 
C 422 109 870 -77 1382 -77 
C 2272 -77 2842 486 2842 1235 
C 2842 1882 2413 2221 1875 2272 
C 2355 2387 2707 2714 2707 3258 
C 2707 3834 2259 4346 1440 4346 
z
" transform="scale(0.015625)"/>
     </defs>
     <use xlink:href="#FiraSans-Regular-33"/>
     <use xlink:href="#FiraSans-Regular-2e" x="49.899994"/>
     <use xlink:href="#FiraSans-Regular-38" x="73.899979"/>
     <use xlink:href="#FiraSans-Regular-25" x="128.999969"/>
    </g>
   </g>
   <g id="text_8">
    <!-- COM -->
    <g transform="translate(209.009886 118.073785) scale(0.1 -0.1)">
     <defs>
      <path id="FiraSans-Regular-4d" d="M 4218 4410 
L 3392 4410 
L 2509 1203 
L 1581 4410 
L 762 4410 
L 397 0 
L 973 0 
L 1120 1946 
C 1171 2592 1203 3277 1203 3795 
L 2208 499 
L 2778 499 
L 3731 3789 
C 3738 3424 3782 2682 3840 1990 
L 3994 0 
L 4582 0 
L 4218 4410 
z
" transform="scale(0.015625)"/>
     </defs>
     <use xlink:href="#FiraSans-Regular-43"/>
     <use xlink:href="#FiraSans-Regular-4f" x="55.999985"/>
     <use xlink:href="#FiraSans-Regular-4d" x="125.199966"/>
    </g>
   </g>
   <g id="text_9">
    <!-- 2.8% -->
    <g transform="translate(167.100702 115.280671) scale(0.1 -0.1)">
     <use xlink:href="#FiraSans-Regular-32"/>
     <use xlink:href="#FiraSans-Regular-2e" x="49.499985"/>
     <use xlink:href="#FiraSans-Regular-38" x="73.499969"/>
     <use xlink:href="#FiraSans-Regular-25" x="128.59996"/>
    </g>
   </g>
  </g>
  <g id="axes_2">
   <g id="patch_6">
    <path d="M 306.719385 187.92875 
L 565.2 187.92875 
L 565.2 30.558806 
L 306.719385 30.558806 
z
" style="fill: #ffffff"/>
   </g>
   <g id="patch_7">
    <path d="M 323.288655 187.92875 
L 336.544071 187.92875 
L 336.544071 44.557889 
L 323.288655 44.557889 
z
" clip-path="url(#p2ce343df5c)" style="fill: #6699cc; opacity: 0.7"/>
   </g>
   <g id="patch_8">
    <path d="M 389.565736 187.92875 
L 402.821152 187.92875 
L 402.821152 175.964834 
L 389.565736 175.964834 
z
" clip-path="url(#p2ce343df5c)" style="fill: #6699cc; opacity: 0.7"/>
   </g>
   <g id="patch_9">
    <path d="M 455.842817 187.92875 
L 469.098233 187.92875 
L 469.098233 181.554533 
L 455.842817 181.554533 
z
" clip-path="url(#p2ce343df5c)" style="fill: #6699cc; opacity: 0.7"/>
   </g>
   <g id="patch_10">
    <path d="M 522.119898 187.92875 
L 535.375314 187.92875 
L 535.375314 183.221636 
L 522.119898 183.221636 
z
" clip-path="url(#p2ce343df5c)" style="fill: #6699cc; opacity: 0.7"/>
   </g>
   <g id="patch_11">
    <path d="M 336.544071 187.92875 
L 349.799488 187.92875 
L 349.799488 38.052613 
L 336.544071 38.052613 
z
" clip-path="url(#p2ce343df5c)" style="fill: #ddcc77; opacity: 0.7"/>
   </g>
   <g id="patch_12">
    <path d="M 402.821152 187.92875 
L 416.076568 187.92875 
L 416.076568 179.079424 
L 402.821152 179.079424 
z
" clip-path="url(#p2ce343df5c)" style="fill: #ddcc77; opacity: 0.7"/>
   </g>
   <g id="patch_13">
    <path d="M 469.098233 187.92875 
L 482.353649 187.92875 
L 482.353649 183.690424 
L 469.098233 183.690424 
z
" clip-path="url(#p2ce343df5c)" style="fill: #ddcc77; opacity: 0.7"/>
   </g>
   <g id="patch_14">
    <path d="M 535.375314 187.92875 
L 548.63073 187.92875 
L 548.63073 184.476429 
L 535.375314 184.476429 
z
" clip-path="url(#p2ce343df5c)" style="fill: #ddcc77; opacity: 0.7"/>
   </g>
   <g id="matplotlib.axis_3">
    <g id="xtick_1">
     <g id="line2d_1">
      <defs>
       <path id="md056b786ca" d="M 0 0 
L 0 3.5 
" style="stroke: #000000; stroke-width: 0.8"/>
      </defs>
      <g>
       <use xlink:href="#md056b786ca" x="336.544071" y="187.92875" style="stroke: #000000; stroke-width: 0.8"/>
      </g>
     </g>
     <g id="text_10">
      <!-- RCD -->
      <g transform="translate(327.498759 202.42875) scale(0.1 -0.1)">
       <use xlink:href="#FiraSans-Regular-52"/>
       <use xlink:href="#FiraSans-Regular-43" x="60.499985"/>
       <use xlink:href="#FiraSans-Regular-44" x="116.499969"/>
      </g>
     </g>
    </g>
    <g id="xtick_2">
     <g id="line2d_2">
      <g>
       <use xlink:href="#md056b786ca" x="402.821152" y="187.92875" style="stroke: #000000; stroke-width: 0.8"/>
      </g>
     </g>
     <g id="text_11">
      <!-- OTHER -->
      <g transform="translate(387.67584 202.42875) scale(0.1 -0.1)">
       <use xlink:href="#FiraSans-Regular-4f"/>
       <use xlink:href="#FiraSans-Regular-54" x="69.199982"/>
       <use xlink:href="#FiraSans-Regular-48" x="120.899979"/>
       <use xlink:href="#FiraSans-Regular-45" x="188.899963"/>
       <use xlink:href="#FiraSans-Regular-52" x="242.399948"/>
      </g>
     </g>
    </g>
    <g id="xtick_3">
     <g id="line2d_3">
      <g>
       <use xlink:href="#md056b786ca" x="469.098233" y="187.92875" style="stroke: #000000; stroke-width: 0.8"/>
      </g>
     </g>
     <g id="text_12">
      <!-- R1F -->
      <g transform="translate(461.453702 202.42875) scale(0.1 -0.1)">
       <use xlink:href="#FiraSans-Regular-52"/>
       <use xlink:href="#FiraSans-Regular-31" x="60.499985"/>
       <use xlink:href="#FiraSans-Regular-46" x="103.799973"/>
      </g>
     </g>
    </g>
    <g id="xtick_4">
     <g id="line2d_4">
      <g>
       <use xlink:href="#md056b786ca" x="535.375314" y="187.92875" style="stroke: #000000; stroke-width: 0.8"/>
      </g>
     </g>
     <g id="text_13">
      <!-- COM -->
      <g transform="translate(525.225314 202.42875) scale(0.1 -0.1)">
       <use xlink:href="#FiraSans-Regular-43"/>
       <use xlink:href="#FiraSans-Regular-4f" x="55.999985"/>
       <use xlink:href="#FiraSans-Regular-4d" x="125.199966"/>
      </g>
     </g>
    </g>
   </g>
   <g id="matplotlib.axis_4">
    <g id="ytick_1">
     <g id="line2d_5">
      <defs>
       <path id="m9687818f68" d="M 0 0 
L -3.5 0 
" style="stroke: #000000; stroke-width: 0.8"/>
      </defs>
      <g>
       <use xlink:href="#m9687818f68" x="306.719385" y="187.92875" style="stroke: #000000; stroke-width: 0.8"/>
      </g>
     </g>
     <g id="text_14">
      <!-- 0.0 -->
      <g transform="translate(286.16001 191.67875) scale(0.1 -0.1)">
       <defs>
        <path id="FiraSans-Regular-30" d="M 1786 4346 
C 826 4346 352 3558 352 2138 
C 352 717 826 -77 1786 -77 
C 2746 -77 3219 717 3219 2138 
C 3219 3552 2746 4346 1786 4346 
z
M 1786 3878 
C 2317 3878 2605 3392 2605 2138 
C 2605 877 2317 390 1786 390 
C 1248 390 966 877 966 2138 
C 966 3392 1248 3878 1786 3878 
z
" transform="scale(0.015625)"/>
       </defs>
       <use xlink:href="#FiraSans-Regular-30"/>
       <use xlink:href="#FiraSans-Regular-2e" x="55.799988"/>
       <use xlink:href="#FiraSans-Regular-30" x="79.799973"/>
      </g>
     </g>
    </g>
    <g id="ytick_2">
     <g id="line2d_6">
      <g>
       <use xlink:href="#m9687818f68" x="306.719385" y="154.645528" style="stroke: #000000; stroke-width: 0.8"/>
      </g>
     </g>
     <g id="text_15">
      <!-- 0.2 -->
      <g transform="translate(286.789698 158.395528) scale(0.1 -0.1)">
       <use xlink:href="#FiraSans-Regular-30"/>
       <use xlink:href="#FiraSans-Regular-2e" x="55.799988"/>
       <use xlink:href="#FiraSans-Regular-32" x="79.799973"/>
      </g>
     </g>
    </g>
    <g id="ytick_3">
     <g id="line2d_7">
      <g>
       <use xlink:href="#m9687818f68" x="306.719385" y="121.362306" style="stroke: #000000; stroke-width: 0.8"/>
      </g>
     </g>
     <g id="text_16">
      <!-- 0.4 -->
      <g transform="translate(286.419385 125.112306) scale(0.1 -0.1)">
       <defs>
        <path id="FiraSans-Regular-34" d="M 3213 1523 
L 2656 1523 
L 2656 2675 
L 2144 2675 
L 2093 1523 
L 877 1523 
L 2035 4141 
L 1542 4346 
L 256 1478 
L 256 1056 
L 2086 1056 
L 2086 0 
L 2656 0 
L 2656 1056 
L 3213 1056 
L 3213 1523 
z
" transform="scale(0.015625)"/>
       </defs>
       <use xlink:href="#FiraSans-Regular-30"/>
       <use xlink:href="#FiraSans-Regular-2e" x="55.799988"/>
       <use xlink:href="#FiraSans-Regular-34" x="79.799973"/>
      </g>
     </g>
    </g>
    <g id="ytick_4">
     <g id="line2d_8">
      <g>
       <use xlink:href="#m9687818f68" x="306.719385" y="88.079085" style="stroke: #000000; stroke-width: 0.8"/>
      </g>
     </g>
     <g id="text_17">
      <!-- 0.6 -->
      <g transform="translate(286.41001 91.829085) scale(0.1 -0.1)">
       <use xlink:href="#FiraSans-Regular-30"/>
       <use xlink:href="#FiraSans-Regular-2e" x="55.799988"/>
       <use xlink:href="#FiraSans-Regular-36" x="79.799973"/>
      </g>
     </g>
    </g>
    <g id="ytick_5">
     <g id="line2d_9">
      <g>
       <use xlink:href="#m9687818f68" x="306.719385" y="54.795863" style="stroke: #000000; stroke-width: 0.8"/>
      </g>
     </g>
     <g id="text_18">
      <!-- 0.8 -->
      <g transform="translate(286.230323 58.545863) scale(0.1 -0.1)">
       <use xlink:href="#FiraSans-Regular-30"/>
       <use xlink:href="#FiraSans-Regular-2e" x="55.799988"/>
       <use xlink:href="#FiraSans-Regular-38" x="79.799973"/>
      </g>
     </g>
    </g>
    <g id="text_19">
     <!-- % of transactions -->
     <g transform="translate(280.030323 148.848466) rotate(-90) scale(0.1 -0.1)">
      <use xlink:href="#FiraSans-Regular-25"/>
      <use xlink:href="#FiraSans-Regular-20" x="82.599991"/>
      <use xlink:href="#FiraSans-Regular-6f" x="109.099976"/>
      <use xlink:href="#FiraSans-Regular-66" x="167.499969"/>
      <use xlink:href="#FiraSans-Regular-20" x="200.999954"/>
      <use xlink:href="#FiraSans-Regular-74" x="227.499939"/>
      <use xlink:href="#FiraSans-Regular-72" x="263.59993"/>
      <use xlink:href="#FiraSans-Regular-61" x="302.199921"/>
      <use xlink:href="#FiraSans-Regular-6e" x="356.599915"/>
      <use xlink:href="#FiraSans-Regular-73" x="415.199905"/>
      <use xlink:href="#FiraSans-Regular-61" x="461.899902"/>
      <use xlink:href="#FiraSans-Regular-63" x="516.299896"/>
      <use xlink:href="#FiraSans-Regular-74" x="564.099884"/>
      <use xlink:href="#FiraSans-Regular-69" x="600.199875"/>
      <use xlink:href="#FiraSans-Regular-6f" x="628.399872"/>
      <use xlink:href="#FiraSans-Regular-6e" x="686.799866"/>
      <use xlink:href="#FiraSans-Regular-73" x="745.399857"/>
     </g>
    </g>
   </g>
   <g id="patch_15">
    <path d="M 306.719385 187.92875 
L 306.719385 30.558806 
" style="fill: none; stroke: #000000; stroke-width: 0.8; stroke-linejoin: miter; stroke-linecap: square"/>
   </g>
   <g id="patch_16">
    <path d="M 306.719385 187.92875 
L 565.2 187.92875 
" style="fill: none; stroke: #000000; stroke-width: 0.8; stroke-linejoin: miter; stroke-linecap: square"/>
   </g>
   <g id="text_20">
    <!-- 86.2% -->
    <g transform="translate(332.60152 42.893728) rotate(-90) scale(0.1 -0.1)">
     <use xlink:href="#FiraSans-Regular-38"/>
     <use xlink:href="#FiraSans-Regular-36" x="55.099991"/>
     <use xlink:href="#FiraSans-Regular-2e" x="108.399979"/>
     <use xlink:href="#FiraSans-Regular-32" x="132.399963"/>
     <use xlink:href="#FiraSans-Regular-25" x="181.899948"/>
    </g>
   </g>
   <g id="text_21">
    <!-- 7.2% -->
    <g transform="translate(398.8786 174.300673) rotate(-90) scale(0.1 -0.1)">
     <use xlink:href="#FiraSans-Regular-37"/>
     <use xlink:href="#FiraSans-Regular-2e" x="44.399994"/>
     <use xlink:href="#FiraSans-Regular-32" x="68.399979"/>
     <use xlink:href="#FiraSans-Regular-25" x="117.899963"/>
    </g>
   </g>
   <g id="text_22">
    <!-- 3.8% -->
    <g transform="translate(465.155681 179.890371) rotate(-90) scale(0.1 -0.1)">
     <use xlink:href="#FiraSans-Regular-33"/>
     <use xlink:href="#FiraSans-Regular-2e" x="49.899994"/>
     <use xlink:href="#FiraSans-Regular-38" x="73.899979"/>
     <use xlink:href="#FiraSans-Regular-25" x="128.999969"/>
    </g>
   </g>
   <g id="text_23">
    <!-- 2.8% -->
    <g transform="translate(531.432762 181.557474) rotate(-90) scale(0.1 -0.1)">
     <use xlink:href="#FiraSans-Regular-32"/>
     <use xlink:href="#FiraSans-Regular-2e" x="49.499985"/>
     <use xlink:href="#FiraSans-Regular-38" x="73.499969"/>
     <use xlink:href="#FiraSans-Regular-25" x="128.59996"/>
    </g>
   </g>
   <g id="text_24">
    <!-- 90.1% -->
    <g transform="translate(345.856936 36.388452) rotate(-90) scale(0.1 -0.1)">
     <defs>
      <path id="FiraSans-Regular-39" d="M 1658 4346 
C 915 4346 288 3827 288 2931 
C 288 2080 806 1555 1472 1555 
C 1907 1555 2246 1779 2432 2067 
C 2387 1101 1702 608 627 301 
L 762 -141 
C 2336 314 3040 909 3040 2682 
C 3040 3686 2579 4346 1658 4346 
z
M 1594 2016 
C 1178 2016 883 2304 883 2918 
C 883 3533 1171 3878 1670 3878 
C 2202 3878 2464 3514 2445 2547 
C 2234 2221 1958 2016 1594 2016 
z
" transform="scale(0.015625)"/>
     </defs>
     <use xlink:href="#FiraSans-Regular-39"/>
     <use xlink:href="#FiraSans-Regular-30" x="52.499985"/>
     <use xlink:href="#FiraSans-Regular-2e" x="108.299973"/>
     <use xlink:href="#FiraSans-Regular-31" x="132.299957"/>
     <use xlink:href="#FiraSans-Regular-25" x="175.599945"/>
    </g>
   </g>
   <g id="text_25">
    <!-- 5.3% -->
    <g transform="translate(412.134016 177.415263) rotate(-90) scale(0.1 -0.1)">
     <defs>
      <path id="FiraSans-Regular-35" d="M 2771 4282 
L 454 4282 
L 454 2125 
L 915 2125 
C 1120 2221 1293 2272 1523 2272 
C 1965 2272 2304 2042 2304 1382 
C 2304 755 1965 403 1427 403 
C 1056 403 781 538 512 806 
L 166 467 
C 499 128 890 -77 1434 -77 
C 2323 -77 2918 518 2918 1370 
C 2918 2221 2426 2726 1702 2726 
C 1472 2726 1242 2675 1018 2560 
L 1018 3821 
L 2688 3821 
L 2771 4282 
z
" transform="scale(0.015625)"/>
     </defs>
     <use xlink:href="#FiraSans-Regular-35"/>
     <use xlink:href="#FiraSans-Regular-2e" x="50.099991"/>
     <use xlink:href="#FiraSans-Regular-33" x="74.099976"/>
     <use xlink:href="#FiraSans-Regular-25" x="123.999969"/>
    </g>
   </g>
   <g id="text_26">
    <!-- 2.5% -->
    <g transform="translate(478.411097 182.026263) rotate(-90) scale(0.1 -0.1)">
     <use xlink:href="#FiraSans-Regular-32"/>
     <use xlink:href="#FiraSans-Regular-2e" x="49.499985"/>
     <use xlink:href="#FiraSans-Regular-35" x="73.499969"/>
     <use xlink:href="#FiraSans-Regular-25" x="123.59996"/>
    </g>
   </g>
   <g id="text_27">
    <!-- 2.1% -->
    <g transform="translate(544.688178 182.812268) rotate(-90) scale(0.1 -0.1)">
     <use xlink:href="#FiraSans-Regular-32"/>
     <use xlink:href="#FiraSans-Regular-2e" x="49.499985"/>
     <use xlink:href="#FiraSans-Regular-31" x="73.499969"/>
     <use xlink:href="#FiraSans-Regular-25" x="116.799957"/>
    </g>
   </g>
   <g id="legend_1">
    <g id="patch_17">
     <path d="M 493.789062 68.118181 
L 558.2 68.118181 
Q 560.2 68.118181 560.2 66.118181 
L 560.2 37.558806 
Q 560.2 35.558806 558.2 35.558806 
L 493.789062 35.558806 
Q 491.789062 35.558806 491.789062 37.558806 
L 491.789062 66.118181 
Q 491.789062 68.118181 493.789062 68.118181 
z
" style="fill: #ffffff; opacity: 0.8; stroke: #cccccc; stroke-linejoin: miter"/>
    </g>
    <g id="patch_18">
     <path d="M 495.789062 47.358806 
L 515.789062 47.358806 
L 515.789062 40.358806 
L 495.789062 40.358806 
z
" style="fill: #6699cc; opacity: 0.7"/>
    </g>
    <g id="text_28">
     <!-- flipped -->
     <g transform="translate(523.789062 47.358806) scale(0.1 -0.1)">
      <use xlink:href="#FiraSans-Regular-66"/>
      <use xlink:href="#FiraSans-Regular-6c" x="33.499985"/>
      <use xlink:href="#FiraSans-Regular-69" x="62.799973"/>
      <use xlink:href="#FiraSans-Regular-70" x="90.999969"/>
      <use xlink:href="#FiraSans-Regular-70" x="150.399963"/>
      <use xlink:href="#FiraSans-Regular-65" x="209.799957"/>
      <use xlink:href="#FiraSans-Regular-64" x="264.299942"/>
     </g>
    </g>
    <g id="patch_19">
     <path d="M 495.789062 61.988494 
L 515.789062 61.988494 
L 515.789062 54.988494 
L 495.789062 54.988494 
z
" style="fill: #ddcc77; opacity: 0.7"/>
    </g>
    <g id="text_29">
     <!-- all -->
     <g transform="translate(523.789062 61.988494) scale(0.1 -0.1)">
      <use xlink:href="#FiraSans-Regular-61"/>
      <use xlink:href="#FiraSans-Regular-6c" x="54.399994"/>
      <use xlink:href="#FiraSans-Regular-6c" x="83.699982"/>
     </g>
    </g>
   </g>
  </g>
 </g>
 <defs>
  <clipPath id="p2ce343df5c">
   <rect x="306.719385" y="30.558806" width="258.480615" height="157.369944"/>
  </clipPath>
 </defs>
</svg>
