<?xml version="1.0" encoding="utf-8" standalone="no"?>
<!DOCTYPE svg PUBLIC "-//W3C//DTD SVG 1.1//EN"
  "http://www.w3.org/Graphics/SVG/1.1/DTD/svg11.dtd">
<svg xmlns:xlink="http://www.w3.org/1999/xlink" width="576pt" height="216pt" viewBox="0 0 576 216" xmlns="http://www.w3.org/2000/svg" version="1.1">
 <metadata>
  <rdf:RDF xmlns:dc="http://purl.org/dc/elements/1.1/" xmlns:cc="http://creativecommons.org/ns#" xmlns:rdf="http://www.w3.org/1999/02/22-rdf-syntax-ns#">
   <cc:Work>
    <dc:type rdf:resource="http://purl.org/dc/dcmitype/StillImage"/>
    <dc:date>2024-02-24T20:28:12.864292</dc:date>
    <dc:format>image/svg+xml</dc:format>
    <dc:creator>
     <cc:Agent>
      <dc:title>Matplotlib v3.7.1, https://matplotlib.org/</dc:title>
     </cc:Agent>
    </dc:creator>
   </cc:Work>
  </rdf:RDF>
 </metadata>
 <defs>
  <style type="text/css">*{stroke-linejoin: round; stroke-linecap: butt}</style>
 </defs>
 <g id="figure_1">
  <g id="patch_1">
   <path d="M 0 216 
L 576 216 
L 576 0 
L 0 0 
z
" style="fill: #ffffff"/>
  </g>
  <g id="axes_1">
   <g id="patch_2">
    <path d="M 206.556097 109.243778 
C 206.556097 102.128077 205.349549 95.063614 202.987839 88.351273 
C 200.62613 81.638931 197.143272 75.375378 192.687604 69.827385 
C 188.231936 64.279392 182.867627 59.526858 176.823147 55.772199 
C 170.778667 52.017539 164.141067 49.314827 157.193047 47.779174 
C 150.245028 46.24352 143.086652 45.897041 136.022802 46.754493 
C 128.958952 47.611944 122.091357 49.660979 115.712517 52.814325 
C 109.333676 55.967672 103.535454 60.179917 98.564802 65.271658 
C 93.59415 70.363399 89.522654 76.261306 86.523723 82.714183 
C 83.524791 89.167059 81.641613 96.081973 80.954396 103.164412 
C 80.267178 110.24685 80.785818 117.394815 82.488225 124.303868 
C 84.190632 131.212921 87.05229 137.783561 90.951318 143.735938 
C 94.850345 149.688314 99.730591 154.936704 105.384199 159.257574 
C 111.037808 163.578443 117.383359 166.909565 124.15059 169.109064 
C 130.91782 171.308562 138.009272 172.344761 145.122913 172.173527 
C 152.236553 172.002293 159.269936 170.626093 165.923501 168.103541 
C 172.577066 165.580988 178.754993 161.948411 184.194158 157.360526 
L 143.60812 109.243778 
z
" style="fill: #6699cc; opacity: 0.7"/>
   </g>
   <g id="patch_3">
    <path d="M 184.194158 157.360526 
C 187.820457 154.301775 191.089379 150.842863 193.938609 147.049726 
C 196.787839 143.256589 199.199157 139.153484 201.126595 134.818627 
L 143.60812 109.243778 
z
" style="fill: #ddcc77; opacity: 0.7"/>
   </g>
   <g id="patch_4">
    <path d="M 201.126595 134.818627 
C 202.152729 132.510826 203.039041 130.143357 203.780722 127.729065 
C 204.522403 125.314773 205.11811 122.858029 205.564612 120.372162 
L 143.60812 109.243778 
z
" style="fill: #44aa99; opacity: 0.7"/>
   </g>
   <g id="patch_5">
    <path d="M 205.564612 120.372162 
C 205.894291 118.536697 206.142244 116.687487 206.307737 114.830006 
C 206.473229 112.972526 206.556098 111.108608 206.556097 109.243769 
L 143.60812 109.243778 
z
" style="fill: #882255; opacity: 0.7"/>
   </g>
   <g id="matplotlib.axis_1">
    <g id="text_1">
     <!-- composition of transactions involving flipped properties -->
     <g transform="translate(15.351089 199.72875) scale(0.1 -0.1)">
      <defs>
       <path id="FiraSans-Regular-63" d="M 1837 3450 
C 922 3450 365 2733 365 1658 
C 365 570 928 -77 1837 -77 
C 2227 -77 2566 51 2867 294 
L 2598 678 
C 2342 512 2144 422 1862 422 
C 1331 422 998 787 998 1670 
C 998 2547 1331 2963 1862 2963 
C 2144 2963 2355 2880 2586 2714 
L 2867 3085 
C 2554 3347 2234 3450 1837 3450 
z
" transform="scale(0.015625)"/>
       <path id="FiraSans-Regular-6f" d="M 1875 3450 
C 915 3450 365 2726 365 1683 
C 365 614 909 -77 1869 -77 
C 2822 -77 3373 646 3373 1690 
C 3373 2758 2835 3450 1875 3450 
z
M 1875 2976 
C 2432 2976 2739 2566 2739 1690 
C 2739 806 2432 397 1869 397 
C 1306 397 998 806 998 1683 
C 998 2566 1312 2976 1875 2976 
z
" transform="scale(0.015625)"/>
       <path id="FiraSans-Regular-6d" d="M 3994 3450 
C 3539 3450 3232 3206 2989 2842 
C 2861 3226 2554 3450 2138 3450 
C 1696 3450 1389 3219 1165 2880 
L 1114 3373 
L 608 3373 
L 608 0 
L 1197 0 
L 1197 2394 
C 1421 2752 1626 2989 1990 2989 
C 2246 2989 2464 2842 2464 2336 
L 2464 0 
L 3053 0 
L 3053 2394 
C 3283 2752 3482 2989 3846 2989 
C 4102 2989 4320 2842 4320 2336 
L 4320 0 
L 4909 0 
L 4909 2419 
C 4909 3053 4544 3450 3994 3450 
z
" transform="scale(0.015625)"/>
       <path id="FiraSans-Regular-70" d="M 2157 3450 
C 1773 3450 1408 3264 1158 2918 
L 1114 3373 
L 608 3373 
L 608 -1363 
L 1197 -1293 
L 1197 307 
C 1414 45 1715 -77 2080 -77 
C 2950 -77 3405 666 3405 1690 
C 3405 2752 3053 3450 2157 3450 
z
M 1939 403 
C 1632 403 1370 550 1197 813 
L 1197 2458 
C 1376 2726 1651 2982 2010 2982 
C 2515 2982 2771 2566 2771 1690 
C 2771 806 2477 403 1939 403 
z
" transform="scale(0.015625)"/>
       <path id="FiraSans-Regular-73" d="M 1523 3450 
C 826 3450 307 3059 307 2522 
C 307 2048 595 1734 1325 1542 
C 1978 1370 2144 1242 2144 909 
C 2144 589 1862 397 1421 397 
C 1056 397 742 518 474 723 
L 160 365 
C 454 109 864 -77 1434 -77 
C 2118 -77 2765 243 2765 947 
C 2765 1536 2355 1818 1645 1997 
C 1101 2138 922 2266 922 2541 
C 922 2810 1158 2982 1542 2982 
C 1856 2982 2118 2886 2419 2694 
L 2669 3066 
C 2349 3309 1997 3450 1523 3450 
z
" transform="scale(0.015625)"/>
       <path id="FiraSans-Regular-69" d="M 896 4992 
C 653 4992 486 4819 486 4589 
C 486 4365 653 4192 896 4192 
C 1146 4192 1312 4365 1312 4589 
C 1312 4819 1146 4992 896 4992 
z
M 1197 3373 
L 608 3373 
L 608 0 
L 1197 0 
L 1197 3373 
z
" transform="scale(0.015625)"/>
       <path id="FiraSans-Regular-74" d="M 2086 544 
C 1920 454 1786 410 1638 410 
C 1344 410 1235 570 1235 909 
L 1235 2918 
L 1971 2918 
L 2035 3373 
L 1235 3373 
L 1235 4205 
L 646 4134 
L 646 3373 
L 58 3373 
L 58 2918 
L 646 2918 
L 646 883 
C 646 256 986 -77 1555 -77 
C 1843 -77 2086 0 2310 154 
L 2086 544 
z
" transform="scale(0.015625)"/>
       <path id="FiraSans-Regular-6e" d="M 2195 3450 
C 1754 3450 1395 3219 1165 2874 
L 1114 3373 
L 608 3373 
L 608 0 
L 1197 0 
L 1197 2394 
C 1421 2752 1677 2989 2054 2989 
C 2381 2989 2586 2842 2586 2336 
L 2586 0 
L 3174 0 
L 3174 2419 
C 3174 3059 2816 3450 2195 3450 
z
" transform="scale(0.015625)"/>
       <path id="FiraSans-Regular-20" transform="scale(0.015625)"/>
       <path id="FiraSans-Regular-66" d="M 1754 4326 
C 1926 4326 2125 4294 2342 4198 
L 2528 4627 
C 2259 4742 2042 4800 1722 4800 
C 1037 4800 666 4397 666 3834 
L 666 3373 
L 64 3373 
L 64 2918 
L 666 2918 
L 666 0 
L 1254 0 
L 1254 2918 
L 2010 2918 
L 2074 3373 
L 1254 3373 
L 1254 3840 
C 1254 4166 1382 4326 1754 4326 
z
" transform="scale(0.015625)"/>
       <path id="FiraSans-Regular-72" d="M 2074 3450 
C 1664 3450 1350 3194 1171 2688 
L 1114 3373 
L 608 3373 
L 608 0 
L 1197 0 
L 1197 1926 
C 1338 2573 1581 2874 2003 2874 
C 2125 2874 2195 2861 2298 2835 
L 2406 3411 
C 2304 3437 2182 3450 2074 3450 
z
" transform="scale(0.015625)"/>
       <path id="FiraSans-Regular-61" d="M 2880 787 
L 2880 2330 
C 2880 3034 2509 3450 1696 3450 
C 1318 3450 947 3373 531 3219 
L 678 2790 
C 1024 2906 1338 2970 1587 2970 
C 2054 2970 2291 2790 2291 2304 
L 2291 2054 
L 1773 2054 
C 832 2054 288 1664 288 941 
C 288 339 691 -77 1363 -77 
C 1773 -77 2131 77 2368 429 
C 2470 96 2688 -38 3027 -77 
L 3162 333 
C 2989 397 2880 493 2880 787 
z
M 1498 365 
C 1114 365 915 576 915 973 
C 915 1434 1229 1664 1850 1664 
L 2291 1664 
L 2291 890 
C 2099 538 1843 365 1498 365 
z
" transform="scale(0.015625)"/>
       <path id="FiraSans-Regular-76" d="M 3085 3373 
L 2464 3373 
L 1587 525 
L 704 3373 
L 64 3373 
L 1229 0 
L 1939 0 
L 3085 3373 
z
" transform="scale(0.015625)"/>
       <path id="FiraSans-Regular-6c" d="M 1280 -77 
C 1453 -77 1619 -32 1747 38 
L 1594 448 
C 1530 422 1459 410 1376 410 
C 1222 410 1165 499 1165 678 
L 1165 4800 
L 576 4730 
L 576 666 
C 576 186 851 -77 1280 -77 
z
" transform="scale(0.015625)"/>
       <path id="FiraSans-Regular-67" d="M 3155 3750 
C 2758 3571 2451 3430 1613 3450 
C 870 3450 314 2963 314 2272 
C 314 1837 493 1542 883 1338 
C 640 1178 512 960 512 742 
C 512 403 781 102 1382 102 
L 1914 102 
C 2336 102 2592 -58 2592 -378 
C 2592 -717 2336 -902 1606 -902 
C 864 -902 691 -723 691 -339 
L 160 -339 
C 160 -1024 506 -1363 1606 -1363 
C 2650 -1363 3187 -992 3187 -339 
C 3187 198 2726 595 2035 595 
L 1498 595 
C 1152 595 1056 717 1056 870 
C 1056 992 1126 1114 1222 1184 
C 1363 1139 1498 1120 1651 1120 
C 2458 1120 2938 1600 2938 2266 
C 2938 2656 2739 2938 2342 3117 
C 2726 3117 3046 3130 3328 3219 
L 3155 3750 
z
M 1613 3027 
C 2093 3027 2336 2771 2336 2278 
C 2336 1792 2086 1510 1626 1510 
C 1165 1510 915 1824 915 2272 
C 915 2714 1158 3027 1613 3027 
z
" transform="scale(0.015625)"/>
       <path id="FiraSans-Regular-65" d="M 3155 1786 
C 3155 2816 2675 3450 1766 3450 
C 896 3450 365 2701 365 1651 
C 365 582 915 -77 1856 -77 
C 2323 -77 2701 83 3034 346 
L 2778 698 
C 2483 493 2234 403 1901 403 
C 1414 403 1050 704 992 1485 
L 3142 1485 
C 3149 1562 3155 1670 3155 1786 
z
M 2573 1920 
L 992 1920 
C 1037 2669 1331 2982 1779 2982 
C 2310 2982 2573 2618 2573 1958 
L 2573 1920 
z
" transform="scale(0.015625)"/>
       <path id="FiraSans-Regular-64" d="M 2630 4800 
L 2630 3034 
C 2406 3270 2118 3450 1722 3450 
C 896 3450 397 2701 397 1670 
C 397 621 851 -77 1670 -77 
C 2086 -77 2426 128 2643 467 
L 2701 0 
L 3219 0 
L 3219 4730 
L 2630 4800 
z
M 1798 390 
C 1312 390 1030 794 1030 1683 
C 1030 2560 1344 2982 1850 2982 
C 2182 2982 2419 2810 2630 2541 
L 2630 890 
C 2406 576 2176 390 1798 390 
z
" transform="scale(0.015625)"/>
      </defs>
      <use xlink:href="#FiraSans-Regular-63"/>
      <use xlink:href="#FiraSans-Regular-6f" x="47.799988"/>
      <use xlink:href="#FiraSans-Regular-6d" x="106.199982"/>
      <use xlink:href="#FiraSans-Regular-70" x="191.899963"/>
      <use xlink:href="#FiraSans-Regular-6f" x="251.299957"/>
      <use xlink:href="#FiraSans-Regular-73" x="309.699951"/>
      <use xlink:href="#FiraSans-Regular-69" x="356.399948"/>
      <use xlink:href="#FiraSans-Regular-74" x="384.599945"/>
      <use xlink:href="#FiraSans-Regular-69" x="420.699936"/>
      <use xlink:href="#FiraSans-Regular-6f" x="448.899933"/>
      <use xlink:href="#FiraSans-Regular-6e" x="507.299927"/>
      <use xlink:href="#FiraSans-Regular-20" x="565.899918"/>
      <use xlink:href="#FiraSans-Regular-6f" x="592.399902"/>
      <use xlink:href="#FiraSans-Regular-66" x="650.799896"/>
      <use xlink:href="#FiraSans-Regular-20" x="684.299881"/>
      <use xlink:href="#FiraSans-Regular-74" x="710.799866"/>
      <use xlink:href="#FiraSans-Regular-72" x="746.899857"/>
      <use xlink:href="#FiraSans-Regular-61" x="785.499847"/>
      <use xlink:href="#FiraSans-Regular-6e" x="839.899841"/>
      <use xlink:href="#FiraSans-Regular-73" x="898.499832"/>
      <use xlink:href="#FiraSans-Regular-61" x="945.199829"/>
      <use xlink:href="#FiraSans-Regular-63" x="999.599823"/>
      <use xlink:href="#FiraSans-Regular-74" x="1047.399811"/>
      <use xlink:href="#FiraSans-Regular-69" x="1083.499802"/>
      <use xlink:href="#FiraSans-Regular-6f" x="1111.699799"/>
      <use xlink:href="#FiraSans-Regular-6e" x="1170.099792"/>
      <use xlink:href="#FiraSans-Regular-73" x="1228.699783"/>
      <use xlink:href="#FiraSans-Regular-20" x="1275.39978"/>
      <use xlink:href="#FiraSans-Regular-69" x="1301.899765"/>
      <use xlink:href="#FiraSans-Regular-6e" x="1330.099762"/>
      <use xlink:href="#FiraSans-Regular-76" x="1388.699753"/>
      <use xlink:href="#FiraSans-Regular-6f" x="1437.89975"/>
      <use xlink:href="#FiraSans-Regular-6c" x="1496.299744"/>
      <use xlink:href="#FiraSans-Regular-76" x="1525.599731"/>
      <use xlink:href="#FiraSans-Regular-69" x="1574.799728"/>
      <use xlink:href="#FiraSans-Regular-6e" x="1602.999725"/>
      <use xlink:href="#FiraSans-Regular-67" x="1661.599716"/>
      <use xlink:href="#FiraSans-Regular-20" x="1713.599701"/>
      <use xlink:href="#FiraSans-Regular-66" x="1740.099686"/>
      <use xlink:href="#FiraSans-Regular-6c" x="1773.59967"/>
      <use xlink:href="#FiraSans-Regular-69" x="1802.899658"/>
      <use xlink:href="#FiraSans-Regular-70" x="1831.099655"/>
      <use xlink:href="#FiraSans-Regular-70" x="1890.499649"/>
      <use xlink:href="#FiraSans-Regular-65" x="1949.899643"/>
      <use xlink:href="#FiraSans-Regular-64" x="2004.399628"/>
      <use xlink:href="#FiraSans-Regular-20" x="2064.199615"/>
      <use xlink:href="#FiraSans-Regular-70" x="2090.6996"/>
      <use xlink:href="#FiraSans-Regular-72" x="2150.099594"/>
      <use xlink:href="#FiraSans-Regular-6f" x="2188.699585"/>
      <use xlink:href="#FiraSans-Regular-70" x="2247.099579"/>
      <use xlink:href="#FiraSans-Regular-65" x="2306.499573"/>
      <use xlink:href="#FiraSans-Regular-72" x="2360.999557"/>
      <use xlink:href="#FiraSans-Regular-74" x="2399.599548"/>
      <use xlink:href="#FiraSans-Regular-69" x="2435.699539"/>
      <use xlink:href="#FiraSans-Regular-65" x="2463.899536"/>
      <use xlink:href="#FiraSans-Regular-73" x="2518.399521"/>
     </g>
    </g>
   </g>
   <g id="matplotlib.axis_2"/>
   <g id="text_2">
    <!-- RCD -->
    <g transform="translate(62.724658 82.746379) scale(0.1 -0.1)">
     <defs>
      <path id="FiraSans-Regular-52" d="M 2989 0 
L 3712 0 
L 2522 1978 
C 3155 2170 3475 2541 3475 3162 
C 3475 3987 2899 4410 1798 4410 
L 640 4410 
L 640 0 
L 1248 0 
L 1248 1869 
L 1933 1869 
L 2989 0 
z
M 1248 2336 
L 1248 3936 
L 1792 3936 
C 2515 3936 2829 3712 2829 3162 
C 2829 2566 2477 2336 1862 2336 
L 1248 2336 
z
" transform="scale(0.015625)"/>
      <path id="FiraSans-Regular-43" d="M 2182 4486 
C 1184 4486 352 3699 352 2208 
C 352 723 1126 -77 2195 -77 
C 2790 -77 3213 166 3456 416 
L 3155 800 
C 2906 614 2630 435 2214 435 
C 1530 435 998 934 998 2208 
C 998 3539 1555 3987 2221 3987 
C 2528 3987 2797 3885 3072 3661 
L 3405 4051 
C 3053 4333 2739 4486 2182 4486 
z
" transform="scale(0.015625)"/>
      <path id="FiraSans-Regular-44" d="M 1562 4410 
L 640 4410 
L 640 0 
L 1696 0 
C 2650 0 3770 429 3770 2227 
C 3770 4058 2688 4410 1562 4410 
z
M 1696 3923 
C 2400 3923 3123 3718 3123 2227 
C 3123 774 2432 480 1741 480 
L 1248 480 
L 1248 3923 
L 1696 3923 
z
" transform="scale(0.015625)"/>
     </defs>
     <use xlink:href="#FiraSans-Regular-52"/>
     <use xlink:href="#FiraSans-Regular-43" x="60.499985"/>
     <use xlink:href="#FiraSans-Regular-44" x="116.499969"/>
    </g>
   </g>
   <g id="text_3">
    <!-- 86.2% -->
    <g transform="translate(96.133263 96.011177) scale(0.1 -0.1)">
     <defs>
      <path id="FiraSans-Regular-38" d="M 2336 2298 
C 2822 2541 3066 2829 3066 3264 
C 3066 3994 2406 4346 1766 4346 
C 1114 4346 467 3968 467 3245 
C 467 2803 672 2477 1133 2246 
C 608 2016 288 1683 288 1133 
C 288 429 870 -77 1754 -77 
C 2624 -77 3238 429 3238 1146 
C 3238 1683 2925 2061 2336 2298 
z
M 1766 3904 
C 2234 3904 2490 3642 2490 3245 
C 2490 2880 2330 2656 1946 2438 
L 1837 2477 
C 1344 2637 1043 2797 1043 3238 
C 1043 3667 1325 3904 1766 3904 
z
M 1760 390 
C 1229 390 902 666 902 1133 
C 902 1600 1107 1894 1530 2099 
L 1690 2042 
C 2381 1805 2624 1600 2624 1139 
C 2624 691 2298 390 1760 390 
z
" transform="scale(0.015625)"/>
      <path id="FiraSans-Regular-36" d="M 1971 2816 
C 1568 2816 1222 2650 941 2253 
C 973 3232 1344 3878 1965 3878 
C 2202 3878 2426 3814 2624 3693 
L 2854 4083 
C 2605 4250 2317 4346 1971 4346 
C 960 4346 352 3411 352 2010 
C 352 781 749 -77 1792 -77 
C 2547 -77 3155 518 3155 1453 
C 3155 2368 2598 2816 1971 2816 
z
M 1792 390 
C 1222 390 973 826 947 1760 
C 1165 2112 1485 2349 1869 2349 
C 2272 2349 2560 2112 2560 1434 
C 2560 806 2298 390 1792 390 
z
" transform="scale(0.015625)"/>
      <path id="FiraSans-Regular-2e" d="M 762 813 
C 512 813 320 614 320 371 
C 320 122 512 -77 762 -77 
C 1018 -77 1210 122 1210 371 
C 1210 614 1018 813 762 813 
z
" transform="scale(0.015625)"/>
      <path id="FiraSans-Regular-32" d="M 1459 4346 
C 922 4346 506 4128 160 3699 
L 544 3392 
C 832 3718 1069 3859 1427 3859 
C 1843 3859 2131 3597 2131 3149 
C 2131 2451 1760 2042 250 467 
L 250 0 
L 2778 0 
L 2848 493 
L 922 493 
C 2234 1805 2746 2374 2746 3174 
C 2746 3840 2246 4346 1459 4346 
z
" transform="scale(0.015625)"/>
      <path id="FiraSans-Regular-25" d="M 3923 4550 
L 960 70 
L 1370 -198 
L 4333 4282 
L 3923 4550 
z
M 1325 4346 
C 730 4346 288 3930 288 3264 
C 288 2598 730 2182 1325 2182 
C 1926 2182 2368 2598 2368 3264 
C 2368 3930 1926 4346 1325 4346 
z
M 1325 3949 
C 1741 3949 1843 3597 1843 3264 
C 1843 2918 1741 2579 1325 2579 
C 915 2579 806 2931 806 3264 
C 806 3610 915 3949 1325 3949 
z
M 3962 2086 
C 3360 2086 2918 1670 2918 1005 
C 2918 339 3360 -77 3962 -77 
C 4563 -77 4998 339 4998 1005 
C 4998 1670 4563 2086 3962 2086 
z
M 3962 1683 
C 4378 1683 4480 1338 4480 1005 
C 4480 659 4378 320 3962 320 
C 3552 320 3443 672 3443 1005 
C 3443 1350 3552 1683 3962 1683 
z
" transform="scale(0.015625)"/>
     </defs>
     <use xlink:href="#FiraSans-Regular-38"/>
     <use xlink:href="#FiraSans-Regular-36" x="55.099991"/>
     <use xlink:href="#FiraSans-Regular-2e" x="108.399979"/>
     <use xlink:href="#FiraSans-Regular-32" x="132.399963"/>
     <use xlink:href="#FiraSans-Regular-25" x="181.899948"/>
    </g>
   </g>
   <g id="text_4">
    <!-- OTHER -->
    <g transform="translate(198.971658 153.515477) scale(0.1 -0.1)">
     <defs>
      <path id="FiraSans-Regular-4f" d="M 2214 4486 
C 1114 4486 352 3648 352 2195 
C 352 717 1114 -77 2214 -77 
C 3322 -77 4077 742 4077 2202 
C 4077 3686 3322 4486 2214 4486 
z
M 2214 3987 
C 2970 3987 3430 3469 3430 2202 
C 3430 922 2957 422 2214 422 
C 1498 422 998 922 998 2195 
C 998 3469 1478 3987 2214 3987 
z
" transform="scale(0.015625)"/>
      <path id="FiraSans-Regular-54" d="M 3245 4410 
L 96 4410 
L 96 3891 
L 1350 3891 
L 1350 0 
L 1958 0 
L 1958 3891 
L 3181 3891 
L 3245 4410 
z
" transform="scale(0.015625)"/>
      <path id="FiraSans-Regular-48" d="M 3104 0 
L 3712 0 
L 3712 4410 
L 3104 4410 
L 3104 2566 
L 1248 2566 
L 1248 4410 
L 640 4410 
L 640 0 
L 1248 0 
L 1248 2067 
L 3104 2067 
L 3104 0 
z
" transform="scale(0.015625)"/>
      <path id="FiraSans-Regular-45" d="M 3027 4410 
L 640 4410 
L 640 0 
L 3078 0 
L 3078 486 
L 1248 486 
L 1248 1997 
L 2733 1997 
L 2733 2483 
L 1248 2483 
L 1248 3923 
L 2957 3923 
L 3027 4410 
z
" transform="scale(0.015625)"/>
     </defs>
     <use xlink:href="#FiraSans-Regular-4f"/>
     <use xlink:href="#FiraSans-Regular-54" x="69.199982"/>
     <use xlink:href="#FiraSans-Regular-48" x="120.899979"/>
     <use xlink:href="#FiraSans-Regular-45" x="188.899963"/>
     <use xlink:href="#FiraSans-Regular-52" x="242.399948"/>
    </g>
   </g>
   <g id="text_5">
    <!-- 7.2% -->
    <g transform="translate(163.781414 134.612503) scale(0.1 -0.1)">
     <defs>
      <path id="FiraSans-Regular-37" d="M 2650 4282 
L 160 4282 
L 160 3802 
L 2054 3802 
L 512 115 
L 1050 -64 
L 2650 3840 
L 2650 4282 
z
" transform="scale(0.015625)"/>
     </defs>
     <use xlink:href="#FiraSans-Regular-37"/>
     <use xlink:href="#FiraSans-Regular-2e" x="44.399994"/>
     <use xlink:href="#FiraSans-Regular-32" x="68.399979"/>
     <use xlink:href="#FiraSans-Regular-25" x="117.899963"/>
    </g>
   </g>
   <g id="text_6">
    <!-- R1F -->
    <g transform="translate(209.797982 132.26275) scale(0.1 -0.1)">
     <defs>
      <path id="FiraSans-Regular-31" d="M 2067 4282 
L 1549 4282 
L 224 3462 
L 480 3046 
L 1478 3654 
L 1478 0 
L 2067 0 
L 2067 4282 
z
" transform="scale(0.015625)"/>
      <path id="FiraSans-Regular-46" d="M 640 0 
L 1248 0 
L 1248 1939 
L 2688 1939 
L 2688 2419 
L 1248 2419 
L 1248 3923 
L 2912 3923 
L 2982 4410 
L 640 4410 
L 640 0 
z
" transform="scale(0.015625)"/>
     </defs>
     <use xlink:href="#FiraSans-Regular-52"/>
     <use xlink:href="#FiraSans-Regular-31" x="60.499985"/>
     <use xlink:href="#FiraSans-Regular-46" x="103.799973"/>
    </g>
   </g>
   <g id="text_7">
    <!-- 3.8% -->
    <g transform="translate(169.131994 123.020106) scale(0.1 -0.1)">
     <defs>
      <path id="FiraSans-Regular-33" d="M 1440 4346 
C 979 4346 582 4179 218 3840 
L 525 3488 
C 813 3757 1069 3872 1408 3872 
C 1837 3872 2118 3622 2118 3219 
C 2118 2720 1766 2464 1344 2464 
L 1126 2464 
L 1056 2010 
L 1376 2010 
C 1894 2010 2227 1830 2227 1242 
C 2227 736 1901 403 1363 403 
C 1018 403 730 531 448 826 
L 96 499 
C 422 109 870 -77 1382 -77 
C 2272 -77 2842 486 2842 1235 
C 2842 1882 2413 2221 1875 2272 
C 2355 2387 2707 2714 2707 3258 
C 2707 3834 2259 4346 1440 4346 
z
" transform="scale(0.015625)"/>
     </defs>
     <use xlink:href="#FiraSans-Regular-33"/>
     <use xlink:href="#FiraSans-Regular-2e" x="49.899994"/>
     <use xlink:href="#FiraSans-Regular-38" x="73.899979"/>
     <use xlink:href="#FiraSans-Regular-25" x="128.999969"/>
    </g>
   </g>
   <g id="text_8">
    <!-- COM -->
    <g transform="translate(212.577698 118.073785) scale(0.1 -0.1)">
     <defs>
      <path id="FiraSans-Regular-4d" d="M 4218 4410 
L 3392 4410 
L 2509 1203 
L 1581 4410 
L 762 4410 
L 397 0 
L 973 0 
L 1120 1946 
C 1171 2592 1203 3277 1203 3795 
L 2208 499 
L 2778 499 
L 3731 3789 
C 3738 3424 3782 2682 3840 1990 
L 3994 0 
L 4582 0 
L 4218 4410 
z
" transform="scale(0.015625)"/>
     </defs>
     <use xlink:href="#FiraSans-Regular-43"/>
     <use xlink:href="#FiraSans-Regular-4f" x="55.999985"/>
     <use xlink:href="#FiraSans-Regular-4d" x="125.199966"/>
    </g>
   </g>
   <g id="text_9">
    <!-- 2.8% -->
    <g transform="translate(170.668515 115.280671) scale(0.1 -0.1)">
     <use xlink:href="#FiraSans-Regular-32"/>
     <use xlink:href="#FiraSans-Regular-2e" x="49.499985"/>
     <use xlink:href="#FiraSans-Regular-38" x="73.499969"/>
     <use xlink:href="#FiraSans-Regular-25" x="128.59996"/>
    </g>
   </g>
  </g>
  <g id="axes_2">
   <g id="patch_6">
    <path d="M 299.58376 187.92875 
L 565.2 187.92875 
L 565.2 30.558806 
L 299.58376 30.558806 
z
" style="fill: #ffffff"/>
   </g>
   <g id="patch_7">
    <path d="M 316.610442 187.92875 
L 330.231788 187.92875 
L 330.231788 44.557889 
L 316.610442 44.557889 
z
" clip-path="url(#p617a787328)" style="fill: #6699cc; opacity: 0.7"/>
   </g>
   <g id="patch_8">
    <path d="M 384.71717 187.92875 
L 398.338516 187.92875 
L 398.338516 175.964834 
L 384.71717 175.964834 
z
" clip-path="url(#p617a787328)" style="fill: #6699cc; opacity: 0.7"/>
   </g>
   <g id="patch_9">
    <path d="M 452.823898 187.92875 
L 466.445244 187.92875 
L 466.445244 181.554533 
L 452.823898 181.554533 
z
" clip-path="url(#p617a787328)" style="fill: #6699cc; opacity: 0.7"/>
   </g>
   <g id="patch_10">
    <path d="M 520.930627 187.92875 
L 534.551972 187.92875 
L 534.551972 183.221636 
L 520.930627 183.221636 
z
" clip-path="url(#p617a787328)" style="fill: #6699cc; opacity: 0.7"/>
   </g>
   <g id="patch_11">
    <path d="M 330.231788 187.92875 
L 343.853133 187.92875 
L 343.853133 38.052613 
L 330.231788 38.052613 
z
" clip-path="url(#p617a787328)" style="fill: #ddcc77; opacity: 0.7"/>
   </g>
   <g id="patch_12">
    <path d="M 398.338516 187.92875 
L 411.959862 187.92875 
L 411.959862 179.079424 
L 398.338516 179.079424 
z
" clip-path="url(#p617a787328)" style="fill: #ddcc77; opacity: 0.7"/>
   </g>
   <g id="patch_13">
    <path d="M 466.445244 187.92875 
L 480.06659 187.92875 
L 480.06659 183.690424 
L 466.445244 183.690424 
z
" clip-path="url(#p617a787328)" style="fill: #ddcc77; opacity: 0.7"/>
   </g>
   <g id="patch_14">
    <path d="M 534.551972 187.92875 
L 548.173318 187.92875 
L 548.173318 184.476429 
L 534.551972 184.476429 
z
" clip-path="url(#p617a787328)" style="fill: #ddcc77; opacity: 0.7"/>
   </g>
   <g id="matplotlib.axis_3">
    <g id="xtick_1">
     <g id="line2d_1">
      <defs>
       <path id="m23c627a40e" d="M 0 0 
L 0 3.5 
" style="stroke: #000000; stroke-width: 0.8"/>
      </defs>
      <g>
       <use xlink:href="#m23c627a40e" x="330.231788" y="187.92875" style="stroke: #000000; stroke-width: 0.8"/>
      </g>
     </g>
     <g id="text_10">
      <!-- RCD -->
      <g transform="translate(321.186475 202.42875) scale(0.1 -0.1)">
       <use xlink:href="#FiraSans-Regular-52"/>
       <use xlink:href="#FiraSans-Regular-43" x="60.499985"/>
       <use xlink:href="#FiraSans-Regular-44" x="116.499969"/>
      </g>
     </g>
    </g>
    <g id="xtick_2">
     <g id="line2d_2">
      <g>
       <use xlink:href="#m23c627a40e" x="398.338516" y="187.92875" style="stroke: #000000; stroke-width: 0.8"/>
      </g>
     </g>
     <g id="text_11">
      <!-- OTHER -->
      <g transform="translate(383.193203 202.42875) scale(0.1 -0.1)">
       <use xlink:href="#FiraSans-Regular-4f"/>
       <use xlink:href="#FiraSans-Regular-54" x="69.199982"/>
       <use xlink:href="#FiraSans-Regular-48" x="120.899979"/>
       <use xlink:href="#FiraSans-Regular-45" x="188.899963"/>
       <use xlink:href="#FiraSans-Regular-52" x="242.399948"/>
      </g>
     </g>
    </g>
    <g id="xtick_3">
     <g id="line2d_3">
      <g>
       <use xlink:href="#m23c627a40e" x="466.445244" y="187.92875" style="stroke: #000000; stroke-width: 0.8"/>
      </g>
     </g>
     <g id="text_12">
      <!-- R1F -->
      <g transform="translate(458.800713 202.42875) scale(0.1 -0.1)">
       <use xlink:href="#FiraSans-Regular-52"/>
       <use xlink:href="#FiraSans-Regular-31" x="60.499985"/>
       <use xlink:href="#FiraSans-Regular-46" x="103.799973"/>
      </g>
     </g>
    </g>
    <g id="xtick_4">
     <g id="line2d_4">
      <g>
       <use xlink:href="#m23c627a40e" x="534.551972" y="187.92875" style="stroke: #000000; stroke-width: 0.8"/>
      </g>
     </g>
     <g id="text_13">
      <!-- COM -->
      <g transform="translate(524.401972 202.42875) scale(0.1 -0.1)">
       <use xlink:href="#FiraSans-Regular-43"/>
       <use xlink:href="#FiraSans-Regular-4f" x="55.999985"/>
       <use xlink:href="#FiraSans-Regular-4d" x="125.199966"/>
      </g>
     </g>
    </g>
   </g>
   <g id="matplotlib.axis_4">
    <g id="ytick_1">
     <g id="line2d_5">
      <defs>
       <path id="md4e4a5d43f" d="M 0 0 
L -3.5 0 
" style="stroke: #000000; stroke-width: 0.8"/>
      </defs>
      <g>
       <use xlink:href="#md4e4a5d43f" x="299.58376" y="187.92875" style="stroke: #000000; stroke-width: 0.8"/>
      </g>
     </g>
     <g id="text_14">
      <!-- 0.0 -->
      <g transform="translate(279.024385 191.67875) scale(0.1 -0.1)">
       <defs>
        <path id="FiraSans-Regular-30" d="M 1786 4346 
C 826 4346 352 3558 352 2138 
C 352 717 826 -77 1786 -77 
C 2746 -77 3219 717 3219 2138 
C 3219 3552 2746 4346 1786 4346 
z
M 1786 3878 
C 2317 3878 2605 3392 2605 2138 
C 2605 877 2317 390 1786 390 
C 1248 390 966 877 966 2138 
C 966 3392 1248 3878 1786 3878 
z
" transform="scale(0.015625)"/>
       </defs>
       <use xlink:href="#FiraSans-Regular-30"/>
       <use xlink:href="#FiraSans-Regular-2e" x="55.799988"/>
       <use xlink:href="#FiraSans-Regular-30" x="79.799973"/>
      </g>
     </g>
    </g>
    <g id="ytick_2">
     <g id="line2d_6">
      <g>
       <use xlink:href="#md4e4a5d43f" x="299.58376" y="154.645528" style="stroke: #000000; stroke-width: 0.8"/>
      </g>
     </g>
     <g id="text_15">
      <!-- 0.2 -->
      <g transform="translate(279.654073 158.395528) scale(0.1 -0.1)">
       <use xlink:href="#FiraSans-Regular-30"/>
       <use xlink:href="#FiraSans-Regular-2e" x="55.799988"/>
       <use xlink:href="#FiraSans-Regular-32" x="79.799973"/>
      </g>
     </g>
    </g>
    <g id="ytick_3">
     <g id="line2d_7">
      <g>
       <use xlink:href="#md4e4a5d43f" x="299.58376" y="121.362306" style="stroke: #000000; stroke-width: 0.8"/>
      </g>
     </g>
     <g id="text_16">
      <!-- 0.4 -->
      <g transform="translate(279.28376 125.112306) scale(0.1 -0.1)">
       <defs>
        <path id="FiraSans-Regular-34" d="M 3213 1523 
L 2656 1523 
L 2656 2675 
L 2144 2675 
L 2093 1523 
L 877 1523 
L 2035 4141 
L 1542 4346 
L 256 1478 
L 256 1056 
L 2086 1056 
L 2086 0 
L 2656 0 
L 2656 1056 
L 3213 1056 
L 3213 1523 
z
" transform="scale(0.015625)"/>
       </defs>
       <use xlink:href="#FiraSans-Regular-30"/>
       <use xlink:href="#FiraSans-Regular-2e" x="55.799988"/>
       <use xlink:href="#FiraSans-Regular-34" x="79.799973"/>
      </g>
     </g>
    </g>
    <g id="ytick_4">
     <g id="line2d_8">
      <g>
       <use xlink:href="#md4e4a5d43f" x="299.58376" y="88.079085" style="stroke: #000000; stroke-width: 0.8"/>
      </g>
     </g>
     <g id="text_17">
      <!-- 0.6 -->
      <g transform="translate(279.274385 91.829085) scale(0.1 -0.1)">
       <use xlink:href="#FiraSans-Regular-30"/>
       <use xlink:href="#FiraSans-Regular-2e" x="55.799988"/>
       <use xlink:href="#FiraSans-Regular-36" x="79.799973"/>
      </g>
     </g>
    </g>
    <g id="ytick_5">
     <g id="line2d_9">
      <g>
       <use xlink:href="#md4e4a5d43f" x="299.58376" y="54.795863" style="stroke: #000000; stroke-width: 0.8"/>
      </g>
     </g>
     <g id="text_18">
      <!-- 0.8 -->
      <g transform="translate(279.094698 58.545863) scale(0.1 -0.1)">
       <use xlink:href="#FiraSans-Regular-30"/>
       <use xlink:href="#FiraSans-Regular-2e" x="55.799988"/>
       <use xlink:href="#FiraSans-Regular-38" x="79.799973"/>
      </g>
     </g>
    </g>
   </g>
   <g id="patch_15">
    <path d="M 299.58376 187.92875 
L 299.58376 30.558806 
" style="fill: none; stroke: #000000; stroke-width: 0.8; stroke-linejoin: miter; stroke-linecap: square"/>
   </g>
   <g id="patch_16">
    <path d="M 299.58376 187.92875 
L 565.2 187.92875 
" style="fill: none; stroke: #000000; stroke-width: 0.8; stroke-linejoin: miter; stroke-linecap: square"/>
   </g>
   <g id="text_19">
    <!-- 86.2% -->
    <g transform="translate(326.106271 42.893728) rotate(-90) scale(0.1 -0.1)">
     <use xlink:href="#FiraSans-Regular-38"/>
     <use xlink:href="#FiraSans-Regular-36" x="55.099991"/>
     <use xlink:href="#FiraSans-Regular-2e" x="108.399979"/>
     <use xlink:href="#FiraSans-Regular-32" x="132.399963"/>
     <use xlink:href="#FiraSans-Regular-25" x="181.899948"/>
    </g>
   </g>
   <g id="text_20">
    <!-- 7.2% -->
    <g transform="translate(394.212999 174.300673) rotate(-90) scale(0.1 -0.1)">
     <use xlink:href="#FiraSans-Regular-37"/>
     <use xlink:href="#FiraSans-Regular-2e" x="44.399994"/>
     <use xlink:href="#FiraSans-Regular-32" x="68.399979"/>
     <use xlink:href="#FiraSans-Regular-25" x="117.899963"/>
    </g>
   </g>
   <g id="text_21">
    <!-- 3.8% -->
    <g transform="translate(462.319728 179.890371) rotate(-90) scale(0.1 -0.1)">
     <use xlink:href="#FiraSans-Regular-33"/>
     <use xlink:href="#FiraSans-Regular-2e" x="49.899994"/>
     <use xlink:href="#FiraSans-Regular-38" x="73.899979"/>
     <use xlink:href="#FiraSans-Regular-25" x="128.999969"/>
    </g>
   </g>
   <g id="text_22">
    <!-- 2.8% -->
    <g transform="translate(530.426456 181.557474) rotate(-90) scale(0.1 -0.1)">
     <use xlink:href="#FiraSans-Regular-32"/>
     <use xlink:href="#FiraSans-Regular-2e" x="49.499985"/>
     <use xlink:href="#FiraSans-Regular-38" x="73.499969"/>
     <use xlink:href="#FiraSans-Regular-25" x="128.59996"/>
    </g>
   </g>
   <g id="text_23">
    <!-- 90.1% -->
    <g transform="translate(339.727617 36.388452) rotate(-90) scale(0.1 -0.1)">
     <defs>
      <path id="FiraSans-Regular-39" d="M 1658 4346 
C 915 4346 288 3827 288 2931 
C 288 2080 806 1555 1472 1555 
C 1907 1555 2246 1779 2432 2067 
C 2387 1101 1702 608 627 301 
L 762 -141 
C 2336 314 3040 909 3040 2682 
C 3040 3686 2579 4346 1658 4346 
z
M 1594 2016 
C 1178 2016 883 2304 883 2918 
C 883 3533 1171 3878 1670 3878 
C 2202 3878 2464 3514 2445 2547 
C 2234 2221 1958 2016 1594 2016 
z
" transform="scale(0.015625)"/>
     </defs>
     <use xlink:href="#FiraSans-Regular-39"/>
     <use xlink:href="#FiraSans-Regular-30" x="52.499985"/>
     <use xlink:href="#FiraSans-Regular-2e" x="108.299973"/>
     <use xlink:href="#FiraSans-Regular-31" x="132.299957"/>
     <use xlink:href="#FiraSans-Regular-25" x="175.599945"/>
    </g>
   </g>
   <g id="text_24">
    <!-- 5.3% -->
    <g transform="translate(407.834345 177.415263) rotate(-90) scale(0.1 -0.1)">
     <defs>
      <path id="FiraSans-Regular-35" d="M 2771 4282 
L 454 4282 
L 454 2125 
L 915 2125 
C 1120 2221 1293 2272 1523 2272 
C 1965 2272 2304 2042 2304 1382 
C 2304 755 1965 403 1427 403 
C 1056 403 781 538 512 806 
L 166 467 
C 499 128 890 -77 1434 -77 
C 2323 -77 2918 518 2918 1370 
C 2918 2221 2426 2726 1702 2726 
C 1472 2726 1242 2675 1018 2560 
L 1018 3821 
L 2688 3821 
L 2771 4282 
z
" transform="scale(0.015625)"/>
     </defs>
     <use xlink:href="#FiraSans-Regular-35"/>
     <use xlink:href="#FiraSans-Regular-2e" x="50.099991"/>
     <use xlink:href="#FiraSans-Regular-33" x="74.099976"/>
     <use xlink:href="#FiraSans-Regular-25" x="123.999969"/>
    </g>
   </g>
   <g id="text_25">
    <!-- 2.5% -->
    <g transform="translate(475.941073 182.026263) rotate(-90) scale(0.1 -0.1)">
     <use xlink:href="#FiraSans-Regular-32"/>
     <use xlink:href="#FiraSans-Regular-2e" x="49.499985"/>
     <use xlink:href="#FiraSans-Regular-35" x="73.499969"/>
     <use xlink:href="#FiraSans-Regular-25" x="123.59996"/>
    </g>
   </g>
   <g id="text_26">
    <!-- 2.1% -->
    <g transform="translate(544.047801 182.812268) rotate(-90) scale(0.1 -0.1)">
     <use xlink:href="#FiraSans-Regular-32"/>
     <use xlink:href="#FiraSans-Regular-2e" x="49.499985"/>
     <use xlink:href="#FiraSans-Regular-31" x="73.499969"/>
     <use xlink:href="#FiraSans-Regular-25" x="116.799957"/>
    </g>
   </g>
   <g id="legend_1">
    <g id="patch_17">
     <path d="M 493.789062 68.118181 
L 558.2 68.118181 
Q 560.2 68.118181 560.2 66.118181 
L 560.2 37.558806 
Q 560.2 35.558806 558.2 35.558806 
L 493.789062 35.558806 
Q 491.789062 35.558806 491.789062 37.558806 
L 491.789062 66.118181 
Q 491.789062 68.118181 493.789062 68.118181 
z
" style="fill: #ffffff; opacity: 0.8; stroke: #cccccc; stroke-linejoin: miter"/>
    </g>
    <g id="patch_18">
     <path d="M 495.789062 47.358806 
L 515.789062 47.358806 
L 515.789062 40.358806 
L 495.789062 40.358806 
z
" style="fill: #6699cc; opacity: 0.7"/>
    </g>
    <g id="text_27">
     <!-- flipped -->
     <g transform="translate(523.789062 47.358806) scale(0.1 -0.1)">
      <use xlink:href="#FiraSans-Regular-66"/>
      <use xlink:href="#FiraSans-Regular-6c" x="33.499985"/>
      <use xlink:href="#FiraSans-Regular-69" x="62.799973"/>
      <use xlink:href="#FiraSans-Regular-70" x="90.999969"/>
      <use xlink:href="#FiraSans-Regular-70" x="150.399963"/>
      <use xlink:href="#FiraSans-Regular-65" x="209.799957"/>
      <use xlink:href="#FiraSans-Regular-64" x="264.299942"/>
     </g>
    </g>
    <g id="patch_19">
     <path d="M 495.789062 61.988494 
L 515.789062 61.988494 
L 515.789062 54.988494 
L 495.789062 54.988494 
z
" style="fill: #ddcc77; opacity: 0.7"/>
    </g>
    <g id="text_28">
     <!-- all -->
     <g transform="translate(523.789062 61.988494) scale(0.1 -0.1)">
      <use xlink:href="#FiraSans-Regular-61"/>
      <use xlink:href="#FiraSans-Regular-6c" x="54.399994"/>
      <use xlink:href="#FiraSans-Regular-6c" x="83.699982"/>
     </g>
    </g>
   </g>
  </g>
 </g>
 <defs>
  <clipPath id="p617a787328">
   <rect x="299.58376" y="30.558806" width="265.61624" height="157.369944"/>
  </clipPath>
 </defs>
</svg>
