<?xml version="1.0" encoding="utf-8" standalone="no"?>
<!DOCTYPE svg PUBLIC "-//W3C//DTD SVG 1.1//EN"
  "http://www.w3.org/Graphics/SVG/1.1/DTD/svg11.dtd">
<svg xmlns:xlink="http://www.w3.org/1999/xlink" width="576pt" height="216pt" viewBox="0 0 576 216" xmlns="http://www.w3.org/2000/svg" version="1.1">
 <metadata>
  <rdf:RDF xmlns:dc="http://purl.org/dc/elements/1.1/" xmlns:cc="http://creativecommons.org/ns#" xmlns:rdf="http://www.w3.org/1999/02/22-rdf-syntax-ns#">
   <cc:Work>
    <dc:type rdf:resource="http://purl.org/dc/dcmitype/StillImage"/>
    <dc:date>2024-02-24T20:28:12.574438</dc:date>
    <dc:format>image/svg+xml</dc:format>
    <dc:creator>
     <cc:Agent>
      <dc:title>Matplotlib v3.7.1, https://matplotlib.org/</dc:title>
     </cc:Agent>
    </dc:creator>
   </cc:Work>
  </rdf:RDF>
 </metadata>
 <defs>
  <style type="text/css">*{stroke-linejoin: round; stroke-linecap: butt}</style>
 </defs>
 <g id="figure_1">
  <g id="patch_1">
   <path d="M 0 216 
L 576 216 
L 576 0 
L 0 0 
z
" style="fill: #ffffff"/>
  </g>
  <g id="axes_1">
   <g id="patch_2">
    <path d="M 202.115497 97.79 
C 202.115497 90.616211 200.843627 83.498906 198.359042 76.769115 
C 195.874457 70.039324 192.216283 63.803023 187.554663 58.350267 
C 182.893044 52.89751 177.301388 48.314164 171.039765 44.813403 
C 164.778142 41.312641 157.945157 38.949593 150.858616 37.834163 
C 143.772074 36.718733 136.543572 36.868487 129.509308 38.27646 
C 122.475044 39.684434 115.745792 42.328454 109.634532 46.085547 
C 103.523271 49.84264 98.126239 54.65364 93.694454 60.294787 
C 89.262669 65.935933 85.865921 72.318392 83.662193 79.145312 
C 81.458465 85.972232 80.48246 93.136106 80.779574 100.30374 
C 81.076689 107.471374 82.642242 114.529895 85.40342 121.151008 
C 88.164598 127.772122 92.07792 133.851562 96.961374 139.106572 
C 101.844829 144.361582 107.621514 148.709407 114.022754 151.94783 
C 120.423994 155.186252 127.348985 157.264274 134.475643 158.085246 
C 141.602301 158.906219 148.818399 158.457213 155.788314 156.759112 
C 162.758228 155.061012 169.3722 152.140557 175.322611 148.133581 
C 181.273022 144.126604 186.466167 139.096205 190.660513 133.276349 
L 141.421497 97.79 
z
" style="fill: #6699cc; opacity: 0.7"/>
   </g>
   <g id="patch_3">
    <path d="M 190.660513 133.276349 
C 192.637742 130.532848 194.382223 127.628889 195.875734 124.594807 
C 197.369245 121.560724 198.606567 118.407119 199.574776 115.166933 
L 141.421497 97.79 
z
" style="fill: #ddcc77; opacity: 0.7"/>
   </g>
   <g id="patch_4">
    <path d="M 199.574776 115.166933 
C 200.038285 113.615762 200.439545 112.046667 200.777594 110.463412 
C 201.115643 108.880157 201.390209 107.28401 201.600633 105.678802 
L 141.421497 97.79 
z
" style="fill: #44aa99; opacity: 0.7"/>
   </g>
   <g id="patch_5">
    <path d="M 201.600633 105.678802 
C 201.772026 104.371341 201.900765 103.058641 201.986644 101.742793 
C 202.072523 100.426946 202.115497 99.108649 202.115497 97.790001 
L 141.421497 97.79 
z
" style="fill: #882255; opacity: 0.7"/>
   </g>
   <g id="matplotlib.axis_1">
    <g id="text_1">
     <!-- composition of all transactions -->
     <g transform="translate(70.675403 185.4575) scale(0.1 -0.1)">
      <defs>
       <path id="FiraSans-Regular-63" d="M 1837 3450 
C 922 3450 365 2733 365 1658 
C 365 570 928 -77 1837 -77 
C 2227 -77 2566 51 2867 294 
L 2598 678 
C 2342 512 2144 422 1862 422 
C 1331 422 998 787 998 1670 
C 998 2547 1331 2963 1862 2963 
C 2144 2963 2355 2880 2586 2714 
L 2867 3085 
C 2554 3347 2234 3450 1837 3450 
z
" transform="scale(0.015625)"/>
       <path id="FiraSans-Regular-6f" d="M 1875 3450 
C 915 3450 365 2726 365 1683 
C 365 614 909 -77 1869 -77 
C 2822 -77 3373 646 3373 1690 
C 3373 2758 2835 3450 1875 3450 
z
M 1875 2976 
C 2432 2976 2739 2566 2739 1690 
C 2739 806 2432 397 1869 397 
C 1306 397 998 806 998 1683 
C 998 2566 1312 2976 1875 2976 
z
" transform="scale(0.015625)"/>
       <path id="FiraSans-Regular-6d" d="M 3994 3450 
C 3539 3450 3232 3206 2989 2842 
C 2861 3226 2554 3450 2138 3450 
C 1696 3450 1389 3219 1165 2880 
L 1114 3373 
L 608 3373 
L 608 0 
L 1197 0 
L 1197 2394 
C 1421 2752 1626 2989 1990 2989 
C 2246 2989 2464 2842 2464 2336 
L 2464 0 
L 3053 0 
L 3053 2394 
C 3283 2752 3482 2989 3846 2989 
C 4102 2989 4320 2842 4320 2336 
L 4320 0 
L 4909 0 
L 4909 2419 
C 4909 3053 4544 3450 3994 3450 
z
" transform="scale(0.015625)"/>
       <path id="FiraSans-Regular-70" d="M 2157 3450 
C 1773 3450 1408 3264 1158 2918 
L 1114 3373 
L 608 3373 
L 608 -1363 
L 1197 -1293 
L 1197 307 
C 1414 45 1715 -77 2080 -77 
C 2950 -77 3405 666 3405 1690 
C 3405 2752 3053 3450 2157 3450 
z
M 1939 403 
C 1632 403 1370 550 1197 813 
L 1197 2458 
C 1376 2726 1651 2982 2010 2982 
C 2515 2982 2771 2566 2771 1690 
C 2771 806 2477 403 1939 403 
z
" transform="scale(0.015625)"/>
       <path id="FiraSans-Regular-73" d="M 1523 3450 
C 826 3450 307 3059 307 2522 
C 307 2048 595 1734 1325 1542 
C 1978 1370 2144 1242 2144 909 
C 2144 589 1862 397 1421 397 
C 1056 397 742 518 474 723 
L 160 365 
C 454 109 864 -77 1434 -77 
C 2118 -77 2765 243 2765 947 
C 2765 1536 2355 1818 1645 1997 
C 1101 2138 922 2266 922 2541 
C 922 2810 1158 2982 1542 2982 
C 1856 2982 2118 2886 2419 2694 
L 2669 3066 
C 2349 3309 1997 3450 1523 3450 
z
" transform="scale(0.015625)"/>
       <path id="FiraSans-Regular-69" d="M 896 4992 
C 653 4992 486 4819 486 4589 
C 486 4365 653 4192 896 4192 
C 1146 4192 1312 4365 1312 4589 
C 1312 4819 1146 4992 896 4992 
z
M 1197 3373 
L 608 3373 
L 608 0 
L 1197 0 
L 1197 3373 
z
" transform="scale(0.015625)"/>
       <path id="FiraSans-Regular-74" d="M 2086 544 
C 1920 454 1786 410 1638 410 
C 1344 410 1235 570 1235 909 
L 1235 2918 
L 1971 2918 
L 2035 3373 
L 1235 3373 
L 1235 4205 
L 646 4134 
L 646 3373 
L 58 3373 
L 58 2918 
L 646 2918 
L 646 883 
C 646 256 986 -77 1555 -77 
C 1843 -77 2086 0 2310 154 
L 2086 544 
z
" transform="scale(0.015625)"/>
       <path id="FiraSans-Regular-6e" d="M 2195 3450 
C 1754 3450 1395 3219 1165 2874 
L 1114 3373 
L 608 3373 
L 608 0 
L 1197 0 
L 1197 2394 
C 1421 2752 1677 2989 2054 2989 
C 2381 2989 2586 2842 2586 2336 
L 2586 0 
L 3174 0 
L 3174 2419 
C 3174 3059 2816 3450 2195 3450 
z
" transform="scale(0.015625)"/>
       <path id="FiraSans-Regular-20" transform="scale(0.015625)"/>
       <path id="FiraSans-Regular-66" d="M 1754 4326 
C 1926 4326 2125 4294 2342 4198 
L 2528 4627 
C 2259 4742 2042 4800 1722 4800 
C 1037 4800 666 4397 666 3834 
L 666 3373 
L 64 3373 
L 64 2918 
L 666 2918 
L 666 0 
L 1254 0 
L 1254 2918 
L 2010 2918 
L 2074 3373 
L 1254 3373 
L 1254 3840 
C 1254 4166 1382 4326 1754 4326 
z
" transform="scale(0.015625)"/>
       <path id="FiraSans-Regular-61" d="M 2880 787 
L 2880 2330 
C 2880 3034 2509 3450 1696 3450 
C 1318 3450 947 3373 531 3219 
L 678 2790 
C 1024 2906 1338 2970 1587 2970 
C 2054 2970 2291 2790 2291 2304 
L 2291 2054 
L 1773 2054 
C 832 2054 288 1664 288 941 
C 288 339 691 -77 1363 -77 
C 1773 -77 2131 77 2368 429 
C 2470 96 2688 -38 3027 -77 
L 3162 333 
C 2989 397 2880 493 2880 787 
z
M 1498 365 
C 1114 365 915 576 915 973 
C 915 1434 1229 1664 1850 1664 
L 2291 1664 
L 2291 890 
C 2099 538 1843 365 1498 365 
z
" transform="scale(0.015625)"/>
       <path id="FiraSans-Regular-6c" d="M 1280 -77 
C 1453 -77 1619 -32 1747 38 
L 1594 448 
C 1530 422 1459 410 1376 410 
C 1222 410 1165 499 1165 678 
L 1165 4800 
L 576 4730 
L 576 666 
C 576 186 851 -77 1280 -77 
z
" transform="scale(0.015625)"/>
       <path id="FiraSans-Regular-72" d="M 2074 3450 
C 1664 3450 1350 3194 1171 2688 
L 1114 3373 
L 608 3373 
L 608 0 
L 1197 0 
L 1197 1926 
C 1338 2573 1581 2874 2003 2874 
C 2125 2874 2195 2861 2298 2835 
L 2406 3411 
C 2304 3437 2182 3450 2074 3450 
z
" transform="scale(0.015625)"/>
      </defs>
      <use xlink:href="#FiraSans-Regular-63"/>
      <use xlink:href="#FiraSans-Regular-6f" x="47.799988"/>
      <use xlink:href="#FiraSans-Regular-6d" x="106.199982"/>
      <use xlink:href="#FiraSans-Regular-70" x="191.899963"/>
      <use xlink:href="#FiraSans-Regular-6f" x="251.299957"/>
      <use xlink:href="#FiraSans-Regular-73" x="309.699951"/>
      <use xlink:href="#FiraSans-Regular-69" x="356.399948"/>
      <use xlink:href="#FiraSans-Regular-74" x="384.599945"/>
      <use xlink:href="#FiraSans-Regular-69" x="420.699936"/>
      <use xlink:href="#FiraSans-Regular-6f" x="448.899933"/>
      <use xlink:href="#FiraSans-Regular-6e" x="507.299927"/>
      <use xlink:href="#FiraSans-Regular-20" x="565.899918"/>
      <use xlink:href="#FiraSans-Regular-6f" x="592.399902"/>
      <use xlink:href="#FiraSans-Regular-66" x="650.799896"/>
      <use xlink:href="#FiraSans-Regular-20" x="684.299881"/>
      <use xlink:href="#FiraSans-Regular-61" x="710.799866"/>
      <use xlink:href="#FiraSans-Regular-6c" x="765.19986"/>
      <use xlink:href="#FiraSans-Regular-6c" x="794.499847"/>
      <use xlink:href="#FiraSans-Regular-20" x="823.799835"/>
      <use xlink:href="#FiraSans-Regular-74" x="850.29982"/>
      <use xlink:href="#FiraSans-Regular-72" x="886.399811"/>
      <use xlink:href="#FiraSans-Regular-61" x="924.999802"/>
      <use xlink:href="#FiraSans-Regular-6e" x="979.399796"/>
      <use xlink:href="#FiraSans-Regular-73" x="1037.999786"/>
      <use xlink:href="#FiraSans-Regular-61" x="1084.699783"/>
      <use xlink:href="#FiraSans-Regular-63" x="1139.099777"/>
      <use xlink:href="#FiraSans-Regular-74" x="1186.899765"/>
      <use xlink:href="#FiraSans-Regular-69" x="1222.999756"/>
      <use xlink:href="#FiraSans-Regular-6f" x="1251.199753"/>
      <use xlink:href="#FiraSans-Regular-6e" x="1309.599747"/>
      <use xlink:href="#FiraSans-Regular-73" x="1368.199738"/>
     </g>
    </g>
   </g>
   <g id="matplotlib.axis_2"/>
   <g id="text_2">
    <!-- RCD -->
    <g transform="translate(59.795637 79.965999) scale(0.1 -0.1)">
     <defs>
      <path id="FiraSans-Regular-52" d="M 2989 0 
L 3712 0 
L 2522 1978 
C 3155 2170 3475 2541 3475 3162 
C 3475 3987 2899 4410 1798 4410 
L 640 4410 
L 640 0 
L 1248 0 
L 1248 1869 
L 1933 1869 
L 2989 0 
z
M 1248 2336 
L 1248 3936 
L 1792 3936 
C 2515 3936 2829 3712 2829 3162 
C 2829 2566 2477 2336 1862 2336 
L 1248 2336 
z
" transform="scale(0.015625)"/>
      <path id="FiraSans-Regular-43" d="M 2182 4486 
C 1184 4486 352 3699 352 2208 
C 352 723 1126 -77 2195 -77 
C 2790 -77 3213 166 3456 416 
L 3155 800 
C 2906 614 2630 435 2214 435 
C 1530 435 998 934 998 2208 
C 998 3539 1555 3987 2221 3987 
C 2528 3987 2797 3885 3072 3661 
L 3405 4051 
C 3053 4333 2739 4486 2182 4486 
z
" transform="scale(0.015625)"/>
      <path id="FiraSans-Regular-44" d="M 1562 4410 
L 640 4410 
L 640 0 
L 1696 0 
C 2650 0 3770 429 3770 2227 
C 3770 4058 2688 4410 1562 4410 
z
M 1696 3923 
C 2400 3923 3123 3718 3123 2227 
C 3123 774 2432 480 1741 480 
L 1248 480 
L 1248 3923 
L 1696 3923 
z
" transform="scale(0.015625)"/>
     </defs>
     <use xlink:href="#FiraSans-Regular-52"/>
     <use xlink:href="#FiraSans-Regular-43" x="60.499985"/>
     <use xlink:href="#FiraSans-Regular-44" x="116.499969"/>
    </g>
   </g>
   <g id="text_3">
    <!-- 90.1% -->
    <g transform="translate(93.856539 89.288343) scale(0.1 -0.1)">
     <defs>
      <path id="FiraSans-Regular-39" d="M 1658 4346 
C 915 4346 288 3827 288 2931 
C 288 2080 806 1555 1472 1555 
C 1907 1555 2246 1779 2432 2067 
C 2387 1101 1702 608 627 301 
L 762 -141 
C 2336 314 3040 909 3040 2682 
C 3040 3686 2579 4346 1658 4346 
z
M 1594 2016 
C 1178 2016 883 2304 883 2918 
C 883 3533 1171 3878 1670 3878 
C 2202 3878 2464 3514 2445 2547 
C 2234 2221 1958 2016 1594 2016 
z
" transform="scale(0.015625)"/>
      <path id="FiraSans-Regular-30" d="M 1786 4346 
C 826 4346 352 3558 352 2138 
C 352 717 826 -77 1786 -77 
C 2746 -77 3219 717 3219 2138 
C 3219 3552 2746 4346 1786 4346 
z
M 1786 3878 
C 2317 3878 2605 3392 2605 2138 
C 2605 877 2317 390 1786 390 
C 1248 390 966 877 966 2138 
C 966 3392 1248 3878 1786 3878 
z
" transform="scale(0.015625)"/>
      <path id="FiraSans-Regular-2e" d="M 762 813 
C 512 813 320 614 320 371 
C 320 122 512 -77 762 -77 
C 1018 -77 1210 122 1210 371 
C 1210 614 1018 813 762 813 
z
" transform="scale(0.015625)"/>
      <path id="FiraSans-Regular-31" d="M 2067 4282 
L 1549 4282 
L 224 3462 
L 480 3046 
L 1478 3654 
L 1478 0 
L 2067 0 
L 2067 4282 
z
" transform="scale(0.015625)"/>
      <path id="FiraSans-Regular-25" d="M 3923 4550 
L 960 70 
L 1370 -198 
L 4333 4282 
L 3923 4550 
z
M 1325 4346 
C 730 4346 288 3930 288 3264 
C 288 2598 730 2182 1325 2182 
C 1926 2182 2368 2598 2368 3264 
C 2368 3930 1926 4346 1325 4346 
z
M 1325 3949 
C 1741 3949 1843 3597 1843 3264 
C 1843 2918 1741 2579 1325 2579 
C 915 2579 806 2931 806 3264 
C 806 3610 915 3949 1325 3949 
z
M 3962 2086 
C 3360 2086 2918 1670 2918 1005 
C 2918 339 3360 -77 3962 -77 
C 4563 -77 4998 339 4998 1005 
C 4998 1670 4563 2086 3962 2086 
z
M 3962 1683 
C 4378 1683 4480 1338 4480 1005 
C 4480 659 4378 320 3962 320 
C 3552 320 3443 672 3443 1005 
C 3443 1350 3552 1683 3962 1683 
z
" transform="scale(0.015625)"/>
     </defs>
     <use xlink:href="#FiraSans-Regular-39"/>
     <use xlink:href="#FiraSans-Regular-30" x="52.499985"/>
     <use xlink:href="#FiraSans-Regular-2e" x="108.299973"/>
     <use xlink:href="#FiraSans-Regular-31" x="132.299957"/>
     <use xlink:href="#FiraSans-Regular-25" x="175.599945"/>
    </g>
   </g>
   <g id="text_4">
    <!-- OTHER -->
    <g transform="translate(201.321158 129.960444) scale(0.1 -0.1)">
     <defs>
      <path id="FiraSans-Regular-4f" d="M 2214 4486 
C 1114 4486 352 3648 352 2195 
C 352 717 1114 -77 2214 -77 
C 3322 -77 4077 742 4077 2202 
C 4077 3686 3322 4486 2214 4486 
z
M 2214 3987 
C 2970 3987 3430 3469 3430 2202 
C 3430 922 2957 422 2214 422 
C 1498 422 998 922 998 2195 
C 998 3469 1478 3987 2214 3987 
z
" transform="scale(0.015625)"/>
      <path id="FiraSans-Regular-54" d="M 3245 4410 
L 96 4410 
L 96 3891 
L 1350 3891 
L 1350 0 
L 1958 0 
L 1958 3891 
L 3181 3891 
L 3245 4410 
z
" transform="scale(0.015625)"/>
      <path id="FiraSans-Regular-48" d="M 3104 0 
L 3712 0 
L 3712 4410 
L 3104 4410 
L 3104 2566 
L 1248 2566 
L 1248 4410 
L 640 4410 
L 640 0 
L 1248 0 
L 1248 2067 
L 3104 2067 
L 3104 0 
z
" transform="scale(0.015625)"/>
      <path id="FiraSans-Regular-45" d="M 3027 4410 
L 640 4410 
L 640 0 
L 3078 0 
L 3078 486 
L 1248 486 
L 1248 1997 
L 2733 1997 
L 2733 2483 
L 1248 2483 
L 1248 3923 
L 2957 3923 
L 3027 4410 
z
" transform="scale(0.015625)"/>
     </defs>
     <use xlink:href="#FiraSans-Regular-4f"/>
     <use xlink:href="#FiraSans-Regular-54" x="69.199982"/>
     <use xlink:href="#FiraSans-Regular-48" x="120.899979"/>
     <use xlink:href="#FiraSans-Regular-45" x="188.899963"/>
     <use xlink:href="#FiraSans-Regular-52" x="242.399948"/>
    </g>
   </g>
   <g id="text_5">
    <!-- 5.3% -->
    <g transform="translate(163.764352 116.55804) scale(0.1 -0.1)">
     <defs>
      <path id="FiraSans-Regular-35" d="M 2771 4282 
L 454 4282 
L 454 2125 
L 915 2125 
C 1120 2221 1293 2272 1523 2272 
C 1965 2272 2304 2042 2304 1382 
C 2304 755 1965 403 1427 403 
C 1056 403 781 538 512 806 
L 166 467 
C 499 128 890 -77 1434 -77 
C 2323 -77 2918 518 2918 1370 
C 2918 2221 2426 2726 1702 2726 
C 1472 2726 1242 2675 1018 2560 
L 1018 3821 
L 2688 3821 
L 2771 4282 
z
" transform="scale(0.015625)"/>
      <path id="FiraSans-Regular-33" d="M 1440 4346 
C 979 4346 582 4179 218 3840 
L 525 3488 
C 813 3757 1069 3872 1408 3872 
C 1837 3872 2118 3622 2118 3219 
C 2118 2720 1766 2464 1344 2464 
L 1126 2464 
L 1056 2010 
L 1376 2010 
C 1894 2010 2227 1830 2227 1242 
C 2227 736 1901 403 1363 403 
C 1018 403 730 531 448 826 
L 96 499 
C 422 109 870 -77 1382 -77 
C 2272 -77 2842 486 2842 1235 
C 2842 1882 2413 2221 1875 2272 
C 2355 2387 2707 2714 2707 3258 
C 2707 3834 2259 4346 1440 4346 
z
" transform="scale(0.015625)"/>
     </defs>
     <use xlink:href="#FiraSans-Regular-35"/>
     <use xlink:href="#FiraSans-Regular-2e" x="50.099991"/>
     <use xlink:href="#FiraSans-Regular-33" x="74.099976"/>
     <use xlink:href="#FiraSans-Regular-25" x="123.999969"/>
    </g>
   </g>
   <g id="text_6">
    <!-- R1F -->
    <g transform="translate(206.713204 114.415909) scale(0.1 -0.1)">
     <defs>
      <path id="FiraSans-Regular-46" d="M 640 0 
L 1248 0 
L 1248 1939 
L 2688 1939 
L 2688 2419 
L 1248 2419 
L 1248 3923 
L 2912 3923 
L 2982 4410 
L 640 4410 
L 640 0 
z
" transform="scale(0.015625)"/>
     </defs>
     <use xlink:href="#FiraSans-Regular-52"/>
     <use xlink:href="#FiraSans-Regular-31" x="60.499985"/>
     <use xlink:href="#FiraSans-Regular-46" x="103.799973"/>
    </g>
   </g>
   <g id="text_7">
    <!-- 2.5% -->
    <g transform="translate(166.72578 108.079203) scale(0.1 -0.1)">
     <defs>
      <path id="FiraSans-Regular-32" d="M 1459 4346 
C 922 4346 506 4128 160 3699 
L 544 3392 
C 832 3718 1069 3859 1427 3859 
C 1843 3859 2131 3597 2131 3149 
C 2131 2451 1760 2042 250 467 
L 250 0 
L 2778 0 
L 2848 493 
L 922 493 
C 2234 1805 2746 2374 2746 3174 
C 2746 3840 2246 4346 1459 4346 
z
" transform="scale(0.015625)"/>
     </defs>
     <use xlink:href="#FiraSans-Regular-32"/>
     <use xlink:href="#FiraSans-Regular-2e" x="49.499985"/>
     <use xlink:href="#FiraSans-Regular-35" x="73.499969"/>
     <use xlink:href="#FiraSans-Regular-25" x="123.59996"/>
    </g>
   </g>
   <g id="text_8">
    <!-- COM -->
    <g transform="translate(208.043159 104.823229) scale(0.1 -0.1)">
     <defs>
      <path id="FiraSans-Regular-4d" d="M 4218 4410 
L 3392 4410 
L 2509 1203 
L 1581 4410 
L 762 4410 
L 397 0 
L 973 0 
L 1120 1946 
C 1171 2592 1203 3277 1203 3795 
L 2208 499 
L 2778 499 
L 3731 3789 
C 3738 3424 3782 2682 3840 1990 
L 3994 0 
L 4582 0 
L 4218 4410 
z
" transform="scale(0.015625)"/>
     </defs>
     <use xlink:href="#FiraSans-Regular-43"/>
     <use xlink:href="#FiraSans-Regular-4f" x="55.999985"/>
     <use xlink:href="#FiraSans-Regular-4d" x="125.199966"/>
    </g>
   </g>
   <g id="text_9">
    <!-- 2.1% -->
    <g transform="translate(167.791054 102.846832) scale(0.1 -0.1)">
     <use xlink:href="#FiraSans-Regular-32"/>
     <use xlink:href="#FiraSans-Regular-2e" x="49.499985"/>
     <use xlink:href="#FiraSans-Regular-31" x="73.499969"/>
     <use xlink:href="#FiraSans-Regular-25" x="116.799957"/>
    </g>
   </g>
  </g>
  <g id="axes_2">
   <g id="patch_6">
    <path d="M 303.957006 173.6575 
L 565.2 173.6575 
L 565.2 21.9225 
L 303.957006 21.9225 
z
" style="fill: #ffffff"/>
   </g>
   <g id="matplotlib.axis_3">
    <g id="xtick_1">
     <g id="line2d_1">
      <defs>
       <path id="mfe13f914ba" d="M 0 0 
L 0 3.5 
" style="stroke: #000000; stroke-width: 0.8"/>
      </defs>
      <g>
       <use xlink:href="#mfe13f914ba" x="315.831688" y="173.6575" style="stroke: #000000; stroke-width: 0.8"/>
      </g>
     </g>
     <g id="text_10">
      <!-- 2000 -->
      <g transform="translate(304.987157 188.1575) scale(0.1 -0.1)">
       <use xlink:href="#FiraSans-Regular-32"/>
       <use xlink:href="#FiraSans-Regular-30" x="49.499985"/>
       <use xlink:href="#FiraSans-Regular-30" x="105.299973"/>
       <use xlink:href="#FiraSans-Regular-30" x="161.09996"/>
      </g>
     </g>
    </g>
    <g id="xtick_2">
     <g id="line2d_2">
      <g>
       <use xlink:href="#mfe13f914ba" x="369.807513" y="173.6575" style="stroke: #000000; stroke-width: 0.8"/>
      </g>
     </g>
     <g id="text_11">
      <!-- 2005 -->
      <g transform="translate(359.248138 188.1575) scale(0.1 -0.1)">
       <use xlink:href="#FiraSans-Regular-32"/>
       <use xlink:href="#FiraSans-Regular-30" x="49.499985"/>
       <use xlink:href="#FiraSans-Regular-30" x="105.299973"/>
       <use xlink:href="#FiraSans-Regular-35" x="161.09996"/>
      </g>
     </g>
    </g>
    <g id="xtick_3">
     <g id="line2d_3">
      <g>
       <use xlink:href="#mfe13f914ba" x="423.783338" y="173.6575" style="stroke: #000000; stroke-width: 0.8"/>
      </g>
     </g>
     <g id="text_12">
      <!-- 2010 -->
      <g transform="translate(413.563807 188.1575) scale(0.1 -0.1)">
       <use xlink:href="#FiraSans-Regular-32"/>
       <use xlink:href="#FiraSans-Regular-30" x="49.499985"/>
       <use xlink:href="#FiraSans-Regular-31" x="105.299973"/>
       <use xlink:href="#FiraSans-Regular-30" x="148.59996"/>
      </g>
     </g>
    </g>
    <g id="xtick_4">
     <g id="line2d_4">
      <g>
       <use xlink:href="#mfe13f914ba" x="477.759163" y="173.6575" style="stroke: #000000; stroke-width: 0.8"/>
      </g>
     </g>
     <g id="text_13">
      <!-- 2015 -->
      <g transform="translate(467.824788 188.1575) scale(0.1 -0.1)">
       <use xlink:href="#FiraSans-Regular-32"/>
       <use xlink:href="#FiraSans-Regular-30" x="49.499985"/>
       <use xlink:href="#FiraSans-Regular-31" x="105.299973"/>
       <use xlink:href="#FiraSans-Regular-35" x="148.59996"/>
      </g>
     </g>
    </g>
    <g id="xtick_5">
     <g id="line2d_5">
      <g>
       <use xlink:href="#mfe13f914ba" x="531.734988" y="173.6575" style="stroke: #000000; stroke-width: 0.8"/>
      </g>
     </g>
     <g id="text_14">
      <!-- 2020 -->
      <g transform="translate(521.205301 188.1575) scale(0.1 -0.1)">
       <use xlink:href="#FiraSans-Regular-32"/>
       <use xlink:href="#FiraSans-Regular-30" x="49.499985"/>
       <use xlink:href="#FiraSans-Regular-32" x="105.299973"/>
       <use xlink:href="#FiraSans-Regular-30" x="154.799957"/>
      </g>
     </g>
    </g>
    <g id="text_15">
     <!-- date -->
     <g transform="translate(424.338659 201.787187) scale(0.1 -0.1)">
      <defs>
       <path id="FiraSans-Regular-64" d="M 2630 4800 
L 2630 3034 
C 2406 3270 2118 3450 1722 3450 
C 896 3450 397 2701 397 1670 
C 397 621 851 -77 1670 -77 
C 2086 -77 2426 128 2643 467 
L 2701 0 
L 3219 0 
L 3219 4730 
L 2630 4800 
z
M 1798 390 
C 1312 390 1030 794 1030 1683 
C 1030 2560 1344 2982 1850 2982 
C 2182 2982 2419 2810 2630 2541 
L 2630 890 
C 2406 576 2176 390 1798 390 
z
" transform="scale(0.015625)"/>
       <path id="FiraSans-Regular-65" d="M 3155 1786 
C 3155 2816 2675 3450 1766 3450 
C 896 3450 365 2701 365 1651 
C 365 582 915 -77 1856 -77 
C 2323 -77 2701 83 3034 346 
L 2778 698 
C 2483 493 2234 403 1901 403 
C 1414 403 1050 704 992 1485 
L 3142 1485 
C 3149 1562 3155 1670 3155 1786 
z
M 2573 1920 
L 992 1920 
C 1037 2669 1331 2982 1779 2982 
C 2310 2982 2573 2618 2573 1958 
L 2573 1920 
z
" transform="scale(0.015625)"/>
      </defs>
      <use xlink:href="#FiraSans-Regular-64"/>
      <use xlink:href="#FiraSans-Regular-61" x="59.799988"/>
      <use xlink:href="#FiraSans-Regular-74" x="114.199982"/>
      <use xlink:href="#FiraSans-Regular-65" x="150.299973"/>
     </g>
    </g>
   </g>
   <g id="matplotlib.axis_4">
    <g id="ytick_1">
     <g id="line2d_6">
      <defs>
       <path id="maa16597274" d="M 0 0 
L -3.5 0 
" style="stroke: #000000; stroke-width: 0.8"/>
      </defs>
      <g>
       <use xlink:href="#maa16597274" x="303.957006" y="149.527356" style="stroke: #000000; stroke-width: 0.8"/>
      </g>
     </g>
     <g id="text_16">
      <!-- 1 -->
      <g transform="translate(292.627319 153.277356) scale(0.1 -0.1)">
       <use xlink:href="#FiraSans-Regular-31"/>
      </g>
     </g>
    </g>
    <g id="ytick_2">
     <g id="line2d_7">
      <g>
       <use xlink:href="#maa16597274" x="303.957006" y="113.963219" style="stroke: #000000; stroke-width: 0.8"/>
      </g>
     </g>
     <g id="text_17">
      <!-- 2 -->
      <g transform="translate(292.007006 117.713219) scale(0.1 -0.1)">
       <use xlink:href="#FiraSans-Regular-32"/>
      </g>
     </g>
    </g>
    <g id="ytick_3">
     <g id="line2d_8">
      <g>
       <use xlink:href="#maa16597274" x="303.957006" y="78.399081" style="stroke: #000000; stroke-width: 0.8"/>
      </g>
     </g>
     <g id="text_18">
      <!-- 3 -->
      <g transform="translate(291.966381 82.149081) scale(0.1 -0.1)">
       <use xlink:href="#FiraSans-Regular-33"/>
      </g>
     </g>
    </g>
    <g id="ytick_4">
     <g id="line2d_9">
      <g>
       <use xlink:href="#maa16597274" x="303.957006" y="42.834944" style="stroke: #000000; stroke-width: 0.8"/>
      </g>
     </g>
     <g id="text_19">
      <!-- 4 -->
      <g transform="translate(291.636694 46.584944) scale(0.1 -0.1)">
       <defs>
        <path id="FiraSans-Regular-34" d="M 3213 1523 
L 2656 1523 
L 2656 2675 
L 2144 2675 
L 2093 1523 
L 877 1523 
L 2035 4141 
L 1542 4346 
L 256 1478 
L 256 1056 
L 2086 1056 
L 2086 0 
L 2656 0 
L 2656 1056 
L 3213 1056 
L 3213 1523 
z
" transform="scale(0.015625)"/>
       </defs>
       <use xlink:href="#FiraSans-Regular-34"/>
      </g>
     </g>
    </g>
    <g id="text_20">
     <!-- price -->
     <g transform="translate(285.507006 109.215) rotate(-90) scale(0.1 -0.1)">
      <use xlink:href="#FiraSans-Regular-70"/>
      <use xlink:href="#FiraSans-Regular-72" x="59.399994"/>
      <use xlink:href="#FiraSans-Regular-69" x="97.999985"/>
      <use xlink:href="#FiraSans-Regular-63" x="126.199982"/>
      <use xlink:href="#FiraSans-Regular-65" x="173.999969"/>
     </g>
    </g>
    <g id="text_21">
     <!-- 1e6 -->
     <g transform="translate(303.957006 18.9225) scale(0.1 -0.1)">
      <defs>
       <path id="FiraSans-Regular-36" d="M 1971 2816 
C 1568 2816 1222 2650 941 2253 
C 973 3232 1344 3878 1965 3878 
C 2202 3878 2426 3814 2624 3693 
L 2854 4083 
C 2605 4250 2317 4346 1971 4346 
C 960 4346 352 3411 352 2010 
C 352 781 749 -77 1792 -77 
C 2547 -77 3155 518 3155 1453 
C 3155 2368 2598 2816 1971 2816 
z
M 1792 390 
C 1222 390 973 826 947 1760 
C 1165 2112 1485 2349 1869 2349 
C 2272 2349 2560 2112 2560 1434 
C 2560 806 2298 390 1792 390 
z
" transform="scale(0.015625)"/>
      </defs>
      <use xlink:href="#FiraSans-Regular-31"/>
      <use xlink:href="#FiraSans-Regular-65" x="43.299988"/>
      <use xlink:href="#FiraSans-Regular-36" x="97.799973"/>
     </g>
    </g>
   </g>
   <g id="line2d_10">
    <path d="M 315.831688 149.177848 
L 326.626853 148.273529 
L 337.422018 152.89187 
L 348.217183 159.019967 
L 359.012348 139.699664 
L 369.807513 143.700889 
L 380.602678 113.345996 
L 391.397843 114.419209 
L 402.193008 147.424935 
L 412.988173 149.935094 
L 423.783338 122.333002 
L 434.578503 123.004234 
L 445.373668 127.645728 
L 456.168833 129.379717 
L 466.963998 110.09335 
L 477.759163 115.044264 
L 488.554328 113.351399 
L 499.349493 42.550168 
L 510.144658 95.79765 
L 520.939823 58.350325 
L 531.734988 79.535908 
L 542.530153 107.00574 
L 553.325318 118.646657 
" clip-path="url(#p51575db08b)" style="fill: none; stroke: #000000; stroke-width: 1.5; stroke-linecap: square"/>
   </g>
   <g id="line2d_11">
    <path d="M 315.831688 163.46155 
L 326.626853 159.006583 
L 337.422018 166.760455 
L 348.217183 166.18152 
L 359.012348 163.336882 
L 369.807513 160.698058 
L 380.602678 160.121961 
L 391.397843 152.527045 
L 402.193008 153.768615 
L 412.988173 160.019944 
L 423.783338 157.758459 
L 434.578503 156.349108 
L 445.373668 155.533214 
L 456.168833 152.785988 
L 466.963998 149.433829 
L 477.759163 148.034582 
L 488.554328 144.485561 
L 499.349493 143.295685 
L 510.144658 139.933549 
L 520.939823 129.298521 
L 531.734988 125.368616 
L 542.530153 133.530328 
L 553.325318 134.041435 
" clip-path="url(#p51575db08b)" style="fill: none; stroke: #6699cc; stroke-width: 1.5; stroke-linecap: square"/>
   </g>
   <g id="line2d_12">
    <path d="M 315.831688 136.015785 
L 326.626853 130.342681 
L 337.422018 134.6082 
L 348.217183 118.011992 
L 359.012348 123.973204 
L 369.807513 125.144507 
L 380.602678 111.095366 
L 391.397843 120.831233 
L 402.193008 125.022211 
L 412.988173 111.09352 
L 423.783338 109.968975 
L 434.578503 100.55869 
L 445.373668 105.971364 
L 456.168833 88.096964 
L 466.963998 28.819545 
L 477.759163 74.066542 
L 488.554328 81.195752 
L 499.349493 68.830362 
L 510.144658 58.380305 
L 520.939823 64.078212 
L 531.734988 44.547357 
L 542.530153 42.768392 
L 553.325318 35.029449 
" clip-path="url(#p51575db08b)" style="fill: none; stroke: #44aa99; stroke-width: 1.5; stroke-linecap: square"/>
   </g>
   <g id="patch_7">
    <path d="M 303.957006 173.6575 
L 303.957006 21.9225 
" style="fill: none; stroke: #000000; stroke-width: 0.8; stroke-linejoin: miter; stroke-linecap: square"/>
   </g>
   <g id="patch_8">
    <path d="M 303.957006 173.6575 
L 565.2 173.6575 
" style="fill: none; stroke: #000000; stroke-width: 0.8; stroke-linejoin: miter; stroke-linecap: square"/>
   </g>
   <g id="legend_1">
    <g id="patch_9">
     <path d="M 310.957006 73.811563 
L 361.047631 73.811563 
Q 363.047631 73.811563 363.047631 71.811563 
L 363.047631 28.9225 
Q 363.047631 26.9225 361.047631 26.9225 
L 310.957006 26.9225 
Q 308.957006 26.9225 308.957006 28.9225 
L 308.957006 71.811563 
Q 308.957006 73.811563 310.957006 73.811563 
z
" style="fill: #ffffff; opacity: 0.8; stroke: #cccccc; stroke-linejoin: miter"/>
    </g>
    <g id="line2d_13">
     <path d="M 312.957006 34.9225 
L 322.957006 34.9225 
L 332.957006 34.9225 
" style="fill: none; stroke: #000000; stroke-width: 1.5; stroke-linecap: square"/>
    </g>
    <g id="text_22">
     <!-- all -->
     <g transform="translate(340.957006 38.4225) scale(0.1 -0.1)">
      <use xlink:href="#FiraSans-Regular-61"/>
      <use xlink:href="#FiraSans-Regular-6c" x="54.399994"/>
      <use xlink:href="#FiraSans-Regular-6c" x="83.699982"/>
     </g>
    </g>
    <g id="line2d_14">
     <path d="M 312.957006 49.552188 
L 322.957006 49.552188 
L 332.957006 49.552188 
" style="fill: none; stroke: #6699cc; stroke-width: 1.5; stroke-linecap: square"/>
    </g>
    <g id="text_23">
     <!-- RCD -->
     <g transform="translate(340.957006 53.052188) scale(0.1 -0.1)">
      <use xlink:href="#FiraSans-Regular-52"/>
      <use xlink:href="#FiraSans-Regular-43" x="60.499985"/>
      <use xlink:href="#FiraSans-Regular-44" x="116.499969"/>
     </g>
    </g>
    <g id="line2d_15">
     <path d="M 312.957006 64.181875 
L 322.957006 64.181875 
L 332.957006 64.181875 
" style="fill: none; stroke: #44aa99; stroke-width: 1.5; stroke-linecap: square"/>
    </g>
    <g id="text_24">
     <!-- R1F -->
     <g transform="translate(340.957006 67.681875) scale(0.1 -0.1)">
      <use xlink:href="#FiraSans-Regular-52"/>
      <use xlink:href="#FiraSans-Regular-31" x="60.499985"/>
      <use xlink:href="#FiraSans-Regular-46" x="103.799973"/>
     </g>
    </g>
   </g>
  </g>
 </g>
 <defs>
  <clipPath id="p51575db08b">
   <rect x="303.957006" y="21.9225" width="261.242994" height="151.735"/>
  </clipPath>
 </defs>
</svg>
