<?xml version="1.0" encoding="utf-8" standalone="no"?>
<!DOCTYPE svg PUBLIC "-//W3C//DTD SVG 1.1//EN"
  "http://www.w3.org/Graphics/SVG/1.1/DTD/svg11.dtd">
<svg xmlns:xlink="http://www.w3.org/1999/xlink" width="576pt" height="180pt" viewBox="0 0 576 180" xmlns="http://www.w3.org/2000/svg" version="1.1">
 <metadata>
  <rdf:RDF xmlns:dc="http://purl.org/dc/elements/1.1/" xmlns:cc="http://creativecommons.org/ns#" xmlns:rdf="http://www.w3.org/1999/02/22-rdf-syntax-ns#">
   <cc:Work>
    <dc:type rdf:resource="http://purl.org/dc/dcmitype/StillImage"/>
    <dc:date>2024-02-24T20:28:14.143699</dc:date>
    <dc:format>image/svg+xml</dc:format>
    <dc:creator>
     <cc:Agent>
      <dc:title>Matplotlib v3.7.1, https://matplotlib.org/</dc:title>
     </cc:Agent>
    </dc:creator>
   </cc:Work>
  </rdf:RDF>
 </metadata>
 <defs>
  <style type="text/css">*{stroke-linejoin: round; stroke-linecap: butt}</style>
 </defs>
 <g id="figure_1">
  <g id="patch_1">
   <path d="M 0 180 
L 576 180 
L 576 0 
L 0 0 
z
" style="fill: #ffffff"/>
  </g>
  <g id="axes_1">
   <g id="patch_2">
    <path d="M 45.66125 137.6575 
L 276.044234 137.6575 
L 276.044234 26.52 
L 45.66125 26.52 
z
" style="fill: #ffffff"/>
   </g>
   <g id="matplotlib.axis_1">
    <g id="xtick_1">
     <g id="line2d_1">
      <defs>
       <path id="m4a04353a1e" d="M 0 0 
L 0 3.5 
" style="stroke: #000000; stroke-width: 0.8"/>
      </defs>
      <g>
       <use xlink:href="#m4a04353a1e" x="56.133204" y="137.6575" style="stroke: #000000; stroke-width: 0.8"/>
      </g>
     </g>
     <g id="text_1">
      <!-- 2000 -->
      <g transform="translate(45.288673 152.1575) scale(0.1 -0.1)">
       <defs>
        <path id="FiraSans-Regular-32" d="M 1459 4346 
C 922 4346 506 4128 160 3699 
L 544 3392 
C 832 3718 1069 3859 1427 3859 
C 1843 3859 2131 3597 2131 3149 
C 2131 2451 1760 2042 250 467 
L 250 0 
L 2778 0 
L 2848 493 
L 922 493 
C 2234 1805 2746 2374 2746 3174 
C 2746 3840 2246 4346 1459 4346 
z
" transform="scale(0.015625)"/>
        <path id="FiraSans-Regular-30" d="M 1786 4346 
C 826 4346 352 3558 352 2138 
C 352 717 826 -77 1786 -77 
C 2746 -77 3219 717 3219 2138 
C 3219 3552 2746 4346 1786 4346 
z
M 1786 3878 
C 2317 3878 2605 3392 2605 2138 
C 2605 877 2317 390 1786 390 
C 1248 390 966 877 966 2138 
C 966 3392 1248 3878 1786 3878 
z
" transform="scale(0.015625)"/>
       </defs>
       <use xlink:href="#FiraSans-Regular-32"/>
       <use xlink:href="#FiraSans-Regular-30" x="49.499985"/>
       <use xlink:href="#FiraSans-Regular-30" x="105.299973"/>
       <use xlink:href="#FiraSans-Regular-30" x="161.09996"/>
      </g>
     </g>
    </g>
    <g id="xtick_2">
     <g id="line2d_2">
      <g>
       <use xlink:href="#m4a04353a1e" x="103.732994" y="137.6575" style="stroke: #000000; stroke-width: 0.8"/>
      </g>
     </g>
     <g id="text_2">
      <!-- 2005 -->
      <g transform="translate(93.173619 152.1575) scale(0.1 -0.1)">
       <defs>
        <path id="FiraSans-Regular-35" d="M 2771 4282 
L 454 4282 
L 454 2125 
L 915 2125 
C 1120 2221 1293 2272 1523 2272 
C 1965 2272 2304 2042 2304 1382 
C 2304 755 1965 403 1427 403 
C 1056 403 781 538 512 806 
L 166 467 
C 499 128 890 -77 1434 -77 
C 2323 -77 2918 518 2918 1370 
C 2918 2221 2426 2726 1702 2726 
C 1472 2726 1242 2675 1018 2560 
L 1018 3821 
L 2688 3821 
L 2771 4282 
z
" transform="scale(0.015625)"/>
       </defs>
       <use xlink:href="#FiraSans-Regular-32"/>
       <use xlink:href="#FiraSans-Regular-30" x="49.499985"/>
       <use xlink:href="#FiraSans-Regular-30" x="105.299973"/>
       <use xlink:href="#FiraSans-Regular-35" x="161.09996"/>
      </g>
     </g>
    </g>
    <g id="xtick_3">
     <g id="line2d_3">
      <g>
       <use xlink:href="#m4a04353a1e" x="151.332784" y="137.6575" style="stroke: #000000; stroke-width: 0.8"/>
      </g>
     </g>
     <g id="text_3">
      <!-- 2010 -->
      <g transform="translate(141.113253 152.1575) scale(0.1 -0.1)">
       <defs>
        <path id="FiraSans-Regular-31" d="M 2067 4282 
L 1549 4282 
L 224 3462 
L 480 3046 
L 1478 3654 
L 1478 0 
L 2067 0 
L 2067 4282 
z
" transform="scale(0.015625)"/>
       </defs>
       <use xlink:href="#FiraSans-Regular-32"/>
       <use xlink:href="#FiraSans-Regular-30" x="49.499985"/>
       <use xlink:href="#FiraSans-Regular-31" x="105.299973"/>
       <use xlink:href="#FiraSans-Regular-30" x="148.59996"/>
      </g>
     </g>
    </g>
    <g id="xtick_4">
     <g id="line2d_4">
      <g>
       <use xlink:href="#m4a04353a1e" x="198.932574" y="137.6575" style="stroke: #000000; stroke-width: 0.8"/>
      </g>
     </g>
     <g id="text_4">
      <!-- 2015 -->
      <g transform="translate(188.998199 152.1575) scale(0.1 -0.1)">
       <use xlink:href="#FiraSans-Regular-32"/>
       <use xlink:href="#FiraSans-Regular-30" x="49.499985"/>
       <use xlink:href="#FiraSans-Regular-31" x="105.299973"/>
       <use xlink:href="#FiraSans-Regular-35" x="148.59996"/>
      </g>
     </g>
    </g>
    <g id="xtick_5">
     <g id="line2d_5">
      <g>
       <use xlink:href="#m4a04353a1e" x="246.532364" y="137.6575" style="stroke: #000000; stroke-width: 0.8"/>
      </g>
     </g>
     <g id="text_5">
      <!-- 2020 -->
      <g transform="translate(236.002676 152.1575) scale(0.1 -0.1)">
       <use xlink:href="#FiraSans-Regular-32"/>
       <use xlink:href="#FiraSans-Regular-30" x="49.499985"/>
       <use xlink:href="#FiraSans-Regular-32" x="105.299973"/>
       <use xlink:href="#FiraSans-Regular-30" x="154.799957"/>
      </g>
     </g>
    </g>
    <g id="text_6">
     <!-- date -->
     <g transform="translate(150.612898 165.787187) scale(0.1 -0.1)">
      <defs>
       <path id="FiraSans-Regular-64" d="M 2630 4800 
L 2630 3034 
C 2406 3270 2118 3450 1722 3450 
C 896 3450 397 2701 397 1670 
C 397 621 851 -77 1670 -77 
C 2086 -77 2426 128 2643 467 
L 2701 0 
L 3219 0 
L 3219 4730 
L 2630 4800 
z
M 1798 390 
C 1312 390 1030 794 1030 1683 
C 1030 2560 1344 2982 1850 2982 
C 2182 2982 2419 2810 2630 2541 
L 2630 890 
C 2406 576 2176 390 1798 390 
z
" transform="scale(0.015625)"/>
       <path id="FiraSans-Regular-61" d="M 2880 787 
L 2880 2330 
C 2880 3034 2509 3450 1696 3450 
C 1318 3450 947 3373 531 3219 
L 678 2790 
C 1024 2906 1338 2970 1587 2970 
C 2054 2970 2291 2790 2291 2304 
L 2291 2054 
L 1773 2054 
C 832 2054 288 1664 288 941 
C 288 339 691 -77 1363 -77 
C 1773 -77 2131 77 2368 429 
C 2470 96 2688 -38 3027 -77 
L 3162 333 
C 2989 397 2880 493 2880 787 
z
M 1498 365 
C 1114 365 915 576 915 973 
C 915 1434 1229 1664 1850 1664 
L 2291 1664 
L 2291 890 
C 2099 538 1843 365 1498 365 
z
" transform="scale(0.015625)"/>
       <path id="FiraSans-Regular-74" d="M 2086 544 
C 1920 454 1786 410 1638 410 
C 1344 410 1235 570 1235 909 
L 1235 2918 
L 1971 2918 
L 2035 3373 
L 1235 3373 
L 1235 4205 
L 646 4134 
L 646 3373 
L 58 3373 
L 58 2918 
L 646 2918 
L 646 883 
C 646 256 986 -77 1555 -77 
C 1843 -77 2086 0 2310 154 
L 2086 544 
z
" transform="scale(0.015625)"/>
       <path id="FiraSans-Regular-65" d="M 3155 1786 
C 3155 2816 2675 3450 1766 3450 
C 896 3450 365 2701 365 1651 
C 365 582 915 -77 1856 -77 
C 2323 -77 2701 83 3034 346 
L 2778 698 
C 2483 493 2234 403 1901 403 
C 1414 403 1050 704 992 1485 
L 3142 1485 
C 3149 1562 3155 1670 3155 1786 
z
M 2573 1920 
L 992 1920 
C 1037 2669 1331 2982 1779 2982 
C 2310 2982 2573 2618 2573 1958 
L 2573 1920 
z
" transform="scale(0.015625)"/>
      </defs>
      <use xlink:href="#FiraSans-Regular-64"/>
      <use xlink:href="#FiraSans-Regular-61" x="59.799988"/>
      <use xlink:href="#FiraSans-Regular-74" x="114.199982"/>
      <use xlink:href="#FiraSans-Regular-65" x="150.299973"/>
     </g>
    </g>
   </g>
   <g id="matplotlib.axis_2">
    <g id="ytick_1">
     <g id="line2d_6">
      <defs>
       <path id="m5373073934" d="M 0 0 
L -3.5 0 
" style="stroke: #000000; stroke-width: 0.8"/>
      </defs>
      <g>
       <use xlink:href="#m5373073934" x="45.66125" y="137.6575" style="stroke: #000000; stroke-width: 0.8"/>
      </g>
     </g>
     <g id="text_7">
      <!-- 0.0 -->
      <g transform="translate(25.101875 141.4075) scale(0.1 -0.1)">
       <defs>
        <path id="FiraSans-Regular-2e" d="M 762 813 
C 512 813 320 614 320 371 
C 320 122 512 -77 762 -77 
C 1018 -77 1210 122 1210 371 
C 1210 614 1018 813 762 813 
z
" transform="scale(0.015625)"/>
       </defs>
       <use xlink:href="#FiraSans-Regular-30"/>
       <use xlink:href="#FiraSans-Regular-2e" x="55.799988"/>
       <use xlink:href="#FiraSans-Regular-30" x="79.799973"/>
      </g>
     </g>
    </g>
    <g id="ytick_2">
     <g id="line2d_7">
      <g>
       <use xlink:href="#m5373073934" x="45.66125" y="109.873125" style="stroke: #000000; stroke-width: 0.8"/>
      </g>
     </g>
     <g id="text_8">
      <!-- 0.2 -->
      <g transform="translate(25.731563 113.623125) scale(0.1 -0.1)">
       <use xlink:href="#FiraSans-Regular-30"/>
       <use xlink:href="#FiraSans-Regular-2e" x="55.799988"/>
       <use xlink:href="#FiraSans-Regular-32" x="79.799973"/>
      </g>
     </g>
    </g>
    <g id="ytick_3">
     <g id="line2d_8">
      <g>
       <use xlink:href="#m5373073934" x="45.66125" y="82.08875" style="stroke: #000000; stroke-width: 0.8"/>
      </g>
     </g>
     <g id="text_9">
      <!-- 0.4 -->
      <g transform="translate(25.36125 85.83875) scale(0.1 -0.1)">
       <defs>
        <path id="FiraSans-Regular-34" d="M 3213 1523 
L 2656 1523 
L 2656 2675 
L 2144 2675 
L 2093 1523 
L 877 1523 
L 2035 4141 
L 1542 4346 
L 256 1478 
L 256 1056 
L 2086 1056 
L 2086 0 
L 2656 0 
L 2656 1056 
L 3213 1056 
L 3213 1523 
z
" transform="scale(0.015625)"/>
       </defs>
       <use xlink:href="#FiraSans-Regular-30"/>
       <use xlink:href="#FiraSans-Regular-2e" x="55.799988"/>
       <use xlink:href="#FiraSans-Regular-34" x="79.799973"/>
      </g>
     </g>
    </g>
    <g id="ytick_4">
     <g id="line2d_9">
      <g>
       <use xlink:href="#m5373073934" x="45.66125" y="54.304375" style="stroke: #000000; stroke-width: 0.8"/>
      </g>
     </g>
     <g id="text_10">
      <!-- 0.6 -->
      <g transform="translate(25.351875 58.054375) scale(0.1 -0.1)">
       <defs>
        <path id="FiraSans-Regular-36" d="M 1971 2816 
C 1568 2816 1222 2650 941 2253 
C 973 3232 1344 3878 1965 3878 
C 2202 3878 2426 3814 2624 3693 
L 2854 4083 
C 2605 4250 2317 4346 1971 4346 
C 960 4346 352 3411 352 2010 
C 352 781 749 -77 1792 -77 
C 2547 -77 3155 518 3155 1453 
C 3155 2368 2598 2816 1971 2816 
z
M 1792 390 
C 1222 390 973 826 947 1760 
C 1165 2112 1485 2349 1869 2349 
C 2272 2349 2560 2112 2560 1434 
C 2560 806 2298 390 1792 390 
z
" transform="scale(0.015625)"/>
       </defs>
       <use xlink:href="#FiraSans-Regular-30"/>
       <use xlink:href="#FiraSans-Regular-2e" x="55.799988"/>
       <use xlink:href="#FiraSans-Regular-36" x="79.799973"/>
      </g>
     </g>
    </g>
    <g id="ytick_5">
     <g id="line2d_10">
      <g>
       <use xlink:href="#m5373073934" x="45.66125" y="26.52" style="stroke: #000000; stroke-width: 0.8"/>
      </g>
     </g>
     <g id="text_11">
      <!-- 0.8 -->
      <g transform="translate(25.172187 30.27) scale(0.1 -0.1)">
       <defs>
        <path id="FiraSans-Regular-38" d="M 2336 2298 
C 2822 2541 3066 2829 3066 3264 
C 3066 3994 2406 4346 1766 4346 
C 1114 4346 467 3968 467 3245 
C 467 2803 672 2477 1133 2246 
C 608 2016 288 1683 288 1133 
C 288 429 870 -77 1754 -77 
C 2624 -77 3238 429 3238 1146 
C 3238 1683 2925 2061 2336 2298 
z
M 1766 3904 
C 2234 3904 2490 3642 2490 3245 
C 2490 2880 2330 2656 1946 2438 
L 1837 2477 
C 1344 2637 1043 2797 1043 3238 
C 1043 3667 1325 3904 1766 3904 
z
M 1760 390 
C 1229 390 902 666 902 1133 
C 902 1600 1107 1894 1530 2099 
L 1690 2042 
C 2381 1805 2624 1600 2624 1139 
C 2624 691 2298 390 1760 390 
z
" transform="scale(0.015625)"/>
       </defs>
       <use xlink:href="#FiraSans-Regular-30"/>
       <use xlink:href="#FiraSans-Regular-2e" x="55.799988"/>
       <use xlink:href="#FiraSans-Regular-38" x="79.799973"/>
      </g>
     </g>
    </g>
    <g id="text_12">
     <!-- cash sale ratio -->
     <g transform="translate(18.972187 115.144219) rotate(-90) scale(0.1 -0.1)">
      <defs>
       <path id="FiraSans-Regular-63" d="M 1837 3450 
C 922 3450 365 2733 365 1658 
C 365 570 928 -77 1837 -77 
C 2227 -77 2566 51 2867 294 
L 2598 678 
C 2342 512 2144 422 1862 422 
C 1331 422 998 787 998 1670 
C 998 2547 1331 2963 1862 2963 
C 2144 2963 2355 2880 2586 2714 
L 2867 3085 
C 2554 3347 2234 3450 1837 3450 
z
" transform="scale(0.015625)"/>
       <path id="FiraSans-Regular-73" d="M 1523 3450 
C 826 3450 307 3059 307 2522 
C 307 2048 595 1734 1325 1542 
C 1978 1370 2144 1242 2144 909 
C 2144 589 1862 397 1421 397 
C 1056 397 742 518 474 723 
L 160 365 
C 454 109 864 -77 1434 -77 
C 2118 -77 2765 243 2765 947 
C 2765 1536 2355 1818 1645 1997 
C 1101 2138 922 2266 922 2541 
C 922 2810 1158 2982 1542 2982 
C 1856 2982 2118 2886 2419 2694 
L 2669 3066 
C 2349 3309 1997 3450 1523 3450 
z
" transform="scale(0.015625)"/>
       <path id="FiraSans-Regular-68" d="M 2195 3450 
C 1773 3450 1440 3238 1197 2906 
L 1197 4787 
L 608 4723 
L 608 0 
L 1197 0 
L 1197 2400 
C 1421 2752 1683 2989 2048 2989 
C 2368 2989 2586 2842 2586 2336 
L 2586 0 
L 3174 0 
L 3174 2419 
C 3174 3053 2810 3450 2195 3450 
z
" transform="scale(0.015625)"/>
       <path id="FiraSans-Regular-20" transform="scale(0.015625)"/>
       <path id="FiraSans-Regular-6c" d="M 1280 -77 
C 1453 -77 1619 -32 1747 38 
L 1594 448 
C 1530 422 1459 410 1376 410 
C 1222 410 1165 499 1165 678 
L 1165 4800 
L 576 4730 
L 576 666 
C 576 186 851 -77 1280 -77 
z
" transform="scale(0.015625)"/>
       <path id="FiraSans-Regular-72" d="M 2074 3450 
C 1664 3450 1350 3194 1171 2688 
L 1114 3373 
L 608 3373 
L 608 0 
L 1197 0 
L 1197 1926 
C 1338 2573 1581 2874 2003 2874 
C 2125 2874 2195 2861 2298 2835 
L 2406 3411 
C 2304 3437 2182 3450 2074 3450 
z
" transform="scale(0.015625)"/>
       <path id="FiraSans-Regular-69" d="M 896 4992 
C 653 4992 486 4819 486 4589 
C 486 4365 653 4192 896 4192 
C 1146 4192 1312 4365 1312 4589 
C 1312 4819 1146 4992 896 4992 
z
M 1197 3373 
L 608 3373 
L 608 0 
L 1197 0 
L 1197 3373 
z
" transform="scale(0.015625)"/>
       <path id="FiraSans-Regular-6f" d="M 1875 3450 
C 915 3450 365 2726 365 1683 
C 365 614 909 -77 1869 -77 
C 2822 -77 3373 646 3373 1690 
C 3373 2758 2835 3450 1875 3450 
z
M 1875 2976 
C 2432 2976 2739 2566 2739 1690 
C 2739 806 2432 397 1869 397 
C 1306 397 998 806 998 1683 
C 998 2566 1312 2976 1875 2976 
z
" transform="scale(0.015625)"/>
      </defs>
      <use xlink:href="#FiraSans-Regular-63"/>
      <use xlink:href="#FiraSans-Regular-61" x="47.799988"/>
      <use xlink:href="#FiraSans-Regular-73" x="102.199982"/>
      <use xlink:href="#FiraSans-Regular-68" x="148.899979"/>
      <use xlink:href="#FiraSans-Regular-20" x="207.499969"/>
      <use xlink:href="#FiraSans-Regular-73" x="233.999954"/>
      <use xlink:href="#FiraSans-Regular-61" x="280.699951"/>
      <use xlink:href="#FiraSans-Regular-6c" x="335.099945"/>
      <use xlink:href="#FiraSans-Regular-65" x="364.399933"/>
      <use xlink:href="#FiraSans-Regular-20" x="418.899918"/>
      <use xlink:href="#FiraSans-Regular-72" x="445.399902"/>
      <use xlink:href="#FiraSans-Regular-61" x="483.999893"/>
      <use xlink:href="#FiraSans-Regular-74" x="538.399887"/>
      <use xlink:href="#FiraSans-Regular-69" x="574.499878"/>
      <use xlink:href="#FiraSans-Regular-6f" x="602.699875"/>
     </g>
    </g>
   </g>
   <g id="line2d_11">
    <path d="M 56.133204 97.92528 
L 65.653162 94.996452 
L 75.17312 97.737421 
L 84.693078 96.835354 
L 94.213036 100.01961 
L 103.732994 86.719479 
L 113.252952 94.840708 
L 122.77291 84.208662 
L 132.292868 78.314888 
L 141.812826 65.12307 
L 151.332784 67.405436 
L 160.852742 57.839564 
L 170.3727 62.643878 
L 179.892658 66.803363 
L 189.412616 75.73673 
L 198.932574 73.753437 
L 208.452532 73.455435 
L 217.97249 71.524675 
L 227.492448 74.226933 
L 237.012406 72.317978 
L 246.532364 63.084719 
L 256.052322 62.320713 
L 265.57228 66.244768 
" clip-path="url(#p0ed653b754)" style="fill: none; stroke: #6699cc; stroke-width: 1.5; stroke-linecap: square"/>
   </g>
   <g id="line2d_12">
    <path d="M 56.133204 107.424379 
L 65.653162 109.730823 
L 75.17312 113.866172 
L 84.693078 114.872543 
L 94.213036 112.413847 
L 103.732994 110.390044 
L 113.252952 111.47364 
L 122.77291 110.965769 
L 132.292868 99.794302 
L 141.812826 96.42035 
L 151.332784 94.844404 
L 160.852742 84.682545 
L 170.3727 83.156728 
L 179.892658 85.661279 
L 189.412616 86.790409 
L 198.932574 90.309595 
L 208.452532 89.350575 
L 217.97249 88.687539 
L 227.492448 84.494032 
L 237.012406 92.454641 
L 246.532364 97.682829 
L 256.052322 90.884808 
L 265.57228 90.258358 
" clip-path="url(#p0ed653b754)" style="fill: none; stroke: #ddcc77; stroke-width: 1.5; stroke-linecap: square"/>
   </g>
   <g id="patch_3">
    <path d="M 45.66125 137.6575 
L 45.66125 26.52 
" style="fill: none; stroke: #000000; stroke-width: 0.8; stroke-linejoin: miter; stroke-linecap: square"/>
   </g>
   <g id="patch_4">
    <path d="M 45.66125 137.6575 
L 276.044234 137.6575 
" style="fill: none; stroke: #000000; stroke-width: 0.8; stroke-linejoin: miter; stroke-linecap: square"/>
   </g>
   <g id="text_13">
    <!-- Cash sale ratio in all transactions -->
    <g transform="translate(70.060554 20.52) scale(0.12 -0.12)">
     <defs>
      <path id="FiraSans-Regular-43" d="M 2182 4486 
C 1184 4486 352 3699 352 2208 
C 352 723 1126 -77 2195 -77 
C 2790 -77 3213 166 3456 416 
L 3155 800 
C 2906 614 2630 435 2214 435 
C 1530 435 998 934 998 2208 
C 998 3539 1555 3987 2221 3987 
C 2528 3987 2797 3885 3072 3661 
L 3405 4051 
C 3053 4333 2739 4486 2182 4486 
z
" transform="scale(0.015625)"/>
      <path id="FiraSans-Regular-6e" d="M 2195 3450 
C 1754 3450 1395 3219 1165 2874 
L 1114 3373 
L 608 3373 
L 608 0 
L 1197 0 
L 1197 2394 
C 1421 2752 1677 2989 2054 2989 
C 2381 2989 2586 2842 2586 2336 
L 2586 0 
L 3174 0 
L 3174 2419 
C 3174 3059 2816 3450 2195 3450 
z
" transform="scale(0.015625)"/>
     </defs>
     <use xlink:href="#FiraSans-Regular-43"/>
     <use xlink:href="#FiraSans-Regular-61" x="55.999985"/>
     <use xlink:href="#FiraSans-Regular-73" x="110.399979"/>
     <use xlink:href="#FiraSans-Regular-68" x="157.099976"/>
     <use xlink:href="#FiraSans-Regular-20" x="215.699966"/>
     <use xlink:href="#FiraSans-Regular-73" x="242.199951"/>
     <use xlink:href="#FiraSans-Regular-61" x="288.899948"/>
     <use xlink:href="#FiraSans-Regular-6c" x="343.299942"/>
     <use xlink:href="#FiraSans-Regular-65" x="372.59993"/>
     <use xlink:href="#FiraSans-Regular-20" x="427.099915"/>
     <use xlink:href="#FiraSans-Regular-72" x="453.599899"/>
     <use xlink:href="#FiraSans-Regular-61" x="492.19989"/>
     <use xlink:href="#FiraSans-Regular-74" x="546.599884"/>
     <use xlink:href="#FiraSans-Regular-69" x="582.699875"/>
     <use xlink:href="#FiraSans-Regular-6f" x="610.899872"/>
     <use xlink:href="#FiraSans-Regular-20" x="669.299866"/>
     <use xlink:href="#FiraSans-Regular-69" x="695.79985"/>
     <use xlink:href="#FiraSans-Regular-6e" x="723.999847"/>
     <use xlink:href="#FiraSans-Regular-20" x="782.599838"/>
     <use xlink:href="#FiraSans-Regular-61" x="809.099823"/>
     <use xlink:href="#FiraSans-Regular-6c" x="863.499817"/>
     <use xlink:href="#FiraSans-Regular-6c" x="892.799805"/>
     <use xlink:href="#FiraSans-Regular-20" x="922.099792"/>
     <use xlink:href="#FiraSans-Regular-74" x="948.599777"/>
     <use xlink:href="#FiraSans-Regular-72" x="984.699768"/>
     <use xlink:href="#FiraSans-Regular-61" x="1023.299759"/>
     <use xlink:href="#FiraSans-Regular-6e" x="1077.699753"/>
     <use xlink:href="#FiraSans-Regular-73" x="1136.299744"/>
     <use xlink:href="#FiraSans-Regular-61" x="1182.999741"/>
     <use xlink:href="#FiraSans-Regular-63" x="1237.399734"/>
     <use xlink:href="#FiraSans-Regular-74" x="1285.199722"/>
     <use xlink:href="#FiraSans-Regular-69" x="1321.299713"/>
     <use xlink:href="#FiraSans-Regular-6f" x="1349.49971"/>
     <use xlink:href="#FiraSans-Regular-6e" x="1407.899704"/>
     <use xlink:href="#FiraSans-Regular-73" x="1466.499695"/>
    </g>
   </g>
   <g id="legend_1">
    <g id="patch_5">
     <path d="M 194.727815 57.557059 
L 270.213234 57.557059 
Q 271.879234 57.557059 271.879234 55.891059 
L 271.879234 32.351 
Q 271.879234 30.685 270.213234 30.685 
L 194.727815 30.685 
Q 193.061815 30.685 193.061815 32.351 
L 193.061815 55.891059 
Q 193.061815 57.557059 194.727815 57.557059 
z
" style="fill: #ffffff; opacity: 0.8; stroke: #cccccc; stroke-linejoin: miter"/>
    </g>
    <g id="line2d_13">
     <path d="M 196.393815 37.349 
L 204.723815 37.349 
L 213.053815 37.349 
" style="fill: none; stroke: #6699cc; stroke-width: 1.5; stroke-linecap: square"/>
    </g>
    <g id="text_14">
     <!-- investor -->
     <g transform="translate(219.717815 40.2645) scale(0.0833 -0.0833)">
      <defs>
       <path id="FiraSans-Regular-76" d="M 3085 3373 
L 2464 3373 
L 1587 525 
L 704 3373 
L 64 3373 
L 1229 0 
L 1939 0 
L 3085 3373 
z
" transform="scale(0.015625)"/>
      </defs>
      <use xlink:href="#FiraSans-Regular-69"/>
      <use xlink:href="#FiraSans-Regular-6e" x="28.199997"/>
      <use xlink:href="#FiraSans-Regular-76" x="86.799988"/>
      <use xlink:href="#FiraSans-Regular-65" x="135.999985"/>
      <use xlink:href="#FiraSans-Regular-73" x="190.499969"/>
      <use xlink:href="#FiraSans-Regular-74" x="237.199966"/>
      <use xlink:href="#FiraSans-Regular-6f" x="273.299957"/>
      <use xlink:href="#FiraSans-Regular-72" x="331.699951"/>
     </g>
    </g>
    <g id="line2d_14">
     <path d="M 196.393815 49.53553 
L 204.723815 49.53553 
L 213.053815 49.53553 
" style="fill: none; stroke: #ddcc77; stroke-width: 1.5; stroke-linecap: square"/>
    </g>
    <g id="text_15">
     <!-- non-investor -->
     <g transform="translate(219.717815 52.45103) scale(0.0833 -0.0833)">
      <defs>
       <path id="FiraSans-Regular-2d" d="M 384 1754 
L 2195 1754 
L 2195 2253 
L 384 2253 
L 384 1754 
z
" transform="scale(0.015625)"/>
      </defs>
      <use xlink:href="#FiraSans-Regular-6e"/>
      <use xlink:href="#FiraSans-Regular-6f" x="58.599991"/>
      <use xlink:href="#FiraSans-Regular-6e" x="116.999985"/>
      <use xlink:href="#FiraSans-Regular-2d" x="175.599976"/>
      <use xlink:href="#FiraSans-Regular-69" x="215.899963"/>
      <use xlink:href="#FiraSans-Regular-6e" x="244.09996"/>
      <use xlink:href="#FiraSans-Regular-76" x="302.699951"/>
      <use xlink:href="#FiraSans-Regular-65" x="351.899948"/>
      <use xlink:href="#FiraSans-Regular-73" x="406.399933"/>
      <use xlink:href="#FiraSans-Regular-74" x="453.09993"/>
      <use xlink:href="#FiraSans-Regular-6f" x="489.199921"/>
      <use xlink:href="#FiraSans-Regular-72" x="547.599915"/>
     </g>
    </g>
   </g>
  </g>
  <g id="axes_2">
   <g id="patch_6">
    <path d="M 321.705484 137.6575 
L 552.088467 137.6575 
L 552.088467 26.52 
L 321.705484 26.52 
z
" style="fill: #ffffff"/>
   </g>
   <g id="matplotlib.axis_3">
    <g id="xtick_6">
     <g id="line2d_15">
      <g>
       <use xlink:href="#m4a04353a1e" x="351.217353" y="137.6575" style="stroke: #000000; stroke-width: 0.8"/>
      </g>
     </g>
     <g id="text_16">
      <!-- 2012 -->
      <g transform="translate(341.312666 152.1575) scale(0.1 -0.1)">
       <use xlink:href="#FiraSans-Regular-32"/>
       <use xlink:href="#FiraSans-Regular-30" x="49.499985"/>
       <use xlink:href="#FiraSans-Regular-31" x="105.299973"/>
       <use xlink:href="#FiraSans-Regular-32" x="148.59996"/>
      </g>
     </g>
    </g>
    <g id="xtick_7">
     <g id="line2d_16">
      <g>
       <use xlink:href="#m4a04353a1e" x="389.297185" y="137.6575" style="stroke: #000000; stroke-width: 0.8"/>
      </g>
     </g>
     <g id="text_17">
      <!-- 2014 -->
      <g transform="translate(379.207342 152.1575) scale(0.1 -0.1)">
       <use xlink:href="#FiraSans-Regular-32"/>
       <use xlink:href="#FiraSans-Regular-30" x="49.499985"/>
       <use xlink:href="#FiraSans-Regular-31" x="105.299973"/>
       <use xlink:href="#FiraSans-Regular-34" x="148.59996"/>
      </g>
     </g>
    </g>
    <g id="xtick_8">
     <g id="line2d_17">
      <g>
       <use xlink:href="#m4a04353a1e" x="427.377017" y="137.6575" style="stroke: #000000; stroke-width: 0.8"/>
      </g>
     </g>
     <g id="text_18">
      <!-- 2016 -->
      <g transform="translate(417.282486 152.1575) scale(0.1 -0.1)">
       <use xlink:href="#FiraSans-Regular-32"/>
       <use xlink:href="#FiraSans-Regular-30" x="49.499985"/>
       <use xlink:href="#FiraSans-Regular-31" x="105.299973"/>
       <use xlink:href="#FiraSans-Regular-36" x="148.59996"/>
      </g>
     </g>
    </g>
    <g id="xtick_9">
     <g id="line2d_18">
      <g>
       <use xlink:href="#m4a04353a1e" x="465.456849" y="137.6575" style="stroke: #000000; stroke-width: 0.8"/>
      </g>
     </g>
     <g id="text_19">
      <!-- 2018 -->
      <g transform="translate(455.272474 152.1575) scale(0.1 -0.1)">
       <use xlink:href="#FiraSans-Regular-32"/>
       <use xlink:href="#FiraSans-Regular-30" x="49.499985"/>
       <use xlink:href="#FiraSans-Regular-31" x="105.299973"/>
       <use xlink:href="#FiraSans-Regular-38" x="148.59996"/>
      </g>
     </g>
    </g>
    <g id="xtick_10">
     <g id="line2d_19">
      <g>
       <use xlink:href="#m4a04353a1e" x="503.536682" y="137.6575" style="stroke: #000000; stroke-width: 0.8"/>
      </g>
     </g>
     <g id="text_20">
      <!-- 2020 -->
      <g transform="translate(493.006994 152.1575) scale(0.1 -0.1)">
       <use xlink:href="#FiraSans-Regular-32"/>
       <use xlink:href="#FiraSans-Regular-30" x="49.499985"/>
       <use xlink:href="#FiraSans-Regular-32" x="105.299973"/>
       <use xlink:href="#FiraSans-Regular-30" x="154.799957"/>
      </g>
     </g>
    </g>
    <g id="xtick_11">
     <g id="line2d_20">
      <g>
       <use xlink:href="#m4a04353a1e" x="541.616514" y="137.6575" style="stroke: #000000; stroke-width: 0.8"/>
      </g>
     </g>
     <g id="text_21">
      <!-- 2022 -->
      <g transform="translate(531.40167 152.1575) scale(0.1 -0.1)">
       <use xlink:href="#FiraSans-Regular-32"/>
       <use xlink:href="#FiraSans-Regular-30" x="49.499985"/>
       <use xlink:href="#FiraSans-Regular-32" x="105.299973"/>
       <use xlink:href="#FiraSans-Regular-32" x="154.799957"/>
      </g>
     </g>
    </g>
    <g id="text_22">
     <!-- date -->
     <g transform="translate(426.657132 165.787187) scale(0.1 -0.1)">
      <use xlink:href="#FiraSans-Regular-64"/>
      <use xlink:href="#FiraSans-Regular-61" x="59.799988"/>
      <use xlink:href="#FiraSans-Regular-74" x="114.199982"/>
      <use xlink:href="#FiraSans-Regular-65" x="150.299973"/>
     </g>
    </g>
   </g>
   <g id="matplotlib.axis_4">
    <g id="ytick_6">
     <g id="line2d_21">
      <g>
       <use xlink:href="#m5373073934" x="321.705484" y="137.6575" style="stroke: #000000; stroke-width: 0.8"/>
      </g>
     </g>
     <g id="text_23">
      <!-- 0.0 -->
      <g transform="translate(301.146109 141.4075) scale(0.1 -0.1)">
       <use xlink:href="#FiraSans-Regular-30"/>
       <use xlink:href="#FiraSans-Regular-2e" x="55.799988"/>
       <use xlink:href="#FiraSans-Regular-30" x="79.799973"/>
      </g>
     </g>
    </g>
    <g id="ytick_7">
     <g id="line2d_22">
      <g>
       <use xlink:href="#m5373073934" x="321.705484" y="109.873125" style="stroke: #000000; stroke-width: 0.8"/>
      </g>
     </g>
     <g id="text_24">
      <!-- 0.2 -->
      <g transform="translate(301.775796 113.623125) scale(0.1 -0.1)">
       <use xlink:href="#FiraSans-Regular-30"/>
       <use xlink:href="#FiraSans-Regular-2e" x="55.799988"/>
       <use xlink:href="#FiraSans-Regular-32" x="79.799973"/>
      </g>
     </g>
    </g>
    <g id="ytick_8">
     <g id="line2d_23">
      <g>
       <use xlink:href="#m5373073934" x="321.705484" y="82.08875" style="stroke: #000000; stroke-width: 0.8"/>
      </g>
     </g>
     <g id="text_25">
      <!-- 0.4 -->
      <g transform="translate(301.405484 85.83875) scale(0.1 -0.1)">
       <use xlink:href="#FiraSans-Regular-30"/>
       <use xlink:href="#FiraSans-Regular-2e" x="55.799988"/>
       <use xlink:href="#FiraSans-Regular-34" x="79.799973"/>
      </g>
     </g>
    </g>
    <g id="ytick_9">
     <g id="line2d_24">
      <g>
       <use xlink:href="#m5373073934" x="321.705484" y="54.304375" style="stroke: #000000; stroke-width: 0.8"/>
      </g>
     </g>
     <g id="text_26">
      <!-- 0.6 -->
      <g transform="translate(301.396109 58.054375) scale(0.1 -0.1)">
       <use xlink:href="#FiraSans-Regular-30"/>
       <use xlink:href="#FiraSans-Regular-2e" x="55.799988"/>
       <use xlink:href="#FiraSans-Regular-36" x="79.799973"/>
      </g>
     </g>
    </g>
    <g id="ytick_10">
     <g id="line2d_25">
      <g>
       <use xlink:href="#m5373073934" x="321.705484" y="26.52" style="stroke: #000000; stroke-width: 0.8"/>
      </g>
     </g>
     <g id="text_27">
      <!-- 0.8 -->
      <g transform="translate(301.216421 30.27) scale(0.1 -0.1)">
       <use xlink:href="#FiraSans-Regular-30"/>
       <use xlink:href="#FiraSans-Regular-2e" x="55.799988"/>
       <use xlink:href="#FiraSans-Regular-38" x="79.799973"/>
      </g>
     </g>
    </g>
    <g id="text_28">
     <!-- cash sale ratio -->
     <g transform="translate(295.016421 115.144219) rotate(-90) scale(0.1 -0.1)">
      <use xlink:href="#FiraSans-Regular-63"/>
      <use xlink:href="#FiraSans-Regular-61" x="47.799988"/>
      <use xlink:href="#FiraSans-Regular-73" x="102.199982"/>
      <use xlink:href="#FiraSans-Regular-68" x="148.899979"/>
      <use xlink:href="#FiraSans-Regular-20" x="207.499969"/>
      <use xlink:href="#FiraSans-Regular-73" x="233.999954"/>
      <use xlink:href="#FiraSans-Regular-61" x="280.699951"/>
      <use xlink:href="#FiraSans-Regular-6c" x="335.099945"/>
      <use xlink:href="#FiraSans-Regular-65" x="364.399933"/>
      <use xlink:href="#FiraSans-Regular-20" x="418.899918"/>
      <use xlink:href="#FiraSans-Regular-72" x="445.399902"/>
      <use xlink:href="#FiraSans-Regular-61" x="483.999893"/>
      <use xlink:href="#FiraSans-Regular-74" x="538.399887"/>
      <use xlink:href="#FiraSans-Regular-69" x="574.499878"/>
      <use xlink:href="#FiraSans-Regular-6f" x="602.699875"/>
     </g>
    </g>
   </g>
   <g id="line2d_26">
    <path d="M 332.177437 59.13644 
L 351.217353 48.605016 
L 370.257269 42.784024 
L 389.297185 75.914444 
L 408.337101 60.119709 
L 427.377017 62.712804 
L 446.416933 72.827292 
L 465.456849 65.039247 
L 484.496766 51.658244 
L 503.536682 54.304375 
L 522.576598 45.042917 
L 541.616514 41.183976 
" clip-path="url(#p09ec6cb9e6)" style="fill: none; stroke: #6699cc; stroke-width: 1.5; stroke-linecap: square"/>
   </g>
   <g id="line2d_27">
    <path d="M 332.177437 72.677913 
L 351.217353 74.511193 
L 370.257269 74.708525 
L 389.297185 80.520277 
L 408.337101 90.063895 
L 427.377017 72.917209 
L 446.416933 88.805852 
L 465.456849 62.564595 
L 484.496766 84.586222 
L 503.536682 101.640718 
L 522.576598 88.944635 
L 541.616514 93.787434 
" clip-path="url(#p09ec6cb9e6)" style="fill: none; stroke: #ddcc77; stroke-width: 1.5; stroke-linecap: square"/>
   </g>
   <g id="patch_7">
    <path d="M 321.705484 137.6575 
L 321.705484 26.52 
" style="fill: none; stroke: #000000; stroke-width: 0.8; stroke-linejoin: miter; stroke-linecap: square"/>
   </g>
   <g id="patch_8">
    <path d="M 321.705484 137.6575 
L 552.088467 137.6575 
" style="fill: none; stroke: #000000; stroke-width: 0.8; stroke-linejoin: miter; stroke-linecap: square"/>
   </g>
   <g id="text_29">
    <!-- Cash sale ratio in "flipped" transactions -->
    <g transform="translate(328.649475 20.52) scale(0.12 -0.12)">
     <defs>
      <path id="FiraSans-Regular-22" d="M 480 2733 
L 922 2733 
L 1018 4410 
L 384 4410 
L 480 2733 
z
M 1632 2733 
L 2074 2733 
L 2170 4410 
L 1536 4410 
L 1632 2733 
z
" transform="scale(0.015625)"/>
      <path id="FiraSans-Regular-66" d="M 1754 4326 
C 1926 4326 2125 4294 2342 4198 
L 2528 4627 
C 2259 4742 2042 4800 1722 4800 
C 1037 4800 666 4397 666 3834 
L 666 3373 
L 64 3373 
L 64 2918 
L 666 2918 
L 666 0 
L 1254 0 
L 1254 2918 
L 2010 2918 
L 2074 3373 
L 1254 3373 
L 1254 3840 
C 1254 4166 1382 4326 1754 4326 
z
" transform="scale(0.015625)"/>
      <path id="FiraSans-Regular-70" d="M 2157 3450 
C 1773 3450 1408 3264 1158 2918 
L 1114 3373 
L 608 3373 
L 608 -1363 
L 1197 -1293 
L 1197 307 
C 1414 45 1715 -77 2080 -77 
C 2950 -77 3405 666 3405 1690 
C 3405 2752 3053 3450 2157 3450 
z
M 1939 403 
C 1632 403 1370 550 1197 813 
L 1197 2458 
C 1376 2726 1651 2982 2010 2982 
C 2515 2982 2771 2566 2771 1690 
C 2771 806 2477 403 1939 403 
z
" transform="scale(0.015625)"/>
     </defs>
     <use xlink:href="#FiraSans-Regular-43"/>
     <use xlink:href="#FiraSans-Regular-61" x="55.999985"/>
     <use xlink:href="#FiraSans-Regular-73" x="110.399979"/>
     <use xlink:href="#FiraSans-Regular-68" x="157.099976"/>
     <use xlink:href="#FiraSans-Regular-20" x="215.699966"/>
     <use xlink:href="#FiraSans-Regular-73" x="242.199951"/>
     <use xlink:href="#FiraSans-Regular-61" x="288.899948"/>
     <use xlink:href="#FiraSans-Regular-6c" x="343.299942"/>
     <use xlink:href="#FiraSans-Regular-65" x="372.59993"/>
     <use xlink:href="#FiraSans-Regular-20" x="427.099915"/>
     <use xlink:href="#FiraSans-Regular-72" x="453.599899"/>
     <use xlink:href="#FiraSans-Regular-61" x="492.19989"/>
     <use xlink:href="#FiraSans-Regular-74" x="546.599884"/>
     <use xlink:href="#FiraSans-Regular-69" x="582.699875"/>
     <use xlink:href="#FiraSans-Regular-6f" x="610.899872"/>
     <use xlink:href="#FiraSans-Regular-20" x="669.299866"/>
     <use xlink:href="#FiraSans-Regular-69" x="695.79985"/>
     <use xlink:href="#FiraSans-Regular-6e" x="723.999847"/>
     <use xlink:href="#FiraSans-Regular-20" x="782.599838"/>
     <use xlink:href="#FiraSans-Regular-22" x="809.099823"/>
     <use xlink:href="#FiraSans-Regular-66" x="848.999817"/>
     <use xlink:href="#FiraSans-Regular-6c" x="882.499802"/>
     <use xlink:href="#FiraSans-Regular-69" x="911.799789"/>
     <use xlink:href="#FiraSans-Regular-70" x="939.999786"/>
     <use xlink:href="#FiraSans-Regular-70" x="999.39978"/>
     <use xlink:href="#FiraSans-Regular-65" x="1058.799774"/>
     <use xlink:href="#FiraSans-Regular-64" x="1113.299759"/>
     <use xlink:href="#FiraSans-Regular-22" x="1173.099747"/>
     <use xlink:href="#FiraSans-Regular-20" x="1212.999741"/>
     <use xlink:href="#FiraSans-Regular-74" x="1239.499725"/>
     <use xlink:href="#FiraSans-Regular-72" x="1275.599716"/>
     <use xlink:href="#FiraSans-Regular-61" x="1314.199707"/>
     <use xlink:href="#FiraSans-Regular-6e" x="1368.599701"/>
     <use xlink:href="#FiraSans-Regular-73" x="1427.199692"/>
     <use xlink:href="#FiraSans-Regular-61" x="1473.899689"/>
     <use xlink:href="#FiraSans-Regular-63" x="1528.299683"/>
     <use xlink:href="#FiraSans-Regular-74" x="1576.09967"/>
     <use xlink:href="#FiraSans-Regular-69" x="1612.199661"/>
     <use xlink:href="#FiraSans-Regular-6f" x="1640.399658"/>
     <use xlink:href="#FiraSans-Regular-6e" x="1698.799652"/>
     <use xlink:href="#FiraSans-Regular-73" x="1757.399643"/>
    </g>
   </g>
   <g id="legend_2">
    <g id="patch_9">
     <path d="M 327.536484 133.4925 
L 403.021902 133.4925 
Q 404.687902 133.4925 404.687902 131.8265 
L 404.687902 108.286441 
Q 404.687902 106.620441 403.021902 106.620441 
L 327.536484 106.620441 
Q 325.870484 106.620441 325.870484 108.286441 
L 325.870484 131.8265 
Q 325.870484 133.4925 327.536484 133.4925 
z
" style="fill: #ffffff; opacity: 0.8; stroke: #cccccc; stroke-linejoin: miter"/>
    </g>
    <g id="line2d_28">
     <path d="M 329.202484 113.284441 
L 337.532484 113.284441 
L 345.862484 113.284441 
" style="fill: none; stroke: #6699cc; stroke-width: 1.5; stroke-linecap: square"/>
    </g>
    <g id="text_30">
     <!-- investor -->
     <g transform="translate(352.526484 116.199941) scale(0.0833 -0.0833)">
      <use xlink:href="#FiraSans-Regular-69"/>
      <use xlink:href="#FiraSans-Regular-6e" x="28.199997"/>
      <use xlink:href="#FiraSans-Regular-76" x="86.799988"/>
      <use xlink:href="#FiraSans-Regular-65" x="135.999985"/>
      <use xlink:href="#FiraSans-Regular-73" x="190.499969"/>
      <use xlink:href="#FiraSans-Regular-74" x="237.199966"/>
      <use xlink:href="#FiraSans-Regular-6f" x="273.299957"/>
      <use xlink:href="#FiraSans-Regular-72" x="331.699951"/>
     </g>
    </g>
    <g id="line2d_29">
     <path d="M 329.202484 125.47097 
L 337.532484 125.47097 
L 345.862484 125.47097 
" style="fill: none; stroke: #ddcc77; stroke-width: 1.5; stroke-linecap: square"/>
    </g>
    <g id="text_31">
     <!-- non-investor -->
     <g transform="translate(352.526484 128.38647) scale(0.0833 -0.0833)">
      <use xlink:href="#FiraSans-Regular-6e"/>
      <use xlink:href="#FiraSans-Regular-6f" x="58.599991"/>
      <use xlink:href="#FiraSans-Regular-6e" x="116.999985"/>
      <use xlink:href="#FiraSans-Regular-2d" x="175.599976"/>
      <use xlink:href="#FiraSans-Regular-69" x="215.899963"/>
      <use xlink:href="#FiraSans-Regular-6e" x="244.09996"/>
      <use xlink:href="#FiraSans-Regular-76" x="302.699951"/>
      <use xlink:href="#FiraSans-Regular-65" x="351.899948"/>
      <use xlink:href="#FiraSans-Regular-73" x="406.399933"/>
      <use xlink:href="#FiraSans-Regular-74" x="453.09993"/>
      <use xlink:href="#FiraSans-Regular-6f" x="489.199921"/>
      <use xlink:href="#FiraSans-Regular-72" x="547.599915"/>
     </g>
    </g>
   </g>
  </g>
 </g>
 <defs>
  <clipPath id="p0ed653b754">
   <rect x="45.66125" y="26.52" width="230.382984" height="111.1375"/>
  </clipPath>
  <clipPath id="p09ec6cb9e6">
   <rect x="321.705484" y="26.52" width="230.382984" height="111.1375"/>
  </clipPath>
 </defs>
</svg>
