<?xml version="1.0" encoding="utf-8" standalone="no"?>
<!DOCTYPE svg PUBLIC "-//W3C//DTD SVG 1.1//EN"
  "http://www.w3.org/Graphics/SVG/1.1/DTD/svg11.dtd">
<svg xmlns:xlink="http://www.w3.org/1999/xlink" width="576pt" height="144pt" viewBox="0 0 576 144" xmlns="http://www.w3.org/2000/svg" version="1.1">
 <metadata>
  <rdf:RDF xmlns:dc="http://purl.org/dc/elements/1.1/" xmlns:cc="http://creativecommons.org/ns#" xmlns:rdf="http://www.w3.org/1999/02/22-rdf-syntax-ns#">
   <cc:Work>
    <dc:type rdf:resource="http://purl.org/dc/dcmitype/StillImage"/>
    <dc:date>2024-02-24T20:28:13.212613</dc:date>
    <dc:format>image/svg+xml</dc:format>
    <dc:creator>
     <cc:Agent>
      <dc:title>Matplotlib v3.7.1, https://matplotlib.org/</dc:title>
     </cc:Agent>
    </dc:creator>
   </cc:Work>
  </rdf:RDF>
 </metadata>
 <defs>
  <style type="text/css">*{stroke-linejoin: round; stroke-linecap: butt}</style>
 </defs>
 <g id="figure_1">
  <g id="patch_1">
   <path d="M 0 144 
L 576 144 
L 576 0 
L 0 0 
z
" style="fill: #ffffff"/>
  </g>
  <g id="axes_1">
   <g id="patch_2">
    <path d="M 50.29 101.6575 
L 212.289576 101.6575 
L 212.289576 10.8 
L 50.29 10.8 
z
" style="fill: #ffffff"/>
   </g>
   <g id="patch_3">
    <path d="M 50.29 97.527614 
L 199.524716 97.527614 
L 199.524716 78.4666 
L 50.29 78.4666 
z
" clip-path="url(#p73a7f845e9)" style="fill: #6699cc; opacity: 0.7"/>
   </g>
   <g id="patch_4">
    <path d="M 50.29 33.9909 
L 204.575311 33.9909 
L 204.575311 14.929886 
L 50.29 14.929886 
z
" clip-path="url(#p73a7f845e9)" style="fill: #6699cc; opacity: 0.7"/>
   </g>
   <g id="matplotlib.axis_1">
    <g id="xtick_1">
     <g id="line2d_1">
      <defs>
       <path id="m4c87fb467f" d="M 0 0 
L 0 3.5 
" style="stroke: #000000; stroke-width: 0.8"/>
      </defs>
      <g>
       <use xlink:href="#m4c87fb467f" x="50.29" y="101.6575" style="stroke: #000000; stroke-width: 0.8"/>
      </g>
     </g>
     <g id="text_1">
      <!-- 0 -->
      <g transform="translate(47.500156 116.1575) scale(0.1 -0.1)">
       <defs>
        <path id="FiraSans-Regular-30" d="M 1786 4346 
C 826 4346 352 3558 352 2138 
C 352 717 826 -77 1786 -77 
C 2746 -77 3219 717 3219 2138 
C 3219 3552 2746 4346 1786 4346 
z
M 1786 3878 
C 2317 3878 2605 3392 2605 2138 
C 2605 877 2317 390 1786 390 
C 1248 390 966 877 966 2138 
C 966 3392 1248 3878 1786 3878 
z
" transform="scale(0.015625)"/>
       </defs>
       <use xlink:href="#FiraSans-Regular-30"/>
      </g>
     </g>
    </g>
    <g id="xtick_2">
     <g id="line2d_2">
      <g>
       <use xlink:href="#m4c87fb467f" x="103.317421" y="101.6575" style="stroke: #000000; stroke-width: 0.8"/>
      </g>
     </g>
     <g id="text_2">
      <!-- 1 -->
      <g transform="translate(101.152577 116.1575) scale(0.1 -0.1)">
       <defs>
        <path id="FiraSans-Regular-31" d="M 2067 4282 
L 1549 4282 
L 224 3462 
L 480 3046 
L 1478 3654 
L 1478 0 
L 2067 0 
L 2067 4282 
z
" transform="scale(0.015625)"/>
       </defs>
       <use xlink:href="#FiraSans-Regular-31"/>
      </g>
     </g>
    </g>
    <g id="xtick_3">
     <g id="line2d_3">
      <g>
       <use xlink:href="#m4c87fb467f" x="156.344842" y="101.6575" style="stroke: #000000; stroke-width: 0.8"/>
      </g>
     </g>
     <g id="text_3">
      <!-- 2 -->
      <g transform="translate(153.869842 116.1575) scale(0.1 -0.1)">
       <defs>
        <path id="FiraSans-Regular-32" d="M 1459 4346 
C 922 4346 506 4128 160 3699 
L 544 3392 
C 832 3718 1069 3859 1427 3859 
C 1843 3859 2131 3597 2131 3149 
C 2131 2451 1760 2042 250 467 
L 250 0 
L 2778 0 
L 2848 493 
L 922 493 
C 2234 1805 2746 2374 2746 3174 
C 2746 3840 2246 4346 1459 4346 
z
" transform="scale(0.015625)"/>
       </defs>
       <use xlink:href="#FiraSans-Regular-32"/>
      </g>
     </g>
    </g>
    <g id="xtick_4">
     <g id="line2d_4">
      <g>
       <use xlink:href="#m4c87fb467f" x="209.372263" y="101.6575" style="stroke: #000000; stroke-width: 0.8"/>
      </g>
     </g>
     <g id="text_4">
      <!-- 3 -->
      <g transform="translate(206.876951 116.1575) scale(0.1 -0.1)">
       <defs>
        <path id="FiraSans-Regular-33" d="M 1440 4346 
C 979 4346 582 4179 218 3840 
L 525 3488 
C 813 3757 1069 3872 1408 3872 
C 1837 3872 2118 3622 2118 3219 
C 2118 2720 1766 2464 1344 2464 
L 1126 2464 
L 1056 2010 
L 1376 2010 
C 1894 2010 2227 1830 2227 1242 
C 2227 736 1901 403 1363 403 
C 1018 403 730 531 448 826 
L 96 499 
C 422 109 870 -77 1382 -77 
C 2272 -77 2842 486 2842 1235 
C 2842 1882 2413 2221 1875 2272 
C 2355 2387 2707 2714 2707 3258 
C 2707 3834 2259 4346 1440 4346 
z
" transform="scale(0.015625)"/>
       </defs>
       <use xlink:href="#FiraSans-Regular-33"/>
      </g>
     </g>
    </g>
    <g id="text_5">
     <!-- mean price in low tier -->
     <g transform="translate(81.724944 130.087187) scale(0.1 -0.1)">
      <defs>
       <path id="FiraSans-Regular-6d" d="M 3994 3450 
C 3539 3450 3232 3206 2989 2842 
C 2861 3226 2554 3450 2138 3450 
C 1696 3450 1389 3219 1165 2880 
L 1114 3373 
L 608 3373 
L 608 0 
L 1197 0 
L 1197 2394 
C 1421 2752 1626 2989 1990 2989 
C 2246 2989 2464 2842 2464 2336 
L 2464 0 
L 3053 0 
L 3053 2394 
C 3283 2752 3482 2989 3846 2989 
C 4102 2989 4320 2842 4320 2336 
L 4320 0 
L 4909 0 
L 4909 2419 
C 4909 3053 4544 3450 3994 3450 
z
" transform="scale(0.015625)"/>
       <path id="FiraSans-Regular-65" d="M 3155 1786 
C 3155 2816 2675 3450 1766 3450 
C 896 3450 365 2701 365 1651 
C 365 582 915 -77 1856 -77 
C 2323 -77 2701 83 3034 346 
L 2778 698 
C 2483 493 2234 403 1901 403 
C 1414 403 1050 704 992 1485 
L 3142 1485 
C 3149 1562 3155 1670 3155 1786 
z
M 2573 1920 
L 992 1920 
C 1037 2669 1331 2982 1779 2982 
C 2310 2982 2573 2618 2573 1958 
L 2573 1920 
z
" transform="scale(0.015625)"/>
       <path id="FiraSans-Regular-61" d="M 2880 787 
L 2880 2330 
C 2880 3034 2509 3450 1696 3450 
C 1318 3450 947 3373 531 3219 
L 678 2790 
C 1024 2906 1338 2970 1587 2970 
C 2054 2970 2291 2790 2291 2304 
L 2291 2054 
L 1773 2054 
C 832 2054 288 1664 288 941 
C 288 339 691 -77 1363 -77 
C 1773 -77 2131 77 2368 429 
C 2470 96 2688 -38 3027 -77 
L 3162 333 
C 2989 397 2880 493 2880 787 
z
M 1498 365 
C 1114 365 915 576 915 973 
C 915 1434 1229 1664 1850 1664 
L 2291 1664 
L 2291 890 
C 2099 538 1843 365 1498 365 
z
" transform="scale(0.015625)"/>
       <path id="FiraSans-Regular-6e" d="M 2195 3450 
C 1754 3450 1395 3219 1165 2874 
L 1114 3373 
L 608 3373 
L 608 0 
L 1197 0 
L 1197 2394 
C 1421 2752 1677 2989 2054 2989 
C 2381 2989 2586 2842 2586 2336 
L 2586 0 
L 3174 0 
L 3174 2419 
C 3174 3059 2816 3450 2195 3450 
z
" transform="scale(0.015625)"/>
       <path id="FiraSans-Regular-20" transform="scale(0.015625)"/>
       <path id="FiraSans-Regular-70" d="M 2157 3450 
C 1773 3450 1408 3264 1158 2918 
L 1114 3373 
L 608 3373 
L 608 -1363 
L 1197 -1293 
L 1197 307 
C 1414 45 1715 -77 2080 -77 
C 2950 -77 3405 666 3405 1690 
C 3405 2752 3053 3450 2157 3450 
z
M 1939 403 
C 1632 403 1370 550 1197 813 
L 1197 2458 
C 1376 2726 1651 2982 2010 2982 
C 2515 2982 2771 2566 2771 1690 
C 2771 806 2477 403 1939 403 
z
" transform="scale(0.015625)"/>
       <path id="FiraSans-Regular-72" d="M 2074 3450 
C 1664 3450 1350 3194 1171 2688 
L 1114 3373 
L 608 3373 
L 608 0 
L 1197 0 
L 1197 1926 
C 1338 2573 1581 2874 2003 2874 
C 2125 2874 2195 2861 2298 2835 
L 2406 3411 
C 2304 3437 2182 3450 2074 3450 
z
" transform="scale(0.015625)"/>
       <path id="FiraSans-Regular-69" d="M 896 4992 
C 653 4992 486 4819 486 4589 
C 486 4365 653 4192 896 4192 
C 1146 4192 1312 4365 1312 4589 
C 1312 4819 1146 4992 896 4992 
z
M 1197 3373 
L 608 3373 
L 608 0 
L 1197 0 
L 1197 3373 
z
" transform="scale(0.015625)"/>
       <path id="FiraSans-Regular-63" d="M 1837 3450 
C 922 3450 365 2733 365 1658 
C 365 570 928 -77 1837 -77 
C 2227 -77 2566 51 2867 294 
L 2598 678 
C 2342 512 2144 422 1862 422 
C 1331 422 998 787 998 1670 
C 998 2547 1331 2963 1862 2963 
C 2144 2963 2355 2880 2586 2714 
L 2867 3085 
C 2554 3347 2234 3450 1837 3450 
z
" transform="scale(0.015625)"/>
       <path id="FiraSans-Regular-6c" d="M 1280 -77 
C 1453 -77 1619 -32 1747 38 
L 1594 448 
C 1530 422 1459 410 1376 410 
C 1222 410 1165 499 1165 678 
L 1165 4800 
L 576 4730 
L 576 666 
C 576 186 851 -77 1280 -77 
z
" transform="scale(0.015625)"/>
       <path id="FiraSans-Regular-6f" d="M 1875 3450 
C 915 3450 365 2726 365 1683 
C 365 614 909 -77 1869 -77 
C 2822 -77 3373 646 3373 1690 
C 3373 2758 2835 3450 1875 3450 
z
M 1875 2976 
C 2432 2976 2739 2566 2739 1690 
C 2739 806 2432 397 1869 397 
C 1306 397 998 806 998 1683 
C 998 2566 1312 2976 1875 2976 
z
" transform="scale(0.015625)"/>
       <path id="FiraSans-Regular-77" d="M 4461 3373 
L 3898 3373 
L 3283 410 
L 2650 3373 
L 1990 3373 
L 1325 410 
L 717 3373 
L 128 3373 
L 915 0 
L 1696 0 
L 2304 2842 
L 2893 0 
L 3693 0 
L 4461 3373 
z
" transform="scale(0.015625)"/>
       <path id="FiraSans-Regular-74" d="M 2086 544 
C 1920 454 1786 410 1638 410 
C 1344 410 1235 570 1235 909 
L 1235 2918 
L 1971 2918 
L 2035 3373 
L 1235 3373 
L 1235 4205 
L 646 4134 
L 646 3373 
L 58 3373 
L 58 2918 
L 646 2918 
L 646 883 
C 646 256 986 -77 1555 -77 
C 1843 -77 2086 0 2310 154 
L 2086 544 
z
" transform="scale(0.015625)"/>
      </defs>
      <use xlink:href="#FiraSans-Regular-6d"/>
      <use xlink:href="#FiraSans-Regular-65" x="85.699982"/>
      <use xlink:href="#FiraSans-Regular-61" x="140.199966"/>
      <use xlink:href="#FiraSans-Regular-6e" x="194.59996"/>
      <use xlink:href="#FiraSans-Regular-20" x="253.199951"/>
      <use xlink:href="#FiraSans-Regular-70" x="279.699936"/>
      <use xlink:href="#FiraSans-Regular-72" x="339.09993"/>
      <use xlink:href="#FiraSans-Regular-69" x="377.699921"/>
      <use xlink:href="#FiraSans-Regular-63" x="405.899918"/>
      <use xlink:href="#FiraSans-Regular-65" x="453.699905"/>
      <use xlink:href="#FiraSans-Regular-20" x="508.19989"/>
      <use xlink:href="#FiraSans-Regular-69" x="534.699875"/>
      <use xlink:href="#FiraSans-Regular-6e" x="562.899872"/>
      <use xlink:href="#FiraSans-Regular-20" x="621.499863"/>
      <use xlink:href="#FiraSans-Regular-6c" x="647.999847"/>
      <use xlink:href="#FiraSans-Regular-6f" x="677.299835"/>
      <use xlink:href="#FiraSans-Regular-77" x="735.699829"/>
      <use xlink:href="#FiraSans-Regular-20" x="807.399811"/>
      <use xlink:href="#FiraSans-Regular-74" x="833.899796"/>
      <use xlink:href="#FiraSans-Regular-69" x="869.999786"/>
      <use xlink:href="#FiraSans-Regular-65" x="898.199783"/>
      <use xlink:href="#FiraSans-Regular-72" x="952.699768"/>
     </g>
    </g>
    <g id="text_6">
     <!-- 1e5 -->
     <g transform="translate(197.500514 128.787187) scale(0.1 -0.1)">
      <defs>
       <path id="FiraSans-Regular-35" d="M 2771 4282 
L 454 4282 
L 454 2125 
L 915 2125 
C 1120 2221 1293 2272 1523 2272 
C 1965 2272 2304 2042 2304 1382 
C 2304 755 1965 403 1427 403 
C 1056 403 781 538 512 806 
L 166 467 
C 499 128 890 -77 1434 -77 
C 2323 -77 2918 518 2918 1370 
C 2918 2221 2426 2726 1702 2726 
C 1472 2726 1242 2675 1018 2560 
L 1018 3821 
L 2688 3821 
L 2771 4282 
z
" transform="scale(0.015625)"/>
      </defs>
      <use xlink:href="#FiraSans-Regular-31"/>
      <use xlink:href="#FiraSans-Regular-65" x="43.299988"/>
      <use xlink:href="#FiraSans-Regular-35" x="97.799973"/>
     </g>
    </g>
   </g>
   <g id="matplotlib.axis_2">
    <g id="ytick_1">
     <g id="line2d_5">
      <defs>
       <path id="m0bf23209fd" d="M 0 0 
L -3.5 0 
" style="stroke: #000000; stroke-width: 0.8"/>
      </defs>
      <g>
       <use xlink:href="#m0bf23209fd" x="50.29" y="87.997107" style="stroke: #000000; stroke-width: 0.8"/>
      </g>
     </g>
     <g id="text_7">
      <!-- all -->
      <g transform="translate(31.99 91.747107) scale(0.1 -0.1)">
       <use xlink:href="#FiraSans-Regular-61"/>
       <use xlink:href="#FiraSans-Regular-6c" x="54.399994"/>
       <use xlink:href="#FiraSans-Regular-6c" x="83.699982"/>
      </g>
     </g>
    </g>
    <g id="ytick_2">
     <g id="line2d_6">
      <g>
       <use xlink:href="#m0bf23209fd" x="50.29" y="24.460393" style="stroke: #000000; stroke-width: 0.8"/>
      </g>
     </g>
     <g id="text_8">
      <!-- flipped -->
      <g transform="translate(10.879063 28.360393) scale(0.1 -0.1)">
       <defs>
        <path id="FiraSans-Regular-66" d="M 1754 4326 
C 1926 4326 2125 4294 2342 4198 
L 2528 4627 
C 2259 4742 2042 4800 1722 4800 
C 1037 4800 666 4397 666 3834 
L 666 3373 
L 64 3373 
L 64 2918 
L 666 2918 
L 666 0 
L 1254 0 
L 1254 2918 
L 2010 2918 
L 2074 3373 
L 1254 3373 
L 1254 3840 
C 1254 4166 1382 4326 1754 4326 
z
" transform="scale(0.015625)"/>
        <path id="FiraSans-Regular-64" d="M 2630 4800 
L 2630 3034 
C 2406 3270 2118 3450 1722 3450 
C 896 3450 397 2701 397 1670 
C 397 621 851 -77 1670 -77 
C 2086 -77 2426 128 2643 467 
L 2701 0 
L 3219 0 
L 3219 4730 
L 2630 4800 
z
M 1798 390 
C 1312 390 1030 794 1030 1683 
C 1030 2560 1344 2982 1850 2982 
C 2182 2982 2419 2810 2630 2541 
L 2630 890 
C 2406 576 2176 390 1798 390 
z
" transform="scale(0.015625)"/>
       </defs>
       <use xlink:href="#FiraSans-Regular-66"/>
       <use xlink:href="#FiraSans-Regular-6c" x="33.499985"/>
       <use xlink:href="#FiraSans-Regular-69" x="62.799973"/>
       <use xlink:href="#FiraSans-Regular-70" x="90.999969"/>
       <use xlink:href="#FiraSans-Regular-70" x="150.399963"/>
       <use xlink:href="#FiraSans-Regular-65" x="209.799957"/>
       <use xlink:href="#FiraSans-Regular-64" x="264.299942"/>
      </g>
     </g>
    </g>
   </g>
   <g id="patch_5">
    <path d="M 50.29 101.6575 
L 50.29 10.8 
" style="fill: none; stroke: #000000; stroke-width: 0.8; stroke-linejoin: miter; stroke-linecap: square"/>
   </g>
   <g id="patch_6">
    <path d="M 50.29 101.6575 
L 212.289576 101.6575 
" style="fill: none; stroke: #000000; stroke-width: 0.8; stroke-linejoin: miter; stroke-linecap: square"/>
   </g>
   <g id="text_9">
    <!-- 281429 -->
    <g transform="translate(162.216037 90.682263) scale(0.1 -0.1)">
     <defs>
      <path id="FiraSans-Regular-38" d="M 2336 2298 
C 2822 2541 3066 2829 3066 3264 
C 3066 3994 2406 4346 1766 4346 
C 1114 4346 467 3968 467 3245 
C 467 2803 672 2477 1133 2246 
C 608 2016 288 1683 288 1133 
C 288 429 870 -77 1754 -77 
C 2624 -77 3238 429 3238 1146 
C 3238 1683 2925 2061 2336 2298 
z
M 1766 3904 
C 2234 3904 2490 3642 2490 3245 
C 2490 2880 2330 2656 1946 2438 
L 1837 2477 
C 1344 2637 1043 2797 1043 3238 
C 1043 3667 1325 3904 1766 3904 
z
M 1760 390 
C 1229 390 902 666 902 1133 
C 902 1600 1107 1894 1530 2099 
L 1690 2042 
C 2381 1805 2624 1600 2624 1139 
C 2624 691 2298 390 1760 390 
z
" transform="scale(0.015625)"/>
      <path id="FiraSans-Regular-34" d="M 3213 1523 
L 2656 1523 
L 2656 2675 
L 2144 2675 
L 2093 1523 
L 877 1523 
L 2035 4141 
L 1542 4346 
L 256 1478 
L 256 1056 
L 2086 1056 
L 2086 0 
L 2656 0 
L 2656 1056 
L 3213 1056 
L 3213 1523 
z
" transform="scale(0.015625)"/>
      <path id="FiraSans-Regular-39" d="M 1658 4346 
C 915 4346 288 3827 288 2931 
C 288 2080 806 1555 1472 1555 
C 1907 1555 2246 1779 2432 2067 
C 2387 1101 1702 608 627 301 
L 762 -141 
C 2336 314 3040 909 3040 2682 
C 3040 3686 2579 4346 1658 4346 
z
M 1594 2016 
C 1178 2016 883 2304 883 2918 
C 883 3533 1171 3878 1670 3878 
C 2202 3878 2464 3514 2445 2547 
C 2234 2221 1958 2016 1594 2016 
z
" transform="scale(0.015625)"/>
     </defs>
     <use xlink:href="#FiraSans-Regular-32"/>
     <use xlink:href="#FiraSans-Regular-38" x="49.499985"/>
     <use xlink:href="#FiraSans-Regular-31" x="104.599976"/>
     <use xlink:href="#FiraSans-Regular-34" x="147.899963"/>
     <use xlink:href="#FiraSans-Regular-32" x="201.09996"/>
     <use xlink:href="#FiraSans-Regular-39" x="250.599945"/>
    </g>
   </g>
   <g id="text_10">
    <!-- 290954 -->
    <g transform="translate(166.003983 27.14555) scale(0.1 -0.1)">
     <use xlink:href="#FiraSans-Regular-32"/>
     <use xlink:href="#FiraSans-Regular-39" x="49.499985"/>
     <use xlink:href="#FiraSans-Regular-30" x="101.999969"/>
     <use xlink:href="#FiraSans-Regular-39" x="157.799957"/>
     <use xlink:href="#FiraSans-Regular-35" x="210.299942"/>
     <use xlink:href="#FiraSans-Regular-34" x="260.399933"/>
    </g>
   </g>
  </g>
  <g id="axes_2">
   <g id="patch_7">
    <path d="M 226.745212 101.6575 
L 388.744788 101.6575 
L 388.744788 10.8 
L 226.745212 10.8 
z
" style="fill: #ffffff"/>
   </g>
   <g id="patch_8">
    <path d="M 226.745212 97.527614 
L 377.202633 97.527614 
L 377.202633 78.4666 
L 226.745212 78.4666 
z
" clip-path="url(#pce31213368)" style="fill: #6699cc; opacity: 0.7"/>
   </g>
   <g id="patch_9">
    <path d="M 226.745212 33.9909 
L 381.030523 33.9909 
L 381.030523 14.929886 
L 226.745212 14.929886 
z
" clip-path="url(#pce31213368)" style="fill: #6699cc; opacity: 0.7"/>
   </g>
   <g id="matplotlib.axis_3">
    <g id="xtick_5">
     <g id="line2d_7">
      <g>
       <use xlink:href="#m4c87fb467f" x="226.745212" y="101.6575" style="stroke: #000000; stroke-width: 0.8"/>
      </g>
     </g>
     <g id="text_11">
      <!-- 0 -->
      <g transform="translate(223.955368 116.1575) scale(0.1 -0.1)">
       <use xlink:href="#FiraSans-Regular-30"/>
      </g>
     </g>
    </g>
    <g id="xtick_6">
     <g id="line2d_8">
      <g>
       <use xlink:href="#m4c87fb467f" x="274.094995" y="101.6575" style="stroke: #000000; stroke-width: 0.8"/>
      </g>
     </g>
     <g id="text_12">
      <!-- 2 -->
      <g transform="translate(271.619995 116.1575) scale(0.1 -0.1)">
       <use xlink:href="#FiraSans-Regular-32"/>
      </g>
     </g>
    </g>
    <g id="xtick_7">
     <g id="line2d_9">
      <g>
       <use xlink:href="#m4c87fb467f" x="321.444778" y="101.6575" style="stroke: #000000; stroke-width: 0.8"/>
      </g>
     </g>
     <g id="text_13">
      <!-- 4 -->
      <g transform="translate(318.784622 116.1575) scale(0.1 -0.1)">
       <use xlink:href="#FiraSans-Regular-34"/>
      </g>
     </g>
    </g>
    <g id="xtick_8">
     <g id="line2d_10">
      <g>
       <use xlink:href="#m4c87fb467f" x="368.794561" y="101.6575" style="stroke: #000000; stroke-width: 0.8"/>
      </g>
     </g>
     <g id="text_14">
      <!-- 6 -->
      <g transform="translate(366.129717 116.1575) scale(0.1 -0.1)">
       <defs>
        <path id="FiraSans-Regular-36" d="M 1971 2816 
C 1568 2816 1222 2650 941 2253 
C 973 3232 1344 3878 1965 3878 
C 2202 3878 2426 3814 2624 3693 
L 2854 4083 
C 2605 4250 2317 4346 1971 4346 
C 960 4346 352 3411 352 2010 
C 352 781 749 -77 1792 -77 
C 2547 -77 3155 518 3155 1453 
C 3155 2368 2598 2816 1971 2816 
z
M 1792 390 
C 1222 390 973 826 947 1760 
C 1165 2112 1485 2349 1869 2349 
C 2272 2349 2560 2112 2560 1434 
C 2560 806 2298 390 1792 390 
z
" transform="scale(0.015625)"/>
       </defs>
       <use xlink:href="#FiraSans-Regular-36"/>
      </g>
     </g>
    </g>
    <g id="text_15">
     <!-- mean price in medium tier -->
     <g transform="translate(247.545 130.087187) scale(0.1 -0.1)">
      <defs>
       <path id="FiraSans-Regular-75" d="M 3117 3373 
L 2528 3373 
L 2528 966 
C 2323 627 2048 384 1683 384 
C 1318 384 1165 557 1165 1018 
L 1165 3373 
L 576 3373 
L 576 954 
C 576 294 928 -77 1517 -77 
C 1997 -77 2310 115 2566 525 
L 2611 0 
L 3117 0 
L 3117 3373 
z
" transform="scale(0.015625)"/>
      </defs>
      <use xlink:href="#FiraSans-Regular-6d"/>
      <use xlink:href="#FiraSans-Regular-65" x="85.699982"/>
      <use xlink:href="#FiraSans-Regular-61" x="140.199966"/>
      <use xlink:href="#FiraSans-Regular-6e" x="194.59996"/>
      <use xlink:href="#FiraSans-Regular-20" x="253.199951"/>
      <use xlink:href="#FiraSans-Regular-70" x="279.699936"/>
      <use xlink:href="#FiraSans-Regular-72" x="339.09993"/>
      <use xlink:href="#FiraSans-Regular-69" x="377.699921"/>
      <use xlink:href="#FiraSans-Regular-63" x="405.899918"/>
      <use xlink:href="#FiraSans-Regular-65" x="453.699905"/>
      <use xlink:href="#FiraSans-Regular-20" x="508.19989"/>
      <use xlink:href="#FiraSans-Regular-69" x="534.699875"/>
      <use xlink:href="#FiraSans-Regular-6e" x="562.899872"/>
      <use xlink:href="#FiraSans-Regular-20" x="621.499863"/>
      <use xlink:href="#FiraSans-Regular-6d" x="647.999847"/>
      <use xlink:href="#FiraSans-Regular-65" x="733.699829"/>
      <use xlink:href="#FiraSans-Regular-64" x="788.199814"/>
      <use xlink:href="#FiraSans-Regular-69" x="847.999802"/>
      <use xlink:href="#FiraSans-Regular-75" x="876.199799"/>
      <use xlink:href="#FiraSans-Regular-6d" x="934.399796"/>
      <use xlink:href="#FiraSans-Regular-20" x="1020.099777"/>
      <use xlink:href="#FiraSans-Regular-74" x="1046.599762"/>
      <use xlink:href="#FiraSans-Regular-69" x="1082.699753"/>
      <use xlink:href="#FiraSans-Regular-65" x="1110.89975"/>
      <use xlink:href="#FiraSans-Regular-72" x="1165.399734"/>
     </g>
    </g>
    <g id="text_16">
     <!-- 1e5 -->
     <g transform="translate(373.955726 128.787187) scale(0.1 -0.1)">
      <use xlink:href="#FiraSans-Regular-31"/>
      <use xlink:href="#FiraSans-Regular-65" x="43.299988"/>
      <use xlink:href="#FiraSans-Regular-35" x="97.799973"/>
     </g>
    </g>
   </g>
   <g id="matplotlib.axis_4">
    <g id="ytick_3">
     <g id="line2d_11">
      <g>
       <use xlink:href="#m0bf23209fd" x="226.745212" y="87.997107" style="stroke: #000000; stroke-width: 0.8"/>
      </g>
     </g>
    </g>
    <g id="ytick_4">
     <g id="line2d_12">
      <g>
       <use xlink:href="#m0bf23209fd" x="226.745212" y="24.460393" style="stroke: #000000; stroke-width: 0.8"/>
      </g>
     </g>
    </g>
   </g>
   <g id="patch_10">
    <path d="M 226.745212 101.6575 
L 226.745212 10.8 
" style="fill: none; stroke: #000000; stroke-width: 0.8; stroke-linejoin: miter; stroke-linecap: square"/>
   </g>
   <g id="patch_11">
    <path d="M 226.745212 101.6575 
L 388.744788 101.6575 
" style="fill: none; stroke: #000000; stroke-width: 0.8; stroke-linejoin: miter; stroke-linecap: square"/>
   </g>
   <g id="text_17">
    <!-- 635515 -->
    <g transform="translate(339.588278 90.682263) scale(0.1 -0.1)">
     <use xlink:href="#FiraSans-Regular-36"/>
     <use xlink:href="#FiraSans-Regular-33" x="53.299988"/>
     <use xlink:href="#FiraSans-Regular-35" x="103.199982"/>
     <use xlink:href="#FiraSans-Regular-35" x="153.299973"/>
     <use xlink:href="#FiraSans-Regular-31" x="203.399963"/>
     <use xlink:href="#FiraSans-Regular-35" x="246.699951"/>
    </g>
   </g>
   <g id="text_18">
    <!-- 651683 -->
    <g transform="translate(342.459195 27.14555) scale(0.1 -0.1)">
     <use xlink:href="#FiraSans-Regular-36"/>
     <use xlink:href="#FiraSans-Regular-35" x="53.299988"/>
     <use xlink:href="#FiraSans-Regular-31" x="103.399979"/>
     <use xlink:href="#FiraSans-Regular-36" x="146.699966"/>
     <use xlink:href="#FiraSans-Regular-38" x="199.999954"/>
     <use xlink:href="#FiraSans-Regular-33" x="255.099945"/>
    </g>
   </g>
  </g>
  <g id="axes_3">
   <g id="patch_12">
    <path d="M 403.200424 101.6575 
L 565.2 101.6575 
L 565.2 10.8 
L 403.200424 10.8 
z
" style="fill: #ffffff"/>
   </g>
   <g id="patch_13">
    <path d="M 403.200424 97.527614 
L 552.685103 97.527614 
L 552.685103 78.4666 
L 403.200424 78.4666 
z
" clip-path="url(#p4bb9f0bbad)" style="fill: #6699cc; opacity: 0.7"/>
   </g>
   <g id="patch_14">
    <path d="M 403.200424 33.9909 
L 557.485734 33.9909 
L 557.485734 14.929886 
L 403.200424 14.929886 
z
" clip-path="url(#p4bb9f0bbad)" style="fill: #6699cc; opacity: 0.7"/>
   </g>
   <g id="matplotlib.axis_5">
    <g id="xtick_9">
     <g id="line2d_13">
      <g>
       <use xlink:href="#m4c87fb467f" x="403.200424" y="101.6575" style="stroke: #000000; stroke-width: 0.8"/>
      </g>
     </g>
     <g id="text_19">
      <!-- 0 -->
      <g transform="translate(400.41058 116.1575) scale(0.1 -0.1)">
       <use xlink:href="#FiraSans-Regular-30"/>
      </g>
     </g>
    </g>
    <g id="xtick_10">
     <g id="line2d_14">
      <g>
       <use xlink:href="#m4c87fb467f" x="449.274688" y="101.6575" style="stroke: #000000; stroke-width: 0.8"/>
      </g>
     </g>
     <g id="text_20">
      <!-- 1 -->
      <g transform="translate(447.109844 116.1575) scale(0.1 -0.1)">
       <use xlink:href="#FiraSans-Regular-31"/>
      </g>
     </g>
    </g>
    <g id="xtick_11">
     <g id="line2d_15">
      <g>
       <use xlink:href="#m4c87fb467f" x="495.348952" y="101.6575" style="stroke: #000000; stroke-width: 0.8"/>
      </g>
     </g>
     <g id="text_21">
      <!-- 2 -->
      <g transform="translate(492.873952 116.1575) scale(0.1 -0.1)">
       <use xlink:href="#FiraSans-Regular-32"/>
      </g>
     </g>
    </g>
    <g id="xtick_12">
     <g id="line2d_16">
      <g>
       <use xlink:href="#m4c87fb467f" x="541.423216" y="101.6575" style="stroke: #000000; stroke-width: 0.8"/>
      </g>
     </g>
     <g id="text_22">
      <!-- 3 -->
      <g transform="translate(538.927903 116.1575) scale(0.1 -0.1)">
       <use xlink:href="#FiraSans-Regular-33"/>
      </g>
     </g>
    </g>
    <g id="text_23">
     <!-- mean price in high tier -->
     <g transform="translate(432.736149 130.087187) scale(0.1 -0.1)">
      <defs>
       <path id="FiraSans-Regular-68" d="M 2195 3450 
C 1773 3450 1440 3238 1197 2906 
L 1197 4787 
L 608 4723 
L 608 0 
L 1197 0 
L 1197 2400 
C 1421 2752 1683 2989 2048 2989 
C 2368 2989 2586 2842 2586 2336 
L 2586 0 
L 3174 0 
L 3174 2419 
C 3174 3053 2810 3450 2195 3450 
z
" transform="scale(0.015625)"/>
       <path id="FiraSans-Regular-67" d="M 3155 3750 
C 2758 3571 2451 3430 1613 3450 
C 870 3450 314 2963 314 2272 
C 314 1837 493 1542 883 1338 
C 640 1178 512 960 512 742 
C 512 403 781 102 1382 102 
L 1914 102 
C 2336 102 2592 -58 2592 -378 
C 2592 -717 2336 -902 1606 -902 
C 864 -902 691 -723 691 -339 
L 160 -339 
C 160 -1024 506 -1363 1606 -1363 
C 2650 -1363 3187 -992 3187 -339 
C 3187 198 2726 595 2035 595 
L 1498 595 
C 1152 595 1056 717 1056 870 
C 1056 992 1126 1114 1222 1184 
C 1363 1139 1498 1120 1651 1120 
C 2458 1120 2938 1600 2938 2266 
C 2938 2656 2739 2938 2342 3117 
C 2726 3117 3046 3130 3328 3219 
L 3155 3750 
z
M 1613 3027 
C 2093 3027 2336 2771 2336 2278 
C 2336 1792 2086 1510 1626 1510 
C 1165 1510 915 1824 915 2272 
C 915 2714 1158 3027 1613 3027 
z
" transform="scale(0.015625)"/>
      </defs>
      <use xlink:href="#FiraSans-Regular-6d"/>
      <use xlink:href="#FiraSans-Regular-65" x="85.699982"/>
      <use xlink:href="#FiraSans-Regular-61" x="140.199966"/>
      <use xlink:href="#FiraSans-Regular-6e" x="194.59996"/>
      <use xlink:href="#FiraSans-Regular-20" x="253.199951"/>
      <use xlink:href="#FiraSans-Regular-70" x="279.699936"/>
      <use xlink:href="#FiraSans-Regular-72" x="339.09993"/>
      <use xlink:href="#FiraSans-Regular-69" x="377.699921"/>
      <use xlink:href="#FiraSans-Regular-63" x="405.899918"/>
      <use xlink:href="#FiraSans-Regular-65" x="453.699905"/>
      <use xlink:href="#FiraSans-Regular-20" x="508.19989"/>
      <use xlink:href="#FiraSans-Regular-69" x="534.699875"/>
      <use xlink:href="#FiraSans-Regular-6e" x="562.899872"/>
      <use xlink:href="#FiraSans-Regular-20" x="621.499863"/>
      <use xlink:href="#FiraSans-Regular-68" x="647.999847"/>
      <use xlink:href="#FiraSans-Regular-69" x="706.599838"/>
      <use xlink:href="#FiraSans-Regular-67" x="734.799835"/>
      <use xlink:href="#FiraSans-Regular-68" x="786.79982"/>
      <use xlink:href="#FiraSans-Regular-20" x="845.399811"/>
      <use xlink:href="#FiraSans-Regular-74" x="871.899796"/>
      <use xlink:href="#FiraSans-Regular-69" x="907.999786"/>
      <use xlink:href="#FiraSans-Regular-65" x="936.199783"/>
      <use xlink:href="#FiraSans-Regular-72" x="990.699768"/>
     </g>
    </g>
    <g id="text_24">
     <!-- 1e6 -->
     <g transform="translate(550.090625 128.787187) scale(0.1 -0.1)">
      <use xlink:href="#FiraSans-Regular-31"/>
      <use xlink:href="#FiraSans-Regular-65" x="43.299988"/>
      <use xlink:href="#FiraSans-Regular-36" x="97.799973"/>
     </g>
    </g>
   </g>
   <g id="matplotlib.axis_6">
    <g id="ytick_5">
     <g id="line2d_17">
      <g>
       <use xlink:href="#m0bf23209fd" x="403.200424" y="87.997107" style="stroke: #000000; stroke-width: 0.8"/>
      </g>
     </g>
    </g>
    <g id="ytick_6">
     <g id="line2d_18">
      <g>
       <use xlink:href="#m0bf23209fd" x="403.200424" y="24.460393" style="stroke: #000000; stroke-width: 0.8"/>
      </g>
     </g>
    </g>
   </g>
   <g id="patch_15">
    <path d="M 403.200424 101.6575 
L 403.200424 10.8 
" style="fill: none; stroke: #000000; stroke-width: 0.8; stroke-linejoin: miter; stroke-linecap: square"/>
   </g>
   <g id="patch_16">
    <path d="M 403.200424 101.6575 
L 565.2 101.6575 
" style="fill: none; stroke: #000000; stroke-width: 0.8; stroke-linejoin: miter; stroke-linecap: square"/>
   </g>
   <g id="text_25">
    <!-- 3244429 -->
    <g transform="translate(515.313934 90.682263) scale(0.1 -0.1)">
     <use xlink:href="#FiraSans-Regular-33"/>
     <use xlink:href="#FiraSans-Regular-32" x="49.899994"/>
     <use xlink:href="#FiraSans-Regular-34" x="99.399979"/>
     <use xlink:href="#FiraSans-Regular-34" x="152.599976"/>
     <use xlink:href="#FiraSans-Regular-34" x="205.799973"/>
     <use xlink:href="#FiraSans-Regular-32" x="258.999969"/>
     <use xlink:href="#FiraSans-Regular-39" x="308.499954"/>
    </g>
   </g>
   <g id="text_26">
    <!-- 3348622 -->
    <g transform="translate(518.914407 27.14555) scale(0.1 -0.1)">
     <use xlink:href="#FiraSans-Regular-33"/>
     <use xlink:href="#FiraSans-Regular-33" x="49.899994"/>
     <use xlink:href="#FiraSans-Regular-34" x="99.799988"/>
     <use xlink:href="#FiraSans-Regular-38" x="152.999985"/>
     <use xlink:href="#FiraSans-Regular-36" x="208.099976"/>
     <use xlink:href="#FiraSans-Regular-32" x="261.399963"/>
     <use xlink:href="#FiraSans-Regular-32" x="310.899948"/>
    </g>
   </g>
  </g>
 </g>
 <defs>
  <clipPath id="p73a7f845e9">
   <rect x="50.29" y="10.8" width="161.999576" height="90.8575"/>
  </clipPath>
  <clipPath id="pce31213368">
   <rect x="226.745212" y="10.8" width="161.999576" height="90.8575"/>
  </clipPath>
  <clipPath id="p4bb9f0bbad">
   <rect x="403.200424" y="10.8" width="161.999576" height="90.8575"/>
  </clipPath>
 </defs>
</svg>
