<?xml version="1.0" encoding="utf-8" standalone="no"?>
<!DOCTYPE svg PUBLIC "-//W3C//DTD SVG 1.1//EN"
  "http://www.w3.org/Graphics/SVG/1.1/DTD/svg11.dtd">
<svg xmlns:xlink="http://www.w3.org/1999/xlink" width="576pt" height="216pt" viewBox="0 0 576 216" xmlns="http://www.w3.org/2000/svg" version="1.1">
 <metadata>
  <rdf:RDF xmlns:dc="http://purl.org/dc/elements/1.1/" xmlns:cc="http://creativecommons.org/ns#" xmlns:rdf="http://www.w3.org/1999/02/22-rdf-syntax-ns#">
   <cc:Work>
    <dc:type rdf:resource="http://purl.org/dc/dcmitype/StillImage"/>
    <dc:date>2024-02-24T20:28:13.099060</dc:date>
    <dc:format>image/svg+xml</dc:format>
    <dc:creator>
     <cc:Agent>
      <dc:title>Matplotlib v3.7.1, https://matplotlib.org/</dc:title>
     </cc:Agent>
    </dc:creator>
   </cc:Work>
  </rdf:RDF>
 </metadata>
 <defs>
  <style type="text/css">*{stroke-linejoin: round; stroke-linecap: butt}</style>
 </defs>
 <g id="figure_1">
  <g id="patch_1">
   <path d="M 0 216 
L 576 216 
L 576 0 
L 0 0 
z
" style="fill: #ffffff"/>
  </g>
  <g id="axes_1">
   <g id="patch_2">
    <path d="M 204.044641 100.8025 
C 204.044641 93.899738 203.051999 87.032709 201.097231 80.412512 
C 199.142462 73.792316 196.245805 67.487491 192.496306 61.691857 
L 132.042641 100.8025 
z
" style="fill: #6699cc; opacity: 0.7"/>
   </g>
   <g id="patch_3">
    <path d="M 192.496306 61.691857 
C 183.350448 47.555024 169.529353 37.064512 153.453658 32.057636 
C 137.377964 27.05076 120.044359 27.837947 104.488665 34.281327 
C 88.932971 40.724707 76.119638 52.424793 68.292802 67.332422 
C 60.465967 82.240052 58.110891 99.430954 61.640045 115.894302 
L 132.042641 100.8025 
z
" style="fill: #ddcc77; opacity: 0.7"/>
   </g>
   <g id="patch_4">
    <path d="M 61.640045 115.894302 
C 65.366185 133.276583 75.400927 148.677672 89.796498 159.108172 
C 104.192068 169.538673 121.952628 174.277036 139.630801 172.403532 
C 157.308973 170.530029 173.681839 162.174261 185.571376 148.958107 
C 197.460913 135.741954 204.044641 118.579667 204.044641 100.802497 
L 132.042641 100.8025 
z
" style="fill: #44aa99; opacity: 0.7"/>
   </g>
   <g id="matplotlib.axis_1">
    <g id="text_1">
     <!-- % of "flipped" transactions by housing tier -->
     <g transform="translate(35.606703 202.605) scale(0.1 -0.1)">
      <defs>
       <path id="FiraSans-Regular-25" d="M 3923 4550 
L 960 70 
L 1370 -198 
L 4333 4282 
L 3923 4550 
z
M 1325 4346 
C 730 4346 288 3930 288 3264 
C 288 2598 730 2182 1325 2182 
C 1926 2182 2368 2598 2368 3264 
C 2368 3930 1926 4346 1325 4346 
z
M 1325 3949 
C 1741 3949 1843 3597 1843 3264 
C 1843 2918 1741 2579 1325 2579 
C 915 2579 806 2931 806 3264 
C 806 3610 915 3949 1325 3949 
z
M 3962 2086 
C 3360 2086 2918 1670 2918 1005 
C 2918 339 3360 -77 3962 -77 
C 4563 -77 4998 339 4998 1005 
C 4998 1670 4563 2086 3962 2086 
z
M 3962 1683 
C 4378 1683 4480 1338 4480 1005 
C 4480 659 4378 320 3962 320 
C 3552 320 3443 672 3443 1005 
C 3443 1350 3552 1683 3962 1683 
z
" transform="scale(0.015625)"/>
       <path id="FiraSans-Regular-20" transform="scale(0.015625)"/>
       <path id="FiraSans-Regular-6f" d="M 1875 3450 
C 915 3450 365 2726 365 1683 
C 365 614 909 -77 1869 -77 
C 2822 -77 3373 646 3373 1690 
C 3373 2758 2835 3450 1875 3450 
z
M 1875 2976 
C 2432 2976 2739 2566 2739 1690 
C 2739 806 2432 397 1869 397 
C 1306 397 998 806 998 1683 
C 998 2566 1312 2976 1875 2976 
z
" transform="scale(0.015625)"/>
       <path id="FiraSans-Regular-66" d="M 1754 4326 
C 1926 4326 2125 4294 2342 4198 
L 2528 4627 
C 2259 4742 2042 4800 1722 4800 
C 1037 4800 666 4397 666 3834 
L 666 3373 
L 64 3373 
L 64 2918 
L 666 2918 
L 666 0 
L 1254 0 
L 1254 2918 
L 2010 2918 
L 2074 3373 
L 1254 3373 
L 1254 3840 
C 1254 4166 1382 4326 1754 4326 
z
" transform="scale(0.015625)"/>
       <path id="FiraSans-Regular-22" d="M 480 2733 
L 922 2733 
L 1018 4410 
L 384 4410 
L 480 2733 
z
M 1632 2733 
L 2074 2733 
L 2170 4410 
L 1536 4410 
L 1632 2733 
z
" transform="scale(0.015625)"/>
       <path id="FiraSans-Regular-6c" d="M 1280 -77 
C 1453 -77 1619 -32 1747 38 
L 1594 448 
C 1530 422 1459 410 1376 410 
C 1222 410 1165 499 1165 678 
L 1165 4800 
L 576 4730 
L 576 666 
C 576 186 851 -77 1280 -77 
z
" transform="scale(0.015625)"/>
       <path id="FiraSans-Regular-69" d="M 896 4992 
C 653 4992 486 4819 486 4589 
C 486 4365 653 4192 896 4192 
C 1146 4192 1312 4365 1312 4589 
C 1312 4819 1146 4992 896 4992 
z
M 1197 3373 
L 608 3373 
L 608 0 
L 1197 0 
L 1197 3373 
z
" transform="scale(0.015625)"/>
       <path id="FiraSans-Regular-70" d="M 2157 3450 
C 1773 3450 1408 3264 1158 2918 
L 1114 3373 
L 608 3373 
L 608 -1363 
L 1197 -1293 
L 1197 307 
C 1414 45 1715 -77 2080 -77 
C 2950 -77 3405 666 3405 1690 
C 3405 2752 3053 3450 2157 3450 
z
M 1939 403 
C 1632 403 1370 550 1197 813 
L 1197 2458 
C 1376 2726 1651 2982 2010 2982 
C 2515 2982 2771 2566 2771 1690 
C 2771 806 2477 403 1939 403 
z
" transform="scale(0.015625)"/>
       <path id="FiraSans-Regular-65" d="M 3155 1786 
C 3155 2816 2675 3450 1766 3450 
C 896 3450 365 2701 365 1651 
C 365 582 915 -77 1856 -77 
C 2323 -77 2701 83 3034 346 
L 2778 698 
C 2483 493 2234 403 1901 403 
C 1414 403 1050 704 992 1485 
L 3142 1485 
C 3149 1562 3155 1670 3155 1786 
z
M 2573 1920 
L 992 1920 
C 1037 2669 1331 2982 1779 2982 
C 2310 2982 2573 2618 2573 1958 
L 2573 1920 
z
" transform="scale(0.015625)"/>
       <path id="FiraSans-Regular-64" d="M 2630 4800 
L 2630 3034 
C 2406 3270 2118 3450 1722 3450 
C 896 3450 397 2701 397 1670 
C 397 621 851 -77 1670 -77 
C 2086 -77 2426 128 2643 467 
L 2701 0 
L 3219 0 
L 3219 4730 
L 2630 4800 
z
M 1798 390 
C 1312 390 1030 794 1030 1683 
C 1030 2560 1344 2982 1850 2982 
C 2182 2982 2419 2810 2630 2541 
L 2630 890 
C 2406 576 2176 390 1798 390 
z
" transform="scale(0.015625)"/>
       <path id="FiraSans-Regular-74" d="M 2086 544 
C 1920 454 1786 410 1638 410 
C 1344 410 1235 570 1235 909 
L 1235 2918 
L 1971 2918 
L 2035 3373 
L 1235 3373 
L 1235 4205 
L 646 4134 
L 646 3373 
L 58 3373 
L 58 2918 
L 646 2918 
L 646 883 
C 646 256 986 -77 1555 -77 
C 1843 -77 2086 0 2310 154 
L 2086 544 
z
" transform="scale(0.015625)"/>
       <path id="FiraSans-Regular-72" d="M 2074 3450 
C 1664 3450 1350 3194 1171 2688 
L 1114 3373 
L 608 3373 
L 608 0 
L 1197 0 
L 1197 1926 
C 1338 2573 1581 2874 2003 2874 
C 2125 2874 2195 2861 2298 2835 
L 2406 3411 
C 2304 3437 2182 3450 2074 3450 
z
" transform="scale(0.015625)"/>
       <path id="FiraSans-Regular-61" d="M 2880 787 
L 2880 2330 
C 2880 3034 2509 3450 1696 3450 
C 1318 3450 947 3373 531 3219 
L 678 2790 
C 1024 2906 1338 2970 1587 2970 
C 2054 2970 2291 2790 2291 2304 
L 2291 2054 
L 1773 2054 
C 832 2054 288 1664 288 941 
C 288 339 691 -77 1363 -77 
C 1773 -77 2131 77 2368 429 
C 2470 96 2688 -38 3027 -77 
L 3162 333 
C 2989 397 2880 493 2880 787 
z
M 1498 365 
C 1114 365 915 576 915 973 
C 915 1434 1229 1664 1850 1664 
L 2291 1664 
L 2291 890 
C 2099 538 1843 365 1498 365 
z
" transform="scale(0.015625)"/>
       <path id="FiraSans-Regular-6e" d="M 2195 3450 
C 1754 3450 1395 3219 1165 2874 
L 1114 3373 
L 608 3373 
L 608 0 
L 1197 0 
L 1197 2394 
C 1421 2752 1677 2989 2054 2989 
C 2381 2989 2586 2842 2586 2336 
L 2586 0 
L 3174 0 
L 3174 2419 
C 3174 3059 2816 3450 2195 3450 
z
" transform="scale(0.015625)"/>
       <path id="FiraSans-Regular-73" d="M 1523 3450 
C 826 3450 307 3059 307 2522 
C 307 2048 595 1734 1325 1542 
C 1978 1370 2144 1242 2144 909 
C 2144 589 1862 397 1421 397 
C 1056 397 742 518 474 723 
L 160 365 
C 454 109 864 -77 1434 -77 
C 2118 -77 2765 243 2765 947 
C 2765 1536 2355 1818 1645 1997 
C 1101 2138 922 2266 922 2541 
C 922 2810 1158 2982 1542 2982 
C 1856 2982 2118 2886 2419 2694 
L 2669 3066 
C 2349 3309 1997 3450 1523 3450 
z
" transform="scale(0.015625)"/>
       <path id="FiraSans-Regular-63" d="M 1837 3450 
C 922 3450 365 2733 365 1658 
C 365 570 928 -77 1837 -77 
C 2227 -77 2566 51 2867 294 
L 2598 678 
C 2342 512 2144 422 1862 422 
C 1331 422 998 787 998 1670 
C 998 2547 1331 2963 1862 2963 
C 2144 2963 2355 2880 2586 2714 
L 2867 3085 
C 2554 3347 2234 3450 1837 3450 
z
" transform="scale(0.015625)"/>
       <path id="FiraSans-Regular-62" d="M 2150 3450 
C 1741 3450 1427 3264 1197 2950 
L 1197 4800 
L 608 4730 
L 608 0 
L 1126 0 
L 1184 371 
C 1414 90 1709 -77 2080 -77 
C 2899 -77 3405 634 3405 1690 
C 3405 2816 2912 3450 2150 3450 
z
M 1939 390 
C 1638 390 1370 576 1197 845 
L 1197 2458 
C 1370 2726 1613 2982 1984 2982 
C 2458 2982 2771 2650 2771 1690 
C 2771 768 2432 390 1939 390 
z
" transform="scale(0.015625)"/>
       <path id="FiraSans-Regular-79" d="M 3085 3373 
L 2477 3373 
L 1594 429 
L 691 3373 
L 64 3373 
L 1197 0 
L 1395 0 
C 1203 -525 1011 -787 326 -902 
L 390 -1363 
C 1325 -1261 1722 -736 1958 -19 
L 3085 3373 
z
" transform="scale(0.015625)"/>
       <path id="FiraSans-Regular-68" d="M 2195 3450 
C 1773 3450 1440 3238 1197 2906 
L 1197 4787 
L 608 4723 
L 608 0 
L 1197 0 
L 1197 2400 
C 1421 2752 1683 2989 2048 2989 
C 2368 2989 2586 2842 2586 2336 
L 2586 0 
L 3174 0 
L 3174 2419 
C 3174 3053 2810 3450 2195 3450 
z
" transform="scale(0.015625)"/>
       <path id="FiraSans-Regular-75" d="M 3117 3373 
L 2528 3373 
L 2528 966 
C 2323 627 2048 384 1683 384 
C 1318 384 1165 557 1165 1018 
L 1165 3373 
L 576 3373 
L 576 954 
C 576 294 928 -77 1517 -77 
C 1997 -77 2310 115 2566 525 
L 2611 0 
L 3117 0 
L 3117 3373 
z
" transform="scale(0.015625)"/>
       <path id="FiraSans-Regular-67" d="M 3155 3750 
C 2758 3571 2451 3430 1613 3450 
C 870 3450 314 2963 314 2272 
C 314 1837 493 1542 883 1338 
C 640 1178 512 960 512 742 
C 512 403 781 102 1382 102 
L 1914 102 
C 2336 102 2592 -58 2592 -378 
C 2592 -717 2336 -902 1606 -902 
C 864 -902 691 -723 691 -339 
L 160 -339 
C 160 -1024 506 -1363 1606 -1363 
C 2650 -1363 3187 -992 3187 -339 
C 3187 198 2726 595 2035 595 
L 1498 595 
C 1152 595 1056 717 1056 870 
C 1056 992 1126 1114 1222 1184 
C 1363 1139 1498 1120 1651 1120 
C 2458 1120 2938 1600 2938 2266 
C 2938 2656 2739 2938 2342 3117 
C 2726 3117 3046 3130 3328 3219 
L 3155 3750 
z
M 1613 3027 
C 2093 3027 2336 2771 2336 2278 
C 2336 1792 2086 1510 1626 1510 
C 1165 1510 915 1824 915 2272 
C 915 2714 1158 3027 1613 3027 
z
" transform="scale(0.015625)"/>
      </defs>
      <use xlink:href="#FiraSans-Regular-25"/>
      <use xlink:href="#FiraSans-Regular-20" x="82.599991"/>
      <use xlink:href="#FiraSans-Regular-6f" x="109.099976"/>
      <use xlink:href="#FiraSans-Regular-66" x="167.499969"/>
      <use xlink:href="#FiraSans-Regular-20" x="200.999954"/>
      <use xlink:href="#FiraSans-Regular-22" x="227.499939"/>
      <use xlink:href="#FiraSans-Regular-66" x="267.399933"/>
      <use xlink:href="#FiraSans-Regular-6c" x="300.899918"/>
      <use xlink:href="#FiraSans-Regular-69" x="330.199905"/>
      <use xlink:href="#FiraSans-Regular-70" x="358.399902"/>
      <use xlink:href="#FiraSans-Regular-70" x="417.799896"/>
      <use xlink:href="#FiraSans-Regular-65" x="477.19989"/>
      <use xlink:href="#FiraSans-Regular-64" x="531.699875"/>
      <use xlink:href="#FiraSans-Regular-22" x="591.499863"/>
      <use xlink:href="#FiraSans-Regular-20" x="631.399857"/>
      <use xlink:href="#FiraSans-Regular-74" x="657.899841"/>
      <use xlink:href="#FiraSans-Regular-72" x="693.999832"/>
      <use xlink:href="#FiraSans-Regular-61" x="732.599823"/>
      <use xlink:href="#FiraSans-Regular-6e" x="786.999817"/>
      <use xlink:href="#FiraSans-Regular-73" x="845.599808"/>
      <use xlink:href="#FiraSans-Regular-61" x="892.299805"/>
      <use xlink:href="#FiraSans-Regular-63" x="946.699799"/>
      <use xlink:href="#FiraSans-Regular-74" x="994.499786"/>
      <use xlink:href="#FiraSans-Regular-69" x="1030.599777"/>
      <use xlink:href="#FiraSans-Regular-6f" x="1058.799774"/>
      <use xlink:href="#FiraSans-Regular-6e" x="1117.199768"/>
      <use xlink:href="#FiraSans-Regular-73" x="1175.799759"/>
      <use xlink:href="#FiraSans-Regular-20" x="1222.499756"/>
      <use xlink:href="#FiraSans-Regular-62" x="1248.999741"/>
      <use xlink:href="#FiraSans-Regular-79" x="1308.399734"/>
      <use xlink:href="#FiraSans-Regular-20" x="1357.599731"/>
      <use xlink:href="#FiraSans-Regular-68" x="1384.099716"/>
      <use xlink:href="#FiraSans-Regular-6f" x="1442.699707"/>
      <use xlink:href="#FiraSans-Regular-75" x="1501.099701"/>
      <use xlink:href="#FiraSans-Regular-73" x="1559.299698"/>
      <use xlink:href="#FiraSans-Regular-69" x="1605.999695"/>
      <use xlink:href="#FiraSans-Regular-6e" x="1634.199692"/>
      <use xlink:href="#FiraSans-Regular-67" x="1692.799683"/>
      <use xlink:href="#FiraSans-Regular-20" x="1744.799667"/>
      <use xlink:href="#FiraSans-Regular-74" x="1771.299652"/>
      <use xlink:href="#FiraSans-Regular-69" x="1807.399643"/>
      <use xlink:href="#FiraSans-Regular-65" x="1835.59964"/>
      <use xlink:href="#FiraSans-Regular-72" x="1890.099625"/>
     </g>
    </g>
   </g>
   <g id="matplotlib.axis_2"/>
   <g id="text_2">
    <!-- low-priced -->
    <g transform="translate(208.00269 81.20867) scale(0.1 -0.1)">
     <defs>
      <path id="FiraSans-Regular-77" d="M 4461 3373 
L 3898 3373 
L 3283 410 
L 2650 3373 
L 1990 3373 
L 1325 410 
L 717 3373 
L 128 3373 
L 915 0 
L 1696 0 
L 2304 2842 
L 2893 0 
L 3693 0 
L 4461 3373 
z
" transform="scale(0.015625)"/>
      <path id="FiraSans-Regular-2d" d="M 384 1754 
L 2195 1754 
L 2195 2253 
L 384 2253 
L 384 1754 
z
" transform="scale(0.015625)"/>
     </defs>
     <use xlink:href="#FiraSans-Regular-6c"/>
     <use xlink:href="#FiraSans-Regular-6f" x="29.299988"/>
     <use xlink:href="#FiraSans-Regular-77" x="87.699982"/>
     <use xlink:href="#FiraSans-Regular-2d" x="159.399963"/>
     <use xlink:href="#FiraSans-Regular-70" x="199.699951"/>
     <use xlink:href="#FiraSans-Regular-72" x="259.099945"/>
     <use xlink:href="#FiraSans-Regular-69" x="297.699936"/>
     <use xlink:href="#FiraSans-Regular-63" x="325.899933"/>
     <use xlink:href="#FiraSans-Regular-65" x="373.699921"/>
     <use xlink:href="#FiraSans-Regular-64" x="428.199905"/>
    </g>
   </g>
   <g id="text_3">
    <!-- 9.1% -->
    <g transform="translate(163.355863 91.253664) scale(0.1 -0.1)">
     <defs>
      <path id="FiraSans-Regular-39" d="M 1658 4346 
C 915 4346 288 3827 288 2931 
C 288 2080 806 1555 1472 1555 
C 1907 1555 2246 1779 2432 2067 
C 2387 1101 1702 608 627 301 
L 762 -141 
C 2336 314 3040 909 3040 2682 
C 3040 3686 2579 4346 1658 4346 
z
M 1594 2016 
C 1178 2016 883 2304 883 2918 
C 883 3533 1171 3878 1670 3878 
C 2202 3878 2464 3514 2445 2547 
C 2234 2221 1958 2016 1594 2016 
z
" transform="scale(0.015625)"/>
      <path id="FiraSans-Regular-2e" d="M 762 813 
C 512 813 320 614 320 371 
C 320 122 512 -77 762 -77 
C 1018 -77 1210 122 1210 371 
C 1210 614 1018 813 762 813 
z
" transform="scale(0.015625)"/>
      <path id="FiraSans-Regular-31" d="M 2067 4282 
L 1549 4282 
L 224 3462 
L 480 3046 
L 1478 3654 
L 1478 0 
L 2067 0 
L 2067 4282 
z
" transform="scale(0.015625)"/>
     </defs>
     <use xlink:href="#FiraSans-Regular-39"/>
     <use xlink:href="#FiraSans-Regular-2e" x="52.499985"/>
     <use xlink:href="#FiraSans-Regular-31" x="76.499969"/>
     <use xlink:href="#FiraSans-Regular-25" x="119.799957"/>
    </g>
   </g>
   <g id="text_4">
    <!-- medium-priced -->
    <g transform="translate(31.662955 30.464366) scale(0.1 -0.1)">
     <defs>
      <path id="FiraSans-Regular-6d" d="M 3994 3450 
C 3539 3450 3232 3206 2989 2842 
C 2861 3226 2554 3450 2138 3450 
C 1696 3450 1389 3219 1165 2880 
L 1114 3373 
L 608 3373 
L 608 0 
L 1197 0 
L 1197 2394 
C 1421 2752 1626 2989 1990 2989 
C 2246 2989 2464 2842 2464 2336 
L 2464 0 
L 3053 0 
L 3053 2394 
C 3283 2752 3482 2989 3846 2989 
C 4102 2989 4320 2842 4320 2336 
L 4320 0 
L 4909 0 
L 4909 2419 
C 4909 3053 4544 3450 3994 3450 
z
" transform="scale(0.015625)"/>
     </defs>
     <use xlink:href="#FiraSans-Regular-6d"/>
     <use xlink:href="#FiraSans-Regular-65" x="85.699982"/>
     <use xlink:href="#FiraSans-Regular-64" x="140.199966"/>
     <use xlink:href="#FiraSans-Regular-69" x="199.999954"/>
     <use xlink:href="#FiraSans-Regular-75" x="228.199951"/>
     <use xlink:href="#FiraSans-Regular-6d" x="286.399948"/>
     <use xlink:href="#FiraSans-Regular-2d" x="372.09993"/>
     <use xlink:href="#FiraSans-Regular-70" x="412.399918"/>
     <use xlink:href="#FiraSans-Regular-72" x="471.799911"/>
     <use xlink:href="#FiraSans-Regular-69" x="510.399902"/>
     <use xlink:href="#FiraSans-Regular-63" x="538.599899"/>
     <use xlink:href="#FiraSans-Regular-65" x="586.399887"/>
     <use xlink:href="#FiraSans-Regular-64" x="640.899872"/>
    </g>
   </g>
   <g id="text_5">
    <!-- 44.2% -->
    <g transform="translate(102.385255 63.574953) scale(0.1 -0.1)">
     <defs>
      <path id="FiraSans-Regular-34" d="M 3213 1523 
L 2656 1523 
L 2656 2675 
L 2144 2675 
L 2093 1523 
L 877 1523 
L 2035 4141 
L 1542 4346 
L 256 1478 
L 256 1056 
L 2086 1056 
L 2086 0 
L 2656 0 
L 2656 1056 
L 3213 1056 
L 3213 1523 
z
" transform="scale(0.015625)"/>
      <path id="FiraSans-Regular-32" d="M 1459 4346 
C 922 4346 506 4128 160 3699 
L 544 3392 
C 832 3718 1069 3859 1427 3859 
C 1843 3859 2131 3597 2131 3149 
C 2131 2451 1760 2042 250 467 
L 250 0 
L 2778 0 
L 2848 493 
L 922 493 
C 2234 1805 2746 2374 2746 3174 
C 2746 3840 2246 4346 1459 4346 
z
" transform="scale(0.015625)"/>
     </defs>
     <use xlink:href="#FiraSans-Regular-34"/>
     <use xlink:href="#FiraSans-Regular-34" x="53.199997"/>
     <use xlink:href="#FiraSans-Regular-2e" x="106.399994"/>
     <use xlink:href="#FiraSans-Regular-32" x="130.399979"/>
     <use xlink:href="#FiraSans-Regular-25" x="179.899963"/>
    </g>
   </g>
   <g id="text_6">
    <!-- high-priced -->
    <g transform="translate(140.389617 182.398792) scale(0.1 -0.1)">
     <use xlink:href="#FiraSans-Regular-68"/>
     <use xlink:href="#FiraSans-Regular-69" x="58.599991"/>
     <use xlink:href="#FiraSans-Regular-67" x="86.799988"/>
     <use xlink:href="#FiraSans-Regular-68" x="138.799973"/>
     <use xlink:href="#FiraSans-Regular-2d" x="197.399963"/>
     <use xlink:href="#FiraSans-Regular-70" x="237.699951"/>
     <use xlink:href="#FiraSans-Regular-72" x="297.099945"/>
     <use xlink:href="#FiraSans-Regular-69" x="335.699936"/>
     <use xlink:href="#FiraSans-Regular-63" x="363.899933"/>
     <use xlink:href="#FiraSans-Regular-65" x="411.699921"/>
     <use xlink:href="#FiraSans-Regular-64" x="466.199905"/>
    </g>
   </g>
   <g id="text_7">
    <!-- 46.6% -->
    <g transform="translate(123.276005 146.448276) scale(0.1 -0.1)">
     <defs>
      <path id="FiraSans-Regular-36" d="M 1971 2816 
C 1568 2816 1222 2650 941 2253 
C 973 3232 1344 3878 1965 3878 
C 2202 3878 2426 3814 2624 3693 
L 2854 4083 
C 2605 4250 2317 4346 1971 4346 
C 960 4346 352 3411 352 2010 
C 352 781 749 -77 1792 -77 
C 2547 -77 3155 518 3155 1453 
C 3155 2368 2598 2816 1971 2816 
z
M 1792 390 
C 1222 390 973 826 947 1760 
C 1165 2112 1485 2349 1869 2349 
C 2272 2349 2560 2112 2560 1434 
C 2560 806 2298 390 1792 390 
z
" transform="scale(0.015625)"/>
     </defs>
     <use xlink:href="#FiraSans-Regular-34"/>
     <use xlink:href="#FiraSans-Regular-36" x="53.199997"/>
     <use xlink:href="#FiraSans-Regular-2e" x="106.499985"/>
     <use xlink:href="#FiraSans-Regular-36" x="130.499969"/>
     <use xlink:href="#FiraSans-Regular-25" x="183.799957"/>
    </g>
   </g>
  </g>
  <g id="axes_2">
   <g id="patch_5">
    <path d="M 515.959359 100.8025 
C 515.959359 81.88918 508.507198 63.717192 495.228058 50.249523 
C 481.948917 36.781853 463.883786 29.074268 444.972345 28.807654 
L 443.957359 100.8025 
z
" style="fill: #6699cc; opacity: 0.7"/>
   </g>
   <g id="patch_6">
    <path d="M 444.972345 28.807654 
C 427.450347 28.560629 410.426922 34.71862 397.117968 46.118321 
C 383.809014 57.518022 375.108916 73.393354 372.661211 90.745304 
C 370.213505 108.097255 374.182683 125.759743 383.818925 140.396145 
C 393.455168 155.032548 408.110902 165.659273 425.017513 170.268824 
L 443.957359 100.8025 
z
" style="fill: #ddcc77; opacity: 0.7"/>
   </g>
   <g id="patch_7">
    <path d="M 425.017513 170.268824 
C 435.698004 173.180838 446.907586 173.590802 457.772259 171.466752 
C 468.636932 169.342703 478.866793 164.741316 487.664228 158.021357 
C 496.461663 151.301399 503.59193 142.642179 508.499088 132.718847 
C 513.406247 122.795516 515.959358 111.872859 515.959359 100.802507 
L 443.957359 100.8025 
z
" style="fill: #44aa99; opacity: 0.7"/>
   </g>
   <g id="matplotlib.axis_3">
    <g id="text_8">
     <!-- % of all transactions by housing tier -->
     <g transform="translate(362.067516 202.605) scale(0.1 -0.1)">
      <use xlink:href="#FiraSans-Regular-25"/>
      <use xlink:href="#FiraSans-Regular-20" x="82.599991"/>
      <use xlink:href="#FiraSans-Regular-6f" x="109.099976"/>
      <use xlink:href="#FiraSans-Regular-66" x="167.499969"/>
      <use xlink:href="#FiraSans-Regular-20" x="200.999954"/>
      <use xlink:href="#FiraSans-Regular-61" x="227.499939"/>
      <use xlink:href="#FiraSans-Regular-6c" x="281.899933"/>
      <use xlink:href="#FiraSans-Regular-6c" x="311.199921"/>
      <use xlink:href="#FiraSans-Regular-20" x="340.499908"/>
      <use xlink:href="#FiraSans-Regular-74" x="366.999893"/>
      <use xlink:href="#FiraSans-Regular-72" x="403.099884"/>
      <use xlink:href="#FiraSans-Regular-61" x="441.699875"/>
      <use xlink:href="#FiraSans-Regular-6e" x="496.099869"/>
      <use xlink:href="#FiraSans-Regular-73" x="554.69986"/>
      <use xlink:href="#FiraSans-Regular-61" x="601.399857"/>
      <use xlink:href="#FiraSans-Regular-63" x="655.79985"/>
      <use xlink:href="#FiraSans-Regular-74" x="703.599838"/>
      <use xlink:href="#FiraSans-Regular-69" x="739.699829"/>
      <use xlink:href="#FiraSans-Regular-6f" x="767.899826"/>
      <use xlink:href="#FiraSans-Regular-6e" x="826.29982"/>
      <use xlink:href="#FiraSans-Regular-73" x="884.899811"/>
      <use xlink:href="#FiraSans-Regular-20" x="931.599808"/>
      <use xlink:href="#FiraSans-Regular-62" x="958.099792"/>
      <use xlink:href="#FiraSans-Regular-79" x="1017.499786"/>
      <use xlink:href="#FiraSans-Regular-20" x="1066.699783"/>
      <use xlink:href="#FiraSans-Regular-68" x="1093.199768"/>
      <use xlink:href="#FiraSans-Regular-6f" x="1151.799759"/>
      <use xlink:href="#FiraSans-Regular-75" x="1210.199753"/>
      <use xlink:href="#FiraSans-Regular-73" x="1268.39975"/>
      <use xlink:href="#FiraSans-Regular-69" x="1315.099747"/>
      <use xlink:href="#FiraSans-Regular-6e" x="1343.299744"/>
      <use xlink:href="#FiraSans-Regular-67" x="1401.899734"/>
      <use xlink:href="#FiraSans-Regular-20" x="1453.899719"/>
      <use xlink:href="#FiraSans-Regular-74" x="1480.399704"/>
      <use xlink:href="#FiraSans-Regular-69" x="1516.499695"/>
      <use xlink:href="#FiraSans-Regular-65" x="1544.699692"/>
      <use xlink:href="#FiraSans-Regular-72" x="1599.199677"/>
     </g>
    </g>
   </g>
   <g id="matplotlib.axis_4"/>
   <g id="text_9">
    <!-- low-priced -->
    <g transform="translate(500.355127 48.029381) scale(0.1 -0.1)">
     <use xlink:href="#FiraSans-Regular-6c"/>
     <use xlink:href="#FiraSans-Regular-6f" x="29.299988"/>
     <use xlink:href="#FiraSans-Regular-77" x="87.699982"/>
     <use xlink:href="#FiraSans-Regular-2d" x="159.399963"/>
     <use xlink:href="#FiraSans-Regular-70" x="199.699951"/>
     <use xlink:href="#FiraSans-Regular-72" x="259.099945"/>
     <use xlink:href="#FiraSans-Regular-69" x="297.699936"/>
     <use xlink:href="#FiraSans-Regular-63" x="325.899933"/>
     <use xlink:href="#FiraSans-Regular-65" x="373.699921"/>
     <use xlink:href="#FiraSans-Regular-64" x="428.199905"/>
    </g>
   </g>
   <g id="text_10">
    <!-- 24.8% -->
    <g transform="translate(461.500247 73.15587) scale(0.1 -0.1)">
     <defs>
      <path id="FiraSans-Regular-38" d="M 2336 2298 
C 2822 2541 3066 2829 3066 3264 
C 3066 3994 2406 4346 1766 4346 
C 1114 4346 467 3968 467 3245 
C 467 2803 672 2477 1133 2246 
C 608 2016 288 1683 288 1133 
C 288 429 870 -77 1754 -77 
C 2624 -77 3238 429 3238 1146 
C 3238 1683 2925 2061 2336 2298 
z
M 1766 3904 
C 2234 3904 2490 3642 2490 3245 
C 2490 2880 2330 2656 1946 2438 
L 1837 2477 
C 1344 2637 1043 2797 1043 3238 
C 1043 3667 1325 3904 1766 3904 
z
M 1760 390 
C 1229 390 902 666 902 1133 
C 902 1600 1107 1894 1530 2099 
L 1690 2042 
C 2381 1805 2624 1600 2624 1139 
C 2624 691 2298 390 1760 390 
z
" transform="scale(0.015625)"/>
     </defs>
     <use xlink:href="#FiraSans-Regular-32"/>
     <use xlink:href="#FiraSans-Regular-34" x="49.499985"/>
     <use xlink:href="#FiraSans-Regular-2e" x="102.699982"/>
     <use xlink:href="#FiraSans-Regular-38" x="126.699966"/>
     <use xlink:href="#FiraSans-Regular-25" x="181.799957"/>
    </g>
   </g>
   <g id="text_11">
    <!-- medium-priced -->
    <g transform="translate(295.461283 92.574741) scale(0.1 -0.1)">
     <use xlink:href="#FiraSans-Regular-6d"/>
     <use xlink:href="#FiraSans-Regular-65" x="85.699982"/>
     <use xlink:href="#FiraSans-Regular-64" x="140.199966"/>
     <use xlink:href="#FiraSans-Regular-69" x="199.999954"/>
     <use xlink:href="#FiraSans-Regular-75" x="228.199951"/>
     <use xlink:href="#FiraSans-Regular-6d" x="286.399948"/>
     <use xlink:href="#FiraSans-Regular-2d" x="372.09993"/>
     <use xlink:href="#FiraSans-Regular-70" x="412.399918"/>
     <use xlink:href="#FiraSans-Regular-72" x="471.799911"/>
     <use xlink:href="#FiraSans-Regular-69" x="510.399902"/>
     <use xlink:href="#FiraSans-Regular-63" x="538.599899"/>
     <use xlink:href="#FiraSans-Regular-65" x="586.399887"/>
     <use xlink:href="#FiraSans-Regular-64" x="640.899872"/>
    </g>
   </g>
   <g id="text_12">
    <!-- 46.0% -->
    <g transform="translate(387.735139 97.453339) scale(0.1 -0.1)">
     <defs>
      <path id="FiraSans-Regular-30" d="M 1786 4346 
C 826 4346 352 3558 352 2138 
C 352 717 826 -77 1786 -77 
C 2746 -77 3219 717 3219 2138 
C 3219 3552 2746 4346 1786 4346 
z
M 1786 3878 
C 2317 3878 2605 3392 2605 2138 
C 2605 877 2317 390 1786 390 
C 1248 390 966 877 966 2138 
C 966 3392 1248 3878 1786 3878 
z
" transform="scale(0.015625)"/>
     </defs>
     <use xlink:href="#FiraSans-Regular-34"/>
     <use xlink:href="#FiraSans-Regular-36" x="53.199997"/>
     <use xlink:href="#FiraSans-Regular-2e" x="106.499985"/>
     <use xlink:href="#FiraSans-Regular-30" x="130.499969"/>
     <use xlink:href="#FiraSans-Regular-25" x="186.299957"/>
    </g>
   </g>
   <g id="text_13">
    <!-- high-priced -->
    <g transform="translate(492.034915 166.578399) scale(0.1 -0.1)">
     <use xlink:href="#FiraSans-Regular-68"/>
     <use xlink:href="#FiraSans-Regular-69" x="58.599991"/>
     <use xlink:href="#FiraSans-Regular-67" x="86.799988"/>
     <use xlink:href="#FiraSans-Regular-68" x="138.799973"/>
     <use xlink:href="#FiraSans-Regular-2d" x="197.399963"/>
     <use xlink:href="#FiraSans-Regular-70" x="237.699951"/>
     <use xlink:href="#FiraSans-Regular-72" x="297.099945"/>
     <use xlink:href="#FiraSans-Regular-69" x="335.699936"/>
     <use xlink:href="#FiraSans-Regular-63" x="363.899933"/>
     <use xlink:href="#FiraSans-Regular-65" x="411.699921"/>
     <use xlink:href="#FiraSans-Regular-64" x="466.199905"/>
    </g>
   </g>
   <g id="text_14">
    <!-- 29.2% -->
    <g transform="translate(457.276793 137.818971) scale(0.1 -0.1)">
     <use xlink:href="#FiraSans-Regular-32"/>
     <use xlink:href="#FiraSans-Regular-39" x="49.499985"/>
     <use xlink:href="#FiraSans-Regular-2e" x="101.999969"/>
     <use xlink:href="#FiraSans-Regular-32" x="125.999954"/>
     <use xlink:href="#FiraSans-Regular-25" x="175.499939"/>
    </g>
   </g>
  </g>
 </g>
</svg>
