<?xml version="1.0" encoding="utf-8" standalone="no"?>
<!DOCTYPE svg PUBLIC "-//W3C//DTD SVG 1.1//EN"
  "http://www.w3.org/Graphics/SVG/1.1/DTD/svg11.dtd">
<svg xmlns:xlink="http://www.w3.org/1999/xlink" width="360pt" height="144pt" viewBox="0 0 360 144" xmlns="http://www.w3.org/2000/svg" version="1.1">
 <metadata>
  <rdf:RDF xmlns:dc="http://purl.org/dc/elements/1.1/" xmlns:cc="http://creativecommons.org/ns#" xmlns:rdf="http://www.w3.org/1999/02/22-rdf-syntax-ns#">
   <cc:Work>
    <dc:type rdf:resource="http://purl.org/dc/dcmitype/StillImage"/>
    <dc:date>2024-02-24T20:28:13.353652</dc:date>
    <dc:format>image/svg+xml</dc:format>
    <dc:creator>
     <cc:Agent>
      <dc:title>Matplotlib v3.7.1, https://matplotlib.org/</dc:title>
     </cc:Agent>
    </dc:creator>
   </cc:Work>
  </rdf:RDF>
 </metadata>
 <defs>
  <style type="text/css">*{stroke-linejoin: round; stroke-linecap: butt}</style>
 </defs>
 <g id="figure_1">
  <g id="patch_1">
   <path d="M 0 144 
L 360 144 
L 360 0 
L 0 0 
z
" style="fill: #ffffff"/>
  </g>
  <g id="axes_1">
   <g id="patch_2">
    <path d="M 47.55125 100.6225 
L 348.497924 100.6225 
L 348.497924 10.8 
L 47.55125 10.8 
z
" style="fill: #ffffff"/>
   </g>
   <g id="patch_3">
    <path d="M 61.230644 100.6225 
L 63.966523 100.6225 
L 63.966523 99.139057 
L 61.230644 99.139057 
z
" clip-path="url(#p7c948571bf)" style="fill: #6699cc; opacity: 0.7"/>
   </g>
   <g id="patch_4">
    <path d="M 63.966523 100.6225 
L 66.702402 100.6225 
L 66.702402 100.128019 
L 63.966523 100.128019 
z
" clip-path="url(#p7c948571bf)" style="fill: #6699cc; opacity: 0.7"/>
   </g>
   <g id="patch_5">
    <path d="M 66.702402 100.6225 
L 69.438281 100.6225 
L 69.438281 99.139057 
L 66.702402 99.139057 
z
" clip-path="url(#p7c948571bf)" style="fill: #6699cc; opacity: 0.7"/>
   </g>
   <g id="patch_6">
    <path d="M 69.438281 100.6225 
L 72.17416 100.6225 
L 72.17416 99.139057 
L 69.438281 99.139057 
z
" clip-path="url(#p7c948571bf)" style="fill: #6699cc; opacity: 0.7"/>
   </g>
   <g id="patch_7">
    <path d="M 72.17416 100.6225 
L 74.910039 100.6225 
L 74.910039 99.139057 
L 72.17416 99.139057 
z
" clip-path="url(#p7c948571bf)" style="fill: #6699cc; opacity: 0.7"/>
   </g>
   <g id="patch_8">
    <path d="M 74.910039 100.6225 
L 77.645917 100.6225 
L 77.645917 99.139057 
L 74.910039 99.139057 
z
" clip-path="url(#p7c948571bf)" style="fill: #6699cc; opacity: 0.7"/>
   </g>
   <g id="patch_9">
    <path d="M 77.645917 100.6225 
L 80.381796 100.6225 
L 80.381796 100.128019 
L 77.645917 100.128019 
z
" clip-path="url(#p7c948571bf)" style="fill: #6699cc; opacity: 0.7"/>
   </g>
   <g id="patch_10">
    <path d="M 80.381796 100.6225 
L 83.117675 100.6225 
L 83.117675 99.139057 
L 80.381796 99.139057 
z
" clip-path="url(#p7c948571bf)" style="fill: #6699cc; opacity: 0.7"/>
   </g>
   <g id="patch_11">
    <path d="M 83.117675 100.6225 
L 85.853554 100.6225 
L 85.853554 97.655613 
L 83.117675 97.655613 
z
" clip-path="url(#p7c948571bf)" style="fill: #6699cc; opacity: 0.7"/>
   </g>
   <g id="patch_12">
    <path d="M 85.853554 100.6225 
L 88.589433 100.6225 
L 88.589433 97.655613 
L 85.853554 97.655613 
z
" clip-path="url(#p7c948571bf)" style="fill: #6699cc; opacity: 0.7"/>
   </g>
   <g id="patch_13">
    <path d="M 88.589433 100.6225 
L 91.325312 100.6225 
L 91.325312 97.161132 
L 88.589433 97.161132 
z
" clip-path="url(#p7c948571bf)" style="fill: #6699cc; opacity: 0.7"/>
   </g>
   <g id="patch_14">
    <path d="M 91.325312 100.6225 
L 94.061191 100.6225 
L 94.061191 100.128019 
L 91.325312 100.128019 
z
" clip-path="url(#p7c948571bf)" style="fill: #6699cc; opacity: 0.7"/>
   </g>
   <g id="patch_15">
    <path d="M 94.061191 100.6225 
L 96.797069 100.6225 
L 96.797069 99.633538 
L 94.061191 99.633538 
z
" clip-path="url(#p7c948571bf)" style="fill: #6699cc; opacity: 0.7"/>
   </g>
   <g id="patch_16">
    <path d="M 96.797069 100.6225 
L 99.532948 100.6225 
L 99.532948 99.633538 
L 96.797069 99.633538 
z
" clip-path="url(#p7c948571bf)" style="fill: #6699cc; opacity: 0.7"/>
   </g>
   <g id="patch_17">
    <path d="M 99.532948 100.6225 
L 102.268827 100.6225 
L 102.268827 99.633538 
L 99.532948 99.633538 
z
" clip-path="url(#p7c948571bf)" style="fill: #6699cc; opacity: 0.7"/>
   </g>
   <g id="patch_18">
    <path d="M 102.268827 100.6225 
L 105.004706 100.6225 
L 105.004706 99.139057 
L 102.268827 99.139057 
z
" clip-path="url(#p7c948571bf)" style="fill: #6699cc; opacity: 0.7"/>
   </g>
   <g id="patch_19">
    <path d="M 105.004706 100.6225 
L 107.740585 100.6225 
L 107.740585 99.139057 
L 105.004706 99.139057 
z
" clip-path="url(#p7c948571bf)" style="fill: #6699cc; opacity: 0.7"/>
   </g>
   <g id="patch_20">
    <path d="M 107.740585 100.6225 
L 110.476464 100.6225 
L 110.476464 98.644575 
L 107.740585 98.644575 
z
" clip-path="url(#p7c948571bf)" style="fill: #6699cc; opacity: 0.7"/>
   </g>
   <g id="patch_21">
    <path d="M 110.476464 100.6225 
L 113.212343 100.6225 
L 113.212343 98.644575 
L 110.476464 98.644575 
z
" clip-path="url(#p7c948571bf)" style="fill: #6699cc; opacity: 0.7"/>
   </g>
   <g id="patch_22">
    <path d="M 113.212343 100.6225 
L 115.948221 100.6225 
L 115.948221 98.644575 
L 113.212343 98.644575 
z
" clip-path="url(#p7c948571bf)" style="fill: #6699cc; opacity: 0.7"/>
   </g>
   <g id="patch_23">
    <path d="M 115.948221 100.6225 
L 118.6841 100.6225 
L 118.6841 97.655613 
L 115.948221 97.655613 
z
" clip-path="url(#p7c948571bf)" style="fill: #6699cc; opacity: 0.7"/>
   </g>
   <g id="patch_24">
    <path d="M 118.6841 100.6225 
L 121.419979 100.6225 
L 121.419979 99.139057 
L 118.6841 99.139057 
z
" clip-path="url(#p7c948571bf)" style="fill: #6699cc; opacity: 0.7"/>
   </g>
   <g id="patch_25">
    <path d="M 121.419979 100.6225 
L 124.155858 100.6225 
L 124.155858 99.633538 
L 121.419979 99.633538 
z
" clip-path="url(#p7c948571bf)" style="fill: #6699cc; opacity: 0.7"/>
   </g>
   <g id="patch_26">
    <path d="M 124.155858 100.6225 
L 126.891737 100.6225 
L 126.891737 97.161132 
L 124.155858 97.161132 
z
" clip-path="url(#p7c948571bf)" style="fill: #6699cc; opacity: 0.7"/>
   </g>
   <g id="patch_27">
    <path d="M 126.891737 100.6225 
L 129.627616 100.6225 
L 129.627616 96.17217 
L 126.891737 96.17217 
z
" clip-path="url(#p7c948571bf)" style="fill: #6699cc; opacity: 0.7"/>
   </g>
   <g id="patch_28">
    <path d="M 129.627616 100.6225 
L 132.363494 100.6225 
L 132.363494 95.677689 
L 129.627616 95.677689 
z
" clip-path="url(#p7c948571bf)" style="fill: #6699cc; opacity: 0.7"/>
   </g>
   <g id="patch_29">
    <path d="M 132.363494 100.6225 
L 135.099373 100.6225 
L 135.099373 97.655613 
L 132.363494 97.655613 
z
" clip-path="url(#p7c948571bf)" style="fill: #6699cc; opacity: 0.7"/>
   </g>
   <g id="patch_30">
    <path d="M 135.099373 100.6225 
L 137.835252 100.6225 
L 137.835252 96.17217 
L 135.099373 96.17217 
z
" clip-path="url(#p7c948571bf)" style="fill: #6699cc; opacity: 0.7"/>
   </g>
   <g id="patch_31">
    <path d="M 137.835252 100.6225 
L 140.571131 100.6225 
L 140.571131 93.699764 
L 137.835252 93.699764 
z
" clip-path="url(#p7c948571bf)" style="fill: #6699cc; opacity: 0.7"/>
   </g>
   <g id="patch_32">
    <path d="M 140.571131 100.6225 
L 143.30701 100.6225 
L 143.30701 97.655613 
L 140.571131 97.655613 
z
" clip-path="url(#p7c948571bf)" style="fill: #6699cc; opacity: 0.7"/>
   </g>
   <g id="patch_33">
    <path d="M 143.30701 100.6225 
L 146.042889 100.6225 
L 146.042889 91.227358 
L 143.30701 91.227358 
z
" clip-path="url(#p7c948571bf)" style="fill: #6699cc; opacity: 0.7"/>
   </g>
   <g id="patch_34">
    <path d="M 146.042889 100.6225 
L 148.778768 100.6225 
L 148.778768 89.249434 
L 146.042889 89.249434 
z
" clip-path="url(#p7c948571bf)" style="fill: #6699cc; opacity: 0.7"/>
   </g>
   <g id="patch_35">
    <path d="M 148.778768 100.6225 
L 151.514646 100.6225 
L 151.514646 81.832216 
L 148.778768 81.832216 
z
" clip-path="url(#p7c948571bf)" style="fill: #6699cc; opacity: 0.7"/>
   </g>
   <g id="patch_36">
    <path d="M 151.514646 100.6225 
L 154.250525 100.6225 
L 154.250525 56.119197 
L 151.514646 56.119197 
z
" clip-path="url(#p7c948571bf)" style="fill: #6699cc; opacity: 0.7"/>
   </g>
   <g id="patch_37">
    <path d="M 154.250525 100.6225 
L 156.986404 100.6225 
L 156.986404 54.141272 
L 154.250525 54.141272 
z
" clip-path="url(#p7c948571bf)" style="fill: #6699cc; opacity: 0.7"/>
   </g>
   <g id="patch_38">
    <path d="M 156.986404 100.6225 
L 159.722283 100.6225 
L 159.722283 15.077262 
L 156.986404 15.077262 
z
" clip-path="url(#p7c948571bf)" style="fill: #6699cc; opacity: 0.7"/>
   </g>
   <g id="patch_39">
    <path d="M 159.722283 100.6225 
L 162.458162 100.6225 
L 162.458162 19.527592 
L 159.722283 19.527592 
z
" clip-path="url(#p7c948571bf)" style="fill: #6699cc; opacity: 0.7"/>
   </g>
   <g id="patch_40">
    <path d="M 162.458162 100.6225 
L 165.194041 100.6225 
L 165.194041 44.251649 
L 162.458162 44.251649 
z
" clip-path="url(#p7c948571bf)" style="fill: #6699cc; opacity: 0.7"/>
   </g>
   <g id="patch_41">
    <path d="M 165.194041 100.6225 
L 167.92992 100.6225 
L 167.92992 54.141272 
L 165.194041 54.141272 
z
" clip-path="url(#p7c948571bf)" style="fill: #6699cc; opacity: 0.7"/>
   </g>
   <g id="patch_42">
    <path d="M 167.92992 100.6225 
L 170.665798 100.6225 
L 170.665798 48.70198 
L 167.92992 48.70198 
z
" clip-path="url(#p7c948571bf)" style="fill: #6699cc; opacity: 0.7"/>
   </g>
   <g id="patch_43">
    <path d="M 170.665798 100.6225 
L 173.401677 100.6225 
L 173.401677 65.019858 
L 170.665798 65.019858 
z
" clip-path="url(#p7c948571bf)" style="fill: #6699cc; opacity: 0.7"/>
   </g>
   <g id="patch_44">
    <path d="M 173.401677 100.6225 
L 176.137556 100.6225 
L 176.137556 64.030895 
L 173.401677 64.030895 
z
" clip-path="url(#p7c948571bf)" style="fill: #6699cc; opacity: 0.7"/>
   </g>
   <g id="patch_45">
    <path d="M 176.137556 100.6225 
L 178.873435 100.6225 
L 178.873435 70.45915 
L 176.137556 70.45915 
z
" clip-path="url(#p7c948571bf)" style="fill: #6699cc; opacity: 0.7"/>
   </g>
   <g id="patch_46">
    <path d="M 178.873435 100.6225 
L 181.609314 100.6225 
L 181.609314 80.843254 
L 178.873435 80.843254 
z
" clip-path="url(#p7c948571bf)" style="fill: #6699cc; opacity: 0.7"/>
   </g>
   <g id="patch_47">
    <path d="M 181.609314 100.6225 
L 184.345193 100.6225 
L 184.345193 82.821179 
L 181.609314 82.821179 
z
" clip-path="url(#p7c948571bf)" style="fill: #6699cc; opacity: 0.7"/>
   </g>
   <g id="patch_48">
    <path d="M 184.345193 100.6225 
L 187.081072 100.6225 
L 187.081072 86.777028 
L 184.345193 86.777028 
z
" clip-path="url(#p7c948571bf)" style="fill: #6699cc; opacity: 0.7"/>
   </g>
   <g id="patch_49">
    <path d="M 187.081072 100.6225 
L 189.81695 100.6225 
L 189.81695 89.249434 
L 187.081072 89.249434 
z
" clip-path="url(#p7c948571bf)" style="fill: #6699cc; opacity: 0.7"/>
   </g>
   <g id="patch_50">
    <path d="M 189.81695 100.6225 
L 192.552829 100.6225 
L 192.552829 91.227358 
L 189.81695 91.227358 
z
" clip-path="url(#p7c948571bf)" style="fill: #6699cc; opacity: 0.7"/>
   </g>
   <g id="patch_51">
    <path d="M 192.552829 100.6225 
L 195.288708 100.6225 
L 195.288708 94.194245 
L 192.552829 94.194245 
z
" clip-path="url(#p7c948571bf)" style="fill: #6699cc; opacity: 0.7"/>
   </g>
   <g id="patch_52">
    <path d="M 195.288708 100.6225 
L 198.024587 100.6225 
L 198.024587 92.710802 
L 195.288708 92.710802 
z
" clip-path="url(#p7c948571bf)" style="fill: #6699cc; opacity: 0.7"/>
   </g>
   <g id="patch_53">
    <path d="M 198.024587 100.6225 
L 200.760466 100.6225 
L 200.760466 95.677689 
L 198.024587 95.677689 
z
" clip-path="url(#p7c948571bf)" style="fill: #6699cc; opacity: 0.7"/>
   </g>
   <g id="patch_54">
    <path d="M 200.760466 100.6225 
L 203.496345 100.6225 
L 203.496345 95.183207 
L 200.760466 95.183207 
z
" clip-path="url(#p7c948571bf)" style="fill: #6699cc; opacity: 0.7"/>
   </g>
   <g id="patch_55">
    <path d="M 203.496345 100.6225 
L 206.232224 100.6225 
L 206.232224 95.183207 
L 203.496345 95.183207 
z
" clip-path="url(#p7c948571bf)" style="fill: #6699cc; opacity: 0.7"/>
   </g>
   <g id="patch_56">
    <path d="M 206.232224 100.6225 
L 208.968102 100.6225 
L 208.968102 93.699764 
L 206.232224 93.699764 
z
" clip-path="url(#p7c948571bf)" style="fill: #6699cc; opacity: 0.7"/>
   </g>
   <g id="patch_57">
    <path d="M 208.968102 100.6225 
L 211.703981 100.6225 
L 211.703981 95.677689 
L 208.968102 95.677689 
z
" clip-path="url(#p7c948571bf)" style="fill: #6699cc; opacity: 0.7"/>
   </g>
   <g id="patch_58">
    <path d="M 211.703981 100.6225 
L 214.43986 100.6225 
L 214.43986 98.644575 
L 211.703981 98.644575 
z
" clip-path="url(#p7c948571bf)" style="fill: #6699cc; opacity: 0.7"/>
   </g>
   <g id="patch_59">
    <path d="M 214.43986 100.6225 
L 217.175739 100.6225 
L 217.175739 97.161132 
L 214.43986 97.161132 
z
" clip-path="url(#p7c948571bf)" style="fill: #6699cc; opacity: 0.7"/>
   </g>
   <g id="patch_60">
    <path d="M 217.175739 100.6225 
L 219.911618 100.6225 
L 219.911618 96.17217 
L 217.175739 96.17217 
z
" clip-path="url(#p7c948571bf)" style="fill: #6699cc; opacity: 0.7"/>
   </g>
   <g id="patch_61">
    <path d="M 219.911618 100.6225 
L 222.647497 100.6225 
L 222.647497 98.644575 
L 219.911618 98.644575 
z
" clip-path="url(#p7c948571bf)" style="fill: #6699cc; opacity: 0.7"/>
   </g>
   <g id="patch_62">
    <path d="M 222.647497 100.6225 
L 225.383376 100.6225 
L 225.383376 98.644575 
L 222.647497 98.644575 
z
" clip-path="url(#p7c948571bf)" style="fill: #6699cc; opacity: 0.7"/>
   </g>
   <g id="patch_63">
    <path d="M 225.383376 100.6225 
L 228.119254 100.6225 
L 228.119254 96.17217 
L 225.383376 96.17217 
z
" clip-path="url(#p7c948571bf)" style="fill: #6699cc; opacity: 0.7"/>
   </g>
   <g id="patch_64">
    <path d="M 228.119254 100.6225 
L 230.855133 100.6225 
L 230.855133 98.150094 
L 228.119254 98.150094 
z
" clip-path="url(#p7c948571bf)" style="fill: #6699cc; opacity: 0.7"/>
   </g>
   <g id="patch_65">
    <path d="M 230.855133 100.6225 
L 233.591012 100.6225 
L 233.591012 98.644575 
L 230.855133 98.644575 
z
" clip-path="url(#p7c948571bf)" style="fill: #6699cc; opacity: 0.7"/>
   </g>
   <g id="patch_66">
    <path d="M 233.591012 100.6225 
L 236.326891 100.6225 
L 236.326891 97.161132 
L 233.591012 97.161132 
z
" clip-path="url(#p7c948571bf)" style="fill: #6699cc; opacity: 0.7"/>
   </g>
   <g id="patch_67">
    <path d="M 236.326891 100.6225 
L 239.06277 100.6225 
L 239.06277 98.644575 
L 236.326891 98.644575 
z
" clip-path="url(#p7c948571bf)" style="fill: #6699cc; opacity: 0.7"/>
   </g>
   <g id="patch_68">
    <path d="M 239.06277 100.6225 
L 241.798649 100.6225 
L 241.798649 98.150094 
L 239.06277 98.150094 
z
" clip-path="url(#p7c948571bf)" style="fill: #6699cc; opacity: 0.7"/>
   </g>
   <g id="patch_69">
    <path d="M 241.798649 100.6225 
L 244.534528 100.6225 
L 244.534528 99.633538 
L 241.798649 99.633538 
z
" clip-path="url(#p7c948571bf)" style="fill: #6699cc; opacity: 0.7"/>
   </g>
   <g id="patch_70">
    <path d="M 244.534528 100.6225 
L 247.270406 100.6225 
L 247.270406 97.655613 
L 244.534528 97.655613 
z
" clip-path="url(#p7c948571bf)" style="fill: #6699cc; opacity: 0.7"/>
   </g>
   <g id="patch_71">
    <path d="M 247.270406 100.6225 
L 250.006285 100.6225 
L 250.006285 95.183207 
L 247.270406 95.183207 
z
" clip-path="url(#p7c948571bf)" style="fill: #6699cc; opacity: 0.7"/>
   </g>
   <g id="patch_72">
    <path d="M 250.006285 100.6225 
L 252.742164 100.6225 
L 252.742164 97.161132 
L 250.006285 97.161132 
z
" clip-path="url(#p7c948571bf)" style="fill: #6699cc; opacity: 0.7"/>
   </g>
   <g id="patch_73">
    <path d="M 252.742164 100.6225 
L 255.478043 100.6225 
L 255.478043 98.644575 
L 252.742164 98.644575 
z
" clip-path="url(#p7c948571bf)" style="fill: #6699cc; opacity: 0.7"/>
   </g>
   <g id="patch_74">
    <path d="M 255.478043 100.6225 
L 258.213922 100.6225 
L 258.213922 97.655613 
L 255.478043 97.655613 
z
" clip-path="url(#p7c948571bf)" style="fill: #6699cc; opacity: 0.7"/>
   </g>
   <g id="patch_75">
    <path d="M 258.213922 100.6225 
L 260.949801 100.6225 
L 260.949801 100.6225 
L 258.213922 100.6225 
z
" clip-path="url(#p7c948571bf)" style="fill: #6699cc; opacity: 0.7"/>
   </g>
   <g id="patch_76">
    <path d="M 260.949801 100.6225 
L 263.685679 100.6225 
L 263.685679 99.633538 
L 260.949801 99.633538 
z
" clip-path="url(#p7c948571bf)" style="fill: #6699cc; opacity: 0.7"/>
   </g>
   <g id="patch_77">
    <path d="M 263.685679 100.6225 
L 266.421558 100.6225 
L 266.421558 98.150094 
L 263.685679 98.150094 
z
" clip-path="url(#p7c948571bf)" style="fill: #6699cc; opacity: 0.7"/>
   </g>
   <g id="patch_78">
    <path d="M 266.421558 100.6225 
L 269.157437 100.6225 
L 269.157437 99.139057 
L 266.421558 99.139057 
z
" clip-path="url(#p7c948571bf)" style="fill: #6699cc; opacity: 0.7"/>
   </g>
   <g id="patch_79">
    <path d="M 269.157437 100.6225 
L 271.893316 100.6225 
L 271.893316 100.128019 
L 269.157437 100.128019 
z
" clip-path="url(#p7c948571bf)" style="fill: #6699cc; opacity: 0.7"/>
   </g>
   <g id="patch_80">
    <path d="M 271.893316 100.6225 
L 274.629195 100.6225 
L 274.629195 99.139057 
L 271.893316 99.139057 
z
" clip-path="url(#p7c948571bf)" style="fill: #6699cc; opacity: 0.7"/>
   </g>
   <g id="patch_81">
    <path d="M 274.629195 100.6225 
L 277.365074 100.6225 
L 277.365074 100.6225 
L 274.629195 100.6225 
z
" clip-path="url(#p7c948571bf)" style="fill: #6699cc; opacity: 0.7"/>
   </g>
   <g id="patch_82">
    <path d="M 277.365074 100.6225 
L 280.100953 100.6225 
L 280.100953 100.128019 
L 277.365074 100.128019 
z
" clip-path="url(#p7c948571bf)" style="fill: #6699cc; opacity: 0.7"/>
   </g>
   <g id="patch_83">
    <path d="M 280.100953 100.6225 
L 282.836831 100.6225 
L 282.836831 99.633538 
L 280.100953 99.633538 
z
" clip-path="url(#p7c948571bf)" style="fill: #6699cc; opacity: 0.7"/>
   </g>
   <g id="patch_84">
    <path d="M 282.836831 100.6225 
L 285.57271 100.6225 
L 285.57271 99.633538 
L 282.836831 99.633538 
z
" clip-path="url(#p7c948571bf)" style="fill: #6699cc; opacity: 0.7"/>
   </g>
   <g id="patch_85">
    <path d="M 285.57271 100.6225 
L 288.308589 100.6225 
L 288.308589 100.128019 
L 285.57271 100.128019 
z
" clip-path="url(#p7c948571bf)" style="fill: #6699cc; opacity: 0.7"/>
   </g>
   <g id="patch_86">
    <path d="M 288.308589 100.6225 
L 291.044468 100.6225 
L 291.044468 98.150094 
L 288.308589 98.150094 
z
" clip-path="url(#p7c948571bf)" style="fill: #6699cc; opacity: 0.7"/>
   </g>
   <g id="patch_87">
    <path d="M 291.044468 100.6225 
L 293.780347 100.6225 
L 293.780347 99.139057 
L 291.044468 99.139057 
z
" clip-path="url(#p7c948571bf)" style="fill: #6699cc; opacity: 0.7"/>
   </g>
   <g id="patch_88">
    <path d="M 293.780347 100.6225 
L 296.516226 100.6225 
L 296.516226 100.6225 
L 293.780347 100.6225 
z
" clip-path="url(#p7c948571bf)" style="fill: #6699cc; opacity: 0.7"/>
   </g>
   <g id="patch_89">
    <path d="M 296.516226 100.6225 
L 299.252105 100.6225 
L 299.252105 100.128019 
L 296.516226 100.128019 
z
" clip-path="url(#p7c948571bf)" style="fill: #6699cc; opacity: 0.7"/>
   </g>
   <g id="patch_90">
    <path d="M 299.252105 100.6225 
L 301.987983 100.6225 
L 301.987983 100.128019 
L 299.252105 100.128019 
z
" clip-path="url(#p7c948571bf)" style="fill: #6699cc; opacity: 0.7"/>
   </g>
   <g id="patch_91">
    <path d="M 301.987983 100.6225 
L 304.723862 100.6225 
L 304.723862 100.6225 
L 301.987983 100.6225 
z
" clip-path="url(#p7c948571bf)" style="fill: #6699cc; opacity: 0.7"/>
   </g>
   <g id="patch_92">
    <path d="M 304.723862 100.6225 
L 307.459741 100.6225 
L 307.459741 100.6225 
L 304.723862 100.6225 
z
" clip-path="url(#p7c948571bf)" style="fill: #6699cc; opacity: 0.7"/>
   </g>
   <g id="patch_93">
    <path d="M 307.459741 100.6225 
L 310.19562 100.6225 
L 310.19562 100.6225 
L 307.459741 100.6225 
z
" clip-path="url(#p7c948571bf)" style="fill: #6699cc; opacity: 0.7"/>
   </g>
   <g id="patch_94">
    <path d="M 310.19562 100.6225 
L 312.931499 100.6225 
L 312.931499 99.633538 
L 310.19562 99.633538 
z
" clip-path="url(#p7c948571bf)" style="fill: #6699cc; opacity: 0.7"/>
   </g>
   <g id="patch_95">
    <path d="M 312.931499 100.6225 
L 315.667378 100.6225 
L 315.667378 100.6225 
L 312.931499 100.6225 
z
" clip-path="url(#p7c948571bf)" style="fill: #6699cc; opacity: 0.7"/>
   </g>
   <g id="patch_96">
    <path d="M 315.667378 100.6225 
L 318.403257 100.6225 
L 318.403257 100.6225 
L 315.667378 100.6225 
z
" clip-path="url(#p7c948571bf)" style="fill: #6699cc; opacity: 0.7"/>
   </g>
   <g id="patch_97">
    <path d="M 318.403257 100.6225 
L 321.139135 100.6225 
L 321.139135 100.6225 
L 318.403257 100.6225 
z
" clip-path="url(#p7c948571bf)" style="fill: #6699cc; opacity: 0.7"/>
   </g>
   <g id="patch_98">
    <path d="M 321.139135 100.6225 
L 323.875014 100.6225 
L 323.875014 100.128019 
L 321.139135 100.128019 
z
" clip-path="url(#p7c948571bf)" style="fill: #6699cc; opacity: 0.7"/>
   </g>
   <g id="patch_99">
    <path d="M 323.875014 100.6225 
L 326.610893 100.6225 
L 326.610893 99.139057 
L 323.875014 99.139057 
z
" clip-path="url(#p7c948571bf)" style="fill: #6699cc; opacity: 0.7"/>
   </g>
   <g id="patch_100">
    <path d="M 326.610893 100.6225 
L 329.346772 100.6225 
L 329.346772 99.633538 
L 326.610893 99.633538 
z
" clip-path="url(#p7c948571bf)" style="fill: #6699cc; opacity: 0.7"/>
   </g>
   <g id="patch_101">
    <path d="M 329.346772 100.6225 
L 332.082651 100.6225 
L 332.082651 100.6225 
L 329.346772 100.6225 
z
" clip-path="url(#p7c948571bf)" style="fill: #6699cc; opacity: 0.7"/>
   </g>
   <g id="patch_102">
    <path d="M 332.082651 100.6225 
L 334.81853 100.6225 
L 334.81853 100.128019 
L 332.082651 100.128019 
z
" clip-path="url(#p7c948571bf)" style="fill: #6699cc; opacity: 0.7"/>
   </g>
   <g id="matplotlib.axis_1">
    <g id="xtick_1">
     <g id="line2d_1">
      <defs>
       <path id="m53f908f069" d="M 0 0 
L 0 3.5 
" style="stroke: #000000; stroke-width: 0.8"/>
      </defs>
      <g>
       <use xlink:href="#m53f908f069" x="61.081586" y="100.6225" style="stroke: #000000; stroke-width: 0.8"/>
      </g>
     </g>
     <g id="text_1">
      <!-- −100 -->
      <g transform="translate(50.837054 115.1225) scale(0.1 -0.1)">
       <defs>
        <path id="FiraSans-Regular-2212" d="M 397 1882 
L 2803 1882 
L 2803 2374 
L 397 2374 
L 397 1882 
z
" transform="scale(0.015625)"/>
        <path id="FiraSans-Regular-31" d="M 2067 4282 
L 1549 4282 
L 224 3462 
L 480 3046 
L 1478 3654 
L 1478 0 
L 2067 0 
L 2067 4282 
z
" transform="scale(0.015625)"/>
        <path id="FiraSans-Regular-30" d="M 1786 4346 
C 826 4346 352 3558 352 2138 
C 352 717 826 -77 1786 -77 
C 2746 -77 3219 717 3219 2138 
C 3219 3552 2746 4346 1786 4346 
z
M 1786 3878 
C 2317 3878 2605 3392 2605 2138 
C 2605 877 2317 390 1786 390 
C 1248 390 966 877 966 2138 
C 966 3392 1248 3878 1786 3878 
z
" transform="scale(0.015625)"/>
       </defs>
       <use xlink:href="#FiraSans-Regular-2212"/>
       <use xlink:href="#FiraSans-Regular-31" x="49.999985"/>
       <use xlink:href="#FiraSans-Regular-30" x="93.299973"/>
       <use xlink:href="#FiraSans-Regular-30" x="149.09996"/>
      </g>
     </g>
    </g>
    <g id="xtick_2">
     <g id="line2d_2">
      <g>
       <use xlink:href="#m53f908f069" x="107.662422" y="100.6225" style="stroke: #000000; stroke-width: 0.8"/>
      </g>
     </g>
     <g id="text_2">
      <!-- −50 -->
      <g transform="translate(99.867891 115.1225) scale(0.1 -0.1)">
       <defs>
        <path id="FiraSans-Regular-35" d="M 2771 4282 
L 454 4282 
L 454 2125 
L 915 2125 
C 1120 2221 1293 2272 1523 2272 
C 1965 2272 2304 2042 2304 1382 
C 2304 755 1965 403 1427 403 
C 1056 403 781 538 512 806 
L 166 467 
C 499 128 890 -77 1434 -77 
C 2323 -77 2918 518 2918 1370 
C 2918 2221 2426 2726 1702 2726 
C 1472 2726 1242 2675 1018 2560 
L 1018 3821 
L 2688 3821 
L 2771 4282 
z
" transform="scale(0.015625)"/>
       </defs>
       <use xlink:href="#FiraSans-Regular-2212"/>
       <use xlink:href="#FiraSans-Regular-35" x="49.999985"/>
       <use xlink:href="#FiraSans-Regular-30" x="100.099976"/>
      </g>
     </g>
    </g>
    <g id="xtick_3">
     <g id="line2d_3">
      <g>
       <use xlink:href="#m53f908f069" x="154.243259" y="100.6225" style="stroke: #000000; stroke-width: 0.8"/>
      </g>
     </g>
     <g id="text_3">
      <!-- 0 -->
      <g transform="translate(151.453415 115.1225) scale(0.1 -0.1)">
       <use xlink:href="#FiraSans-Regular-30"/>
      </g>
     </g>
    </g>
    <g id="xtick_4">
     <g id="line2d_4">
      <g>
       <use xlink:href="#m53f908f069" x="200.824095" y="100.6225" style="stroke: #000000; stroke-width: 0.8"/>
      </g>
     </g>
     <g id="text_4">
      <!-- 50 -->
      <g transform="translate(195.529564 115.1225) scale(0.1 -0.1)">
       <use xlink:href="#FiraSans-Regular-35"/>
       <use xlink:href="#FiraSans-Regular-30" x="50.099991"/>
      </g>
     </g>
    </g>
    <g id="xtick_5">
     <g id="line2d_5">
      <g>
       <use xlink:href="#m53f908f069" x="247.404932" y="100.6225" style="stroke: #000000; stroke-width: 0.8"/>
      </g>
     </g>
     <g id="text_5">
      <!-- 100 -->
      <g transform="translate(239.660401 115.1225) scale(0.1 -0.1)">
       <use xlink:href="#FiraSans-Regular-31"/>
       <use xlink:href="#FiraSans-Regular-30" x="43.299988"/>
       <use xlink:href="#FiraSans-Regular-30" x="99.099976"/>
      </g>
     </g>
    </g>
    <g id="xtick_6">
     <g id="line2d_6">
      <g>
       <use xlink:href="#m53f908f069" x="293.985768" y="100.6225" style="stroke: #000000; stroke-width: 0.8"/>
      </g>
     </g>
     <g id="text_6">
      <!-- 150 -->
      <g transform="translate(286.526393 115.1225) scale(0.1 -0.1)">
       <use xlink:href="#FiraSans-Regular-31"/>
       <use xlink:href="#FiraSans-Regular-35" x="43.299988"/>
       <use xlink:href="#FiraSans-Regular-30" x="93.399979"/>
      </g>
     </g>
    </g>
    <g id="xtick_7">
     <g id="line2d_7">
      <g>
       <use xlink:href="#m53f908f069" x="340.566605" y="100.6225" style="stroke: #000000; stroke-width: 0.8"/>
      </g>
     </g>
     <g id="text_7">
      <!-- 200 -->
      <g transform="translate(332.511917 115.1225) scale(0.1 -0.1)">
       <defs>
        <path id="FiraSans-Regular-32" d="M 1459 4346 
C 922 4346 506 4128 160 3699 
L 544 3392 
C 832 3718 1069 3859 1427 3859 
C 1843 3859 2131 3597 2131 3149 
C 2131 2451 1760 2042 250 467 
L 250 0 
L 2778 0 
L 2848 493 
L 922 493 
C 2234 1805 2746 2374 2746 3174 
C 2746 3840 2246 4346 1459 4346 
z
" transform="scale(0.015625)"/>
       </defs>
       <use xlink:href="#FiraSans-Regular-32"/>
       <use xlink:href="#FiraSans-Regular-30" x="49.499985"/>
       <use xlink:href="#FiraSans-Regular-30" x="105.299973"/>
      </g>
     </g>
    </g>
    <g id="text_8">
     <!-- price difference in percentage (only &lt; 200%) -->
     <g transform="translate(97.915993 129.702188) scale(0.1 -0.1)">
      <defs>
       <path id="FiraSans-Regular-70" d="M 2157 3450 
C 1773 3450 1408 3264 1158 2918 
L 1114 3373 
L 608 3373 
L 608 -1363 
L 1197 -1293 
L 1197 307 
C 1414 45 1715 -77 2080 -77 
C 2950 -77 3405 666 3405 1690 
C 3405 2752 3053 3450 2157 3450 
z
M 1939 403 
C 1632 403 1370 550 1197 813 
L 1197 2458 
C 1376 2726 1651 2982 2010 2982 
C 2515 2982 2771 2566 2771 1690 
C 2771 806 2477 403 1939 403 
z
" transform="scale(0.015625)"/>
       <path id="FiraSans-Regular-72" d="M 2074 3450 
C 1664 3450 1350 3194 1171 2688 
L 1114 3373 
L 608 3373 
L 608 0 
L 1197 0 
L 1197 1926 
C 1338 2573 1581 2874 2003 2874 
C 2125 2874 2195 2861 2298 2835 
L 2406 3411 
C 2304 3437 2182 3450 2074 3450 
z
" transform="scale(0.015625)"/>
       <path id="FiraSans-Regular-69" d="M 896 4992 
C 653 4992 486 4819 486 4589 
C 486 4365 653 4192 896 4192 
C 1146 4192 1312 4365 1312 4589 
C 1312 4819 1146 4992 896 4992 
z
M 1197 3373 
L 608 3373 
L 608 0 
L 1197 0 
L 1197 3373 
z
" transform="scale(0.015625)"/>
       <path id="FiraSans-Regular-63" d="M 1837 3450 
C 922 3450 365 2733 365 1658 
C 365 570 928 -77 1837 -77 
C 2227 -77 2566 51 2867 294 
L 2598 678 
C 2342 512 2144 422 1862 422 
C 1331 422 998 787 998 1670 
C 998 2547 1331 2963 1862 2963 
C 2144 2963 2355 2880 2586 2714 
L 2867 3085 
C 2554 3347 2234 3450 1837 3450 
z
" transform="scale(0.015625)"/>
       <path id="FiraSans-Regular-65" d="M 3155 1786 
C 3155 2816 2675 3450 1766 3450 
C 896 3450 365 2701 365 1651 
C 365 582 915 -77 1856 -77 
C 2323 -77 2701 83 3034 346 
L 2778 698 
C 2483 493 2234 403 1901 403 
C 1414 403 1050 704 992 1485 
L 3142 1485 
C 3149 1562 3155 1670 3155 1786 
z
M 2573 1920 
L 992 1920 
C 1037 2669 1331 2982 1779 2982 
C 2310 2982 2573 2618 2573 1958 
L 2573 1920 
z
" transform="scale(0.015625)"/>
       <path id="FiraSans-Regular-20" transform="scale(0.015625)"/>
       <path id="FiraSans-Regular-64" d="M 2630 4800 
L 2630 3034 
C 2406 3270 2118 3450 1722 3450 
C 896 3450 397 2701 397 1670 
C 397 621 851 -77 1670 -77 
C 2086 -77 2426 128 2643 467 
L 2701 0 
L 3219 0 
L 3219 4730 
L 2630 4800 
z
M 1798 390 
C 1312 390 1030 794 1030 1683 
C 1030 2560 1344 2982 1850 2982 
C 2182 2982 2419 2810 2630 2541 
L 2630 890 
C 2406 576 2176 390 1798 390 
z
" transform="scale(0.015625)"/>
       <path id="FiraSans-Regular-66" d="M 1754 4326 
C 1926 4326 2125 4294 2342 4198 
L 2528 4627 
C 2259 4742 2042 4800 1722 4800 
C 1037 4800 666 4397 666 3834 
L 666 3373 
L 64 3373 
L 64 2918 
L 666 2918 
L 666 0 
L 1254 0 
L 1254 2918 
L 2010 2918 
L 2074 3373 
L 1254 3373 
L 1254 3840 
C 1254 4166 1382 4326 1754 4326 
z
" transform="scale(0.015625)"/>
       <path id="FiraSans-Regular-6e" d="M 2195 3450 
C 1754 3450 1395 3219 1165 2874 
L 1114 3373 
L 608 3373 
L 608 0 
L 1197 0 
L 1197 2394 
C 1421 2752 1677 2989 2054 2989 
C 2381 2989 2586 2842 2586 2336 
L 2586 0 
L 3174 0 
L 3174 2419 
C 3174 3059 2816 3450 2195 3450 
z
" transform="scale(0.015625)"/>
       <path id="FiraSans-Regular-74" d="M 2086 544 
C 1920 454 1786 410 1638 410 
C 1344 410 1235 570 1235 909 
L 1235 2918 
L 1971 2918 
L 2035 3373 
L 1235 3373 
L 1235 4205 
L 646 4134 
L 646 3373 
L 58 3373 
L 58 2918 
L 646 2918 
L 646 883 
C 646 256 986 -77 1555 -77 
C 1843 -77 2086 0 2310 154 
L 2086 544 
z
" transform="scale(0.015625)"/>
       <path id="FiraSans-Regular-61" d="M 2880 787 
L 2880 2330 
C 2880 3034 2509 3450 1696 3450 
C 1318 3450 947 3373 531 3219 
L 678 2790 
C 1024 2906 1338 2970 1587 2970 
C 2054 2970 2291 2790 2291 2304 
L 2291 2054 
L 1773 2054 
C 832 2054 288 1664 288 941 
C 288 339 691 -77 1363 -77 
C 1773 -77 2131 77 2368 429 
C 2470 96 2688 -38 3027 -77 
L 3162 333 
C 2989 397 2880 493 2880 787 
z
M 1498 365 
C 1114 365 915 576 915 973 
C 915 1434 1229 1664 1850 1664 
L 2291 1664 
L 2291 890 
C 2099 538 1843 365 1498 365 
z
" transform="scale(0.015625)"/>
       <path id="FiraSans-Regular-67" d="M 3155 3750 
C 2758 3571 2451 3430 1613 3450 
C 870 3450 314 2963 314 2272 
C 314 1837 493 1542 883 1338 
C 640 1178 512 960 512 742 
C 512 403 781 102 1382 102 
L 1914 102 
C 2336 102 2592 -58 2592 -378 
C 2592 -717 2336 -902 1606 -902 
C 864 -902 691 -723 691 -339 
L 160 -339 
C 160 -1024 506 -1363 1606 -1363 
C 2650 -1363 3187 -992 3187 -339 
C 3187 198 2726 595 2035 595 
L 1498 595 
C 1152 595 1056 717 1056 870 
C 1056 992 1126 1114 1222 1184 
C 1363 1139 1498 1120 1651 1120 
C 2458 1120 2938 1600 2938 2266 
C 2938 2656 2739 2938 2342 3117 
C 2726 3117 3046 3130 3328 3219 
L 3155 3750 
z
M 1613 3027 
C 2093 3027 2336 2771 2336 2278 
C 2336 1792 2086 1510 1626 1510 
C 1165 1510 915 1824 915 2272 
C 915 2714 1158 3027 1613 3027 
z
" transform="scale(0.015625)"/>
       <path id="FiraSans-Regular-28" d="M 1446 5408 
C 819 4518 256 3757 256 2240 
C 256 723 819 -38 1446 -928 
L 1818 -672 
C 1242 179 870 870 870 2240 
C 870 3616 1242 4301 1818 5152 
L 1446 5408 
z
" transform="scale(0.015625)"/>
       <path id="FiraSans-Regular-6f" d="M 1875 3450 
C 915 3450 365 2726 365 1683 
C 365 614 909 -77 1869 -77 
C 2822 -77 3373 646 3373 1690 
C 3373 2758 2835 3450 1875 3450 
z
M 1875 2976 
C 2432 2976 2739 2566 2739 1690 
C 2739 806 2432 397 1869 397 
C 1306 397 998 806 998 1683 
C 998 2566 1312 2976 1875 2976 
z
" transform="scale(0.015625)"/>
       <path id="FiraSans-Regular-6c" d="M 1280 -77 
C 1453 -77 1619 -32 1747 38 
L 1594 448 
C 1530 422 1459 410 1376 410 
C 1222 410 1165 499 1165 678 
L 1165 4800 
L 576 4730 
L 576 666 
C 576 186 851 -77 1280 -77 
z
" transform="scale(0.015625)"/>
       <path id="FiraSans-Regular-79" d="M 3085 3373 
L 2477 3373 
L 1594 429 
L 691 3373 
L 64 3373 
L 1197 0 
L 1395 0 
C 1203 -525 1011 -787 326 -902 
L 390 -1363 
C 1325 -1261 1722 -736 1958 -19 
L 3085 3373 
z
" transform="scale(0.015625)"/>
       <path id="FiraSans-Regular-3c" d="M 2669 3526 
L 320 2432 
L 320 1830 
L 2669 736 
L 2880 1210 
L 787 2131 
L 2880 3040 
L 2669 3526 
z
" transform="scale(0.015625)"/>
       <path id="FiraSans-Regular-25" d="M 3923 4550 
L 960 70 
L 1370 -198 
L 4333 4282 
L 3923 4550 
z
M 1325 4346 
C 730 4346 288 3930 288 3264 
C 288 2598 730 2182 1325 2182 
C 1926 2182 2368 2598 2368 3264 
C 2368 3930 1926 4346 1325 4346 
z
M 1325 3949 
C 1741 3949 1843 3597 1843 3264 
C 1843 2918 1741 2579 1325 2579 
C 915 2579 806 2931 806 3264 
C 806 3610 915 3949 1325 3949 
z
M 3962 2086 
C 3360 2086 2918 1670 2918 1005 
C 2918 339 3360 -77 3962 -77 
C 4563 -77 4998 339 4998 1005 
C 4998 1670 4563 2086 3962 2086 
z
M 3962 1683 
C 4378 1683 4480 1338 4480 1005 
C 4480 659 4378 320 3962 320 
C 3552 320 3443 672 3443 1005 
C 3443 1350 3552 1683 3962 1683 
z
" transform="scale(0.015625)"/>
       <path id="FiraSans-Regular-29" d="M 627 5408 
L 256 5152 
C 832 4301 1203 3616 1203 2240 
C 1203 870 832 179 256 -672 
L 627 -928 
C 1254 -38 1818 723 1818 2240 
C 1818 3757 1254 4518 627 5408 
z
" transform="scale(0.015625)"/>
      </defs>
      <use xlink:href="#FiraSans-Regular-70"/>
      <use xlink:href="#FiraSans-Regular-72" x="59.399994"/>
      <use xlink:href="#FiraSans-Regular-69" x="97.999985"/>
      <use xlink:href="#FiraSans-Regular-63" x="126.199982"/>
      <use xlink:href="#FiraSans-Regular-65" x="173.999969"/>
      <use xlink:href="#FiraSans-Regular-20" x="228.499954"/>
      <use xlink:href="#FiraSans-Regular-64" x="254.999939"/>
      <use xlink:href="#FiraSans-Regular-69" x="314.799927"/>
      <use xlink:href="#FiraSans-Regular-66" x="342.999924"/>
      <use xlink:href="#FiraSans-Regular-66" x="376.499908"/>
      <use xlink:href="#FiraSans-Regular-65" x="409.999893"/>
      <use xlink:href="#FiraSans-Regular-72" x="464.499878"/>
      <use xlink:href="#FiraSans-Regular-65" x="503.099869"/>
      <use xlink:href="#FiraSans-Regular-6e" x="557.599854"/>
      <use xlink:href="#FiraSans-Regular-63" x="616.199844"/>
      <use xlink:href="#FiraSans-Regular-65" x="663.999832"/>
      <use xlink:href="#FiraSans-Regular-20" x="718.499817"/>
      <use xlink:href="#FiraSans-Regular-69" x="744.999802"/>
      <use xlink:href="#FiraSans-Regular-6e" x="773.199799"/>
      <use xlink:href="#FiraSans-Regular-20" x="831.799789"/>
      <use xlink:href="#FiraSans-Regular-70" x="858.299774"/>
      <use xlink:href="#FiraSans-Regular-65" x="917.699768"/>
      <use xlink:href="#FiraSans-Regular-72" x="972.199753"/>
      <use xlink:href="#FiraSans-Regular-63" x="1010.799744"/>
      <use xlink:href="#FiraSans-Regular-65" x="1058.599731"/>
      <use xlink:href="#FiraSans-Regular-6e" x="1113.099716"/>
      <use xlink:href="#FiraSans-Regular-74" x="1171.699707"/>
      <use xlink:href="#FiraSans-Regular-61" x="1207.799698"/>
      <use xlink:href="#FiraSans-Regular-67" x="1262.199692"/>
      <use xlink:href="#FiraSans-Regular-65" x="1314.199677"/>
      <use xlink:href="#FiraSans-Regular-20" x="1368.699661"/>
      <use xlink:href="#FiraSans-Regular-28" x="1395.199646"/>
      <use xlink:href="#FiraSans-Regular-6f" x="1427.59964"/>
      <use xlink:href="#FiraSans-Regular-6e" x="1485.999634"/>
      <use xlink:href="#FiraSans-Regular-6c" x="1544.599625"/>
      <use xlink:href="#FiraSans-Regular-79" x="1573.899612"/>
      <use xlink:href="#FiraSans-Regular-20" x="1623.099609"/>
      <use xlink:href="#FiraSans-Regular-3c" x="1649.599594"/>
      <use xlink:href="#FiraSans-Regular-20" x="1699.599579"/>
      <use xlink:href="#FiraSans-Regular-32" x="1726.099564"/>
      <use xlink:href="#FiraSans-Regular-30" x="1775.599548"/>
      <use xlink:href="#FiraSans-Regular-30" x="1831.399536"/>
      <use xlink:href="#FiraSans-Regular-25" x="1887.199524"/>
      <use xlink:href="#FiraSans-Regular-29" x="1969.799515"/>
     </g>
    </g>
   </g>
   <g id="matplotlib.axis_2">
    <g id="ytick_1">
     <g id="line2d_8">
      <defs>
       <path id="meec05de1a7" d="M 0 0 
L -3.5 0 
" style="stroke: #000000; stroke-width: 0.8"/>
      </defs>
      <g>
       <use xlink:href="#meec05de1a7" x="47.55125" y="100.6225" style="stroke: #000000; stroke-width: 0.8"/>
      </g>
     </g>
     <g id="text_9">
      <!-- 0 -->
      <g transform="translate(34.971563 104.3725) scale(0.1 -0.1)">
       <use xlink:href="#FiraSans-Regular-30"/>
      </g>
     </g>
    </g>
    <g id="ytick_2">
     <g id="line2d_9">
      <g>
       <use xlink:href="#meec05de1a7" x="47.55125" y="75.898443" style="stroke: #000000; stroke-width: 0.8"/>
      </g>
     </g>
     <g id="text_10">
      <!-- 50 -->
      <g transform="translate(29.962188 79.648443) scale(0.1 -0.1)">
       <use xlink:href="#FiraSans-Regular-35"/>
       <use xlink:href="#FiraSans-Regular-30" x="50.099991"/>
      </g>
     </g>
    </g>
    <g id="ytick_3">
     <g id="line2d_10">
      <g>
       <use xlink:href="#meec05de1a7" x="47.55125" y="51.174385" style="stroke: #000000; stroke-width: 0.8"/>
      </g>
     </g>
     <g id="text_11">
      <!-- 100 -->
      <g transform="translate(25.062188 54.924385) scale(0.1 -0.1)">
       <use xlink:href="#FiraSans-Regular-31"/>
       <use xlink:href="#FiraSans-Regular-30" x="43.299988"/>
       <use xlink:href="#FiraSans-Regular-30" x="99.099976"/>
      </g>
     </g>
    </g>
    <g id="ytick_4">
     <g id="line2d_11">
      <g>
       <use xlink:href="#meec05de1a7" x="47.55125" y="26.450328" style="stroke: #000000; stroke-width: 0.8"/>
      </g>
     </g>
     <g id="text_12">
      <!-- 150 -->
      <g transform="translate(25.6325 30.200328) scale(0.1 -0.1)">
       <use xlink:href="#FiraSans-Regular-31"/>
       <use xlink:href="#FiraSans-Regular-35" x="43.299988"/>
       <use xlink:href="#FiraSans-Regular-30" x="93.399979"/>
      </g>
     </g>
    </g>
    <g id="text_13">
     <!-- number of transactions -->
     <g transform="translate(18.9325 108.93625) rotate(-90) scale(0.1 -0.1)">
      <defs>
       <path id="FiraSans-Regular-75" d="M 3117 3373 
L 2528 3373 
L 2528 966 
C 2323 627 2048 384 1683 384 
C 1318 384 1165 557 1165 1018 
L 1165 3373 
L 576 3373 
L 576 954 
C 576 294 928 -77 1517 -77 
C 1997 -77 2310 115 2566 525 
L 2611 0 
L 3117 0 
L 3117 3373 
z
" transform="scale(0.015625)"/>
       <path id="FiraSans-Regular-6d" d="M 3994 3450 
C 3539 3450 3232 3206 2989 2842 
C 2861 3226 2554 3450 2138 3450 
C 1696 3450 1389 3219 1165 2880 
L 1114 3373 
L 608 3373 
L 608 0 
L 1197 0 
L 1197 2394 
C 1421 2752 1626 2989 1990 2989 
C 2246 2989 2464 2842 2464 2336 
L 2464 0 
L 3053 0 
L 3053 2394 
C 3283 2752 3482 2989 3846 2989 
C 4102 2989 4320 2842 4320 2336 
L 4320 0 
L 4909 0 
L 4909 2419 
C 4909 3053 4544 3450 3994 3450 
z
" transform="scale(0.015625)"/>
       <path id="FiraSans-Regular-62" d="M 2150 3450 
C 1741 3450 1427 3264 1197 2950 
L 1197 4800 
L 608 4730 
L 608 0 
L 1126 0 
L 1184 371 
C 1414 90 1709 -77 2080 -77 
C 2899 -77 3405 634 3405 1690 
C 3405 2816 2912 3450 2150 3450 
z
M 1939 390 
C 1638 390 1370 576 1197 845 
L 1197 2458 
C 1370 2726 1613 2982 1984 2982 
C 2458 2982 2771 2650 2771 1690 
C 2771 768 2432 390 1939 390 
z
" transform="scale(0.015625)"/>
       <path id="FiraSans-Regular-73" d="M 1523 3450 
C 826 3450 307 3059 307 2522 
C 307 2048 595 1734 1325 1542 
C 1978 1370 2144 1242 2144 909 
C 2144 589 1862 397 1421 397 
C 1056 397 742 518 474 723 
L 160 365 
C 454 109 864 -77 1434 -77 
C 2118 -77 2765 243 2765 947 
C 2765 1536 2355 1818 1645 1997 
C 1101 2138 922 2266 922 2541 
C 922 2810 1158 2982 1542 2982 
C 1856 2982 2118 2886 2419 2694 
L 2669 3066 
C 2349 3309 1997 3450 1523 3450 
z
" transform="scale(0.015625)"/>
      </defs>
      <use xlink:href="#FiraSans-Regular-6e"/>
      <use xlink:href="#FiraSans-Regular-75" x="58.599991"/>
      <use xlink:href="#FiraSans-Regular-6d" x="116.799988"/>
      <use xlink:href="#FiraSans-Regular-62" x="202.499969"/>
      <use xlink:href="#FiraSans-Regular-65" x="261.899963"/>
      <use xlink:href="#FiraSans-Regular-72" x="316.399948"/>
      <use xlink:href="#FiraSans-Regular-20" x="354.999939"/>
      <use xlink:href="#FiraSans-Regular-6f" x="381.499924"/>
      <use xlink:href="#FiraSans-Regular-66" x="439.899918"/>
      <use xlink:href="#FiraSans-Regular-20" x="473.399902"/>
      <use xlink:href="#FiraSans-Regular-74" x="499.899887"/>
      <use xlink:href="#FiraSans-Regular-72" x="535.999878"/>
      <use xlink:href="#FiraSans-Regular-61" x="574.599869"/>
      <use xlink:href="#FiraSans-Regular-6e" x="628.999863"/>
      <use xlink:href="#FiraSans-Regular-73" x="687.599854"/>
      <use xlink:href="#FiraSans-Regular-61" x="734.29985"/>
      <use xlink:href="#FiraSans-Regular-63" x="788.699844"/>
      <use xlink:href="#FiraSans-Regular-74" x="836.499832"/>
      <use xlink:href="#FiraSans-Regular-69" x="872.599823"/>
      <use xlink:href="#FiraSans-Regular-6f" x="900.79982"/>
      <use xlink:href="#FiraSans-Regular-6e" x="959.199814"/>
      <use xlink:href="#FiraSans-Regular-73" x="1017.799805"/>
     </g>
    </g>
   </g>
   <g id="line2d_12">
    <path d="M 157.354859 100.6225 
L 157.354859 10.8 
" clip-path="url(#p7c948571bf)" style="fill: none; stroke-dasharray: 5.55,2.4; stroke-dashoffset: 0; stroke: #6699cc; stroke-width: 1.5"/>
   </g>
   <g id="line2d_13">
    <path d="M 179.394581 100.6225 
L 179.394581 10.8 
" clip-path="url(#p7c948571bf)" style="fill: none; stroke-dasharray: 5.55,2.4; stroke-dashoffset: 0; stroke: #6699cc; stroke-width: 1.5"/>
   </g>
   <g id="patch_103">
    <path d="M 47.55125 100.6225 
L 47.55125 10.8 
" style="fill: none; stroke: #000000; stroke-width: 0.8; stroke-linejoin: miter; stroke-linecap: square"/>
   </g>
   <g id="patch_104">
    <path d="M 47.55125 100.6225 
L 348.497924 100.6225 
" style="fill: none; stroke: #000000; stroke-width: 0.8; stroke-linejoin: miter; stroke-linecap: square"/>
   </g>
   <g id="text_14">
    <!-- Q1 = 3.3 -->
    <g transform="translate(155.225171 45.618537) rotate(-90) scale(0.1 -0.1)">
     <defs>
      <path id="FiraSans-Regular-51" d="M 3066 250 
C 3693 576 4077 1120 4077 2202 
C 4077 3686 3322 4486 2214 4486 
C 1114 4486 352 3648 352 2195 
C 352 717 1114 -64 2202 -64 
C 3002 -64 3366 -211 3866 -659 
L 4262 -147 
C 3949 70 3571 250 3066 250 
z
M 998 2195 
C 998 3469 1478 3987 2214 3987 
C 2970 3987 3430 3469 3430 2202 
C 3430 922 2957 422 2214 422 
C 1498 422 998 922 998 2195 
z
" transform="scale(0.015625)"/>
      <path id="FiraSans-Regular-3d" d="M 397 2490 
L 2803 2490 
L 2803 2982 
L 397 2982 
L 397 2490 
z
M 397 1254 
L 2803 1254 
L 2803 1747 
L 397 1747 
L 397 1254 
z
" transform="scale(0.015625)"/>
      <path id="FiraSans-Regular-33" d="M 1440 4346 
C 979 4346 582 4179 218 3840 
L 525 3488 
C 813 3757 1069 3872 1408 3872 
C 1837 3872 2118 3622 2118 3219 
C 2118 2720 1766 2464 1344 2464 
L 1126 2464 
L 1056 2010 
L 1376 2010 
C 1894 2010 2227 1830 2227 1242 
C 2227 736 1901 403 1363 403 
C 1018 403 730 531 448 826 
L 96 499 
C 422 109 870 -77 1382 -77 
C 2272 -77 2842 486 2842 1235 
C 2842 1882 2413 2221 1875 2272 
C 2355 2387 2707 2714 2707 3258 
C 2707 3834 2259 4346 1440 4346 
z
" transform="scale(0.015625)"/>
      <path id="FiraSans-Regular-2e" d="M 762 813 
C 512 813 320 614 320 371 
C 320 122 512 -77 762 -77 
C 1018 -77 1210 122 1210 371 
C 1210 614 1018 813 762 813 
z
" transform="scale(0.015625)"/>
     </defs>
     <use xlink:href="#FiraSans-Regular-51"/>
     <use xlink:href="#FiraSans-Regular-31" x="69.099991"/>
     <use xlink:href="#FiraSans-Regular-20" x="112.399979"/>
     <use xlink:href="#FiraSans-Regular-3d" x="138.899963"/>
     <use xlink:href="#FiraSans-Regular-20" x="188.899948"/>
     <use xlink:href="#FiraSans-Regular-33" x="215.399933"/>
     <use xlink:href="#FiraSans-Regular-2e" x="265.299927"/>
     <use xlink:href="#FiraSans-Regular-33" x="289.299911"/>
    </g>
   </g>
   <g id="text_15">
    <!-- Q3 = 27.0 -->
    <g transform="translate(177.264894 51.268537) rotate(-90) scale(0.1 -0.1)">
     <defs>
      <path id="FiraSans-Regular-37" d="M 2650 4282 
L 160 4282 
L 160 3802 
L 2054 3802 
L 512 115 
L 1050 -64 
L 2650 3840 
L 2650 4282 
z
" transform="scale(0.015625)"/>
     </defs>
     <use xlink:href="#FiraSans-Regular-51"/>
     <use xlink:href="#FiraSans-Regular-33" x="69.099991"/>
     <use xlink:href="#FiraSans-Regular-20" x="118.999985"/>
     <use xlink:href="#FiraSans-Regular-3d" x="145.499969"/>
     <use xlink:href="#FiraSans-Regular-20" x="195.499954"/>
     <use xlink:href="#FiraSans-Regular-32" x="221.999939"/>
     <use xlink:href="#FiraSans-Regular-37" x="271.499924"/>
     <use xlink:href="#FiraSans-Regular-2e" x="315.899918"/>
     <use xlink:href="#FiraSans-Regular-30" x="339.899902"/>
    </g>
   </g>
  </g>
 </g>
 <defs>
  <clipPath id="p7c948571bf">
   <rect x="47.55125" y="10.8" width="300.946674" height="89.8225"/>
  </clipPath>
 </defs>
</svg>
