<?xml version="1.0" encoding="utf-8" standalone="no"?>
<!DOCTYPE svg PUBLIC "-//W3C//DTD SVG 1.1//EN"
  "http://www.w3.org/Graphics/SVG/1.1/DTD/svg11.dtd">
<svg xmlns:xlink="http://www.w3.org/1999/xlink" width="576pt" height="144pt" viewBox="0 0 576 144" xmlns="http://www.w3.org/2000/svg" version="1.1">
 <metadata>
  <rdf:RDF xmlns:dc="http://purl.org/dc/elements/1.1/" xmlns:cc="http://creativecommons.org/ns#" xmlns:rdf="http://www.w3.org/1999/02/22-rdf-syntax-ns#">
   <cc:Work>
    <dc:type rdf:resource="http://purl.org/dc/dcmitype/StillImage"/>
    <dc:date>2024-02-24T20:28:13.467638</dc:date>
    <dc:format>image/svg+xml</dc:format>
    <dc:creator>
     <cc:Agent>
      <dc:title>Matplotlib v3.7.1, https://matplotlib.org/</dc:title>
     </cc:Agent>
    </dc:creator>
   </cc:Work>
  </rdf:RDF>
 </metadata>
 <defs>
  <style type="text/css">*{stroke-linejoin: round; stroke-linecap: butt}</style>
 </defs>
 <g id="figure_1">
  <g id="patch_1">
   <path d="M 0 144 
L 576 144 
L 576 0 
L 0 0 
z
" style="fill: #ffffff"/>
  </g>
  <g id="axes_1">
   <g id="patch_2">
    <path d="M 145.06 101.6575 
L 287.37 101.6575 
L 287.37 10.8 
L 145.06 10.8 
z
" style="fill: #ffffff"/>
   </g>
   <g id="patch_3">
    <path d="M 145.06 97.527614 
L 280.593333 97.527614 
L 280.593333 83.761326 
L 145.06 83.761326 
z
" clip-path="url(#p7e37ecaba6)" style="fill: #6699cc; opacity: 0.7"/>
   </g>
   <g id="patch_4">
    <path d="M 145.06 63.111894 
L 250.236971 63.111894 
L 250.236971 49.345606 
L 145.06 49.345606 
z
" clip-path="url(#p7e37ecaba6)" style="fill: #6699cc; opacity: 0.7"/>
   </g>
   <g id="patch_5">
    <path d="M 145.06 28.696174 
L 263.817072 28.696174 
L 263.817072 14.929886 
L 145.06 14.929886 
z
" clip-path="url(#p7e37ecaba6)" style="fill: #6699cc; opacity: 0.7"/>
   </g>
   <g id="matplotlib.axis_1">
    <g id="xtick_1">
     <g id="line2d_1">
      <defs>
       <path id="m3b8b1f702a" d="M 0 0 
L 0 3.5 
" style="stroke: #000000; stroke-width: 0.8"/>
      </defs>
      <g>
       <use xlink:href="#m3b8b1f702a" x="145.06" y="101.6575" style="stroke: #000000; stroke-width: 0.8"/>
      </g>
     </g>
     <g id="text_1">
      <!-- 0 -->
      <g transform="translate(142.270156 116.1575) scale(0.1 -0.1)">
       <defs>
        <path id="FiraSans-Regular-30" d="M 1786 4346 
C 826 4346 352 3558 352 2138 
C 352 717 826 -77 1786 -77 
C 2746 -77 3219 717 3219 2138 
C 3219 3552 2746 4346 1786 4346 
z
M 1786 3878 
C 2317 3878 2605 3392 2605 2138 
C 2605 877 2317 390 1786 390 
C 1248 390 966 877 966 2138 
C 966 3392 1248 3878 1786 3878 
z
" transform="scale(0.015625)"/>
       </defs>
       <use xlink:href="#FiraSans-Regular-30"/>
      </g>
     </g>
    </g>
    <g id="xtick_2">
     <g id="line2d_2">
      <g>
       <use xlink:href="#m3b8b1f702a" x="206.317763" y="101.6575" style="stroke: #000000; stroke-width: 0.8"/>
      </g>
     </g>
     <g id="text_2">
      <!-- 20 -->
      <g transform="translate(201.05292 116.1575) scale(0.1 -0.1)">
       <defs>
        <path id="FiraSans-Regular-32" d="M 1459 4346 
C 922 4346 506 4128 160 3699 
L 544 3392 
C 832 3718 1069 3859 1427 3859 
C 1843 3859 2131 3597 2131 3149 
C 2131 2451 1760 2042 250 467 
L 250 0 
L 2778 0 
L 2848 493 
L 922 493 
C 2234 1805 2746 2374 2746 3174 
C 2746 3840 2246 4346 1459 4346 
z
" transform="scale(0.015625)"/>
       </defs>
       <use xlink:href="#FiraSans-Regular-32"/>
       <use xlink:href="#FiraSans-Regular-30" x="49.499985"/>
      </g>
     </g>
    </g>
    <g id="xtick_3">
     <g id="line2d_3">
      <g>
       <use xlink:href="#m3b8b1f702a" x="267.575527" y="101.6575" style="stroke: #000000; stroke-width: 0.8"/>
      </g>
     </g>
     <g id="text_3">
      <!-- 40 -->
      <g transform="translate(262.125527 116.1575) scale(0.1 -0.1)">
       <defs>
        <path id="FiraSans-Regular-34" d="M 3213 1523 
L 2656 1523 
L 2656 2675 
L 2144 2675 
L 2093 1523 
L 877 1523 
L 2035 4141 
L 1542 4346 
L 256 1478 
L 256 1056 
L 2086 1056 
L 2086 0 
L 2656 0 
L 2656 1056 
L 3213 1056 
L 3213 1523 
z
" transform="scale(0.015625)"/>
       </defs>
       <use xlink:href="#FiraSans-Regular-34"/>
       <use xlink:href="#FiraSans-Regular-30" x="53.199997"/>
      </g>
     </g>
    </g>
    <g id="text_4">
     <!-- price difference percentage -->
     <g transform="translate(153.44625 130.087187) scale(0.1 -0.1)">
      <defs>
       <path id="FiraSans-Regular-70" d="M 2157 3450 
C 1773 3450 1408 3264 1158 2918 
L 1114 3373 
L 608 3373 
L 608 -1363 
L 1197 -1293 
L 1197 307 
C 1414 45 1715 -77 2080 -77 
C 2950 -77 3405 666 3405 1690 
C 3405 2752 3053 3450 2157 3450 
z
M 1939 403 
C 1632 403 1370 550 1197 813 
L 1197 2458 
C 1376 2726 1651 2982 2010 2982 
C 2515 2982 2771 2566 2771 1690 
C 2771 806 2477 403 1939 403 
z
" transform="scale(0.015625)"/>
       <path id="FiraSans-Regular-72" d="M 2074 3450 
C 1664 3450 1350 3194 1171 2688 
L 1114 3373 
L 608 3373 
L 608 0 
L 1197 0 
L 1197 1926 
C 1338 2573 1581 2874 2003 2874 
C 2125 2874 2195 2861 2298 2835 
L 2406 3411 
C 2304 3437 2182 3450 2074 3450 
z
" transform="scale(0.015625)"/>
       <path id="FiraSans-Regular-69" d="M 896 4992 
C 653 4992 486 4819 486 4589 
C 486 4365 653 4192 896 4192 
C 1146 4192 1312 4365 1312 4589 
C 1312 4819 1146 4992 896 4992 
z
M 1197 3373 
L 608 3373 
L 608 0 
L 1197 0 
L 1197 3373 
z
" transform="scale(0.015625)"/>
       <path id="FiraSans-Regular-63" d="M 1837 3450 
C 922 3450 365 2733 365 1658 
C 365 570 928 -77 1837 -77 
C 2227 -77 2566 51 2867 294 
L 2598 678 
C 2342 512 2144 422 1862 422 
C 1331 422 998 787 998 1670 
C 998 2547 1331 2963 1862 2963 
C 2144 2963 2355 2880 2586 2714 
L 2867 3085 
C 2554 3347 2234 3450 1837 3450 
z
" transform="scale(0.015625)"/>
       <path id="FiraSans-Regular-65" d="M 3155 1786 
C 3155 2816 2675 3450 1766 3450 
C 896 3450 365 2701 365 1651 
C 365 582 915 -77 1856 -77 
C 2323 -77 2701 83 3034 346 
L 2778 698 
C 2483 493 2234 403 1901 403 
C 1414 403 1050 704 992 1485 
L 3142 1485 
C 3149 1562 3155 1670 3155 1786 
z
M 2573 1920 
L 992 1920 
C 1037 2669 1331 2982 1779 2982 
C 2310 2982 2573 2618 2573 1958 
L 2573 1920 
z
" transform="scale(0.015625)"/>
       <path id="FiraSans-Regular-20" transform="scale(0.015625)"/>
       <path id="FiraSans-Regular-64" d="M 2630 4800 
L 2630 3034 
C 2406 3270 2118 3450 1722 3450 
C 896 3450 397 2701 397 1670 
C 397 621 851 -77 1670 -77 
C 2086 -77 2426 128 2643 467 
L 2701 0 
L 3219 0 
L 3219 4730 
L 2630 4800 
z
M 1798 390 
C 1312 390 1030 794 1030 1683 
C 1030 2560 1344 2982 1850 2982 
C 2182 2982 2419 2810 2630 2541 
L 2630 890 
C 2406 576 2176 390 1798 390 
z
" transform="scale(0.015625)"/>
       <path id="FiraSans-Regular-66" d="M 1754 4326 
C 1926 4326 2125 4294 2342 4198 
L 2528 4627 
C 2259 4742 2042 4800 1722 4800 
C 1037 4800 666 4397 666 3834 
L 666 3373 
L 64 3373 
L 64 2918 
L 666 2918 
L 666 0 
L 1254 0 
L 1254 2918 
L 2010 2918 
L 2074 3373 
L 1254 3373 
L 1254 3840 
C 1254 4166 1382 4326 1754 4326 
z
" transform="scale(0.015625)"/>
       <path id="FiraSans-Regular-6e" d="M 2195 3450 
C 1754 3450 1395 3219 1165 2874 
L 1114 3373 
L 608 3373 
L 608 0 
L 1197 0 
L 1197 2394 
C 1421 2752 1677 2989 2054 2989 
C 2381 2989 2586 2842 2586 2336 
L 2586 0 
L 3174 0 
L 3174 2419 
C 3174 3059 2816 3450 2195 3450 
z
" transform="scale(0.015625)"/>
       <path id="FiraSans-Regular-74" d="M 2086 544 
C 1920 454 1786 410 1638 410 
C 1344 410 1235 570 1235 909 
L 1235 2918 
L 1971 2918 
L 2035 3373 
L 1235 3373 
L 1235 4205 
L 646 4134 
L 646 3373 
L 58 3373 
L 58 2918 
L 646 2918 
L 646 883 
C 646 256 986 -77 1555 -77 
C 1843 -77 2086 0 2310 154 
L 2086 544 
z
" transform="scale(0.015625)"/>
       <path id="FiraSans-Regular-61" d="M 2880 787 
L 2880 2330 
C 2880 3034 2509 3450 1696 3450 
C 1318 3450 947 3373 531 3219 
L 678 2790 
C 1024 2906 1338 2970 1587 2970 
C 2054 2970 2291 2790 2291 2304 
L 2291 2054 
L 1773 2054 
C 832 2054 288 1664 288 941 
C 288 339 691 -77 1363 -77 
C 1773 -77 2131 77 2368 429 
C 2470 96 2688 -38 3027 -77 
L 3162 333 
C 2989 397 2880 493 2880 787 
z
M 1498 365 
C 1114 365 915 576 915 973 
C 915 1434 1229 1664 1850 1664 
L 2291 1664 
L 2291 890 
C 2099 538 1843 365 1498 365 
z
" transform="scale(0.015625)"/>
       <path id="FiraSans-Regular-67" d="M 3155 3750 
C 2758 3571 2451 3430 1613 3450 
C 870 3450 314 2963 314 2272 
C 314 1837 493 1542 883 1338 
C 640 1178 512 960 512 742 
C 512 403 781 102 1382 102 
L 1914 102 
C 2336 102 2592 -58 2592 -378 
C 2592 -717 2336 -902 1606 -902 
C 864 -902 691 -723 691 -339 
L 160 -339 
C 160 -1024 506 -1363 1606 -1363 
C 2650 -1363 3187 -992 3187 -339 
C 3187 198 2726 595 2035 595 
L 1498 595 
C 1152 595 1056 717 1056 870 
C 1056 992 1126 1114 1222 1184 
C 1363 1139 1498 1120 1651 1120 
C 2458 1120 2938 1600 2938 2266 
C 2938 2656 2739 2938 2342 3117 
C 2726 3117 3046 3130 3328 3219 
L 3155 3750 
z
M 1613 3027 
C 2093 3027 2336 2771 2336 2278 
C 2336 1792 2086 1510 1626 1510 
C 1165 1510 915 1824 915 2272 
C 915 2714 1158 3027 1613 3027 
z
" transform="scale(0.015625)"/>
      </defs>
      <use xlink:href="#FiraSans-Regular-70"/>
      <use xlink:href="#FiraSans-Regular-72" x="59.399994"/>
      <use xlink:href="#FiraSans-Regular-69" x="97.999985"/>
      <use xlink:href="#FiraSans-Regular-63" x="126.199982"/>
      <use xlink:href="#FiraSans-Regular-65" x="173.999969"/>
      <use xlink:href="#FiraSans-Regular-20" x="228.499954"/>
      <use xlink:href="#FiraSans-Regular-64" x="254.999939"/>
      <use xlink:href="#FiraSans-Regular-69" x="314.799927"/>
      <use xlink:href="#FiraSans-Regular-66" x="342.999924"/>
      <use xlink:href="#FiraSans-Regular-66" x="376.499908"/>
      <use xlink:href="#FiraSans-Regular-65" x="409.999893"/>
      <use xlink:href="#FiraSans-Regular-72" x="464.499878"/>
      <use xlink:href="#FiraSans-Regular-65" x="503.099869"/>
      <use xlink:href="#FiraSans-Regular-6e" x="557.599854"/>
      <use xlink:href="#FiraSans-Regular-63" x="616.199844"/>
      <use xlink:href="#FiraSans-Regular-65" x="663.999832"/>
      <use xlink:href="#FiraSans-Regular-20" x="718.499817"/>
      <use xlink:href="#FiraSans-Regular-70" x="744.999802"/>
      <use xlink:href="#FiraSans-Regular-65" x="804.399796"/>
      <use xlink:href="#FiraSans-Regular-72" x="858.89978"/>
      <use xlink:href="#FiraSans-Regular-63" x="897.499771"/>
      <use xlink:href="#FiraSans-Regular-65" x="945.299759"/>
      <use xlink:href="#FiraSans-Regular-6e" x="999.799744"/>
      <use xlink:href="#FiraSans-Regular-74" x="1058.399734"/>
      <use xlink:href="#FiraSans-Regular-61" x="1094.499725"/>
      <use xlink:href="#FiraSans-Regular-67" x="1148.899719"/>
      <use xlink:href="#FiraSans-Regular-65" x="1200.899704"/>
     </g>
    </g>
   </g>
   <g id="matplotlib.axis_2">
    <g id="ytick_1">
     <g id="line2d_4">
      <defs>
       <path id="m34e9f1f5fd" d="M 0 0 
L -3.5 0 
" style="stroke: #000000; stroke-width: 0.8"/>
      </defs>
      <g>
       <use xlink:href="#m34e9f1f5fd" x="145.06" y="90.64447" style="stroke: #000000; stroke-width: 0.8"/>
      </g>
     </g>
     <g id="text_5">
      <!-- short-term (&lt; 6 months) -->
      <g transform="translate(29.531875 94.529626) scale(0.1 -0.1)">
       <defs>
        <path id="FiraSans-Regular-73" d="M 1523 3450 
C 826 3450 307 3059 307 2522 
C 307 2048 595 1734 1325 1542 
C 1978 1370 2144 1242 2144 909 
C 2144 589 1862 397 1421 397 
C 1056 397 742 518 474 723 
L 160 365 
C 454 109 864 -77 1434 -77 
C 2118 -77 2765 243 2765 947 
C 2765 1536 2355 1818 1645 1997 
C 1101 2138 922 2266 922 2541 
C 922 2810 1158 2982 1542 2982 
C 1856 2982 2118 2886 2419 2694 
L 2669 3066 
C 2349 3309 1997 3450 1523 3450 
z
" transform="scale(0.015625)"/>
        <path id="FiraSans-Regular-68" d="M 2195 3450 
C 1773 3450 1440 3238 1197 2906 
L 1197 4787 
L 608 4723 
L 608 0 
L 1197 0 
L 1197 2400 
C 1421 2752 1683 2989 2048 2989 
C 2368 2989 2586 2842 2586 2336 
L 2586 0 
L 3174 0 
L 3174 2419 
C 3174 3053 2810 3450 2195 3450 
z
" transform="scale(0.015625)"/>
        <path id="FiraSans-Regular-6f" d="M 1875 3450 
C 915 3450 365 2726 365 1683 
C 365 614 909 -77 1869 -77 
C 2822 -77 3373 646 3373 1690 
C 3373 2758 2835 3450 1875 3450 
z
M 1875 2976 
C 2432 2976 2739 2566 2739 1690 
C 2739 806 2432 397 1869 397 
C 1306 397 998 806 998 1683 
C 998 2566 1312 2976 1875 2976 
z
" transform="scale(0.015625)"/>
        <path id="FiraSans-Regular-2d" d="M 384 1754 
L 2195 1754 
L 2195 2253 
L 384 2253 
L 384 1754 
z
" transform="scale(0.015625)"/>
        <path id="FiraSans-Regular-6d" d="M 3994 3450 
C 3539 3450 3232 3206 2989 2842 
C 2861 3226 2554 3450 2138 3450 
C 1696 3450 1389 3219 1165 2880 
L 1114 3373 
L 608 3373 
L 608 0 
L 1197 0 
L 1197 2394 
C 1421 2752 1626 2989 1990 2989 
C 2246 2989 2464 2842 2464 2336 
L 2464 0 
L 3053 0 
L 3053 2394 
C 3283 2752 3482 2989 3846 2989 
C 4102 2989 4320 2842 4320 2336 
L 4320 0 
L 4909 0 
L 4909 2419 
C 4909 3053 4544 3450 3994 3450 
z
" transform="scale(0.015625)"/>
        <path id="FiraSans-Regular-28" d="M 1446 5408 
C 819 4518 256 3757 256 2240 
C 256 723 819 -38 1446 -928 
L 1818 -672 
C 1242 179 870 870 870 2240 
C 870 3616 1242 4301 1818 5152 
L 1446 5408 
z
" transform="scale(0.015625)"/>
        <path id="FiraSans-Regular-3c" d="M 2669 3526 
L 320 2432 
L 320 1830 
L 2669 736 
L 2880 1210 
L 787 2131 
L 2880 3040 
L 2669 3526 
z
" transform="scale(0.015625)"/>
        <path id="FiraSans-Regular-36" d="M 1971 2816 
C 1568 2816 1222 2650 941 2253 
C 973 3232 1344 3878 1965 3878 
C 2202 3878 2426 3814 2624 3693 
L 2854 4083 
C 2605 4250 2317 4346 1971 4346 
C 960 4346 352 3411 352 2010 
C 352 781 749 -77 1792 -77 
C 2547 -77 3155 518 3155 1453 
C 3155 2368 2598 2816 1971 2816 
z
M 1792 390 
C 1222 390 973 826 947 1760 
C 1165 2112 1485 2349 1869 2349 
C 2272 2349 2560 2112 2560 1434 
C 2560 806 2298 390 1792 390 
z
" transform="scale(0.015625)"/>
        <path id="FiraSans-Regular-29" d="M 627 5408 
L 256 5152 
C 832 4301 1203 3616 1203 2240 
C 1203 870 832 179 256 -672 
L 627 -928 
C 1254 -38 1818 723 1818 2240 
C 1818 3757 1254 4518 627 5408 
z
" transform="scale(0.015625)"/>
       </defs>
       <use xlink:href="#FiraSans-Regular-73"/>
       <use xlink:href="#FiraSans-Regular-68" x="46.699997"/>
       <use xlink:href="#FiraSans-Regular-6f" x="105.299988"/>
       <use xlink:href="#FiraSans-Regular-72" x="163.699982"/>
       <use xlink:href="#FiraSans-Regular-74" x="202.299973"/>
       <use xlink:href="#FiraSans-Regular-2d" x="238.399963"/>
       <use xlink:href="#FiraSans-Regular-74" x="278.699951"/>
       <use xlink:href="#FiraSans-Regular-65" x="314.799942"/>
       <use xlink:href="#FiraSans-Regular-72" x="369.299927"/>
       <use xlink:href="#FiraSans-Regular-6d" x="407.899918"/>
       <use xlink:href="#FiraSans-Regular-20" x="493.599899"/>
       <use xlink:href="#FiraSans-Regular-28" x="520.099884"/>
       <use xlink:href="#FiraSans-Regular-3c" x="552.499878"/>
       <use xlink:href="#FiraSans-Regular-20" x="602.499863"/>
       <use xlink:href="#FiraSans-Regular-36" x="628.999847"/>
       <use xlink:href="#FiraSans-Regular-20" x="682.299835"/>
       <use xlink:href="#FiraSans-Regular-6d" x="708.79982"/>
       <use xlink:href="#FiraSans-Regular-6f" x="794.499802"/>
       <use xlink:href="#FiraSans-Regular-6e" x="852.899796"/>
       <use xlink:href="#FiraSans-Regular-74" x="911.499786"/>
       <use xlink:href="#FiraSans-Regular-68" x="947.599777"/>
       <use xlink:href="#FiraSans-Regular-73" x="1006.199768"/>
       <use xlink:href="#FiraSans-Regular-29" x="1052.899765"/>
      </g>
     </g>
    </g>
    <g id="ytick_2">
     <g id="line2d_5">
      <g>
       <use xlink:href="#m34e9f1f5fd" x="145.06" y="56.22875" style="stroke: #000000; stroke-width: 0.8"/>
      </g>
     </g>
     <g id="text_6">
      <!-- medium-term (6-12 months) -->
      <g transform="translate(10.500625 60.113906) scale(0.1 -0.1)">
       <defs>
        <path id="FiraSans-Regular-75" d="M 3117 3373 
L 2528 3373 
L 2528 966 
C 2323 627 2048 384 1683 384 
C 1318 384 1165 557 1165 1018 
L 1165 3373 
L 576 3373 
L 576 954 
C 576 294 928 -77 1517 -77 
C 1997 -77 2310 115 2566 525 
L 2611 0 
L 3117 0 
L 3117 3373 
z
" transform="scale(0.015625)"/>
        <path id="FiraSans-Regular-31" d="M 2067 4282 
L 1549 4282 
L 224 3462 
L 480 3046 
L 1478 3654 
L 1478 0 
L 2067 0 
L 2067 4282 
z
" transform="scale(0.015625)"/>
       </defs>
       <use xlink:href="#FiraSans-Regular-6d"/>
       <use xlink:href="#FiraSans-Regular-65" x="85.699982"/>
       <use xlink:href="#FiraSans-Regular-64" x="140.199966"/>
       <use xlink:href="#FiraSans-Regular-69" x="199.999954"/>
       <use xlink:href="#FiraSans-Regular-75" x="228.199951"/>
       <use xlink:href="#FiraSans-Regular-6d" x="286.399948"/>
       <use xlink:href="#FiraSans-Regular-2d" x="372.09993"/>
       <use xlink:href="#FiraSans-Regular-74" x="412.399918"/>
       <use xlink:href="#FiraSans-Regular-65" x="448.499908"/>
       <use xlink:href="#FiraSans-Regular-72" x="502.999893"/>
       <use xlink:href="#FiraSans-Regular-6d" x="541.599884"/>
       <use xlink:href="#FiraSans-Regular-20" x="627.299866"/>
       <use xlink:href="#FiraSans-Regular-28" x="653.79985"/>
       <use xlink:href="#FiraSans-Regular-36" x="686.199844"/>
       <use xlink:href="#FiraSans-Regular-2d" x="739.499832"/>
       <use xlink:href="#FiraSans-Regular-31" x="779.79982"/>
       <use xlink:href="#FiraSans-Regular-32" x="823.099808"/>
       <use xlink:href="#FiraSans-Regular-20" x="872.599792"/>
       <use xlink:href="#FiraSans-Regular-6d" x="899.099777"/>
       <use xlink:href="#FiraSans-Regular-6f" x="984.799759"/>
       <use xlink:href="#FiraSans-Regular-6e" x="1043.199753"/>
       <use xlink:href="#FiraSans-Regular-74" x="1101.799744"/>
       <use xlink:href="#FiraSans-Regular-68" x="1137.899734"/>
       <use xlink:href="#FiraSans-Regular-73" x="1196.499725"/>
       <use xlink:href="#FiraSans-Regular-29" x="1243.199722"/>
      </g>
     </g>
    </g>
    <g id="ytick_3">
     <g id="line2d_6">
      <g>
       <use xlink:href="#m34e9f1f5fd" x="145.06" y="21.81303" style="stroke: #000000; stroke-width: 0.8"/>
      </g>
     </g>
     <g id="text_7">
      <!-- long-term (1-2 years) -->
      <g transform="translate(43.280312 26.03803) scale(0.1 -0.1)">
       <defs>
        <path id="FiraSans-Regular-6c" d="M 1280 -77 
C 1453 -77 1619 -32 1747 38 
L 1594 448 
C 1530 422 1459 410 1376 410 
C 1222 410 1165 499 1165 678 
L 1165 4800 
L 576 4730 
L 576 666 
C 576 186 851 -77 1280 -77 
z
" transform="scale(0.015625)"/>
        <path id="FiraSans-Regular-79" d="M 3085 3373 
L 2477 3373 
L 1594 429 
L 691 3373 
L 64 3373 
L 1197 0 
L 1395 0 
C 1203 -525 1011 -787 326 -902 
L 390 -1363 
C 1325 -1261 1722 -736 1958 -19 
L 3085 3373 
z
" transform="scale(0.015625)"/>
       </defs>
       <use xlink:href="#FiraSans-Regular-6c"/>
       <use xlink:href="#FiraSans-Regular-6f" x="29.299988"/>
       <use xlink:href="#FiraSans-Regular-6e" x="87.699982"/>
       <use xlink:href="#FiraSans-Regular-67" x="146.299973"/>
       <use xlink:href="#FiraSans-Regular-2d" x="198.299957"/>
       <use xlink:href="#FiraSans-Regular-74" x="238.599945"/>
       <use xlink:href="#FiraSans-Regular-65" x="274.699936"/>
       <use xlink:href="#FiraSans-Regular-72" x="329.199921"/>
       <use xlink:href="#FiraSans-Regular-6d" x="367.799911"/>
       <use xlink:href="#FiraSans-Regular-20" x="453.499893"/>
       <use xlink:href="#FiraSans-Regular-28" x="479.999878"/>
       <use xlink:href="#FiraSans-Regular-31" x="512.399872"/>
       <use xlink:href="#FiraSans-Regular-2d" x="555.69986"/>
       <use xlink:href="#FiraSans-Regular-32" x="595.999847"/>
       <use xlink:href="#FiraSans-Regular-20" x="645.499832"/>
       <use xlink:href="#FiraSans-Regular-79" x="671.999817"/>
       <use xlink:href="#FiraSans-Regular-65" x="721.199814"/>
       <use xlink:href="#FiraSans-Regular-61" x="775.699799"/>
       <use xlink:href="#FiraSans-Regular-72" x="830.099792"/>
       <use xlink:href="#FiraSans-Regular-73" x="868.699783"/>
       <use xlink:href="#FiraSans-Regular-29" x="915.39978"/>
      </g>
     </g>
    </g>
   </g>
   <g id="patch_6">
    <path d="M 145.06 101.6575 
L 145.06 10.8 
" style="fill: none; stroke: #000000; stroke-width: 0.8; stroke-linejoin: miter; stroke-linecap: square"/>
   </g>
   <g id="patch_7">
    <path d="M 145.06 101.6575 
L 287.37 101.6575 
" style="fill: none; stroke: #000000; stroke-width: 0.8; stroke-linejoin: miter; stroke-linecap: square"/>
   </g>
  </g>
  <g id="axes_2">
   <g id="patch_8">
    <path d="M 422.89 101.6575 
L 565.2 101.6575 
L 565.2 10.8 
L 422.89 10.8 
z
" style="fill: #ffffff"/>
   </g>
   <g id="patch_9">
    <path d="M 422.89 97.527614 
L 476.450177 97.527614 
L 476.450177 83.761326 
L 422.89 83.761326 
z
" clip-path="url(#pa7cefb8631)" style="fill: #6699cc; opacity: 0.7"/>
   </g>
   <g id="patch_10">
    <path d="M 422.89 63.111894 
L 481.633249 63.111894 
L 481.633249 49.345606 
L 422.89 49.345606 
z
" clip-path="url(#pa7cefb8631)" style="fill: #6699cc; opacity: 0.7"/>
   </g>
   <g id="patch_11">
    <path d="M 422.89 28.696174 
L 558.423333 28.696174 
L 558.423333 14.929886 
L 422.89 14.929886 
z
" clip-path="url(#pa7cefb8631)" style="fill: #6699cc; opacity: 0.7"/>
   </g>
   <g id="matplotlib.axis_3">
    <g id="xtick_4">
     <g id="line2d_7">
      <g>
       <use xlink:href="#m3b8b1f702a" x="422.89" y="101.6575" style="stroke: #000000; stroke-width: 0.8"/>
      </g>
     </g>
     <g id="text_8">
      <!-- 0 -->
      <g transform="translate(420.100156 116.1575) scale(0.1 -0.1)">
       <use xlink:href="#FiraSans-Regular-30"/>
      </g>
     </g>
    </g>
    <g id="xtick_5">
     <g id="line2d_8">
      <g>
       <use xlink:href="#m3b8b1f702a" x="471.125622" y="101.6575" style="stroke: #000000; stroke-width: 0.8"/>
      </g>
     </g>
     <g id="text_9">
      <!-- 20 -->
      <g transform="translate(465.860778 116.1575) scale(0.1 -0.1)">
       <use xlink:href="#FiraSans-Regular-32"/>
       <use xlink:href="#FiraSans-Regular-30" x="49.499985"/>
      </g>
     </g>
    </g>
    <g id="xtick_6">
     <g id="line2d_9">
      <g>
       <use xlink:href="#m3b8b1f702a" x="519.361244" y="101.6575" style="stroke: #000000; stroke-width: 0.8"/>
      </g>
     </g>
     <g id="text_10">
      <!-- 40 -->
      <g transform="translate(513.911244 116.1575) scale(0.1 -0.1)">
       <use xlink:href="#FiraSans-Regular-34"/>
       <use xlink:href="#FiraSans-Regular-30" x="53.199997"/>
      </g>
     </g>
    </g>
    <g id="text_11">
     <!-- price difference percentage -->
     <g transform="translate(431.27625 130.087187) scale(0.1 -0.1)">
      <use xlink:href="#FiraSans-Regular-70"/>
      <use xlink:href="#FiraSans-Regular-72" x="59.399994"/>
      <use xlink:href="#FiraSans-Regular-69" x="97.999985"/>
      <use xlink:href="#FiraSans-Regular-63" x="126.199982"/>
      <use xlink:href="#FiraSans-Regular-65" x="173.999969"/>
      <use xlink:href="#FiraSans-Regular-20" x="228.499954"/>
      <use xlink:href="#FiraSans-Regular-64" x="254.999939"/>
      <use xlink:href="#FiraSans-Regular-69" x="314.799927"/>
      <use xlink:href="#FiraSans-Regular-66" x="342.999924"/>
      <use xlink:href="#FiraSans-Regular-66" x="376.499908"/>
      <use xlink:href="#FiraSans-Regular-65" x="409.999893"/>
      <use xlink:href="#FiraSans-Regular-72" x="464.499878"/>
      <use xlink:href="#FiraSans-Regular-65" x="503.099869"/>
      <use xlink:href="#FiraSans-Regular-6e" x="557.599854"/>
      <use xlink:href="#FiraSans-Regular-63" x="616.199844"/>
      <use xlink:href="#FiraSans-Regular-65" x="663.999832"/>
      <use xlink:href="#FiraSans-Regular-20" x="718.499817"/>
      <use xlink:href="#FiraSans-Regular-70" x="744.999802"/>
      <use xlink:href="#FiraSans-Regular-65" x="804.399796"/>
      <use xlink:href="#FiraSans-Regular-72" x="858.89978"/>
      <use xlink:href="#FiraSans-Regular-63" x="897.499771"/>
      <use xlink:href="#FiraSans-Regular-65" x="945.299759"/>
      <use xlink:href="#FiraSans-Regular-6e" x="999.799744"/>
      <use xlink:href="#FiraSans-Regular-74" x="1058.399734"/>
      <use xlink:href="#FiraSans-Regular-61" x="1094.499725"/>
      <use xlink:href="#FiraSans-Regular-67" x="1148.899719"/>
      <use xlink:href="#FiraSans-Regular-65" x="1200.899704"/>
     </g>
    </g>
   </g>
   <g id="matplotlib.axis_4">
    <g id="ytick_4">
     <g id="line2d_10">
      <g>
       <use xlink:href="#m34e9f1f5fd" x="422.89" y="90.64447" style="stroke: #000000; stroke-width: 0.8"/>
      </g>
     </g>
     <g id="text_12">
      <!-- low-priced (&lt; 400K) -->
      <g transform="translate(327.938437 94.86947) scale(0.1 -0.1)">
       <defs>
        <path id="FiraSans-Regular-77" d="M 4461 3373 
L 3898 3373 
L 3283 410 
L 2650 3373 
L 1990 3373 
L 1325 410 
L 717 3373 
L 128 3373 
L 915 0 
L 1696 0 
L 2304 2842 
L 2893 0 
L 3693 0 
L 4461 3373 
z
" transform="scale(0.015625)"/>
        <path id="FiraSans-Regular-4b" d="M 1248 4410 
L 640 4410 
L 640 0 
L 1248 0 
L 1248 4410 
z
M 3648 4410 
L 2957 4410 
L 1280 2355 
L 3021 0 
L 3770 0 
L 1978 2394 
L 3648 4410 
z
" transform="scale(0.015625)"/>
       </defs>
       <use xlink:href="#FiraSans-Regular-6c"/>
       <use xlink:href="#FiraSans-Regular-6f" x="29.299988"/>
       <use xlink:href="#FiraSans-Regular-77" x="87.699982"/>
       <use xlink:href="#FiraSans-Regular-2d" x="159.399963"/>
       <use xlink:href="#FiraSans-Regular-70" x="199.699951"/>
       <use xlink:href="#FiraSans-Regular-72" x="259.099945"/>
       <use xlink:href="#FiraSans-Regular-69" x="297.699936"/>
       <use xlink:href="#FiraSans-Regular-63" x="325.899933"/>
       <use xlink:href="#FiraSans-Regular-65" x="373.699921"/>
       <use xlink:href="#FiraSans-Regular-64" x="428.199905"/>
       <use xlink:href="#FiraSans-Regular-20" x="487.999893"/>
       <use xlink:href="#FiraSans-Regular-28" x="514.499878"/>
       <use xlink:href="#FiraSans-Regular-3c" x="546.899872"/>
       <use xlink:href="#FiraSans-Regular-20" x="596.899857"/>
       <use xlink:href="#FiraSans-Regular-34" x="623.399841"/>
       <use xlink:href="#FiraSans-Regular-30" x="676.599838"/>
       <use xlink:href="#FiraSans-Regular-30" x="732.399826"/>
       <use xlink:href="#FiraSans-Regular-4b" x="788.199814"/>
       <use xlink:href="#FiraSans-Regular-29" x="847.099808"/>
      </g>
     </g>
    </g>
    <g id="ytick_5">
     <g id="line2d_11">
      <g>
       <use xlink:href="#m34e9f1f5fd" x="422.89" y="56.22875" style="stroke: #000000; stroke-width: 0.8"/>
      </g>
     </g>
     <g id="text_13">
      <!-- medium-priced (400K-1M) -->
      <g transform="translate(298.179062 60.45375) scale(0.1 -0.1)">
       <defs>
        <path id="FiraSans-Regular-4d" d="M 4218 4410 
L 3392 4410 
L 2509 1203 
L 1581 4410 
L 762 4410 
L 397 0 
L 973 0 
L 1120 1946 
C 1171 2592 1203 3277 1203 3795 
L 2208 499 
L 2778 499 
L 3731 3789 
C 3738 3424 3782 2682 3840 1990 
L 3994 0 
L 4582 0 
L 4218 4410 
z
" transform="scale(0.015625)"/>
       </defs>
       <use xlink:href="#FiraSans-Regular-6d"/>
       <use xlink:href="#FiraSans-Regular-65" x="85.699982"/>
       <use xlink:href="#FiraSans-Regular-64" x="140.199966"/>
       <use xlink:href="#FiraSans-Regular-69" x="199.999954"/>
       <use xlink:href="#FiraSans-Regular-75" x="228.199951"/>
       <use xlink:href="#FiraSans-Regular-6d" x="286.399948"/>
       <use xlink:href="#FiraSans-Regular-2d" x="372.09993"/>
       <use xlink:href="#FiraSans-Regular-70" x="412.399918"/>
       <use xlink:href="#FiraSans-Regular-72" x="471.799911"/>
       <use xlink:href="#FiraSans-Regular-69" x="510.399902"/>
       <use xlink:href="#FiraSans-Regular-63" x="538.599899"/>
       <use xlink:href="#FiraSans-Regular-65" x="586.399887"/>
       <use xlink:href="#FiraSans-Regular-64" x="640.899872"/>
       <use xlink:href="#FiraSans-Regular-20" x="700.69986"/>
       <use xlink:href="#FiraSans-Regular-28" x="727.199844"/>
       <use xlink:href="#FiraSans-Regular-34" x="759.599838"/>
       <use xlink:href="#FiraSans-Regular-30" x="812.799835"/>
       <use xlink:href="#FiraSans-Regular-30" x="868.599823"/>
       <use xlink:href="#FiraSans-Regular-4b" x="924.399811"/>
       <use xlink:href="#FiraSans-Regular-2d" x="983.299805"/>
       <use xlink:href="#FiraSans-Regular-31" x="1023.599792"/>
       <use xlink:href="#FiraSans-Regular-4d" x="1066.89978"/>
       <use xlink:href="#FiraSans-Regular-29" x="1144.699768"/>
      </g>
     </g>
    </g>
    <g id="ytick_6">
     <g id="line2d_12">
      <g>
       <use xlink:href="#m34e9f1f5fd" x="422.89" y="21.81303" style="stroke: #000000; stroke-width: 0.8"/>
      </g>
     </g>
     <g id="text_14">
      <!-- high-priced (1M-10M) -->
      <g transform="translate(320.332187 26.03803) scale(0.1 -0.1)">
       <use xlink:href="#FiraSans-Regular-68"/>
       <use xlink:href="#FiraSans-Regular-69" x="58.599991"/>
       <use xlink:href="#FiraSans-Regular-67" x="86.799988"/>
       <use xlink:href="#FiraSans-Regular-68" x="138.799973"/>
       <use xlink:href="#FiraSans-Regular-2d" x="197.399963"/>
       <use xlink:href="#FiraSans-Regular-70" x="237.699951"/>
       <use xlink:href="#FiraSans-Regular-72" x="297.099945"/>
       <use xlink:href="#FiraSans-Regular-69" x="335.699936"/>
       <use xlink:href="#FiraSans-Regular-63" x="363.899933"/>
       <use xlink:href="#FiraSans-Regular-65" x="411.699921"/>
       <use xlink:href="#FiraSans-Regular-64" x="466.199905"/>
       <use xlink:href="#FiraSans-Regular-20" x="525.999893"/>
       <use xlink:href="#FiraSans-Regular-28" x="552.499878"/>
       <use xlink:href="#FiraSans-Regular-31" x="584.899872"/>
       <use xlink:href="#FiraSans-Regular-4d" x="628.19986"/>
       <use xlink:href="#FiraSans-Regular-2d" x="705.999847"/>
       <use xlink:href="#FiraSans-Regular-31" x="746.299835"/>
       <use xlink:href="#FiraSans-Regular-30" x="789.599823"/>
       <use xlink:href="#FiraSans-Regular-4d" x="845.399811"/>
       <use xlink:href="#FiraSans-Regular-29" x="923.199799"/>
      </g>
     </g>
    </g>
   </g>
   <g id="patch_12">
    <path d="M 422.89 101.6575 
L 422.89 10.8 
" style="fill: none; stroke: #000000; stroke-width: 0.8; stroke-linejoin: miter; stroke-linecap: square"/>
   </g>
   <g id="patch_13">
    <path d="M 422.89 101.6575 
L 565.2 101.6575 
" style="fill: none; stroke: #000000; stroke-width: 0.8; stroke-linejoin: miter; stroke-linecap: square"/>
   </g>
  </g>
 </g>
 <defs>
  <clipPath id="p7e37ecaba6">
   <rect x="145.06" y="10.8" width="142.31" height="90.8575"/>
  </clipPath>
  <clipPath id="pa7cefb8631">
   <rect x="422.89" y="10.8" width="142.31" height="90.8575"/>
  </clipPath>
 </defs>
</svg>
