<?xml version="1.0" encoding="utf-8" standalone="no"?>
<!DOCTYPE svg PUBLIC "-//W3C//DTD SVG 1.1//EN"
  "http://www.w3.org/Graphics/SVG/1.1/DTD/svg11.dtd">
<svg xmlns:xlink="http://www.w3.org/1999/xlink" width="576pt" height="216pt" viewBox="0 0 576 216" xmlns="http://www.w3.org/2000/svg" version="1.1">
 <metadata>
  <rdf:RDF xmlns:dc="http://purl.org/dc/elements/1.1/" xmlns:cc="http://creativecommons.org/ns#" xmlns:rdf="http://www.w3.org/1999/02/22-rdf-syntax-ns#">
   <cc:Work>
    <dc:type rdf:resource="http://purl.org/dc/dcmitype/StillImage"/>
    <dc:date>2024-02-24T20:28:13.775968</dc:date>
    <dc:format>image/svg+xml</dc:format>
    <dc:creator>
     <cc:Agent>
      <dc:title>Matplotlib v3.7.1, https://matplotlib.org/</dc:title>
     </cc:Agent>
    </dc:creator>
   </cc:Work>
  </rdf:RDF>
 </metadata>
 <defs>
  <style type="text/css">*{stroke-linejoin: round; stroke-linecap: butt}</style>
 </defs>
 <g id="figure_1">
  <g id="patch_1">
   <path d="M 0 216 
L 576 216 
L 576 0 
L 0 0 
z
" style="fill: #ffffff"/>
  </g>
  <g id="axes_1">
   <g id="patch_2">
    <path d="M 195.630216 92.22875 
C 195.630216 80.703391 192.571547 69.381865 186.767688 59.424499 
C 180.963829 49.467133 172.62007 41.226133 162.59155 35.546106 
C 152.563031 29.866079 141.204473 26.947935 129.679998 27.090751 
C 118.155524 27.233568 106.872768 30.432292 96.988086 36.359091 
C 87.103403 42.285891 78.966426 50.731128 73.411104 60.829261 
C 67.855781 70.927394 65.07861 82.321241 65.364221 93.84306 
C 65.649831 105.36488 68.988119 116.607133 75.03695 126.417615 
C 81.08578 136.228097 89.631197 144.2598 99.797394 149.689565 
L 130.487216 92.22875 
z
" style="fill: #6699cc; opacity: 0.7"/>
   </g>
   <g id="patch_3">
    <path d="M 99.797394 149.689565 
C 111.136937 155.746015 124.019503 158.312371 136.814298 157.06376 
C 149.609094 155.815148 161.752442 150.806578 171.707127 142.672078 
L 130.487216 92.22875 
z
" style="fill: #ddcc77; opacity: 0.7"/>
   </g>
   <g id="patch_4">
    <path d="M 171.707127 142.672078 
C 175.624954 139.470614 179.1565 135.823588 182.23029 131.804812 
C 185.30408 127.786036 187.899236 123.422806 189.963235 118.803428 
L 130.487216 92.22875 
z
" style="fill: #44aa99; opacity: 0.7"/>
   </g>
   <g id="patch_5">
    <path d="M 189.963235 118.803428 
C 191.112601 116.231065 192.093874 113.586844 192.90087 110.887427 
C 193.707865 108.18801 194.338885 105.43908 194.789953 102.65796 
L 130.487216 92.22875 
z
" style="fill: #882255; opacity: 0.7"/>
   </g>
   <g id="patch_6">
    <path d="M 194.789953 102.65796 
C 195.069474 100.934531 195.279597 99.20056 195.41981 97.46025 
C 195.560024 95.719939 195.630216 93.974695 195.630216 92.228745 
L 130.487216 92.22875 
z
" style="fill: #332288; opacity: 0.7"/>
   </g>
   <g id="matplotlib.axis_1">
    <g id="text_1">
     <!-- % of all transactions by seller's investor type -->
     <g transform="translate(28.627059 185.4575) scale(0.1 -0.1)">
      <defs>
       <path id="FiraSans-Regular-25" d="M 3923 4550 
L 960 70 
L 1370 -198 
L 4333 4282 
L 3923 4550 
z
M 1325 4346 
C 730 4346 288 3930 288 3264 
C 288 2598 730 2182 1325 2182 
C 1926 2182 2368 2598 2368 3264 
C 2368 3930 1926 4346 1325 4346 
z
M 1325 3949 
C 1741 3949 1843 3597 1843 3264 
C 1843 2918 1741 2579 1325 2579 
C 915 2579 806 2931 806 3264 
C 806 3610 915 3949 1325 3949 
z
M 3962 2086 
C 3360 2086 2918 1670 2918 1005 
C 2918 339 3360 -77 3962 -77 
C 4563 -77 4998 339 4998 1005 
C 4998 1670 4563 2086 3962 2086 
z
M 3962 1683 
C 4378 1683 4480 1338 4480 1005 
C 4480 659 4378 320 3962 320 
C 3552 320 3443 672 3443 1005 
C 3443 1350 3552 1683 3962 1683 
z
" transform="scale(0.015625)"/>
       <path id="FiraSans-Regular-20" transform="scale(0.015625)"/>
       <path id="FiraSans-Regular-6f" d="M 1875 3450 
C 915 3450 365 2726 365 1683 
C 365 614 909 -77 1869 -77 
C 2822 -77 3373 646 3373 1690 
C 3373 2758 2835 3450 1875 3450 
z
M 1875 2976 
C 2432 2976 2739 2566 2739 1690 
C 2739 806 2432 397 1869 397 
C 1306 397 998 806 998 1683 
C 998 2566 1312 2976 1875 2976 
z
" transform="scale(0.015625)"/>
       <path id="FiraSans-Regular-66" d="M 1754 4326 
C 1926 4326 2125 4294 2342 4198 
L 2528 4627 
C 2259 4742 2042 4800 1722 4800 
C 1037 4800 666 4397 666 3834 
L 666 3373 
L 64 3373 
L 64 2918 
L 666 2918 
L 666 0 
L 1254 0 
L 1254 2918 
L 2010 2918 
L 2074 3373 
L 1254 3373 
L 1254 3840 
C 1254 4166 1382 4326 1754 4326 
z
" transform="scale(0.015625)"/>
       <path id="FiraSans-Regular-61" d="M 2880 787 
L 2880 2330 
C 2880 3034 2509 3450 1696 3450 
C 1318 3450 947 3373 531 3219 
L 678 2790 
C 1024 2906 1338 2970 1587 2970 
C 2054 2970 2291 2790 2291 2304 
L 2291 2054 
L 1773 2054 
C 832 2054 288 1664 288 941 
C 288 339 691 -77 1363 -77 
C 1773 -77 2131 77 2368 429 
C 2470 96 2688 -38 3027 -77 
L 3162 333 
C 2989 397 2880 493 2880 787 
z
M 1498 365 
C 1114 365 915 576 915 973 
C 915 1434 1229 1664 1850 1664 
L 2291 1664 
L 2291 890 
C 2099 538 1843 365 1498 365 
z
" transform="scale(0.015625)"/>
       <path id="FiraSans-Regular-6c" d="M 1280 -77 
C 1453 -77 1619 -32 1747 38 
L 1594 448 
C 1530 422 1459 410 1376 410 
C 1222 410 1165 499 1165 678 
L 1165 4800 
L 576 4730 
L 576 666 
C 576 186 851 -77 1280 -77 
z
" transform="scale(0.015625)"/>
       <path id="FiraSans-Regular-74" d="M 2086 544 
C 1920 454 1786 410 1638 410 
C 1344 410 1235 570 1235 909 
L 1235 2918 
L 1971 2918 
L 2035 3373 
L 1235 3373 
L 1235 4205 
L 646 4134 
L 646 3373 
L 58 3373 
L 58 2918 
L 646 2918 
L 646 883 
C 646 256 986 -77 1555 -77 
C 1843 -77 2086 0 2310 154 
L 2086 544 
z
" transform="scale(0.015625)"/>
       <path id="FiraSans-Regular-72" d="M 2074 3450 
C 1664 3450 1350 3194 1171 2688 
L 1114 3373 
L 608 3373 
L 608 0 
L 1197 0 
L 1197 1926 
C 1338 2573 1581 2874 2003 2874 
C 2125 2874 2195 2861 2298 2835 
L 2406 3411 
C 2304 3437 2182 3450 2074 3450 
z
" transform="scale(0.015625)"/>
       <path id="FiraSans-Regular-6e" d="M 2195 3450 
C 1754 3450 1395 3219 1165 2874 
L 1114 3373 
L 608 3373 
L 608 0 
L 1197 0 
L 1197 2394 
C 1421 2752 1677 2989 2054 2989 
C 2381 2989 2586 2842 2586 2336 
L 2586 0 
L 3174 0 
L 3174 2419 
C 3174 3059 2816 3450 2195 3450 
z
" transform="scale(0.015625)"/>
       <path id="FiraSans-Regular-73" d="M 1523 3450 
C 826 3450 307 3059 307 2522 
C 307 2048 595 1734 1325 1542 
C 1978 1370 2144 1242 2144 909 
C 2144 589 1862 397 1421 397 
C 1056 397 742 518 474 723 
L 160 365 
C 454 109 864 -77 1434 -77 
C 2118 -77 2765 243 2765 947 
C 2765 1536 2355 1818 1645 1997 
C 1101 2138 922 2266 922 2541 
C 922 2810 1158 2982 1542 2982 
C 1856 2982 2118 2886 2419 2694 
L 2669 3066 
C 2349 3309 1997 3450 1523 3450 
z
" transform="scale(0.015625)"/>
       <path id="FiraSans-Regular-63" d="M 1837 3450 
C 922 3450 365 2733 365 1658 
C 365 570 928 -77 1837 -77 
C 2227 -77 2566 51 2867 294 
L 2598 678 
C 2342 512 2144 422 1862 422 
C 1331 422 998 787 998 1670 
C 998 2547 1331 2963 1862 2963 
C 2144 2963 2355 2880 2586 2714 
L 2867 3085 
C 2554 3347 2234 3450 1837 3450 
z
" transform="scale(0.015625)"/>
       <path id="FiraSans-Regular-69" d="M 896 4992 
C 653 4992 486 4819 486 4589 
C 486 4365 653 4192 896 4192 
C 1146 4192 1312 4365 1312 4589 
C 1312 4819 1146 4992 896 4992 
z
M 1197 3373 
L 608 3373 
L 608 0 
L 1197 0 
L 1197 3373 
z
" transform="scale(0.015625)"/>
       <path id="FiraSans-Regular-62" d="M 2150 3450 
C 1741 3450 1427 3264 1197 2950 
L 1197 4800 
L 608 4730 
L 608 0 
L 1126 0 
L 1184 371 
C 1414 90 1709 -77 2080 -77 
C 2899 -77 3405 634 3405 1690 
C 3405 2816 2912 3450 2150 3450 
z
M 1939 390 
C 1638 390 1370 576 1197 845 
L 1197 2458 
C 1370 2726 1613 2982 1984 2982 
C 2458 2982 2771 2650 2771 1690 
C 2771 768 2432 390 1939 390 
z
" transform="scale(0.015625)"/>
       <path id="FiraSans-Regular-79" d="M 3085 3373 
L 2477 3373 
L 1594 429 
L 691 3373 
L 64 3373 
L 1197 0 
L 1395 0 
C 1203 -525 1011 -787 326 -902 
L 390 -1363 
C 1325 -1261 1722 -736 1958 -19 
L 3085 3373 
z
" transform="scale(0.015625)"/>
       <path id="FiraSans-Regular-65" d="M 3155 1786 
C 3155 2816 2675 3450 1766 3450 
C 896 3450 365 2701 365 1651 
C 365 582 915 -77 1856 -77 
C 2323 -77 2701 83 3034 346 
L 2778 698 
C 2483 493 2234 403 1901 403 
C 1414 403 1050 704 992 1485 
L 3142 1485 
C 3149 1562 3155 1670 3155 1786 
z
M 2573 1920 
L 992 1920 
C 1037 2669 1331 2982 1779 2982 
C 2310 2982 2573 2618 2573 1958 
L 2573 1920 
z
" transform="scale(0.015625)"/>
       <path id="FiraSans-Regular-27" d="M 480 2733 
L 922 2733 
L 1018 4410 
L 384 4410 
L 480 2733 
z
" transform="scale(0.015625)"/>
       <path id="FiraSans-Regular-76" d="M 3085 3373 
L 2464 3373 
L 1587 525 
L 704 3373 
L 64 3373 
L 1229 0 
L 1939 0 
L 3085 3373 
z
" transform="scale(0.015625)"/>
       <path id="FiraSans-Regular-70" d="M 2157 3450 
C 1773 3450 1408 3264 1158 2918 
L 1114 3373 
L 608 3373 
L 608 -1363 
L 1197 -1293 
L 1197 307 
C 1414 45 1715 -77 2080 -77 
C 2950 -77 3405 666 3405 1690 
C 3405 2752 3053 3450 2157 3450 
z
M 1939 403 
C 1632 403 1370 550 1197 813 
L 1197 2458 
C 1376 2726 1651 2982 2010 2982 
C 2515 2982 2771 2566 2771 1690 
C 2771 806 2477 403 1939 403 
z
" transform="scale(0.015625)"/>
      </defs>
      <use xlink:href="#FiraSans-Regular-25"/>
      <use xlink:href="#FiraSans-Regular-20" x="82.599991"/>
      <use xlink:href="#FiraSans-Regular-6f" x="109.099976"/>
      <use xlink:href="#FiraSans-Regular-66" x="167.499969"/>
      <use xlink:href="#FiraSans-Regular-20" x="200.999954"/>
      <use xlink:href="#FiraSans-Regular-61" x="227.499939"/>
      <use xlink:href="#FiraSans-Regular-6c" x="281.899933"/>
      <use xlink:href="#FiraSans-Regular-6c" x="311.199921"/>
      <use xlink:href="#FiraSans-Regular-20" x="340.499908"/>
      <use xlink:href="#FiraSans-Regular-74" x="366.999893"/>
      <use xlink:href="#FiraSans-Regular-72" x="403.099884"/>
      <use xlink:href="#FiraSans-Regular-61" x="441.699875"/>
      <use xlink:href="#FiraSans-Regular-6e" x="496.099869"/>
      <use xlink:href="#FiraSans-Regular-73" x="554.69986"/>
      <use xlink:href="#FiraSans-Regular-61" x="601.399857"/>
      <use xlink:href="#FiraSans-Regular-63" x="655.79985"/>
      <use xlink:href="#FiraSans-Regular-74" x="703.599838"/>
      <use xlink:href="#FiraSans-Regular-69" x="739.699829"/>
      <use xlink:href="#FiraSans-Regular-6f" x="767.899826"/>
      <use xlink:href="#FiraSans-Regular-6e" x="826.29982"/>
      <use xlink:href="#FiraSans-Regular-73" x="884.899811"/>
      <use xlink:href="#FiraSans-Regular-20" x="931.599808"/>
      <use xlink:href="#FiraSans-Regular-62" x="958.099792"/>
      <use xlink:href="#FiraSans-Regular-79" x="1017.499786"/>
      <use xlink:href="#FiraSans-Regular-20" x="1066.699783"/>
      <use xlink:href="#FiraSans-Regular-73" x="1093.199768"/>
      <use xlink:href="#FiraSans-Regular-65" x="1139.899765"/>
      <use xlink:href="#FiraSans-Regular-6c" x="1194.39975"/>
      <use xlink:href="#FiraSans-Regular-6c" x="1223.699738"/>
      <use xlink:href="#FiraSans-Regular-65" x="1252.999725"/>
      <use xlink:href="#FiraSans-Regular-72" x="1307.49971"/>
      <use xlink:href="#FiraSans-Regular-27" x="1346.099701"/>
      <use xlink:href="#FiraSans-Regular-73" x="1367.999695"/>
      <use xlink:href="#FiraSans-Regular-20" x="1414.699692"/>
      <use xlink:href="#FiraSans-Regular-69" x="1441.199677"/>
      <use xlink:href="#FiraSans-Regular-6e" x="1469.399673"/>
      <use xlink:href="#FiraSans-Regular-76" x="1527.999664"/>
      <use xlink:href="#FiraSans-Regular-65" x="1577.199661"/>
      <use xlink:href="#FiraSans-Regular-73" x="1631.699646"/>
      <use xlink:href="#FiraSans-Regular-74" x="1678.399643"/>
      <use xlink:href="#FiraSans-Regular-6f" x="1714.499634"/>
      <use xlink:href="#FiraSans-Regular-72" x="1772.899628"/>
      <use xlink:href="#FiraSans-Regular-20" x="1811.499619"/>
      <use xlink:href="#FiraSans-Regular-74" x="1837.999603"/>
      <use xlink:href="#FiraSans-Regular-79" x="1874.099594"/>
      <use xlink:href="#FiraSans-Regular-70" x="1923.299591"/>
      <use xlink:href="#FiraSans-Regular-65" x="1982.699585"/>
     </g>
    </g>
   </g>
   <g id="matplotlib.axis_2">
    <g id="text_2">
     <!-- Total: 49120 -->
     <g transform="translate(42.928778 118.963906) rotate(-90) scale(0.1 -0.1)">
      <defs>
       <path id="FiraSans-Regular-54" d="M 3245 4410 
L 96 4410 
L 96 3891 
L 1350 3891 
L 1350 0 
L 1958 0 
L 1958 3891 
L 3181 3891 
L 3245 4410 
z
" transform="scale(0.015625)"/>
       <path id="FiraSans-Regular-3a" d="M 762 3168 
C 512 3168 320 2970 320 2726 
C 320 2477 512 2278 762 2278 
C 1018 2278 1210 2477 1210 2726 
C 1210 2970 1018 3168 762 3168 
z
M 762 813 
C 512 813 320 614 320 371 
C 320 122 512 -77 762 -77 
C 1018 -77 1210 122 1210 371 
C 1210 614 1018 813 762 813 
z
" transform="scale(0.015625)"/>
       <path id="FiraSans-Regular-34" d="M 3213 1523 
L 2656 1523 
L 2656 2675 
L 2144 2675 
L 2093 1523 
L 877 1523 
L 2035 4141 
L 1542 4346 
L 256 1478 
L 256 1056 
L 2086 1056 
L 2086 0 
L 2656 0 
L 2656 1056 
L 3213 1056 
L 3213 1523 
z
" transform="scale(0.015625)"/>
       <path id="FiraSans-Regular-39" d="M 1658 4346 
C 915 4346 288 3827 288 2931 
C 288 2080 806 1555 1472 1555 
C 1907 1555 2246 1779 2432 2067 
C 2387 1101 1702 608 627 301 
L 762 -141 
C 2336 314 3040 909 3040 2682 
C 3040 3686 2579 4346 1658 4346 
z
M 1594 2016 
C 1178 2016 883 2304 883 2918 
C 883 3533 1171 3878 1670 3878 
C 2202 3878 2464 3514 2445 2547 
C 2234 2221 1958 2016 1594 2016 
z
" transform="scale(0.015625)"/>
       <path id="FiraSans-Regular-31" d="M 2067 4282 
L 1549 4282 
L 224 3462 
L 480 3046 
L 1478 3654 
L 1478 0 
L 2067 0 
L 2067 4282 
z
" transform="scale(0.015625)"/>
       <path id="FiraSans-Regular-32" d="M 1459 4346 
C 922 4346 506 4128 160 3699 
L 544 3392 
C 832 3718 1069 3859 1427 3859 
C 1843 3859 2131 3597 2131 3149 
C 2131 2451 1760 2042 250 467 
L 250 0 
L 2778 0 
L 2848 493 
L 922 493 
C 2234 1805 2746 2374 2746 3174 
C 2746 3840 2246 4346 1459 4346 
z
" transform="scale(0.015625)"/>
       <path id="FiraSans-Regular-30" d="M 1786 4346 
C 826 4346 352 3558 352 2138 
C 352 717 826 -77 1786 -77 
C 2746 -77 3219 717 3219 2138 
C 3219 3552 2746 4346 1786 4346 
z
M 1786 3878 
C 2317 3878 2605 3392 2605 2138 
C 2605 877 2317 390 1786 390 
C 1248 390 966 877 966 2138 
C 966 3392 1248 3878 1786 3878 
z
" transform="scale(0.015625)"/>
      </defs>
      <use xlink:href="#FiraSans-Regular-54"/>
      <use xlink:href="#FiraSans-Regular-6f" x="51.699997"/>
      <use xlink:href="#FiraSans-Regular-74" x="110.099991"/>
      <use xlink:href="#FiraSans-Regular-61" x="146.199982"/>
      <use xlink:href="#FiraSans-Regular-6c" x="200.599976"/>
      <use xlink:href="#FiraSans-Regular-3a" x="229.899963"/>
      <use xlink:href="#FiraSans-Regular-20" x="253.899948"/>
      <use xlink:href="#FiraSans-Regular-34" x="280.399933"/>
      <use xlink:href="#FiraSans-Regular-39" x="333.59993"/>
      <use xlink:href="#FiraSans-Regular-31" x="386.099915"/>
      <use xlink:href="#FiraSans-Regular-32" x="429.399902"/>
      <use xlink:href="#FiraSans-Regular-30" x="478.899887"/>
     </g>
    </g>
   </g>
   <g id="text_3">
    <!-- Non-investor -->
    <g transform="translate(34.04911 33.457282) scale(0.1 -0.1)">
     <defs>
      <path id="FiraSans-Regular-4e" d="M 3731 4410 
L 3162 4410 
L 3162 2003 
C 3162 1466 3232 762 3245 659 
L 1434 4410 
L 640 4410 
L 640 0 
L 1210 0 
L 1210 2022 
C 1210 2842 1158 3379 1126 3744 
L 2918 0 
L 3731 0 
L 3731 4410 
z
" transform="scale(0.015625)"/>
      <path id="FiraSans-Regular-2d" d="M 384 1754 
L 2195 1754 
L 2195 2253 
L 384 2253 
L 384 1754 
z
" transform="scale(0.015625)"/>
     </defs>
     <use xlink:href="#FiraSans-Regular-4e"/>
     <use xlink:href="#FiraSans-Regular-6f" x="68.299988"/>
     <use xlink:href="#FiraSans-Regular-6e" x="126.699982"/>
     <use xlink:href="#FiraSans-Regular-2d" x="185.299973"/>
     <use xlink:href="#FiraSans-Regular-69" x="225.59996"/>
     <use xlink:href="#FiraSans-Regular-6e" x="253.799957"/>
     <use xlink:href="#FiraSans-Regular-76" x="312.399948"/>
     <use xlink:href="#FiraSans-Regular-65" x="361.599945"/>
     <use xlink:href="#FiraSans-Regular-73" x="416.09993"/>
     <use xlink:href="#FiraSans-Regular-74" x="462.799927"/>
     <use xlink:href="#FiraSans-Regular-6f" x="498.899918"/>
     <use xlink:href="#FiraSans-Regular-72" x="557.299911"/>
    </g>
   </g>
   <g id="text_4">
    <!-- 67.2% -->
    <g transform="translate(97.697894 61.392111) scale(0.1 -0.1)">
     <defs>
      <path id="FiraSans-Regular-36" d="M 1971 2816 
C 1568 2816 1222 2650 941 2253 
C 973 3232 1344 3878 1965 3878 
C 2202 3878 2426 3814 2624 3693 
L 2854 4083 
C 2605 4250 2317 4346 1971 4346 
C 960 4346 352 3411 352 2010 
C 352 781 749 -77 1792 -77 
C 2547 -77 3155 518 3155 1453 
C 3155 2368 2598 2816 1971 2816 
z
M 1792 390 
C 1222 390 973 826 947 1760 
C 1165 2112 1485 2349 1869 2349 
C 2272 2349 2560 2112 2560 1434 
C 2560 806 2298 390 1792 390 
z
" transform="scale(0.015625)"/>
      <path id="FiraSans-Regular-37" d="M 2650 4282 
L 160 4282 
L 160 3802 
L 2054 3802 
L 512 115 
L 1050 -64 
L 2650 3840 
L 2650 4282 
z
" transform="scale(0.015625)"/>
      <path id="FiraSans-Regular-2e" d="M 762 813 
C 512 813 320 614 320 371 
C 320 122 512 -77 762 -77 
C 1018 -77 1210 122 1210 371 
C 1210 614 1018 813 762 813 
z
" transform="scale(0.015625)"/>
     </defs>
     <use xlink:href="#FiraSans-Regular-36"/>
     <use xlink:href="#FiraSans-Regular-37" x="53.299988"/>
     <use xlink:href="#FiraSans-Regular-2e" x="97.699982"/>
     <use xlink:href="#FiraSans-Regular-32" x="121.699966"/>
     <use xlink:href="#FiraSans-Regular-25" x="171.199951"/>
    </g>
   </g>
   <g id="text_5">
    <!-- Small -->
    <g transform="translate(137.447007 166.232417) scale(0.1 -0.1)">
     <defs>
      <path id="FiraSans-Regular-53" d="M 1728 4486 
C 915 4486 339 4013 339 3334 
C 339 2650 787 2323 1645 2061 
C 2394 1830 2598 1638 2598 1210 
C 2598 678 2170 422 1651 422 
C 1171 422 826 595 493 864 
L 160 493 
C 525 134 1024 -77 1658 -77 
C 2650 -77 3232 461 3232 1229 
C 3232 2074 2630 2349 1926 2566 
C 1133 2810 960 2989 960 3360 
C 960 3782 1312 3987 1754 3987 
C 2118 3987 2426 3872 2758 3603 
L 3091 3974 
C 2720 4307 2336 4486 1728 4486 
z
" transform="scale(0.015625)"/>
      <path id="FiraSans-Regular-6d" d="M 3994 3450 
C 3539 3450 3232 3206 2989 2842 
C 2861 3226 2554 3450 2138 3450 
C 1696 3450 1389 3219 1165 2880 
L 1114 3373 
L 608 3373 
L 608 0 
L 1197 0 
L 1197 2394 
C 1421 2752 1626 2989 1990 2989 
C 2246 2989 2464 2842 2464 2336 
L 2464 0 
L 3053 0 
L 3053 2394 
C 3283 2752 3482 2989 3846 2989 
C 4102 2989 4320 2842 4320 2336 
L 4320 0 
L 4909 0 
L 4909 2419 
C 4909 3053 4544 3450 3994 3450 
z
" transform="scale(0.015625)"/>
     </defs>
     <use xlink:href="#FiraSans-Regular-53"/>
     <use xlink:href="#FiraSans-Regular-6d" x="54.499985"/>
     <use xlink:href="#FiraSans-Regular-61" x="140.199966"/>
     <use xlink:href="#FiraSans-Regular-6c" x="194.59996"/>
     <use xlink:href="#FiraSans-Regular-6c" x="223.899948"/>
    </g>
   </g>
   <g id="text_6">
    <!-- 18.7% -->
    <g transform="translate(121.813934 133.814912) scale(0.1 -0.1)">
     <defs>
      <path id="FiraSans-Regular-38" d="M 2336 2298 
C 2822 2541 3066 2829 3066 3264 
C 3066 3994 2406 4346 1766 4346 
C 1114 4346 467 3968 467 3245 
C 467 2803 672 2477 1133 2246 
C 608 2016 288 1683 288 1133 
C 288 429 870 -77 1754 -77 
C 2624 -77 3238 429 3238 1146 
C 3238 1683 2925 2061 2336 2298 
z
M 1766 3904 
C 2234 3904 2490 3642 2490 3245 
C 2490 2880 2330 2656 1946 2438 
L 1837 2477 
C 1344 2637 1043 2797 1043 3238 
C 1043 3667 1325 3904 1766 3904 
z
M 1760 390 
C 1229 390 902 666 902 1133 
C 902 1600 1107 1894 1530 2099 
L 1690 2042 
C 2381 1805 2624 1600 2624 1139 
C 2624 691 2298 390 1760 390 
z
" transform="scale(0.015625)"/>
     </defs>
     <use xlink:href="#FiraSans-Regular-31"/>
     <use xlink:href="#FiraSans-Regular-38" x="43.299988"/>
     <use xlink:href="#FiraSans-Regular-2e" x="98.399979"/>
     <use xlink:href="#FiraSans-Regular-37" x="122.399963"/>
     <use xlink:href="#FiraSans-Regular-25" x="166.799957"/>
    </g>
   </g>
   <g id="text_7">
    <!-- Medium -->
    <g transform="translate(187.404597 138.447575) scale(0.1 -0.1)">
     <defs>
      <path id="FiraSans-Regular-4d" d="M 4218 4410 
L 3392 4410 
L 2509 1203 
L 1581 4410 
L 762 4410 
L 397 0 
L 973 0 
L 1120 1946 
C 1171 2592 1203 3277 1203 3795 
L 2208 499 
L 2778 499 
L 3731 3789 
C 3738 3424 3782 2682 3840 1990 
L 3994 0 
L 4582 0 
L 4218 4410 
z
" transform="scale(0.015625)"/>
      <path id="FiraSans-Regular-64" d="M 2630 4800 
L 2630 3034 
C 2406 3270 2118 3450 1722 3450 
C 896 3450 397 2701 397 1670 
C 397 621 851 -77 1670 -77 
C 2086 -77 2426 128 2643 467 
L 2701 0 
L 3219 0 
L 3219 4730 
L 2630 4800 
z
M 1798 390 
C 1312 390 1030 794 1030 1683 
C 1030 2560 1344 2982 1850 2982 
C 2182 2982 2419 2810 2630 2541 
L 2630 890 
C 2406 576 2176 390 1798 390 
z
" transform="scale(0.015625)"/>
      <path id="FiraSans-Regular-75" d="M 3117 3373 
L 2528 3373 
L 2528 966 
C 2323 627 2048 384 1683 384 
C 1318 384 1165 557 1165 1018 
L 1165 3373 
L 576 3373 
L 576 954 
C 576 294 928 -77 1517 -77 
C 1997 -77 2310 115 2566 525 
L 2611 0 
L 3117 0 
L 3117 3373 
z
" transform="scale(0.015625)"/>
     </defs>
     <use xlink:href="#FiraSans-Regular-4d"/>
     <use xlink:href="#FiraSans-Regular-65" x="77.799988"/>
     <use xlink:href="#FiraSans-Regular-64" x="132.299973"/>
     <use xlink:href="#FiraSans-Regular-69" x="192.09996"/>
     <use xlink:href="#FiraSans-Regular-75" x="220.299957"/>
     <use xlink:href="#FiraSans-Regular-6d" x="278.499954"/>
    </g>
   </g>
   <g id="text_8">
    <!-- 7.4% -->
    <g transform="translate(151.322904 118.659544) scale(0.1 -0.1)">
     <use xlink:href="#FiraSans-Regular-37"/>
     <use xlink:href="#FiraSans-Regular-2e" x="44.399994"/>
     <use xlink:href="#FiraSans-Regular-34" x="68.399979"/>
     <use xlink:href="#FiraSans-Regular-25" x="121.599976"/>
    </g>
   </g>
   <g id="text_9">
    <!-- Large -->
    <g transform="translate(199.142235 115.438451) scale(0.1 -0.1)">
     <defs>
      <path id="FiraSans-Regular-4c" d="M 1248 4410 
L 640 4410 
L 640 0 
L 2989 0 
L 3059 531 
L 1248 531 
L 1248 4410 
z
" transform="scale(0.015625)"/>
      <path id="FiraSans-Regular-67" d="M 3155 3750 
C 2758 3571 2451 3430 1613 3450 
C 870 3450 314 2963 314 2272 
C 314 1837 493 1542 883 1338 
C 640 1178 512 960 512 742 
C 512 403 781 102 1382 102 
L 1914 102 
C 2336 102 2592 -58 2592 -378 
C 2592 -717 2336 -902 1606 -902 
C 864 -902 691 -723 691 -339 
L 160 -339 
C 160 -1024 506 -1363 1606 -1363 
C 2650 -1363 3187 -992 3187 -339 
C 3187 198 2726 595 2035 595 
L 1498 595 
C 1152 595 1056 717 1056 870 
C 1056 992 1126 1114 1222 1184 
C 1363 1139 1498 1120 1651 1120 
C 2458 1120 2938 1600 2938 2266 
C 2938 2656 2739 2938 2342 3117 
C 2726 3117 3046 3130 3328 3219 
L 3155 3750 
z
M 1613 3027 
C 2093 3027 2336 2771 2336 2278 
C 2336 1792 2086 1510 1626 1510 
C 1165 1510 915 1824 915 2272 
C 915 2714 1158 3027 1613 3027 
z
" transform="scale(0.015625)"/>
     </defs>
     <use xlink:href="#FiraSans-Regular-4c"/>
     <use xlink:href="#FiraSans-Regular-61" x="49.799988"/>
     <use xlink:href="#FiraSans-Regular-72" x="104.199982"/>
     <use xlink:href="#FiraSans-Regular-67" x="142.799973"/>
     <use xlink:href="#FiraSans-Regular-65" x="194.799957"/>
    </g>
   </g>
   <g id="text_10">
    <!-- 4.1% -->
    <g transform="translate(157.78072 106.109113) scale(0.1 -0.1)">
     <use xlink:href="#FiraSans-Regular-34"/>
     <use xlink:href="#FiraSans-Regular-2e" x="53.199997"/>
     <use xlink:href="#FiraSans-Regular-31" x="77.199982"/>
     <use xlink:href="#FiraSans-Regular-25" x="120.499969"/>
    </g>
   </g>
   <g id="text_11">
    <!-- Institutional -->
    <g transform="translate(201.91307 100.668556) scale(0.1 -0.1)">
     <defs>
      <path id="FiraSans-Regular-49" d="M 1248 4410 
L 640 4410 
L 640 0 
L 1248 0 
L 1248 4410 
z
" transform="scale(0.015625)"/>
     </defs>
     <use xlink:href="#FiraSans-Regular-49"/>
     <use xlink:href="#FiraSans-Regular-6e" x="29.499985"/>
     <use xlink:href="#FiraSans-Regular-73" x="88.099976"/>
     <use xlink:href="#FiraSans-Regular-74" x="134.799973"/>
     <use xlink:href="#FiraSans-Regular-69" x="170.899963"/>
     <use xlink:href="#FiraSans-Regular-74" x="199.09996"/>
     <use xlink:href="#FiraSans-Regular-75" x="235.199951"/>
     <use xlink:href="#FiraSans-Regular-74" x="293.399948"/>
     <use xlink:href="#FiraSans-Regular-69" x="329.499939"/>
     <use xlink:href="#FiraSans-Regular-6f" x="357.699936"/>
     <use xlink:href="#FiraSans-Regular-6e" x="416.09993"/>
     <use xlink:href="#FiraSans-Regular-61" x="474.699921"/>
     <use xlink:href="#FiraSans-Regular-6c" x="529.099915"/>
    </g>
   </g>
   <g id="text_12">
    <!-- 2.6% -->
    <g transform="translate(158.977241 98.052806) scale(0.1 -0.1)">
     <use xlink:href="#FiraSans-Regular-32"/>
     <use xlink:href="#FiraSans-Regular-2e" x="49.499985"/>
     <use xlink:href="#FiraSans-Regular-36" x="73.499969"/>
     <use xlink:href="#FiraSans-Regular-25" x="126.799957"/>
    </g>
   </g>
  </g>
  <g id="axes_2">
   <g id="patch_7">
    <path d="M 325.825569 173.6575 
L 565.2 173.6575 
L 565.2 10.8 
L 325.825569 10.8 
z
" style="fill: #ffffff"/>
   </g>
   <g id="matplotlib.axis_3">
    <g id="xtick_1">
     <g id="line2d_1">
      <defs>
       <path id="m02d49e8ce6" d="M 0 0 
L 0 3.5 
" style="stroke: #000000; stroke-width: 0.8"/>
      </defs>
      <g>
       <use xlink:href="#m02d49e8ce6" x="336.706225" y="173.6575" style="stroke: #000000; stroke-width: 0.8"/>
      </g>
     </g>
     <g id="text_13">
      <!-- 2000 -->
      <g transform="translate(325.861694 188.1575) scale(0.1 -0.1)">
       <use xlink:href="#FiraSans-Regular-32"/>
       <use xlink:href="#FiraSans-Regular-30" x="49.499985"/>
       <use xlink:href="#FiraSans-Regular-30" x="105.299973"/>
       <use xlink:href="#FiraSans-Regular-30" x="161.09996"/>
      </g>
     </g>
    </g>
    <g id="xtick_2">
     <g id="line2d_2">
      <g>
       <use xlink:href="#m02d49e8ce6" x="386.163752" y="173.6575" style="stroke: #000000; stroke-width: 0.8"/>
      </g>
     </g>
     <g id="text_14">
      <!-- 2005 -->
      <g transform="translate(375.604377 188.1575) scale(0.1 -0.1)">
       <defs>
        <path id="FiraSans-Regular-35" d="M 2771 4282 
L 454 4282 
L 454 2125 
L 915 2125 
C 1120 2221 1293 2272 1523 2272 
C 1965 2272 2304 2042 2304 1382 
C 2304 755 1965 403 1427 403 
C 1056 403 781 538 512 806 
L 166 467 
C 499 128 890 -77 1434 -77 
C 2323 -77 2918 518 2918 1370 
C 2918 2221 2426 2726 1702 2726 
C 1472 2726 1242 2675 1018 2560 
L 1018 3821 
L 2688 3821 
L 2771 4282 
z
" transform="scale(0.015625)"/>
       </defs>
       <use xlink:href="#FiraSans-Regular-32"/>
       <use xlink:href="#FiraSans-Regular-30" x="49.499985"/>
       <use xlink:href="#FiraSans-Regular-30" x="105.299973"/>
       <use xlink:href="#FiraSans-Regular-35" x="161.09996"/>
      </g>
     </g>
    </g>
    <g id="xtick_3">
     <g id="line2d_3">
      <g>
       <use xlink:href="#m02d49e8ce6" x="435.621279" y="173.6575" style="stroke: #000000; stroke-width: 0.8"/>
      </g>
     </g>
     <g id="text_15">
      <!-- 2010 -->
      <g transform="translate(425.401748 188.1575) scale(0.1 -0.1)">
       <use xlink:href="#FiraSans-Regular-32"/>
       <use xlink:href="#FiraSans-Regular-30" x="49.499985"/>
       <use xlink:href="#FiraSans-Regular-31" x="105.299973"/>
       <use xlink:href="#FiraSans-Regular-30" x="148.59996"/>
      </g>
     </g>
    </g>
    <g id="xtick_4">
     <g id="line2d_4">
      <g>
       <use xlink:href="#m02d49e8ce6" x="485.078806" y="173.6575" style="stroke: #000000; stroke-width: 0.8"/>
      </g>
     </g>
     <g id="text_16">
      <!-- 2015 -->
      <g transform="translate(475.144431 188.1575) scale(0.1 -0.1)">
       <use xlink:href="#FiraSans-Regular-32"/>
       <use xlink:href="#FiraSans-Regular-30" x="49.499985"/>
       <use xlink:href="#FiraSans-Regular-31" x="105.299973"/>
       <use xlink:href="#FiraSans-Regular-35" x="148.59996"/>
      </g>
     </g>
    </g>
    <g id="xtick_5">
     <g id="line2d_5">
      <g>
       <use xlink:href="#m02d49e8ce6" x="534.536333" y="173.6575" style="stroke: #000000; stroke-width: 0.8"/>
      </g>
     </g>
     <g id="text_17">
      <!-- 2020 -->
      <g transform="translate(524.006646 188.1575) scale(0.1 -0.1)">
       <use xlink:href="#FiraSans-Regular-32"/>
       <use xlink:href="#FiraSans-Regular-30" x="49.499985"/>
       <use xlink:href="#FiraSans-Regular-32" x="105.299973"/>
       <use xlink:href="#FiraSans-Regular-30" x="154.799957"/>
      </g>
     </g>
    </g>
    <g id="text_18">
     <!-- date -->
     <g transform="translate(435.272941 201.787187) scale(0.1 -0.1)">
      <use xlink:href="#FiraSans-Regular-64"/>
      <use xlink:href="#FiraSans-Regular-61" x="59.799988"/>
      <use xlink:href="#FiraSans-Regular-74" x="114.199982"/>
      <use xlink:href="#FiraSans-Regular-65" x="150.299973"/>
     </g>
    </g>
   </g>
   <g id="matplotlib.axis_4">
    <g id="ytick_1">
     <g id="line2d_6">
      <defs>
       <path id="m731dd2249c" d="M 0 0 
L -3.5 0 
" style="stroke: #000000; stroke-width: 0.8"/>
      </defs>
      <g>
       <use xlink:href="#m731dd2249c" x="325.825569" y="170.9347" style="stroke: #000000; stroke-width: 0.8"/>
      </g>
     </g>
     <g id="text_19">
      <!-- 0 -->
      <g transform="translate(313.245881 174.6847) scale(0.1 -0.1)">
       <use xlink:href="#FiraSans-Regular-30"/>
      </g>
     </g>
    </g>
    <g id="ytick_2">
     <g id="line2d_7">
      <g>
       <use xlink:href="#m731dd2249c" x="325.825569" y="149.662821" style="stroke: #000000; stroke-width: 0.8"/>
      </g>
     </g>
     <g id="text_20">
      <!-- 100 -->
      <g transform="translate(303.336506 153.412821) scale(0.1 -0.1)">
       <use xlink:href="#FiraSans-Regular-31"/>
       <use xlink:href="#FiraSans-Regular-30" x="43.299988"/>
       <use xlink:href="#FiraSans-Regular-30" x="99.099976"/>
      </g>
     </g>
    </g>
    <g id="ytick_3">
     <g id="line2d_8">
      <g>
       <use xlink:href="#m731dd2249c" x="325.825569" y="128.390943" style="stroke: #000000; stroke-width: 0.8"/>
      </g>
     </g>
     <g id="text_21">
      <!-- 200 -->
      <g transform="translate(302.716194 132.140943) scale(0.1 -0.1)">
       <use xlink:href="#FiraSans-Regular-32"/>
       <use xlink:href="#FiraSans-Regular-30" x="49.499985"/>
       <use xlink:href="#FiraSans-Regular-30" x="105.299973"/>
      </g>
     </g>
    </g>
    <g id="ytick_4">
     <g id="line2d_9">
      <g>
       <use xlink:href="#m731dd2249c" x="325.825569" y="107.119065" style="stroke: #000000; stroke-width: 0.8"/>
      </g>
     </g>
     <g id="text_22">
      <!-- 300 -->
      <g transform="translate(302.675569 110.869065) scale(0.1 -0.1)">
       <defs>
        <path id="FiraSans-Regular-33" d="M 1440 4346 
C 979 4346 582 4179 218 3840 
L 525 3488 
C 813 3757 1069 3872 1408 3872 
C 1837 3872 2118 3622 2118 3219 
C 2118 2720 1766 2464 1344 2464 
L 1126 2464 
L 1056 2010 
L 1376 2010 
C 1894 2010 2227 1830 2227 1242 
C 2227 736 1901 403 1363 403 
C 1018 403 730 531 448 826 
L 96 499 
C 422 109 870 -77 1382 -77 
C 2272 -77 2842 486 2842 1235 
C 2842 1882 2413 2221 1875 2272 
C 2355 2387 2707 2714 2707 3258 
C 2707 3834 2259 4346 1440 4346 
z
" transform="scale(0.015625)"/>
       </defs>
       <use xlink:href="#FiraSans-Regular-33"/>
       <use xlink:href="#FiraSans-Regular-30" x="49.899994"/>
       <use xlink:href="#FiraSans-Regular-30" x="105.699982"/>
      </g>
     </g>
    </g>
    <g id="ytick_5">
     <g id="line2d_10">
      <g>
       <use xlink:href="#m731dd2249c" x="325.825569" y="85.847187" style="stroke: #000000; stroke-width: 0.8"/>
      </g>
     </g>
     <g id="text_23">
      <!-- 400 -->
      <g transform="translate(302.345881 89.597187) scale(0.1 -0.1)">
       <use xlink:href="#FiraSans-Regular-34"/>
       <use xlink:href="#FiraSans-Regular-30" x="53.199997"/>
       <use xlink:href="#FiraSans-Regular-30" x="108.999985"/>
      </g>
     </g>
    </g>
    <g id="ytick_6">
     <g id="line2d_11">
      <g>
       <use xlink:href="#m731dd2249c" x="325.825569" y="64.575308" style="stroke: #000000; stroke-width: 0.8"/>
      </g>
     </g>
     <g id="text_24">
      <!-- 500 -->
      <g transform="translate(302.656819 68.325308) scale(0.1 -0.1)">
       <use xlink:href="#FiraSans-Regular-35"/>
       <use xlink:href="#FiraSans-Regular-30" x="50.099991"/>
       <use xlink:href="#FiraSans-Regular-30" x="105.899979"/>
      </g>
     </g>
    </g>
    <g id="ytick_7">
     <g id="line2d_12">
      <g>
       <use xlink:href="#m731dd2249c" x="325.825569" y="43.30343" style="stroke: #000000; stroke-width: 0.8"/>
      </g>
     </g>
     <g id="text_25">
      <!-- 600 -->
      <g transform="translate(302.336506 47.05343) scale(0.1 -0.1)">
       <use xlink:href="#FiraSans-Regular-36"/>
       <use xlink:href="#FiraSans-Regular-30" x="53.299988"/>
       <use xlink:href="#FiraSans-Regular-30" x="109.099976"/>
      </g>
     </g>
    </g>
    <g id="ytick_8">
     <g id="line2d_13">
      <g>
       <use xlink:href="#m731dd2249c" x="325.825569" y="22.031552" style="stroke: #000000; stroke-width: 0.8"/>
      </g>
     </g>
     <g id="text_26">
      <!-- 700 -->
      <g transform="translate(303.225569 25.781552) scale(0.1 -0.1)">
       <use xlink:href="#FiraSans-Regular-37"/>
       <use xlink:href="#FiraSans-Regular-30" x="44.399994"/>
       <use xlink:href="#FiraSans-Regular-30" x="100.199982"/>
      </g>
     </g>
    </g>
    <g id="text_27">
     <!-- number of transactions -->
     <g transform="translate(296.206819 145.45375) rotate(-90) scale(0.1 -0.1)">
      <use xlink:href="#FiraSans-Regular-6e"/>
      <use xlink:href="#FiraSans-Regular-75" x="58.599991"/>
      <use xlink:href="#FiraSans-Regular-6d" x="116.799988"/>
      <use xlink:href="#FiraSans-Regular-62" x="202.499969"/>
      <use xlink:href="#FiraSans-Regular-65" x="261.899963"/>
      <use xlink:href="#FiraSans-Regular-72" x="316.399948"/>
      <use xlink:href="#FiraSans-Regular-20" x="354.999939"/>
      <use xlink:href="#FiraSans-Regular-6f" x="381.499924"/>
      <use xlink:href="#FiraSans-Regular-66" x="439.899918"/>
      <use xlink:href="#FiraSans-Regular-20" x="473.399902"/>
      <use xlink:href="#FiraSans-Regular-74" x="499.899887"/>
      <use xlink:href="#FiraSans-Regular-72" x="535.999878"/>
      <use xlink:href="#FiraSans-Regular-61" x="574.599869"/>
      <use xlink:href="#FiraSans-Regular-6e" x="628.999863"/>
      <use xlink:href="#FiraSans-Regular-73" x="687.599854"/>
      <use xlink:href="#FiraSans-Regular-61" x="734.29985"/>
      <use xlink:href="#FiraSans-Regular-63" x="788.699844"/>
      <use xlink:href="#FiraSans-Regular-74" x="836.499832"/>
      <use xlink:href="#FiraSans-Regular-69" x="872.599823"/>
      <use xlink:href="#FiraSans-Regular-6f" x="900.79982"/>
      <use xlink:href="#FiraSans-Regular-6e" x="959.199814"/>
      <use xlink:href="#FiraSans-Regular-73" x="1017.799805"/>
     </g>
    </g>
   </g>
   <g id="line2d_14">
    <path d="M 336.706225 87.761656 
L 346.59773 112.011597 
L 356.489236 88.825249 
L 366.380741 99.673907 
L 376.272247 20.54252 
L 386.163752 29.902147 
L 396.055257 18.202614 
L 405.946763 60.74637 
L 415.838268 73.509497 
L 425.729774 114.776941 
L 435.621279 102.013814 
L 445.512784 104.566439 
L 455.40429 86.91078 
L 465.295795 94.355938 
L 475.187301 108.820815 
L 485.078806 93.9305 
L 494.970312 101.801095 
L 504.861817 101.588376 
L 514.753322 102.013814 
L 524.644828 95.206813 
L 534.536333 116.265972 
L 544.427839 86.059905 
L 554.319344 76.912998 
" clip-path="url(#p547f2cf174)" style="fill: none; stroke: #ddcc77; stroke-width: 1.5; stroke-linecap: square"/>
   </g>
   <g id="line2d_15">
    <path d="M 336.706225 140.941351 
L 346.59773 149.024665 
L 356.489236 136.899694 
L 366.380741 141.792226 
L 376.272247 136.899694 
L 386.163752 134.13435 
L 396.055257 140.941351 
L 405.946763 137.750569 
L 415.838268 140.728632 
L 425.729774 143.493977 
L 435.621279 140.090476 
L 445.512784 140.728632 
L 455.40429 130.73085 
L 465.295795 135.8361 
L 475.187301 137.963288 
L 485.078806 137.750569 
L 494.970312 137.325132 
L 504.861817 131.581725 
L 514.753322 127.752787 
L 524.644828 131.581725 
L 534.536333 140.090476 
L 544.427839 127.752787 
L 554.319344 135.623382 
" clip-path="url(#p547f2cf174)" style="fill: none; stroke: #44aa99; stroke-width: 1.5; stroke-linecap: square"/>
   </g>
   <g id="line2d_16">
    <path d="M 336.706225 159.873323 
L 346.59773 161.787792 
L 356.489236 161.787792 
L 366.380741 159.447885 
L 376.272247 153.066322 
L 386.163752 150.939134 
L 396.055257 147.322915 
L 405.946763 147.322915 
L 415.838268 154.129916 
L 425.729774 160.29876 
L 435.621279 156.89526 
L 445.512784 154.980791 
L 455.40429 151.57729 
L 465.295795 150.513696 
L 475.187301 147.961071 
L 485.078806 152.002728 
L 494.970312 148.17379 
L 504.861817 146.684758 
L 514.753322 150.939134 
L 524.644828 142.430383 
L 534.536333 154.980791 
L 544.427839 140.090476 
L 554.319344 146.897477 
" clip-path="url(#p547f2cf174)" style="fill: none; stroke: #882255; stroke-width: 1.5; stroke-linecap: square"/>
   </g>
   <g id="line2d_17">
    <path d="M 336.706225 162.851386 
L 346.59773 166.042168 
L 356.489236 160.724198 
L 366.380741 161.149636 
L 376.272247 156.89526 
L 386.163752 157.746135 
L 396.055257 153.917197 
L 405.946763 153.491759 
L 415.838268 151.364572 
L 425.729774 162.213229 
L 435.621279 161.149636 
L 445.512784 159.873323 
L 455.40429 154.980791 
L 465.295795 156.89526 
L 475.187301 166.254886 
L 485.078806 163.489542 
L 494.970312 161.787792 
L 504.861817 160.086042 
L 514.753322 157.320697 
L 524.644828 144.557571 
L 534.536333 162.425948 
L 544.427839 163.702261 
L 554.319344 165.191292 
" clip-path="url(#p547f2cf174)" style="fill: none; stroke: #332288; stroke-width: 1.5; stroke-linecap: square"/>
   </g>
   <g id="patch_8">
    <path d="M 325.825569 173.6575 
L 325.825569 10.8 
" style="fill: none; stroke: #000000; stroke-width: 0.8; stroke-linejoin: miter; stroke-linecap: square"/>
   </g>
   <g id="patch_9">
    <path d="M 325.825569 173.6575 
L 565.2 173.6575 
" style="fill: none; stroke: #000000; stroke-width: 0.8; stroke-linejoin: miter; stroke-linecap: square"/>
   </g>
   <g id="legend_1">
    <g id="patch_10">
     <path d="M 334.034691 29.65053 
L 559.369 29.65053 
Q 561.035 29.65053 561.035 27.98453 
L 561.035 16.631 
Q 561.035 14.965 559.369 14.965 
L 334.034691 14.965 
Q 332.368691 14.965 332.368691 16.631 
L 332.368691 27.98453 
Q 332.368691 29.65053 334.034691 29.65053 
z
" style="fill: #ffffff; opacity: 0.8; stroke: #cccccc; stroke-linejoin: miter"/>
    </g>
    <g id="line2d_18">
     <path d="M 335.700691 21.629 
L 344.030691 21.629 
L 352.360691 21.629 
" style="fill: none; stroke: #ddcc77; stroke-width: 1.5; stroke-linecap: square"/>
    </g>
    <g id="text_28">
     <!-- Small -->
     <g transform="translate(359.024691 24.5445) scale(0.0833 -0.0833)">
      <use xlink:href="#FiraSans-Regular-53"/>
      <use xlink:href="#FiraSans-Regular-6d" x="54.499985"/>
      <use xlink:href="#FiraSans-Regular-61" x="140.199966"/>
      <use xlink:href="#FiraSans-Regular-6c" x="194.59996"/>
      <use xlink:href="#FiraSans-Regular-6c" x="223.899948"/>
     </g>
    </g>
    <g id="line2d_19">
     <path d="M 383.448511 21.629 
L 391.778511 21.629 
L 400.108511 21.629 
" style="fill: none; stroke: #44aa99; stroke-width: 1.5; stroke-linecap: square"/>
    </g>
    <g id="text_29">
     <!-- Medium -->
     <g transform="translate(406.772511 24.5445) scale(0.0833 -0.0833)">
      <use xlink:href="#FiraSans-Regular-4d"/>
      <use xlink:href="#FiraSans-Regular-65" x="77.799988"/>
      <use xlink:href="#FiraSans-Regular-64" x="132.299973"/>
      <use xlink:href="#FiraSans-Regular-69" x="192.09996"/>
      <use xlink:href="#FiraSans-Regular-75" x="220.299957"/>
      <use xlink:href="#FiraSans-Regular-6d" x="278.499954"/>
     </g>
    </g>
    <g id="line2d_20">
     <path d="M 440.442631 21.629 
L 448.772631 21.629 
L 457.102631 21.629 
" style="fill: none; stroke: #882255; stroke-width: 1.5; stroke-linecap: square"/>
    </g>
    <g id="text_30">
     <!-- Large -->
     <g transform="translate(463.766631 24.5445) scale(0.0833 -0.0833)">
      <use xlink:href="#FiraSans-Regular-4c"/>
      <use xlink:href="#FiraSans-Regular-61" x="49.799988"/>
      <use xlink:href="#FiraSans-Regular-72" x="104.199982"/>
      <use xlink:href="#FiraSans-Regular-67" x="142.799973"/>
      <use xlink:href="#FiraSans-Regular-65" x="194.799957"/>
     </g>
    </g>
    <g id="line2d_21">
     <path d="M 487.865061 21.629 
L 496.195061 21.629 
L 504.525061 21.629 
" style="fill: none; stroke: #332288; stroke-width: 1.5; stroke-linecap: square"/>
    </g>
    <g id="text_31">
     <!-- Institutional -->
     <g transform="translate(511.189061 24.5445) scale(0.0833 -0.0833)">
      <use xlink:href="#FiraSans-Regular-49"/>
      <use xlink:href="#FiraSans-Regular-6e" x="29.499985"/>
      <use xlink:href="#FiraSans-Regular-73" x="88.099976"/>
      <use xlink:href="#FiraSans-Regular-74" x="134.799973"/>
      <use xlink:href="#FiraSans-Regular-69" x="170.899963"/>
      <use xlink:href="#FiraSans-Regular-74" x="199.09996"/>
      <use xlink:href="#FiraSans-Regular-75" x="235.199951"/>
      <use xlink:href="#FiraSans-Regular-74" x="293.399948"/>
      <use xlink:href="#FiraSans-Regular-69" x="329.499939"/>
      <use xlink:href="#FiraSans-Regular-6f" x="357.699936"/>
      <use xlink:href="#FiraSans-Regular-6e" x="416.09993"/>
      <use xlink:href="#FiraSans-Regular-61" x="474.699921"/>
      <use xlink:href="#FiraSans-Regular-6c" x="529.099915"/>
     </g>
    </g>
   </g>
  </g>
 </g>
 <defs>
  <clipPath id="p547f2cf174">
   <rect x="325.825569" y="10.8" width="239.374431" height="162.8575"/>
  </clipPath>
 </defs>
</svg>
